<svg width="84" height="62" viewBox="0 0 84 62" fill="none" xmlns="http://www.w3.org/2000/svg">
<g clip-path="url(#clip0_2469_50953)">
<path d="M28.6657 49.3298C28.6012 49.3941 28.5368 49.5228 28.4724 49.5228L28.6657 49.3298Z" fill="#1D1D1B"/>
<path d="M30.5981 34.1515C30.7914 34.1515 30.9846 33.9586 30.9846 33.7656C30.9846 33.5084 30.8558 33.3154 30.5981 33.3154C30.3405 33.3154 30.1472 33.4441 30.1472 33.7013C30.1472 33.7656 30.1472 33.7656 30.1472 33.83C30.2116 34.0229 30.3405 34.1515 30.5981 34.1515Z" fill="#1D1D1B"/>
<path d="M49.408 17.0435H34.7853V28.8775C34.7853 30.0352 35.3006 30.9999 35.9448 31.3215L41.6135 34.6659C41.7423 34.7945 41.9356 34.9231 42.1288 34.9231C42.3221 34.9231 42.4509 34.8588 42.5798 34.7302L48.3129 31.3215C48.9571 30.9999 49.4724 30.0352 49.4724 28.8775L49.408 17.0435ZM39.681 20.4522H38.3926V17.4293H39.681V20.4522ZM38.7147 21.4812L38.908 21.2883L38.7791 21.0953H39.0368L39.1656 20.8381L39.2945 21.0953H39.5522L39.4233 21.2883L39.6166 21.4812L39.3589 21.5455V21.8028L39.1656 21.6742L38.9724 21.8028V21.5455L38.7147 21.4812ZM35.1718 25.2758V22.3816H36.7178V25.2758H35.1718ZM35.4295 21.0953H35.6871L35.816 20.8381L35.9448 21.0953H36.2025L36.0736 21.2883L36.2669 21.4812L36.0736 21.5455V21.8028L35.8804 21.6742L35.6871 21.8028V21.5455L35.4295 21.4812L35.6227 21.2883L35.4295 21.0953ZM37.1687 24.0538H37.4264L37.5552 23.7966L37.6841 24.0538H37.9417L37.8129 24.2468L38.0061 24.4397H37.8129V24.697L37.6196 24.5684L37.362 24.697V24.4397H37.1043L37.2975 24.2468L37.1687 24.0538ZM38.1994 21.7385C38.1994 21.6742 38.0706 21.6098 38.0706 21.6098C38.0706 21.6098 37.8773 21.8671 37.7485 21.8671C37.6196 21.8671 37.6196 21.8671 37.6196 21.8028C37.6196 21.7385 37.8129 21.6742 37.8773 21.6098C36.911 21.6098 36.911 22.0601 36.7822 22.0601C36.5245 22.0601 36.9755 21.6098 37.1043 21.4812C36.911 21.4812 36.7822 21.224 36.589 21.0953C36.7178 20.9667 36.7178 21.031 36.8466 21.0953C36.8466 20.9667 36.911 20.9024 37.1687 20.9024C37.6196 20.9024 37.4908 21.2883 37.5552 21.2883C37.6196 21.2883 37.5552 20.9024 37.8129 20.9024C38.2638 20.9024 38.7791 21.9957 38.2638 21.9957C38.0706 21.8671 38.1994 21.7385 38.1994 21.7385ZM37.1043 18.587L37.2975 18.3941L37.1687 18.2011H37.4264L37.5552 17.9439L37.6841 18.2011H37.9417L37.8129 18.3941L38.0061 18.587L37.7485 18.6513V18.9086L37.5552 18.78L37.362 18.8443V18.6513L37.1043 18.587ZM36.7178 17.4293V20.4522H35.1718V17.4293H36.7178ZM39.681 33.058L36.2025 30.9999C35.6227 30.5497 35.2362 29.8422 35.2362 29.0704V25.726H39.681V33.058ZM38.3926 25.2758V22.3816H39.681V25.2758H38.3926ZM44.1902 33.2509L42.5153 34.2157C42.3865 34.28 42.2577 34.3443 42.0644 34.3443C41.9356 34.3443 41.7423 34.28 41.6135 34.2157L40.0031 33.2509V25.726H44.1258L44.1902 33.2509ZM44.1902 25.2758H40.0675V17.4293H44.1902V25.2758ZM49.0215 29.0061C49.0215 29.7779 48.635 30.4854 48.0552 30.9356L44.5767 33.058V25.726H49.0215V29.0061ZM49.0215 25.2758H44.5767V17.4293H49.0215V25.2758Z" fill="#1D1D1B"/>
<path d="M39.4233 28.3631C39.4233 28.2987 38.8435 28.556 39.0368 28.4917C39.1656 28.2344 39.2944 28.0415 39.4877 27.9129C39.4877 27.7199 39.23 27.9129 38.9724 28.0415C39.8098 26.8838 39.2944 27.334 38.7791 27.3983C39.5521 26.6266 39.3589 26.6266 38.7791 26.8838C39.23 26.5622 39.2944 26.112 39.23 26.0477C38.8435 26.5622 38.457 26.4979 38.457 27.0124C38.457 27.3983 38.3282 27.7199 38.1993 28.0415C38.0061 28.2987 38.1349 27.1411 37.5552 27.1411C37.3619 27.1411 36.911 27.1411 36.8466 27.334C36.9754 27.334 37.1043 27.6556 37.1043 27.7199C37.1043 27.7842 37.2331 28.1701 37.0398 28.1701C36.8466 28.1701 36.6533 27.7842 36.6533 27.5913C36.6533 27.3983 36.6533 27.4627 36.6533 27.1411C36.6533 26.6909 35.8803 25.9834 35.5582 25.9834C35.5582 26.305 36.0092 26.3693 36.0092 26.8195C35.8159 26.8195 35.5582 26.4979 35.5582 26.6909C35.5582 26.8838 35.8159 26.9481 35.8159 27.1411C35.8159 27.334 35.4294 27.0768 35.4294 27.2697C35.4294 27.4627 35.6227 27.3983 35.6227 27.5913C35.4938 27.527 35.365 27.5913 35.365 27.6556C35.365 27.7199 35.4294 27.7842 35.4938 27.8485C35.4294 27.9129 35.4294 27.9772 35.4294 28.2988C35.4294 29.1992 36.0092 29.6494 36.4601 29.6494C36.7822 29.6494 36.7177 29.4564 36.7822 29.3278C36.7822 29.4564 36.911 29.2635 36.911 29.5207C36.911 29.778 36.5889 29.6494 36.5889 29.9066C36.5889 30.1639 37.0398 29.9066 37.0398 30.2925C37.0398 30.4855 37.0398 30.7427 36.9754 30.9357C36.9754 31.0643 37.4908 30.807 37.4263 30.7427C37.5552 30.807 37.5552 31.1286 37.7484 31.1286C37.9417 31.1286 37.9417 30.7427 38.0061 30.7427C37.9417 30.7427 38.457 31.0643 38.457 30.9357C38.457 30.4855 38.2638 30.6784 38.2638 30.4212C38.2638 30.1639 38.8435 30.2282 38.7791 30.0353C38.7147 29.8423 38.6503 29.9709 38.5858 29.778C38.5858 29.8423 38.1349 29.0705 38.6503 29.4564C39.1656 29.8423 39.4233 28.4274 39.4233 28.3631Z" fill="#1D1D1B"/>
<path d="M55.0123 31.5146C55.27 31.5146 55.3988 31.2573 55.3988 31.0644C55.3988 30.8071 55.1412 30.6785 54.9479 30.6785C54.7547 30.6785 54.5614 30.8714 54.5614 31.1287C54.5614 31.3216 54.8191 31.5146 55.0123 31.5146Z" fill="#1D1D1B"/>
<path d="M53.0797 32.6078C53.3374 32.6078 53.4662 32.3506 53.4662 32.1576C53.4662 31.9004 53.2085 31.7717 53.0153 31.7717C52.822 31.7717 52.6288 31.9647 52.6288 32.2219C52.6288 32.4149 52.822 32.6078 53.0797 32.6078Z" fill="#1D1D1B"/>
<path d="M29.954 35.3092C30.2116 35.3092 30.3405 35.052 30.3405 34.859C30.3405 34.6018 30.0828 34.4731 29.8896 34.4731C29.6963 34.4731 29.5031 34.6661 29.5031 34.859C29.5031 35.1163 29.6963 35.3092 29.954 35.3092Z" fill="#1D1D1B"/>
<path d="M31.4355 35.4377C31.6932 35.4377 31.822 35.1804 31.822 34.9875C31.822 34.7302 31.5644 34.6016 31.3711 34.6016C31.1779 34.6016 30.9846 34.7945 30.9846 35.0518C30.9846 35.2447 31.1779 35.4377 31.4355 35.4377Z" fill="#1D1D1B"/>
<path d="M73.1135 15.2427C73.8221 16.1431 73.951 17.3651 73.5 18.4584C73.2424 18.4584 73.2424 18.0725 73.2424 17.8796C72.727 16.9149 72.3405 15.7572 72.7914 14.6638C73.0491 14.6638 72.9203 15.114 73.1135 15.2427Z" fill="#1D1D1B"/>
<path d="M11.9816 16.4003C11.8528 17.0435 11.8528 17.751 11.9816 18.4584C11.8528 18.5871 11.8528 18.3298 11.7884 18.3298C10.7577 17.6223 11.273 16.2074 11.0154 15.1784C11.0798 15.114 11.2086 15.0497 11.273 15.114C11.5951 15.4356 11.9172 15.8858 11.9816 16.4003Z" fill="#1D1D1B"/>
<path d="M75.3037 16.4646C75.4326 16.7219 75.1749 17.0435 74.9816 17.1721C74.724 17.2364 74.4663 17.1078 74.3375 16.9148C74.273 16.6576 74.4019 16.4003 74.6595 16.2717C74.9172 16.2074 75.1749 16.2717 75.3037 16.4646Z" fill="#1D1D1B"/>
<path d="M10.3712 17.6224C10.3712 17.8796 10.2423 18.0726 10.0491 18.2012C9.92025 18.2012 9.66258 18.2012 9.53374 18.0726C9.40491 17.9439 9.34049 17.6867 9.40491 17.558C9.53374 17.4294 9.727 17.3008 9.92025 17.3008C10.1135 17.3651 10.3068 17.3651 10.3712 17.6224Z" fill="#1D1D1B"/>
<path d="M76.3344 18.0082C76.3988 18.1369 76.3988 18.2655 76.3344 18.3941C76.2056 18.6514 75.8835 18.7157 75.6258 18.6514C75.497 18.5228 75.3682 18.3941 75.3682 18.2012C75.4326 18.0082 75.6258 17.8153 75.8191 17.751C76.0123 17.8153 76.2056 17.8796 76.3344 18.0082Z" fill="#1D1D1B"/>
<path d="M74.8528 18.0727C75.0461 18.2013 74.9172 18.4586 74.8528 18.5872C74.724 18.7158 74.5307 18.9088 74.3375 18.8445C74.2086 18.7158 74.0798 18.7158 74.0154 18.5229C74.0154 18.2656 74.1442 18.0084 74.4019 17.944C74.5307 17.8797 74.6595 18.0084 74.8528 18.0727Z" fill="#1D1D1B"/>
<path d="M72.9846 18.4586C72.9846 18.7158 72.9846 19.1017 72.6626 19.166C72.4049 19.2303 72.1472 19.1017 72.0828 18.8445C72.0184 18.5872 72.2116 18.3299 72.4693 18.2013C72.6626 18.137 72.8558 18.2656 72.9846 18.4586Z" fill="#1D1D1B"/>
<path d="M13.2055 18.5871C13.27 18.8444 13.0123 18.973 12.8834 19.1017C12.6902 19.1017 12.4969 19.0374 12.3681 18.8444C12.1749 18.6515 12.4325 18.5228 12.4969 18.3299C12.6902 18.2013 13.0123 18.2013 13.1411 18.3942C13.1411 18.4585 13.1411 18.5228 13.2055 18.5871Z" fill="#1D1D1B"/>
<path d="M11.6595 18.6514C11.6595 18.8443 11.5306 19.0373 11.4018 19.1659C11.2085 19.2302 11.0153 19.1016 10.8865 18.9086C10.7576 18.7157 10.8865 18.4584 11.0797 18.3298C11.3374 18.2012 11.5306 18.4584 11.6595 18.6514Z" fill="#1D1D1B"/>
<path d="M66.8007 18.7801C67.0583 19.359 67.2516 20.0021 67.316 20.6453C67.1872 21.1598 67.3804 21.8029 67.0583 22.1245C66.6718 21.9959 66.6718 21.5457 66.4786 21.3527C66.0277 20.4523 66.4142 19.4233 66.6074 18.5229C66.7363 18.3942 66.7363 18.6515 66.8007 18.7801Z" fill="#1D1D1B"/>
<path d="M10.4356 19.0373C10.5 19.3588 10.3067 19.4875 10.1135 19.6804C9.79138 19.7447 9.59813 19.5518 9.4693 19.2945C9.40488 19.0373 9.53371 18.78 9.79138 18.6514C10.0491 18.6514 10.3711 18.78 10.4356 19.0373Z" fill="#1D1D1B"/>
<path d="M70.8589 19.8092C71.181 20.581 71.2454 21.4814 70.9878 22.2532L70.8589 22.3818C70.408 21.7387 70.0859 21.0312 69.8282 20.3238C69.8282 19.8092 69.9571 19.2947 70.1503 18.8445C70.3436 18.7159 70.408 18.8445 70.5368 19.0374C70.4724 19.359 70.6013 19.6163 70.8589 19.8092Z" fill="#1D1D1B"/>
<path d="M74.0797 19.3589C74.0797 19.6161 73.9509 19.8734 73.6932 20.002C73.4355 20.0664 73.1779 19.9377 73.1134 19.6805C73.049 19.4232 73.1779 19.1659 73.3711 19.0373C73.6932 18.9087 73.9509 19.1659 74.0797 19.3589Z" fill="#1D1D1B"/>
<path d="M11.6595 20.1306C11.6595 20.3879 11.4662 20.5808 11.273 20.6451C11.0797 20.7738 10.8865 20.5165 10.7576 20.4522C10.6288 20.2593 10.6288 20.0663 10.7576 19.8734C10.8221 19.7447 11.0153 19.7447 11.1441 19.6804C11.4018 19.8091 11.5951 19.8734 11.6595 20.1306Z" fill="#1D1D1B"/>
<path d="M12.819 20.0022C12.9478 20.2594 12.6257 20.3881 12.5613 20.5167C12.2392 20.6453 12.1104 20.3881 11.9816 20.1951C11.9816 19.9379 12.046 19.7449 12.2392 19.6163C12.4969 19.552 12.6902 19.8092 12.819 20.0022Z" fill="#1D1D1B"/>
<path d="M74.7883 19.9377C74.7883 20.2593 74.273 20.5809 74.2086 20.9668C73.8865 21.6743 73.3068 22.1888 72.5982 22.3817C72.4693 22.5747 72.2117 22.639 72.0184 22.7033C71.954 22.1888 72.4049 21.7386 72.727 21.2884C73.2423 20.6452 73.9509 20.1307 74.7883 19.9377Z" fill="#1D1D1B"/>
<path d="M11.1441 21.031C11.4662 21.4813 11.7883 21.8671 12.1748 22.253C12.1748 22.3817 12.1104 22.5103 12.046 22.5103C10.822 22.446 9.98463 21.1597 9.34045 20.2593C9.40487 20.002 9.72696 20.1949 9.92021 20.1949C10.3711 20.5165 10.822 20.5808 11.1441 21.031Z" fill="#1D1D1B"/>
<path d="M75.1749 21.3528C75.1749 22.5105 74.5307 23.5395 73.5644 24.1183C73.3068 24.247 72.9847 24.5042 72.6626 24.3113C73.2424 23.2179 74.0154 22.1889 74.9172 21.3528H75.1749Z" fill="#1D1D1B"/>
<path d="M70.2148 22.1244C70.2792 22.446 70.0859 22.7676 69.7638 22.8962C69.5062 22.8962 69.3129 22.7033 69.1841 22.5103C69.1841 22.2531 69.3129 21.9958 69.5706 21.9315C69.635 21.8672 69.7638 21.8672 69.8927 21.8672C70.0215 21.8672 70.0859 21.9958 70.2148 22.1244Z" fill="#1D1D1B"/>
<path d="M9.79142 22.3816C10.3068 22.7675 10.7577 23.1534 11.1442 23.6036C10.8221 23.8609 10.3712 23.6036 10.0491 23.6036C9.21166 23.2821 8.56749 22.5746 7.66565 22.3173C7.66565 22.0601 8.05215 22.1244 8.18099 22.0601C8.76074 22.0601 9.27608 22.1244 9.79142 22.3816Z" fill="#1D1D1B"/>
<path d="M37.1043 14.7926C35.6871 14.2138 34.7208 15.693 33.2393 15.5644C33.046 15.693 33.1104 15.8216 32.9816 15.9503C32.8528 16.0789 32.7883 15.9503 32.7239 15.9503C32.6595 15.3071 32.4662 14.7926 32.3374 14.1494C32.2086 13.8922 32.273 13.5063 32.1442 13.249C31.3067 10.998 34.1411 12.7345 34.7208 11.3839C35.2362 10.2262 33.7546 10.0976 33.3681 9.32579V9.00421C32.9816 8.61832 32.5307 8.48969 32.273 7.91085C32.4662 7.2677 32.5307 6.56023 32.3374 5.91707C32.3374 5.78844 32.2086 5.53118 31.9509 5.65981C31.4356 6.30297 31.1135 6.8818 30.6626 7.52496C30.2116 7.13907 29.6963 6.75317 29.181 6.4316C28.7945 6.36728 28.408 5.98139 28.0215 6.17434C27.957 6.30297 28.0215 6.4316 28.0859 6.56023C28.1503 7.52496 28.6012 8.42537 29.3742 9.00421L29.4386 9.3901C28.9877 10.4191 29.1166 11.6411 28.9877 12.7988C27.8282 15.8216 25.9601 18.5229 23.4478 20.581C21.9662 22.1889 20.227 23.7967 20.0337 26.1121C19.9693 26.498 20.0982 26.8839 19.7761 27.1411C18.9386 26.8196 18.1012 26.4337 17.3926 25.8548C16.2331 25.0187 14.5583 25.1474 13.7853 23.6681C13.4632 23.0893 13.8497 22.5104 14.1718 22.0602C15.0092 21.2241 14.9448 19.8092 14.4294 18.7801C14.3006 18.7801 14.3006 18.9088 14.2362 18.9088C14.1718 20.4523 12.9478 21.4814 13.3988 23.1536C13.5276 23.6681 13.7853 23.9254 13.9141 24.4399C13.7208 24.4399 13.5276 24.3756 13.3343 24.3113C12.7546 24.1826 12.1748 24.054 11.5951 24.054C10.4356 24.5685 8.82514 23.9254 7.85889 25.0187C7.73005 25.0187 7.47238 25.083 7.5368 25.276C8.11655 25.276 8.63189 25.4046 9.21165 25.4046C10.1135 25.5333 10.6932 24.8258 11.273 24.5042H11.4018C11.6595 24.2469 12.1104 24.3756 12.4325 24.3756C14.0429 24.5685 15.2669 25.3403 16.6196 26.1121V26.2407C16.1043 26.498 15.5245 26.6266 15.0092 26.8839C14.365 27.2698 13.8497 27.9129 13.592 28.6204C13.2055 29.2635 13.7208 29.8424 13.9785 30.3569C13.9785 30.6142 14.0429 30.9357 14.2362 31.0001C15.0736 30.0996 14.3006 29.0706 14.4294 28.0416C14.6871 27.3341 15.3313 26.8196 16.1043 26.6909C17.5859 26.0478 18.6166 27.2698 19.7761 27.9129C19.8405 29.0706 19.7761 30.2283 19.6472 31.386C19.2607 31.5146 18.8742 31.5789 18.4233 31.5789C16.4264 31.7075 14.8159 32.8652 13.0123 33.444C12.1748 33.7013 11.2086 33.7013 10.4356 34.0229C11.0797 34.0872 11.7883 34.0872 12.4325 33.9586C14.9448 33.5727 16.8773 31.6432 19.5828 32.0291L19.6472 32.0934C19.3251 32.7366 18.9386 33.2511 18.4233 33.7656C18.3589 33.5084 18.2945 33.2511 18.0368 33.1225C17.8435 33.0582 17.5859 33.1225 17.457 33.3154C17.3926 33.444 17.3926 33.5727 17.457 33.7013C17.5859 33.8943 17.7791 34.0229 18.0368 34.0872C17.9724 34.3445 17.7147 34.4088 17.5215 34.6017C16.8129 35.8237 15.3313 35.3092 14.4939 36.1453C14.365 36.3382 13.9141 36.4025 14.1074 36.7241C15.0092 36.8528 15.9754 36.5955 16.7485 36.081C17.7147 35.0519 18.681 34.0229 19.6472 32.9938C19.7761 33.8299 19.5828 34.666 19.0675 35.3092C18.8742 35.1806 18.6166 35.0519 18.3589 34.9233C18.1012 34.9876 17.9724 35.1806 17.908 35.4378C17.9724 35.6308 18.1012 35.8237 18.2945 35.9523C17.457 36.5955 16.362 36.5955 15.3313 36.9171C13.4632 37.1743 11.5951 37.303 9.72698 37.303C8.82514 37.2386 7.79447 37.5602 6.95705 37.303C5.99079 37.4959 4.96011 37.1743 4.12269 37.6889C3.99386 37.8175 4.12269 37.9461 4.12269 38.0747C5.2822 38.8465 6.89263 38.2034 8.24539 38.4606H18.3589C19.0675 38.525 19.7761 38.3963 20.4202 38.0747C21.7086 37.303 22.4172 36.0167 23.1258 34.666C23.3834 34.1515 23.5767 33.637 23.6411 33.1225C23.8988 32.2864 24.6718 31.6432 25.5736 31.5789C25.638 32.8652 25.5092 34.2158 25.1227 35.5021C24.9939 36.3382 24.4141 37.11 24.7362 38.0104C24.8006 38.3963 25.2515 38.3963 25.5736 38.4606C28.6656 38.3963 31.7577 38.2677 35.0429 38.525C35.6227 38.6536 36.2024 38.7822 36.7822 38.7822C36.8466 38.7179 37.0399 38.6536 36.911 38.525C36.8466 38.2034 36.5889 37.8818 36.2669 37.8175C36.2024 37.6889 36.0092 37.6889 35.8804 37.6245C34.2699 36.7241 32.273 37.1743 30.3405 37.2387C29.3098 37.3673 28.3435 37.4959 27.5061 36.9814C27.1196 36.5312 27.3773 35.0519 27.3773 35.0519C27.7638 33.3797 28.3435 31.7075 28.9877 30.0996C29.1166 29.7138 29.1166 29.3279 29.1166 28.942C29.2454 28.3631 29.3098 27.7843 29.2454 27.2055C29.4386 26.3694 29.6963 25.5976 30.0184 24.8258C30.1472 24.4399 30.2761 24.054 30.4693 23.6681C30.5337 23.2179 30.727 22.7677 30.9847 22.3175C31.8221 22.832 32.6595 22.832 33.046 23.7967L33.4325 25.9191C33.4325 26.0478 33.5613 26.305 33.6902 26.1764C34.3343 25.7262 34.1411 24.7615 34.1411 24.1183C34.2699 23.3465 33.7546 22.9606 33.4969 22.2532C33.3037 22.0602 33.1748 21.803 33.046 21.4814C32.9172 20.9026 31.6932 20.5167 32.0153 19.8092C32.0797 19.2304 32.4018 18.7158 32.9172 18.3299C32.9816 18.3943 33.046 18.4586 33.046 18.5229L33.3681 18.3299V16.2075C34.2055 16.2075 35.4294 16.3362 36.2669 16.3362C36.5245 16.4005 36.6534 16.5934 36.911 16.5934L37.1043 16.3362L39.1656 15.9503C38.457 15.7573 37.8773 14.7283 37.1043 14.7926Z" fill="#1D1D1B"/>
<path d="M17.135 22.8318C17.135 23.0891 17.0061 23.3464 16.7485 23.4107C16.5552 23.3464 16.362 23.282 16.2331 23.0891C16.1043 22.8961 16.362 22.5746 16.6196 22.5103C16.8129 22.5746 17.0705 22.5746 17.135 22.8318Z" fill="#1D1D1B"/>
<path d="M15.4602 22.832C15.589 22.9606 15.6534 23.2179 15.589 23.4109C15.3957 23.5395 15.1381 23.6681 14.9448 23.4752C14.7516 23.2822 14.6227 23.1536 14.7516 22.9606C14.8804 22.7677 15.2025 22.6391 15.4602 22.832Z" fill="#1D1D1B"/>
<path d="M70.4724 23.5395C70.6012 23.7968 70.3436 24.054 70.1503 24.1183C69.8926 24.054 69.5706 23.9897 69.5706 23.6681C69.635 23.4109 69.8926 23.2179 70.1503 23.2822C70.2791 23.2822 70.408 23.4109 70.4724 23.5395Z" fill="#1D1D1B"/>
<path d="M71.8252 23.475C71.8896 23.6037 72.0828 23.7966 71.8896 23.9253C71.8252 23.9896 71.6963 24.0539 71.6319 24.1182C71.3743 24.1825 71.1166 24.0539 70.9877 23.7966C70.9233 23.5394 71.181 23.4107 71.3743 23.2821C71.5675 23.1535 71.6963 23.4107 71.8252 23.475Z" fill="#1D1D1B"/>
<path d="M9.01845 23.7967C8.95404 24.054 8.69637 24.247 8.4387 24.1826H8.37428C8.30986 24.054 8.24545 23.9897 8.18103 23.8611C8.18103 23.6681 8.30986 23.4752 8.4387 23.4109C8.69637 23.3465 8.95404 23.4752 9.01845 23.7967Z" fill="#1D1D1B"/>
<path d="M17.6503 24.2469C17.6503 24.4399 17.3926 24.6328 17.1994 24.7615C16.9417 24.7615 16.7485 24.6328 16.6196 24.3756C16.6196 24.1826 16.7485 23.9254 16.9417 23.861C17.2638 23.7967 17.5859 23.9254 17.6503 24.2469Z" fill="#1D1D1B"/>
<path d="M16.1687 24.0539C16.2975 24.1825 16.2975 24.3112 16.2331 24.4398C16.1043 24.5684 15.8466 24.8257 15.5889 24.6327C15.4601 24.5041 15.2669 24.3755 15.3313 24.1182C15.4601 23.9896 15.5889 23.8609 15.7178 23.7966C15.911 23.7966 15.9754 23.9253 16.1687 24.0539Z" fill="#1D1D1B"/>
<path d="M75.7546 24.3755C75.7546 24.5685 75.6257 24.7614 75.4325 24.8901C75.2392 24.9544 74.9815 24.8901 74.8527 24.7614C74.7239 24.6971 74.7239 24.5042 74.7239 24.3755C74.8527 24.1826 75.046 24.1183 75.2392 24.054C75.4325 24.054 75.6257 24.1826 75.7546 24.3755Z" fill="#1D1D1B"/>
<path d="M77.4294 24.5684C77.365 24.8257 77.1718 24.9543 76.9141 25.0186C76.7853 25.0186 76.4632 24.9543 76.5276 24.697C76.5276 24.4398 76.7208 24.2468 76.9141 24.2468C77.1718 24.2468 77.365 24.3755 77.4294 24.5684Z" fill="#1D1D1B"/>
<path d="M11.9816 24.9543C12.1104 25.2115 11.9171 25.4688 11.7239 25.5974C11.5306 25.7261 11.3374 25.5974 11.2085 25.4688C11.0797 25.3402 11.0153 25.1472 11.0797 24.9543C11.1441 24.697 11.3374 24.7613 11.5306 24.697C11.6595 24.697 11.8527 24.8257 11.9816 24.9543Z" fill="#1D1D1B"/>
<path d="M13.2056 25.2116C13.27 25.4046 13.0767 25.4689 13.0123 25.6618C12.8835 25.7262 12.6902 25.7262 12.5614 25.6618C12.3681 25.5332 12.1749 25.276 12.3681 25.0187C12.5614 24.6328 13.0767 24.8257 13.2056 25.2116Z" fill="#1D1D1B"/>
<path d="M74.2731 25.0829C74.2731 25.3402 74.0798 25.5332 73.8866 25.6618C73.6933 25.7261 73.4356 25.5975 73.3712 25.3402C73.3712 25.1473 73.5001 24.9543 73.6289 24.8257C73.8866 24.8257 74.1442 24.89 74.2731 25.0829Z" fill="#1D1D1B"/>
<path d="M76.3343 25.4688C76.2699 25.7261 76.3343 25.9833 76.0766 26.112C75.8834 26.1763 75.6257 26.112 75.4969 25.9834C75.368 25.8547 75.3036 25.5975 75.368 25.4688C75.4969 25.2116 75.7545 25.0829 76.0122 25.1472C76.1411 25.2759 76.2055 25.4045 76.3343 25.4688Z" fill="#1D1D1B"/>
<path d="M11.0153 25.9834C11.1441 26.1764 10.8864 26.2407 10.822 26.3693C10.6288 26.4336 10.4355 26.4336 10.3067 26.305C10.1134 26.1764 10.1779 25.9191 10.2423 25.7905C10.4355 25.4046 10.8864 25.7262 11.0153 25.9834Z" fill="#1D1D1B"/>
<path d="M74.7239 26.4978C74.8527 26.4978 74.7883 26.6908 74.7239 26.6908C74.0797 27.0767 73.2423 27.0123 72.6625 26.5621C72.3404 26.3692 72.0183 26.1763 71.6318 25.9833C71.7607 25.6617 72.2116 25.6617 72.5337 25.5974C73.3067 25.7904 73.8864 26.4978 74.7239 26.4978Z" fill="#1D1D1B"/>
<path d="M12.2393 26.2407C12.3037 26.4336 12.1105 26.4979 12.1105 26.6909C12.1105 26.8838 11.7884 26.8195 11.6596 26.7552C11.4663 26.6909 11.3375 26.4336 11.4019 26.1763C11.4663 25.9834 11.724 25.8548 11.9816 25.9191C12.1105 25.9834 12.1749 26.112 12.2393 26.2407Z" fill="#1D1D1B"/>
<path d="M14.4294 26.4336C14.4939 26.6265 14.365 26.8838 14.1718 27.0124C13.9785 27.1411 13.8497 26.9481 13.6564 26.9481C13.5276 26.7552 13.2699 26.5622 13.5276 26.3693C13.8497 25.9191 14.3006 26.112 14.4294 26.4336Z" fill="#1D1D1B"/>
<path d="M43.997 27.5271C43.9326 28.0416 43.0951 27.4627 43.224 28.1059C43.2884 28.6204 43.4816 29.1349 43.7393 29.5208C43.997 29.8424 43.8681 30.4213 43.8037 30.8071C43.5461 31.193 43.224 31.4503 42.8375 31.6432C42.1289 31.5789 41.0338 32.0291 40.7117 31.1287C40.5184 30.7428 40.3896 30.3569 40.3252 29.9067C40.3896 29.8424 40.5184 29.8424 40.5829 29.7781C40.6473 29.7138 40.3896 29.5208 40.3896 29.3279C41.227 29.1993 40.0675 28.4275 40.7761 28.4275C41.3559 29.0706 42.3221 28.8134 42.8375 29.5208C42.9663 29.6495 43.0951 29.7138 43.224 29.8424C43.1596 29.1993 42.8375 28.6204 42.7086 27.9773C42.6442 27.6557 42.773 27.3341 42.9663 27.1412C43.4172 26.7553 43.7393 27.2055 43.997 27.5271Z" fill="#1D1D1B"/>
<path d="M16.684 27.3339C16.7484 27.5912 16.5552 27.7198 16.4264 27.8484C16.2975 27.9771 16.0399 27.7198 15.9754 27.5912C15.911 27.3339 16.1043 27.2053 16.2331 27.0767C16.4264 27.0767 16.6196 27.2053 16.684 27.3339Z" fill="#1D1D1B"/>
<path d="M32.4663 27.6556C32.7884 28.6203 32.6596 29.6493 32.1442 30.5498C32.1442 30.7427 32.2086 31.0643 31.8865 31.0643C31.178 30.0996 31.6933 28.7489 32.0154 27.7842C32.0798 27.4626 32.4019 27.3983 32.4663 27.6556Z" fill="#1D1D1B"/>
<path d="M54.3681 28.1059C54.7546 28.8777 54.7546 29.7138 54.4326 30.4855L54.2393 30.6785C53.9172 30.0996 53.724 29.4565 53.6595 28.8777C53.7884 28.4274 53.9172 27.9772 53.9816 27.527C54.2393 27.3984 54.2393 27.8486 54.3681 28.1059Z" fill="#1D1D1B"/>
<path d="M18.681 28.3631C18.5522 28.6847 18.1013 28.749 17.8436 28.9419C17.1994 29.3921 16.362 29.5208 15.589 29.3921C16.2332 28.4274 17.3927 27.9129 18.4878 28.1701C18.5522 28.2988 18.681 28.2345 18.681 28.3631Z" fill="#1D1D1B"/>
<path d="M8.18104 29.2634C9.1473 29.9066 9.40497 30.8713 9.92031 31.7717C9.98472 31.9004 10.2424 31.9004 10.178 32.0933C9.98472 32.2219 9.79147 31.9647 9.46939 31.9647C8.50313 31.4502 7.85896 30.4211 7.92337 29.3277C7.92337 29.2634 8.11663 29.2634 8.18104 29.2634Z" fill="#1D1D1B"/>
<path d="M53.3374 30.0996C53.3374 30.3569 53.3374 30.6141 53.0797 30.6785C52.8221 30.7428 52.5644 30.6141 52.5 30.3569C52.4356 30.1639 52.5644 30.0996 52.6288 29.971C52.8221 29.778 53.0797 29.8424 53.273 30.0353C53.3374 30.0353 53.3374 30.0353 53.3374 30.0996Z" fill="#1D1D1B"/>
<path d="M64.1595 31.5145C64.2239 31.0643 64.2239 30.5497 64.3528 30.0995C64.4172 29.9066 64.4816 29.7136 64.4816 29.585C65.0614 28.7489 66.3497 29.0062 67.316 29.0705C67.7025 29.1991 68.1534 29.3277 68.6043 29.3277C68.7976 29.1991 69.0552 29.1348 69.2485 29.1991C70.0859 28.7489 69.5061 27.7842 69.5706 27.0767L69.2485 26.3049C69.1841 26.112 69.1196 25.9833 69.0552 25.7904C68.9264 25.5974 68.7976 25.2759 68.6687 25.0829C68.2178 23.9252 67.3804 23.2821 66.6718 22.3817C65.3834 20.7095 63.3221 19.7447 61.2607 19.0373C59.1994 18.3298 57.138 19.2945 55.3344 19.9377C54.819 19.8091 54.4325 19.3589 54.3037 18.8443C54.2393 17.8796 54.3681 16.9792 54.819 16.1431C54.8834 15.4999 55.3344 14.9854 55.5276 14.4066C56.043 12.9916 56.4295 11.5124 56.5583 9.96881C56.4939 9.0684 55.9785 8.29662 55.2055 7.91072C54.6902 7.71778 54.1749 7.84641 53.7884 8.16798C53.4019 8.81114 52.8221 9.32566 52.1135 9.64724C52.0491 10.0974 52.6288 9.77587 52.7577 9.96881C53.3374 10.0974 53.9816 9.9045 54.4325 10.2261C54.3681 11.1908 53.9816 12.1555 53.3374 12.863C52.4356 14.085 51.6626 15.4356 51.0184 16.8506H50.8896L51.0184 23.1535C51.8558 24.5041 52.8221 26.0477 54.3681 26.5622C55.2055 27.2053 56.2362 28.0414 57.3313 27.3983C57.9111 27.2053 57.9755 28.0414 58.2331 28.363C58.5552 29.3277 57.8466 29.9709 57.7822 30.8713L57.138 32.2862C56.365 33.7655 55.6565 35.3734 54.4969 36.6597C54.1104 36.6597 53.9172 37.0456 53.4663 37.1099C53.273 37.3672 52.8221 37.1742 52.5644 37.3028C51.7914 37.6244 50.6319 37.4315 50.1166 38.2033C50.181 38.2676 50.2454 38.3319 50.3098 38.3319C51.8558 38.3319 53.5951 38.4605 55.27 38.3962C55.4632 38.3319 55.6565 38.1389 55.6565 37.8817C55.3988 37.4315 55.7209 37.0456 55.9141 36.724C56.1074 36.2095 56.365 35.6306 56.6227 35.1161C57.138 34.0871 57.7822 33.058 58.362 31.9647L59.135 30.6784C59.3282 30.1638 59.6503 29.7136 59.908 29.2634C60.1012 29.0705 60.2301 28.8132 60.3589 28.556C60.3589 28.2987 60.2301 28.1701 60.1012 28.0414C60.2945 27.8485 60.5522 27.9128 60.8098 27.8485C61.5184 28.1701 62.0338 28.8132 62.227 29.5207L62.4847 30.1638L62.6135 30.4854L62.5491 31.3215L62.6135 32.1576C62.6779 33.3796 62.6135 34.6659 62.3558 35.8879C61.9049 37.3672 60.2301 37.2385 59.0061 37.5601C58.6841 37.753 58.1043 37.6887 58.1043 38.2033C59.5859 38.5248 61.3252 38.3319 62.8712 38.3319C63.1288 38.2033 63.1933 38.0103 63.3221 37.753C63.3865 37.4315 63.7086 37.1099 63.5798 36.7883C63.3221 36.4024 63.5798 35.8879 63.5153 35.3734C63.5798 35.2447 63.5798 35.0518 63.5153 34.8589C63.7086 34.0871 63.6442 33.1867 63.8374 32.4792L64.1595 31.5145Z" fill="#1D1D1B"/>
<path d="M76.7209 30.4212C75.8835 31.5789 75.0461 32.8652 73.6289 33.3154C73.5001 33.3154 73.4356 33.3797 73.3712 33.2511C74.2731 32.3507 74.724 30.8714 76.0767 30.5499C76.2056 30.4212 76.4632 30.3569 76.7209 30.4212Z" fill="#1D1D1B"/>
<path d="M6.95702 31.7075C6.82819 31.8362 6.95702 32.0291 6.69936 32.0934C6.5061 32.1577 6.24844 32.0934 6.18402 31.8362C6.1196 31.5789 6.24844 31.3216 6.5061 31.2573C6.69936 31.386 6.89261 31.4503 6.95702 31.7075Z" fill="#1D1D1B"/>
<path d="M14.3006 32.0933C14.365 32.2863 14.1073 32.2863 13.9785 32.3506C12.9478 32.6722 11.7883 32.4149 11.0797 31.5788C11.0797 31.4502 11.0797 31.3858 11.2085 31.3215C12.2392 31.6431 13.4631 31.4502 14.3006 32.0933Z" fill="#1D1D1B"/>
<path d="M8.37425 31.7073C8.43867 31.836 8.43867 31.9646 8.43867 32.0932C8.30984 32.2862 8.05217 32.4148 7.7945 32.3505C7.66566 32.2862 7.53683 32.1576 7.47241 32.0289C7.53683 31.7717 7.66566 31.643 7.92333 31.5144C8.05217 31.5144 8.24542 31.643 8.37425 31.7073Z" fill="#1D1D1B"/>
<path d="M32.273 31.8362C32.3374 32.0292 32.1441 32.2221 31.9509 32.3507C31.7576 32.415 31.5644 32.2864 31.4355 32.1578C31.3711 31.9648 31.4355 31.7719 31.6288 31.6433C31.8865 31.5789 32.2085 31.6433 32.273 31.8362Z" fill="#1D1D1B"/>
<path d="M77.6872 31.9648C77.7516 32.222 77.5583 32.3507 77.3651 32.4793C77.1718 32.5436 77.043 32.4793 76.8497 32.415C76.8497 32.2864 76.6565 32.1577 76.7209 32.0291C76.8497 31.8362 77.043 31.7075 77.3007 31.7075C77.4295 31.7718 77.5583 31.9005 77.6872 31.9648Z" fill="#1D1D1B"/>
<path d="M79.362 31.8361C79.4908 32.029 79.362 32.222 79.2332 32.4149C79.1688 32.6079 78.9755 32.6722 78.7823 32.5435C78.6534 32.4149 78.3958 32.2863 78.3958 32.0933C78.3958 31.9004 78.6534 31.7075 78.7823 31.6431C79.0399 31.5788 79.1688 31.8361 79.362 31.8361Z" fill="#1D1D1B"/>
<path d="M5.86201 32.608C5.86201 32.8009 5.73318 32.8652 5.66876 33.0582C5.53992 33.1225 5.41109 33.1868 5.28225 33.1868C5.089 33.1225 4.96017 32.9296 4.89575 32.8009C4.89575 32.5437 5.089 32.2864 5.34667 32.2864C5.60434 32.2221 5.79759 32.3507 5.86201 32.608Z" fill="#1D1D1B"/>
<path d="M59.7148 32.608C59.7148 32.7366 59.7148 32.8009 59.7148 32.9296C59.5859 33.1225 59.3283 33.3155 59.135 33.1868C58.9418 33.0582 58.8129 32.8652 58.8774 32.6723C59.0062 32.415 59.3283 32.3507 59.5859 32.4794C59.5859 32.4794 59.5859 32.5437 59.7148 32.608Z" fill="#1D1D1B"/>
<path d="M9.98464 32.9937C9.92022 33.1866 9.85581 33.3796 9.59814 33.3796C9.34047 33.3796 9.27605 33.1866 9.14722 33.1223C9.14722 32.8651 9.14722 32.6721 9.34047 32.5435C9.59814 32.4792 9.85581 32.6078 9.92022 32.8651C9.98464 32.8651 9.98464 32.9294 9.98464 32.9937Z" fill="#1D1D1B"/>
<path d="M7.53681 33.058C7.60123 33.251 7.4724 33.5082 7.27915 33.6368C6.95706 33.7012 6.69939 33.5725 6.57056 33.251C6.57056 32.9937 6.76381 32.7364 7.02148 32.6721C7.27915 32.6721 7.40798 32.9294 7.53681 33.058Z" fill="#1D1D1B"/>
<path d="M61.3896 32.9938C61.454 33.2511 61.3896 33.5084 61.1319 33.637C60.8098 33.7656 60.5522 33.5084 60.4233 33.2511C60.5522 33.0581 60.5522 32.7366 60.8743 32.7366C61.0675 32.7366 61.2608 32.8652 61.3896 32.9938Z" fill="#1D1D1B"/>
<path d="M8.76076 33.1225C8.82518 33.3154 8.69635 33.3797 8.63193 33.5084C8.50309 33.5084 8.43868 33.637 8.24543 33.637C8.05217 33.637 7.92334 33.444 7.92334 33.2511C7.92334 33.0581 8.05217 32.8652 8.24543 32.7366C8.50309 32.7366 8.69635 32.8652 8.76076 33.1225Z" fill="#1D1D1B"/>
<path d="M76.27 33.3153C76.2056 33.5083 76.0123 33.6369 75.8191 33.7012C75.6258 33.7655 75.497 33.5726 75.3037 33.5082C75.1105 33.4439 75.2393 33.1867 75.3037 33.058C75.4326 32.8008 75.7546 32.7365 76.0123 32.8651C76.2056 32.9937 76.27 33.1224 76.27 33.3153Z" fill="#1D1D1B"/>
<path d="M78.2024 33.444C78.138 33.7013 77.8159 33.8942 77.5583 33.8942C77.3006 33.7656 77.0429 33.637 77.2362 33.3154C77.365 33.1868 77.365 33.1225 77.5583 33.0581C77.8159 32.9938 78.0736 33.1225 78.2024 33.3797C78.2024 33.3797 78.2024 33.3797 78.2024 33.444Z" fill="#1D1D1B"/>
<path d="M66.0921 33.5727C66.2209 33.8943 65.8988 34.0229 65.7056 34.1515C65.5123 34.1515 65.3835 34.0229 65.1902 33.9586C65.1258 33.7013 65.3191 33.4441 65.5767 33.3154C65.77 33.3154 65.9632 33.4441 66.0921 33.5727Z" fill="#1D1D1B"/>
<path d="M59.0705 33.8943C59.1994 33.9586 59.1349 34.1515 59.1349 34.2159C59.0061 34.3445 58.7484 34.6018 58.5552 34.4088C58.3619 34.3445 58.2331 34.1515 58.2975 33.8943C58.4264 33.7013 58.7484 33.637 58.9417 33.7657C58.9417 33.83 59.0061 33.8943 59.0705 33.8943Z" fill="#1D1D1B"/>
<path d="M60.4877 34.0871C60.5521 34.28 60.4233 34.4087 60.2945 34.473C60.1012 34.6659 59.9079 34.473 59.7147 34.4087C59.6503 34.28 59.6503 34.1514 59.7147 34.0228C59.7791 33.8942 59.9079 33.8298 60.0368 33.8298C60.23 33.8298 60.4233 33.8298 60.4877 34.0871Z" fill="#1D1D1B"/>
<path d="M17.135 34.0871C17.2638 34.2157 17.135 34.4087 17.0706 34.6016C16.9418 34.7946 16.6197 34.8589 16.4264 34.7302C16.1688 34.6016 16.1688 34.28 16.2332 34.0871C16.362 34.0228 16.362 33.8298 16.6197 33.8298C16.8129 33.8941 16.9418 33.9585 17.135 34.0871Z" fill="#1D1D1B"/>
<path d="M68.7976 34.2158C68.862 34.4731 68.6043 34.6017 68.411 34.6017C68.089 34.7303 67.9601 34.4731 67.8313 34.2801C67.8313 34.1515 67.9601 34.0229 68.0245 33.8942C68.4111 33.7656 68.6043 34.0229 68.7976 34.2158Z" fill="#1D1D1B"/>
<path d="M67.4448 34.2159C67.5736 34.4731 67.2515 34.6018 67.1871 34.7304C66.9939 34.7947 66.8006 34.7947 66.6074 34.6018C66.4785 34.5374 66.4785 34.3445 66.4785 34.2159C66.6073 34.0872 66.7362 33.9586 66.865 33.8943C67.1227 33.8943 67.3159 34.0229 67.4448 34.2159Z" fill="#1D1D1B"/>
<path d="M78.9755 34.5372C79.0399 34.9231 78.589 34.7302 78.3958 34.7945C77.3007 35.4377 75.9479 34.9231 74.9172 34.5372C74.9817 34.2157 75.3682 34.3443 75.5614 34.2157C76.6565 33.5082 77.7516 34.3443 78.9111 34.4086L78.9755 34.5372Z" fill="#1D1D1B"/>
<path d="M9.01841 34.2159L8.88957 34.4088C7.92332 35.0519 6.69939 35.2449 5.6043 34.9876L5.47546 34.859C6.50614 34.2159 7.73007 33.9586 8.88957 34.1515C8.95399 34.1515 9.01841 34.2159 9.01841 34.2159Z" fill="#1D1D1B"/>
<path d="M71.4386 34.4087C71.4386 34.6017 71.3742 34.7946 71.181 34.9233C70.9233 34.9876 70.6656 34.9233 70.5368 34.666C70.4724 34.473 70.6656 34.2801 70.8589 34.1515C71.0521 34.0228 71.3098 34.0872 71.4386 34.4087Z" fill="#1D1D1B"/>
<path d="M13.592 34.4731C13.4631 34.6661 13.5276 34.859 13.2699 34.9877C13.0122 35.052 12.7545 34.9234 12.6257 34.6661C12.5613 34.4088 12.7545 34.2802 12.8834 34.1516C13.2055 34.0229 13.4631 34.2802 13.592 34.4731Z" fill="#1D1D1B"/>
<path d="M11.7883 34.6016C11.8527 34.7945 11.7239 34.8588 11.6594 34.9875C11.5306 35.1161 11.3374 35.1161 11.1441 35.0518C10.9509 34.9232 10.7576 34.7302 10.8864 34.4086C11.0153 34.28 11.1441 34.2157 11.2729 34.1514C11.4662 34.2157 11.7239 34.3443 11.7883 34.6016Z" fill="#1D1D1B"/>
<path d="M73.1779 35.1804C73.1779 35.3734 72.9847 35.5663 72.7914 35.6306C72.5982 35.6306 72.4049 35.5663 72.2761 35.3734C72.2117 35.1804 72.2117 34.9875 72.4049 34.8589C72.4693 34.7945 72.6626 34.7945 72.727 34.7302C72.9847 34.8589 73.1135 34.9875 73.1779 35.1804Z" fill="#1D1D1B"/>
<path d="M9.85579 34.9233C9.92021 35.1163 9.72696 35.1806 9.72696 35.3735C9.59812 35.7594 9.40487 36.1453 9.1472 36.4669C8.63186 37.0457 7.98769 37.0457 7.2791 37.2387L7.15027 37.0457C7.79444 36.1453 8.69628 35.3735 9.72696 34.9233H9.85579Z" fill="#1D1D1B"/>
<path d="M71.954 35.502C72.0184 35.8236 71.7607 35.8879 71.5675 36.0166C71.3742 36.0166 71.181 35.8879 71.0522 35.695C70.9877 35.4377 71.2454 35.3091 71.3742 35.1805C71.6319 35.1161 71.8252 35.2448 71.954 35.502Z" fill="#1D1D1B"/>
<path d="M12.8191 35.5021C12.8191 35.5664 12.8191 35.6307 12.8835 35.6307C12.8835 35.888 12.6902 36.0166 12.497 36.1453C12.3037 36.1453 12.0461 36.081 11.9172 35.888C11.7884 35.6951 11.9172 35.4378 12.1105 35.3092C12.1105 35.3092 12.1105 35.3092 12.1749 35.3092C12.4326 35.2449 12.7546 35.2449 12.8191 35.5021Z" fill="#1D1D1B"/>
<path d="M76.6564 36.2738C76.9141 36.2738 76.9785 35.9522 77.2362 35.8879C77.4939 35.8236 77.7515 35.9522 77.8804 36.1452C78.0092 36.4667 77.7515 36.5954 77.5583 36.724C77.365 36.8526 76.9785 36.5954 77.0429 36.9169C77.2362 37.0456 77.365 37.2385 77.4294 37.4315C77.365 37.5601 77.1718 37.4958 77.1073 37.4315C76.3343 37.1742 75.6258 36.5954 75.2393 35.8236C75.1104 35.5663 74.6595 35.4377 74.9172 35.1804C75.6258 35.2447 76.2699 35.6306 76.6564 36.2738Z" fill="#1D1D1B"/>
<path d="M79.1043 35.4378C79.2331 35.5664 79.2331 35.7594 79.1043 35.9523C78.9754 36.2096 78.5889 36.0809 78.3957 36.0809C78.2669 35.9523 78.138 35.8237 78.2024 35.6307C78.2669 35.5021 78.3957 35.3735 78.5889 35.3092C78.7178 35.2449 78.9754 35.3092 79.1043 35.4378Z" fill="#1D1D1B"/>
<path d="M69.8282 36.8528C70.0859 37.1744 70.2791 37.4959 70.408 37.8818C70.3435 37.9461 70.2147 37.9461 70.1503 37.9461C69.2485 37.4316 68.1534 36.9171 67.8313 35.888C67.7669 35.7594 67.5736 35.6308 67.5736 35.5022C68.2178 35.3735 68.862 35.888 69.3129 36.2096C69.5061 36.4669 69.6994 36.5955 69.8282 36.8528Z" fill="#1D1D1B"/>
<path d="M11.4018 35.8879C11.5306 36.1452 11.2729 36.2738 11.2085 36.4025C11.0153 36.4668 10.7576 36.4025 10.6288 36.2095C10.4355 35.9523 10.7576 35.695 11.0153 35.5664C11.2729 35.4377 11.2729 35.695 11.4018 35.8879Z" fill="#1D1D1B"/>
<path d="M72.9847 36.4668C72.9847 36.5954 72.7914 36.724 72.727 36.8527C72.5337 36.8527 72.3405 36.9813 72.1472 36.7883C72.0828 36.6597 71.954 36.4668 72.1472 36.3381C72.4049 35.9522 72.8558 36.2095 72.9847 36.4668Z" fill="#1D1D1B"/>
<path d="M79.362 36.8528C79.4264 37.11 79.2331 37.3673 78.9755 37.4959C78.7178 37.5602 78.4601 37.4316 78.3313 37.2387C78.2025 37.11 78.3313 36.9171 78.3313 36.7241C78.5246 36.5312 78.7178 36.4669 78.9755 36.5312C79.1043 36.6598 79.2331 36.7241 79.362 36.8528Z" fill="#1D1D1B"/>
<path d="M61.6472 40.39C61.6472 40.7116 61.0675 40.6473 60.8742 40.8402C60.0368 41.1618 59.135 41.3548 58.1687 41.2261V41.0975C59.1994 40.2614 60.4877 40.0041 61.6472 40.39Z" fill="#1D1D1B"/>
<path d="M24.4141 41.4833C24.4141 41.6762 24.2208 41.8692 24.0276 41.9335C23.8343 41.9335 23.7055 41.8049 23.5767 41.6763C23.4478 41.3547 23.7055 41.226 23.8988 41.0974C24.1564 41.0974 24.3497 41.2904 24.4141 41.4833Z" fill="#1D1D1B"/>
<path d="M61.2608 41.805C61.2608 42.0623 61.0675 42.2552 60.8743 42.3838C60.681 42.3838 60.4878 42.3195 60.2945 42.1909C60.1657 42.0623 60.2301 41.9336 60.2301 41.805C60.3589 41.5477 60.681 41.4191 60.9387 41.4834C61.0675 41.5477 61.1964 41.6121 61.2608 41.805Z" fill="#1D1D1B"/>
<path d="M66.3496 41.8692C65.7055 42.3837 64.9325 42.7053 64.1594 42.7696H62.8067L62.6779 42.641C63.5153 41.6119 65.0613 41.6119 66.414 41.7406V41.8692H66.3496Z" fill="#1D1D1B"/>
<path d="M17.3927 42.4482C17.3927 42.7055 17.1994 42.8984 16.9418 42.9627C16.7485 42.9627 16.5552 42.8984 16.4908 42.7055C16.4264 42.5125 16.4908 42.2553 16.6841 42.1266C17.0062 41.9337 17.2638 42.2553 17.3927 42.4482Z" fill="#1D1D1B"/>
<path d="M18.681 42.7055C18.7454 42.8341 18.6166 42.8984 18.5521 43.027C18.4233 43.1557 18.2301 43.1557 18.0368 43.027C17.8436 42.9627 17.7791 42.7698 17.908 42.5768C17.9724 42.4482 18.1012 42.4482 18.2301 42.3196C18.4233 42.4482 18.5521 42.5768 18.681 42.7055Z" fill="#1D1D1B"/>
<path d="M8.8896 45.3424C8.63193 45.664 8.24543 45.2781 7.92335 45.0852C7.02151 44.5706 7.08592 43.5416 6.18408 42.9627C6.31292 42.6412 6.50617 42.9627 6.69942 42.9627C6.89267 43.0914 7.02151 43.1557 7.21476 43.22C8.1166 43.7345 8.30985 44.5706 8.8896 45.3424Z" fill="#1D1D1B"/>
<path d="M83.3558 35.3735C82.9693 34.6661 82.1963 34.2802 81.4233 34.3445C80.7791 34.4088 80.2638 34.7947 80.0061 35.3735C79.8773 35.8881 80.0705 36.4669 80.5215 36.7885C80.7147 36.8528 80.908 36.8528 81.0368 36.6599C81.1656 36.3383 80.7791 36.3383 80.7791 36.081C80.6503 35.7594 80.7791 35.3735 81.0368 35.1806C81.2945 34.9233 81.7454 35.052 82.0675 35.052C82.3896 35.2449 82.6472 35.5022 82.8405 35.8238C82.9693 36.274 82.9693 36.7242 82.8405 37.1744C82.5184 37.8175 81.9386 38.3321 81.23 38.4607C79.1043 38.7823 55.8497 38.6536 55.8497 38.6536C53.1442 38.9109 49.9877 38.1391 47.6687 39.554C46.5736 40.0686 46.0583 41.2262 45.8006 42.3196C45.092 42.9628 44.4478 43.6702 43.8037 44.3777L43.7393 44.3134C43.8681 43.6702 44.1258 43.1557 44.2546 42.5125C44.6411 41.998 44.6411 41.2906 44.8988 40.7117C45.865 39.1682 46.7669 37.5603 48.3129 36.4669C48.957 35.6308 50.0521 35.7594 51.0184 35.7594C52.1135 36.274 53.3374 36.4026 54.5613 36.274C54.6258 36.2096 54.6258 36.1453 54.6258 36.081C54.2393 35.7594 53.6595 35.6308 53.273 35.3092C52.2423 34.7947 51.2761 35.4379 50.181 35.3735C50.1166 35.3092 50.0521 35.3092 50.1166 35.2449C51.0828 34.5374 52.1779 33.9586 53.273 33.5727C54.1748 33.1225 55.0767 32.8009 56.0429 32.4794C56.4294 32.4794 56.7515 32.1578 57.138 32.3507L58.4908 31.9648C58.5552 31.9648 58.6196 32.0935 58.684 32.0291C59.8435 31.6433 61.3251 32.0291 62.6135 31.9648L62.8067 32.0935L64.0307 32.415C64.4816 32.4794 64.6748 32.9939 65.1902 33.0582C65.4478 32.6723 64.9325 32.5437 64.8037 32.2864C65.3834 32.1578 65.9632 32.2864 66.5429 32.5437L66.2853 32.8009C66.1564 33.0582 66.3497 33.3155 66.6074 33.3798C66.865 33.4441 66.9294 33.3155 67.0583 33.2511C67.3804 32.9939 67.0583 32.8009 67.1227 32.608C68.9908 32.9296 70.7945 33.4441 72.5337 34.1516C72.9846 34.4088 73.5 34.5374 74.0153 34.6661C73.4356 34.2159 72.7914 33.8943 72.0828 33.637C71.6319 33.3798 71.0521 33.3798 70.73 32.9939C70.7945 32.8652 70.9877 32.9296 71.0521 32.8009C71.954 32.608 72.727 32.0935 73.2423 31.386C73.3067 31.2574 73.5644 31.2574 73.5644 31.0644C73.3067 30.8072 72.9846 31.1287 72.6626 31.1287C71.5675 31.3217 71.1165 32.608 70.0215 32.8009C68.7331 32.4794 67.3804 32.1578 66.092 31.8362C65.4478 31.7719 64.8037 31.6433 64.1595 31.4503L62.7423 31.3217H60.1656C60.1656 31.2574 60.0368 31.2574 60.1012 31.193C61.0031 30.9358 61.8405 30.4213 62.7423 30.164L69.5705 27.0126C70.2791 26.3694 70.9233 25.6619 71.5031 24.8901C71.5031 24.6972 71.4386 24.5043 71.2454 24.3756C71.0521 24.3113 70.8589 24.3113 70.73 24.5043C70.408 24.7615 70.73 25.0188 70.73 25.276C70.408 25.6619 70.0215 25.9835 69.5705 26.1765C69.4417 26.1765 62.4846 29.3279 62.4846 29.3279C61.454 29.8424 60.4233 30.2283 59.3926 30.4856L57.7822 30.8715C57.6534 31.1287 57.4601 31.386 57.138 31.4503C56.7515 31.5789 56.365 31.7076 55.9785 31.7719C52.6288 33.0582 49.2147 34.4088 46.5736 37.0457C46.7024 36.7242 46.8313 36.3383 46.8313 35.9524C46.8313 35.5665 46.7669 35.1806 46.5736 34.7947C46.5092 34.6661 46.3159 34.2159 46.3804 34.0872L45.9939 34.3445C45.6718 35.052 45.6073 35.8238 45.8006 36.5312C45.865 36.9814 46.2515 37.5603 45.9294 37.9462C44.7055 39.4254 43.9969 41.2262 43.2239 42.9628C42.9018 42.8984 42.773 42.6412 42.6442 42.3196C43.546 41.2262 44.1902 39.9399 44.4478 38.5893C44.6411 38.4607 44.5123 38.1391 44.7055 37.9462C44.6411 37.5603 44.9632 37.1101 44.7055 36.7885C44.8343 36.2096 43.9325 35.6951 44.5123 35.3735L43.9969 35.6308C42.9018 37.0457 44.5767 39.2325 43.2883 40.6474V40.776C43.0307 41.2262 42.7086 41.6765 42.2577 41.998C41.6135 41.7408 41.4202 41.0333 41.0337 40.5188C40.5184 39.8113 40.454 38.9109 40.7761 38.1391C41.0337 37.303 40.6472 36.6599 40.5828 36.0167L40.3251 35.8881C39.681 36.7242 39.5521 37.8818 39.9386 38.9109C40.1963 39.3611 40.1963 40.0043 40.5828 40.3901C40.8405 41.0976 41.227 41.7408 41.6779 42.3196C41.8067 42.5769 41.5491 42.6412 41.4202 42.7698C41.1626 42.5769 41.1626 42.191 40.9049 41.998C40.0675 40.2615 39.0368 38.7179 37.7484 37.303C37.684 37.0457 37.4908 36.8528 37.6196 36.5955C38.0705 36.081 38.1994 35.3092 37.9417 34.6661C37.8773 34.5374 37.7484 34.4088 37.7484 34.2802L37.3619 33.9586C37.4264 34.859 36.8466 35.6308 37.1043 36.5955V36.6599C34.4632 34.6661 31.6288 32.9296 28.6012 31.5146L28.3435 32.1578C29.3098 32.5437 30.2116 32.9939 31.0491 33.5727C31.9509 33.9586 32.7883 34.4088 33.6257 34.9233C37.1043 36.8528 39.4233 40.0043 40.9693 43.6059C40.9693 43.8632 41.227 44.1847 41.0981 44.5063C40.5184 43.7989 39.8742 43.1557 39.1656 42.5769C39.0368 41.3549 38.3282 40.3258 37.2331 39.747C36.8466 39.1682 36.0092 39.1038 35.365 38.9752L26.0889 38.9109C18.5521 38.7823 11.6595 39.1682 4.12268 39.0395C3.092 38.9109 1.80366 38.5893 1.48157 37.496C1.28832 37.0457 1.28832 36.5312 1.48157 36.081C1.73924 35.6308 2.25458 35.3735 2.76992 35.3735C3.15642 35.5022 3.47851 35.7594 3.60734 36.081C3.60734 36.4026 3.34967 36.7242 3.22084 36.9814C3.22084 37.1101 3.34967 37.303 3.54292 37.1744C3.86501 37.0457 4.12268 36.7242 4.1871 36.3383C4.1871 36.1453 4.31593 35.8881 4.12268 35.7594C3.92943 35.2449 3.47851 34.859 2.89875 34.7304C2.25458 34.6661 1.61041 34.859 1.15949 35.3092C0.515317 35.8238 0.579734 36.7242 0.772986 37.4316C1.28832 38.5893 2.319 39.3611 3.54292 39.4897L28.408 39.6184C30.8558 39.747 33.5613 39.3611 36.0092 39.8113C36.9754 40.0686 37.7484 40.776 38.0705 41.7408C38.0705 41.8051 37.9417 41.7408 37.8773 41.7408C35.6871 40.4545 33.1104 39.8756 30.5981 40.2615C29.6319 40.3258 28.6656 40.5188 27.7638 40.8404C27.3129 40.9047 26.7975 40.776 26.4754 40.4545C25.5736 39.6184 23.9632 39.6827 22.7392 40.0043C22.7392 40.0686 22.7392 40.1329 22.7392 40.1972C23.9632 40.0686 24.7362 41.1619 25.8313 41.2906C26.0889 41.3549 26.2822 41.0333 26.5399 41.2906C25.3804 41.9337 24.2208 42.4482 22.9969 42.8984C22.6104 42.8341 22.4172 42.4482 22.0951 42.2553C21.5797 41.7408 20.7423 41.9337 20.0337 41.8694C19.7761 41.9337 19.5828 41.7408 19.454 41.8694C19.7116 42.2553 20.0981 42.5769 20.5491 42.7055C21.1932 42.9628 21.9018 42.7055 22.4816 43.0914C22.3527 43.22 22.1595 43.3486 21.9662 43.4773C20.7423 43.9275 19.7761 45.0208 18.4233 44.9565C17.0705 45.1495 15.6534 44.6993 14.6227 43.7345C14.1718 42.7698 13.1411 42.1267 12.046 42.2553C11.9816 42.3196 11.8527 42.3196 11.9172 42.4482C12.4969 42.7698 12.9478 43.4773 13.4632 43.8632C13.8497 44.3134 14.4938 43.8632 14.8159 44.3777C15.3313 44.6993 15.911 44.9565 16.4908 45.0852C16.9417 45.2781 17.3926 45.3424 17.8435 45.4711L17.6503 45.5997C15.3313 46.3715 12.6257 46.4358 10.0491 46.3715C9.27605 46.3715 8.56746 46.1142 7.79446 46.1142C7.98771 46.3072 8.18096 46.4358 8.43863 46.5001C8.24538 46.6287 8.05213 46.693 7.79446 46.693C7.47237 46.7574 7.15029 46.8217 6.8282 46.9503C6.4417 46.9503 6.05519 47.0146 5.73311 47.2076C5.34661 47.6578 4.83127 48.108 4.25151 48.3652C4.25151 48.4939 4.25151 48.6225 4.38035 48.6225C4.89569 48.4296 5.47544 48.5582 5.99078 48.3652C6.8282 48.3009 7.34354 47.3362 7.98771 46.9503C8.6963 46.3715 9.72697 46.5001 10.5644 46.6287C11.0797 46.7574 10.5 46.9503 10.6932 47.2719C10.8865 47.4648 11.0797 47.6578 11.3374 47.5935C11.4018 47.5291 11.4662 47.4648 11.5307 47.4648C11.6595 47.2719 11.6595 47.0146 11.5307 46.8217C11.9172 46.5644 12.3681 46.8217 12.7546 46.693C13.7208 46.693 14.6871 46.4358 15.6534 46.4358C15.7822 46.4358 15.9754 46.2428 16.1687 46.4358C16.1043 46.6287 15.8466 46.693 15.911 46.9503C15.9754 47.2076 16.2331 47.2719 16.4264 47.3362C16.684 47.2076 16.9417 47.0789 16.8129 46.693C16.7484 46.5001 16.5552 46.5001 16.4264 46.4358C16.9417 46.1785 17.5859 46.1142 18.1012 45.8569C18.4877 45.7926 18.8098 45.664 19.1963 45.4711C19.5184 45.4711 19.8405 45.1495 20.0981 45.2781C19.9693 45.7283 19.7761 46.1142 19.5828 46.5001C19.1963 47.8507 18.8742 49.6516 19.5828 51.0022C19.6472 51.0022 19.7116 51.0022 19.7116 50.9379C19.1963 49.5872 19.5184 47.9794 19.9693 46.693C20.3558 44.5063 22.6104 43.8632 24.1564 43.0271L24.2208 43.1557C23.7699 44.3134 23.1257 45.3424 23.2546 46.7574C23.319 47.0146 23.1257 47.2076 23.2546 47.4005C23.7055 47.0789 24.0276 46.693 24.2208 46.2428C24.4141 45.0852 23.7055 43.6702 24.9294 42.7698C27.0552 41.9337 28.9877 40.8404 31.4356 40.8404C31.5 40.9047 31.6932 40.776 31.6932 40.969C31.1779 41.5478 30.4693 42.0623 30.2116 42.7698C29.3742 43.9275 29.4386 45.8569 29.7607 47.2076C30.0184 47.9794 29.3098 48.4296 28.9877 49.0727C28.8589 49.2657 28.7945 49.6516 28.6656 49.9088L29.181 49.9731C29.6963 49.5229 29.954 48.9441 30.0828 48.3009C30.1472 48.5582 30.3405 48.7511 30.5981 48.8155C30.7914 48.5582 30.4693 48.3009 30.4049 48.0437C30.7914 47.8507 30.9846 48.3009 31.3067 48.4296C31.8221 48.6225 32.3374 48.7511 32.8527 48.8155L33.046 48.6225C32.4662 47.7864 31.3711 47.5935 30.4049 47.5291C29.954 46.6287 29.8251 45.5997 29.954 44.5706C30.0184 43.9918 30.2761 43.4773 30.5337 42.9628C30.727 42.5769 30.9846 42.2553 31.2423 41.998C31.6932 41.5478 32.273 41.2906 32.8527 41.0976H32.9172V41.1619C32.2086 41.6765 32.1442 42.4482 31.7576 43.0914C31.2423 43.7345 31.1779 44.5706 31.5 45.3424C31.6288 45.664 31.5644 46.1785 31.9509 46.4358C32.2086 45.9213 32.4018 45.4067 32.4662 44.8922C32.4018 44.0561 31.8865 43.22 32.3374 42.4482C32.5951 41.8694 33.1104 41.4835 33.6902 41.3549C35.1073 41.2262 36.3313 41.9337 37.5552 42.5125C37.8129 42.7055 38.2638 42.8341 38.2638 43.22C38.2638 44.3777 37.2975 45.2781 36.138 45.2781C35.7515 45.2781 35.3006 45.1495 34.9785 44.8922C34.592 44.442 34.4632 43.8632 34.592 43.3486C34.8497 42.9628 35.3006 42.8341 35.6871 42.9628C35.9448 43.0914 36.2024 43.3486 36.5245 43.22C36.6534 43.1557 36.7178 42.9628 36.6534 42.8341C36.3957 42.7055 36.2669 42.3196 35.8804 42.2553C35.365 42.1267 34.8497 42.2553 34.4632 42.5125C33.9478 42.9628 33.6902 43.6702 33.8834 44.3134C34.0767 45.0852 34.6564 45.7283 35.4938 45.9856C36.6534 46.3072 37.8773 45.857 38.6503 44.8922C38.908 44.5706 39.1012 44.1847 39.23 43.7989C40.454 44.635 41.3558 45.7926 41.8712 47.2076C41.9356 47.6578 41.9356 48.0437 41.8712 48.4939L42.773 48.5582C42.7086 48.3652 42.7086 48.108 42.8374 47.915C43.2239 46.2428 44.1258 44.7636 45.4785 43.6702C45.9294 43.413 45.8006 43.9918 45.9294 44.1847C46.3159 45.1495 47.1534 45.8569 48.1196 46.1142C49.1503 46.3715 50.181 45.9856 50.8896 45.2138C51.2116 44.5706 51.5981 43.6702 51.0828 43.0271C50.7607 42.6412 50.2454 42.3839 49.6656 42.3839C49.0859 42.4482 48.5061 42.7698 48.2485 43.3486C48.2485 43.5416 48.2485 43.7989 48.3773 43.8632C48.5061 43.8632 48.6994 43.8632 48.7638 43.7345C48.8282 43.3486 49.1503 43.1557 49.4724 42.9628C49.73 42.8341 50.0521 42.8984 50.3098 43.0914C50.5675 43.3486 50.6963 43.7345 50.6963 44.1204C50.6319 44.635 50.3742 45.0852 49.8589 45.3424C49.0859 45.664 48.1196 45.5997 47.411 45.0852C47.1534 44.7636 46.8957 44.3777 46.7024 43.9275C46.5736 43.5416 46.5736 43.1557 46.7024 42.7698C47.7975 42.0623 49.0859 41.6121 50.3742 41.4835C50.8896 41.6121 51.4049 41.9337 51.727 42.3196C52.8865 43.5416 51.4693 45.2781 52.3067 46.5644C52.6288 46.5001 52.6288 46.1142 52.7577 45.8569C53.1442 44.9565 52.6288 43.9275 52.4356 43.0271C52.1779 42.4482 51.8558 41.9337 51.4693 41.5478C51.5337 41.4835 51.6626 41.4835 51.7914 41.4835C52.3712 41.8051 52.8865 42.2553 53.3374 42.7698C54.1104 44.0561 54.4325 45.5354 54.3681 47.0146C54.1748 47.7864 53.3374 48.1723 52.6932 48.4296C52.4356 48.6225 52.1779 48.9441 51.9846 49.2657C52.3067 49.4586 52.6932 49.2657 53.0153 49.137C53.5307 48.9441 53.7883 48.3652 54.1104 48.0437C54.1748 48.0437 54.1104 48.1723 54.1748 48.1723C54.1748 48.4296 54.046 48.8155 54.3037 48.9441C54.4325 48.4939 54.4969 48.108 54.5613 47.6578C54.819 48.0437 55.0123 48.4939 55.0767 48.9441C55.3343 49.3943 55.7208 50.0374 56.3006 50.1018C56.4294 49.8445 56.3006 49.6516 56.2362 49.4586C56.1718 48.8155 55.592 48.4939 55.2699 48.0437C54.3681 46.8217 54.7546 44.8922 54.1104 43.4773C53.7883 42.7698 53.3374 42.0623 52.7577 41.5478L52.8865 41.4192C54.046 41.4835 55.2055 41.7408 56.365 42.0623C57.7822 42.7698 59.8435 42.5769 60.4877 44.442C60.7454 45.4711 61.2607 46.4358 61.9693 47.2076L62.0337 47.1433C62.1626 46.8217 62.1626 46.5001 62.0337 46.1785C61.9049 44.8922 60.7454 44.5706 60.1656 43.4773L60.23 43.3486C60.8742 43.5416 61.454 43.7345 62.0981 43.9275C64.1595 44.635 65.6411 46.4358 65.8343 48.5582C65.8343 50.1018 65.5123 51.581 64.8681 52.9316C64.8037 53.1246 64.4172 53.3818 64.6748 53.5748C64.9325 53.3818 64.9969 53.0603 65.1902 52.803C66.092 51.2594 66.4141 49.3943 66.0276 47.6578C66.0276 47.3362 65.6411 47.0789 65.7699 46.7574C65.8988 46.886 66.0276 46.9503 66.2208 47.0146C66.3497 46.886 66.6073 46.886 66.7362 46.7574C66.865 46.6287 66.865 46.4358 66.7362 46.3072C66.5429 46.1142 66.2853 46.0499 66.0276 46.1142C65.8988 46.2428 65.7699 46.4358 65.7055 46.693C65.4478 46.1785 65.1902 45.7283 64.8037 45.3424L64.8681 45.2781C66.0276 45.664 67.0583 46.2428 68.2178 46.5644C68.4754 46.7574 68.7975 46.8217 69.1196 46.8217C70.1503 47.1433 71.181 47.4005 72.2761 47.5935C73.0491 47.5291 73.6932 47.8507 74.4662 47.7221V47.6578C74.2086 47.2719 73.5644 47.6578 73.2423 47.4005C71.5031 47.2076 69.8282 46.7574 68.2178 46.1142C68.2178 46.0499 68.3466 46.0499 68.411 46.0499C68.6687 45.9213 68.862 45.664 68.7975 45.4067C68.6687 45.2138 68.411 45.0852 68.2178 45.1495C68.0245 45.2138 67.8957 45.4067 67.8313 45.5997C67.8957 45.7926 68.0245 45.9856 68.2178 46.1142C68.1534 46.1785 68.0889 46.1142 67.9601 46.1142C67.1871 45.7283 66.4141 45.4067 65.6411 45.0852C65.3834 45.0208 65.1257 44.8279 64.8681 44.7636C64.2883 44.5063 63.7086 44.1847 63.1288 43.9918C61.454 43.22 59.7147 42.5769 57.911 42.0623L56.8159 41.7408C56.1718 41.5478 55.5276 41.4192 54.8834 41.2262C52.6932 40.7117 49.7945 40.6474 47.9264 41.8051C47.6043 41.6765 47.411 42.191 47.2822 41.8694C47.7975 40.4545 49.3435 40.0043 50.7607 39.9399C61.0031 39.8113 70.6012 39.747 80.7147 39.6184C81.8742 39.6827 83.0337 39.1682 83.6779 38.1391C83.6779 36.9814 83.7423 36.1453 83.3558 35.3735ZM42.773 44.8279C42.6442 45.0852 42.5153 45.4067 42.5153 45.7283L42.4509 45.7926C42.5153 45.4067 42.1288 45.1495 42.2577 44.7636C42.0644 44.442 42.0644 44.0561 41.8712 43.7345C41.6779 43.413 42.0644 43.1557 42.2577 42.8341C42.6442 42.9628 42.773 43.3487 42.9662 43.6059C43.0307 44.1204 42.7086 44.442 42.773 44.8279Z" fill="#1D1D1B"/>
<path d="M70.4724 43.2199C70.4724 43.2843 70.6012 43.3486 70.6012 43.4772C69.6349 44.249 68.411 44.6349 67.1227 44.5706C66.9938 44.5706 66.9294 44.6992 66.8006 44.6349C66.6717 44.5706 66.6717 44.5063 66.7362 44.4419C67.638 43.4129 69.0552 42.8984 70.4724 43.2199Z" fill="#1D1D1B"/>
<path d="M66.3497 43.6059C66.4785 43.9918 66.2209 44.1847 65.9632 44.3133C65.7055 44.249 65.5123 44.1204 65.3834 43.9274C65.319 43.7345 65.5123 43.6059 65.5767 43.4772C65.77 43.2843 66.092 43.2843 66.2853 43.4772C66.2853 43.5415 66.3497 43.5415 66.3497 43.6059Z" fill="#1D1D1B"/>
<path d="M17.7792 43.7346C17.8436 43.9275 17.7792 44.1205 17.6503 44.2491C17.5215 44.3777 17.3282 44.442 17.1994 44.3777C17.0062 44.3777 16.9417 44.1205 16.8773 43.9918C16.8773 43.7989 17.0062 43.6059 17.1994 43.4773C17.3927 43.4773 17.6503 43.4773 17.7792 43.7346Z" fill="#1D1D1B"/>
<path d="M13.2055 45.3422V45.5352C12.6257 45.6638 11.9815 45.5352 11.5306 45.1493C11.2085 44.6348 10.7576 44.1845 10.1779 43.863C10.1779 43.7987 10.049 43.67 10.1779 43.6057C11.4662 43.6057 12.2392 44.6348 13.2055 45.3422Z" fill="#1D1D1B"/>
<path d="M74.3374 43.67C73.7576 44.5704 73.2423 45.5995 72.2116 45.9854C72.0184 45.9854 71.8895 46.2426 71.6963 46.0497C72.1472 44.9563 72.9202 44.1202 73.9509 43.6057C74.0797 43.6057 74.2086 43.6057 74.3374 43.67Z" fill="#1D1D1B"/>
<path d="M19.2607 43.9918C19.2607 44.249 19.0675 44.3133 18.8742 44.5063C18.681 44.5063 18.5521 44.3777 18.4233 44.249C18.2945 43.9918 18.5521 43.8631 18.681 43.7345C18.9386 43.6702 19.1319 43.7988 19.2607 43.9918Z" fill="#1D1D1B"/>
<path d="M77.5583 44.1204C77.3007 44.442 77.4295 44.9565 77.1718 45.2781C76.6565 45.857 76.2056 46.5644 75.4326 46.693C75.3037 46.4358 75.6258 46.1785 75.7546 45.9213C76.0767 45.0852 76.6565 44.3777 77.4295 43.9275L77.5583 44.1204Z" fill="#1D1D1B"/>
<path d="M5.28225 44.3776C5.41108 44.5706 5.41108 44.7635 5.28225 44.9565C5.089 45.0851 4.89574 45.1494 4.70249 45.0851C4.44482 44.9565 4.38041 44.6992 4.50924 44.4419C4.63808 44.1204 5.15341 43.9917 5.28225 44.3776Z" fill="#1D1D1B"/>
<path d="M3.80056 44.6348C3.80056 44.7634 3.92939 44.892 3.86497 45.0207C3.80056 45.1493 3.67172 45.2779 3.47847 45.3422C3.2208 45.4065 2.96313 45.2136 2.89871 45.0207C2.8343 44.8277 2.96313 44.5704 3.15638 44.5061C3.47847 44.3775 3.73614 44.4418 3.80056 44.6348Z" fill="#1D1D1B"/>
<path d="M6.8282 44.8279C6.89261 45.0208 6.95703 45.4067 6.63494 45.4711C6.24844 45.5997 6.05519 45.3424 5.86194 45.1495C5.86194 44.9565 5.99077 44.7636 6.18402 44.635C6.44169 44.5706 6.63494 44.635 6.8282 44.8279Z" fill="#1D1D1B"/>
<path d="M11.0153 45.1494C11.0153 45.3424 11.0153 45.5996 10.822 45.6639C10.6288 45.7283 10.4355 45.7283 10.3067 45.7283C10.2423 45.5996 9.98462 45.471 10.1135 45.2781C10.1779 45.1494 10.3067 45.0851 10.5 45.0208C10.6932 45.0208 10.9509 44.9565 11.0153 45.1494Z" fill="#1D1D1B"/>
<path d="M80.0062 45.3424C79.9418 45.5353 79.8129 45.7283 79.6197 45.7283C79.4264 45.7283 79.1688 45.664 79.0399 45.471C78.9111 45.2781 79.1688 45.0208 79.362 44.9565C79.5553 44.8922 79.9418 45.0208 80.0062 45.3424Z" fill="#1D1D1B"/>
<path d="M75.368 45.471C75.368 45.6639 75.1748 45.8569 75.046 45.9212C74.7239 46.0498 74.4018 45.8569 74.2729 45.5353C74.3374 45.2137 74.595 45.0208 74.9171 45.0851C75.1104 45.0851 75.3036 45.2137 75.368 45.471Z" fill="#1D1D1B"/>
<path d="M78.5246 45.4066C78.5246 45.5996 78.4602 45.7282 78.2669 45.8568C78.0736 45.9211 77.816 45.9211 77.6227 45.7282C77.3651 45.5352 77.5583 45.3423 77.7516 45.2137C77.9448 45.085 78.3957 45.085 78.5246 45.4066Z" fill="#1D1D1B"/>
<path d="M4.63808 45.8569C4.7025 46.1141 4.57366 46.3714 4.31599 46.5C4.05832 46.5 3.86507 46.3714 3.73624 46.1141C3.67182 45.9212 3.80066 45.6639 3.99391 45.5996C4.25158 45.5353 4.50925 45.5996 4.63808 45.8569Z" fill="#1D1D1B"/>
<path d="M74.0797 46.1142C74.1441 46.3715 74.0153 46.6287 73.6932 46.7574C73.5 46.8217 73.3711 46.6931 73.1779 46.5644C72.9846 46.4358 72.9202 46.1785 73.1779 46.0499C73.3067 45.7926 73.6288 45.7283 73.8865 45.9213C74.0153 45.9856 74.0797 46.0499 74.0797 46.1142Z" fill="#1D1D1B"/>
<path d="M18.3589 46.4356C18.4878 46.6929 18.1657 46.7572 18.1013 46.9502C17.9724 47.0145 17.7792 47.0145 17.7148 46.9502C17.6503 46.8858 17.4571 46.6286 17.5215 46.4356C17.6503 46.307 17.7148 46.2427 17.8436 46.1784C18.1013 46.0497 18.2301 46.307 18.3589 46.4356Z" fill="#1D1D1B"/>
<path d="M79.5552 46.5643C79.6197 46.7572 79.4264 46.8215 79.4264 46.9501C79.2332 47.0788 79.0399 47.0788 78.8467 47.0788C78.589 46.9501 78.589 46.7572 78.589 46.4999C78.7178 46.3713 78.7822 46.2427 78.9755 46.2427C79.2332 46.2427 79.4908 46.3713 79.5552 46.5643Z" fill="#1D1D1B"/>
<path d="M78.0092 46.6929C78.1381 47.0144 77.816 47.1431 77.6227 47.2074C77.5583 47.2074 77.3651 47.1431 77.3651 47.336C77.9448 47.7219 78.5246 48.1721 78.9755 48.6866V48.8796C78.0092 48.9439 77.1074 48.558 76.4632 47.9148C76.27 47.7862 75.9479 47.7862 75.7546 47.5933C76.0767 47.2717 76.7209 47.4003 77.1718 47.4003C77.4939 47.0144 76.7853 46.7572 77.2362 46.4999C77.3651 46.4999 77.4939 46.307 77.6872 46.3713C77.7516 46.3713 77.8804 46.4999 78.0092 46.6929Z" fill="#1D1D1B"/>
<path d="M67.5092 46.6929C67.5736 46.8215 67.3804 46.9502 67.3804 47.0788C67.2515 47.2074 66.9939 47.2718 66.8006 47.2074C66.6718 47.0145 66.4785 46.8859 66.5429 46.6286C66.6718 46.3713 66.9939 46.307 67.2515 46.4357C67.3804 46.5 67.5092 46.5643 67.5092 46.6929Z" fill="#1D1D1B"/>
<path d="M10.3712 47.5933C10.3068 47.8505 10.1779 47.9791 9.92028 47.9791C9.72703 47.9791 9.53378 47.8505 9.46936 47.6576C9.46936 47.4646 9.59819 47.4003 9.59819 47.2717C9.92028 47.0144 10.4356 47.2074 10.3712 47.5933Z" fill="#1D1D1B"/>
<path d="M12.4969 47.2718C12.4969 47.6577 12.1104 47.8507 11.9816 48.1722C11.6595 49.0727 10.8865 49.7158 9.92024 49.8444C9.79141 49.5872 10.2423 49.3299 10.3712 49.0727C10.7577 48.1723 11.5951 47.722 12.3037 47.2075L12.4969 47.2718Z" fill="#1D1D1B"/>
<path d="M66.9294 47.5933C66.9294 47.8505 66.7362 48.1078 66.4785 48.1721C66.2208 48.2364 66.092 48.0435 65.9632 47.9792C65.7699 47.7862 65.8987 47.5933 65.9632 47.336C66.2208 47.0144 66.6717 47.2717 66.9294 47.5933Z" fill="#1D1D1B"/>
<path d="M68.4755 47.7864C68.4755 48.0436 68.2822 48.3009 68.0246 48.3652C67.9602 48.3009 67.8313 48.3652 67.7669 48.3009C67.5737 48.2366 67.4448 48.0436 67.4448 47.8507C67.5737 47.7221 67.6381 47.5291 67.8313 47.4648C68.0246 47.4005 68.4755 47.4648 68.4755 47.7864Z" fill="#1D1D1B"/>
<path d="M16.4264 47.7863C16.4264 48.0436 16.2976 48.2365 16.0399 48.3009C15.8467 48.3009 15.6534 48.1722 15.5246 47.9793C15.4602 47.722 15.7178 47.5934 15.8467 47.4648C16.1687 47.4004 16.2332 47.5934 16.4264 47.7863Z" fill="#1D1D1B"/>
<path d="M18.1657 47.8507C18.1013 48.108 17.908 48.2366 17.6503 48.3009C17.4571 48.2366 17.2638 48.1723 17.1994 47.9794C17.135 47.7864 17.3927 47.5935 17.5859 47.4648C17.8436 47.4648 18.1013 47.5935 18.1657 47.8507Z" fill="#1D1D1B"/>
<path d="M74.0154 49.6515C74.1442 49.7802 74.4019 49.9088 74.3375 50.0374C73.951 50.2304 73.6289 49.7802 73.178 49.6515C72.5982 49.0727 72.1473 48.3652 71.8252 47.5934C72.0829 47.3362 72.3405 47.6577 72.5338 47.7221C73.178 48.3009 73.6933 48.9441 74.0154 49.6515Z" fill="#1D1D1B"/>
<path d="M74.9172 47.8507C74.9816 48.0436 74.9816 48.2366 74.8528 48.4295C74.724 48.6868 74.3375 48.6225 74.1442 48.5581C74.0154 48.4295 73.7577 48.1722 73.951 47.9793C74.1442 47.7864 74.273 47.722 74.4663 47.6577C74.6595 47.5934 74.7884 47.7864 74.9172 47.8507Z" fill="#1D1D1B"/>
<path d="M20.5491 48.5582C20.5491 48.7511 20.6135 49.0727 20.3559 49.2014C20.0982 49.2657 19.8405 49.137 19.7117 48.8798C19.5828 48.5582 19.8405 48.4939 20.0338 48.3653C20.227 48.3009 20.3559 48.4296 20.5491 48.5582Z" fill="#1D1D1B"/>
<path d="M68.411 50.2303C68.7975 50.7448 68.9908 51.388 69.0552 52.0311C68.9908 52.2241 69.184 52.417 69.0552 52.5457H68.9264C67.7669 51.7096 67.5092 50.5519 67.0583 49.3942C66.9939 49.3299 66.9294 49.2656 66.9294 49.137C67.1871 48.8797 67.3804 49.3942 67.638 49.4585L68.411 50.2303Z" fill="#1D1D1B"/>
<path d="M23.8344 49.3298C22.8037 50.1016 21.3866 50.5518 20.2271 49.8443C20.2271 49.7157 20.2271 49.6513 20.3559 49.587C21.0645 49.2655 21.8375 49.0725 22.6105 49.0725L23.8344 49.3298Z" fill="#1D1D1B"/>
<path d="M18.0369 49.5228C17.1994 50.0373 16.362 51.1307 15.3313 51.3879C15.1381 51.4522 15.0093 51.7738 14.7516 51.5809C15.2025 50.1659 16.6841 49.4585 18.1013 49.3298V49.5228H18.0369Z" fill="#1D1D1B"/>
<path d="M66.9295 50.6161C66.9939 50.8091 66.9295 51.1307 66.7363 51.1307C66.6074 51.2593 66.4142 51.2593 66.2209 51.1307C65.9633 51.002 65.9633 50.8091 65.9633 50.6161C65.9633 50.4232 66.2209 50.4232 66.3498 50.3589C66.6074 50.4232 66.8007 50.4232 66.9295 50.6161Z" fill="#1D1D1B"/>
<path d="M64.8037 50.8092C64.6104 51.1308 64.2883 51.388 63.9018 51.4524C63.0644 51.7739 62.227 51.3237 61.454 51.1308C61.454 50.9378 61.7116 51.0022 61.8405 50.8735C62.6779 50.6163 63.5797 50.6163 64.4172 50.7449C64.546 50.6806 64.6748 50.6806 64.8037 50.8092Z" fill="#1D1D1B"/>
<path d="M18.0368 51.5166C17.9724 51.6452 17.908 51.8382 17.7147 51.9025C17.5215 51.9668 17.3282 51.9025 17.1994 51.7739C17.135 51.6452 16.9417 51.5166 17.0706 51.3237C17.1994 51.1307 17.3282 51.0664 17.4571 51.0664C17.7791 51.0664 17.9724 51.2594 18.0368 51.5166Z" fill="#1D1D1B"/>
<path d="M19.5185 51.7095C19.454 51.9024 19.3252 52.0954 19.132 52.224C18.9387 52.2883 18.7455 52.1597 18.6166 52.0311C18.4878 51.9024 18.4878 51.7095 18.5522 51.5165C18.6166 51.3879 18.7455 51.3879 18.9387 51.2593C19.1964 51.3236 19.454 51.5165 19.5185 51.7095Z" fill="#1D1D1B"/>
<path d="M66.4141 51.9669C66.4141 52.1598 66.3497 52.3528 66.2208 52.4814C66.092 52.6743 65.8343 52.6743 65.6411 52.61C65.4478 52.61 65.3834 52.3528 65.319 52.2241C65.2546 52.0955 65.4478 51.9025 65.5122 51.7096C65.7699 51.5167 66.092 51.581 66.2853 51.8382C66.4141 51.8382 66.4141 51.9025 66.4141 51.9669Z" fill="#1D1D1B"/>
<path d="M67.5736 51.9669C67.5736 52.0955 67.7024 52.2242 67.638 52.3528C67.5091 52.4814 67.3803 52.803 67.0582 52.6744C66.9294 52.7387 66.8006 52.5457 66.7361 52.4814C66.6073 52.2241 66.7361 51.8383 67.0582 51.7739C67.3803 51.7096 67.4447 51.8383 67.5736 51.9669Z" fill="#1D1D1B"/>
<path d="M18.6165 52.6744C18.681 52.9317 18.5521 53.1889 18.3589 53.3819C18.1012 53.4462 17.7147 53.4462 17.5859 53.1246C17.5215 52.8673 17.6503 52.5458 17.908 52.3528C18.23 52.2885 18.4877 52.4171 18.6165 52.6744Z" fill="#1D1D1B"/>
<path d="M20.0982 52.6099C20.0338 53.3173 19.9049 54.2177 19.1963 54.6036C18.8098 54.668 18.3589 55.0538 17.9724 54.7966V54.668C18.4877 53.8962 19.454 53.253 20.0982 52.6099Z" fill="#1D1D1B"/>
<path d="M62.4202 53.1889C62.5491 53.3175 62.3558 53.4461 62.2914 53.5748C62.227 53.7034 61.8405 53.7034 61.6472 53.5748C61.454 53.4461 61.454 53.2532 61.5184 53.0602C61.5828 52.8673 61.7116 52.8673 61.8405 52.803C62.0337 52.803 62.2914 52.9316 62.4202 53.1889Z" fill="#1D1D1B"/>
<path d="M22.6105 54.3466C22.997 54.9254 22.7393 55.7615 22.997 56.4047C22.5461 56.469 22.3528 55.9545 22.0952 55.6972C21.5154 54.9254 21.5798 53.8964 21.3221 52.996C21.3866 52.9316 21.451 52.9316 21.5154 52.9316C21.9019 53.2532 22.224 53.6391 22.4817 54.025C22.4817 54.2179 22.6749 54.2179 22.6105 54.3466Z" fill="#1D1D1B"/>
<path d="M63.7086 53.3817C63.7086 53.5746 63.4509 53.6389 63.3221 53.7675C63.1288 53.7675 63 53.6389 62.8067 53.5103C62.7423 53.253 62.9356 53.1887 63.0644 53.0601C63.2577 52.9314 63.5153 53.0601 63.6442 53.253C63.7086 53.3173 63.7086 53.3173 63.7086 53.3817Z" fill="#1D1D1B"/>
<path d="M66.7362 55.6329C66.7362 55.6972 66.7362 55.8901 66.6073 55.8258H66.4785C65.7699 55.1827 64.9969 54.4109 65.1258 53.3818H65.2546C65.9632 53.9607 66.7362 54.6038 66.7362 55.6329Z" fill="#1D1D1B"/>
<path d="M64.8036 54.8611C64.8036 55.054 64.7392 55.247 64.546 55.3756C64.2883 55.4399 63.8374 55.4399 63.7729 55.054C63.7729 54.7968 64.0306 54.6682 64.1595 54.5395C64.4815 54.4109 64.8036 54.5395 64.8036 54.8611C64.868 54.8611 64.868 54.8611 64.8036 54.8611Z" fill="#1D1D1B"/>
<path d="M63.1288 55.3756C62.7423 56.3403 61.7761 56.7905 61.1319 57.5623C61.0031 57.498 61.0675 57.3051 61.0675 57.1764C61.3252 56.1474 62.0338 55.3113 63.0644 54.8611C63.4509 54.8611 63.0644 55.1827 63.1288 55.3756Z" fill="#1D1D1B"/>
<path d="M65.0614 56.1473C65.0614 56.4045 64.8037 56.4689 64.6748 56.5975C64.4816 56.5975 64.2239 56.4689 64.0951 56.3402C64.0951 56.083 64.2883 56.0187 64.4172 55.89C64.6748 55.8257 64.9325 55.9543 65.0614 56.1473Z" fill="#1D1D1B"/>
<path d="M46.0583 9.51855C46.4448 9.51855 46.7024 9.77582 46.7024 10.1617C46.7024 10.5476 46.4448 10.8049 46.0583 10.8049H38.457C38.0705 10.8049 37.8129 10.5476 37.8129 10.1617C37.8129 9.77582 38.0705 9.51855 38.457 9.51855H46.0583ZM40.7116 10.6119C41.4202 10.6119 40.7761 9.7115 40.3251 9.7115H39.6165C38.908 9.7115 39.5521 10.6119 40.003 10.6119H40.7116ZM43.8037 10.6119C44.5123 10.6119 43.8681 9.7115 43.4172 9.7115H42.7086C42 9.7115 42.6442 10.6119 43.0951 10.6119H43.8037ZM46.1227 9.7115H45.865C45.1564 9.7115 45.7362 10.6119 46.1227 10.6119C46.5736 10.6119 46.638 9.7115 46.1227 9.7115Z" fill="#1D1D1B"/>
<path d="M45.3497 18.2012L46.7669 18.78L48.184 18.2012L47.6687 20.3236L48.8282 20.0663L48.4417 21.3526L48.8282 22.5746L47.7975 22.3174L48.2485 24.6327L46.8313 24.0539L45.4141 24.6327L45.9939 22.3174L44.8344 22.6389L45.1564 21.3526L44.8344 20.1306L45.9294 20.3236L45.3497 18.2012ZM47.5399 22.0601C47.862 22.0601 47.9264 21.6099 47.9264 21.224C47.9264 20.3236 47.2178 21.224 46.8957 20.3879C46.638 21.0954 45.9294 20.4522 45.9294 21.1597C45.9294 21.6742 45.9294 21.9958 46.4448 21.9958H47.5399V22.0601ZM46.1227 21.224C46.1227 21.5456 46.5736 21.3526 46.8957 21.3526C47.2178 21.3526 47.6687 21.5456 47.6687 21.224C47.6687 20.7738 47.2178 20.9024 46.8957 20.9024C46.5736 20.9024 46.1227 20.7095 46.1227 21.224Z" fill="#1D1D1B"/>
<path d="M42 21.2885V21.0312L41.7423 20.9669L41.9356 20.7739L41.8067 20.581H42.0644L42.1932 20.3237L42.3865 20.581H42.5797L42.5153 20.7739L42.7086 20.9669L42.4509 21.0312V21.2885L42.1932 21.1598L42 21.2885Z" fill="#1D1D1B"/>
<path d="M40.8405 22.7677V22.5104L40.6472 22.4461L40.7761 22.2532L40.7116 21.9959L40.9693 22.0602L41.0981 21.803L41.227 22.0602L41.4846 21.9959L41.3558 22.2532L41.5491 22.4461L41.2914 22.5104V22.7677L41.0981 22.5748L40.8405 22.7677Z" fill="#1D1D1B"/>
<path d="M42.7731 22.5746V22.3173L42.5154 22.253L42.7086 22.0601L42.5798 21.8671H42.8375L42.9663 21.6099L43.1596 21.8671H43.4172L43.2884 22.0601L43.4816 22.253L43.224 22.3173V22.5746L42.9663 22.3816L42.7731 22.5746Z" fill="#1D1D1B"/>
<path d="M42.9662 23.6679V23.475H42.8374L42.9662 23.3464L42.9018 23.2177L43.0307 23.2821L43.0951 23.0891L43.2239 23.2177H43.3527L43.2883 23.3464L43.4172 23.475H43.2239V23.6679L43.0951 23.5393L42.9662 23.6679Z" fill="#1D1D1B"/>
<path d="M41.227 24.89V24.4398L40.7761 24.3111L41.1626 23.9896L40.905 23.6037L41.3559 23.668L41.6135 23.2178L41.8712 23.668L42.3221 23.6037L42.0645 23.9896L42.451 24.3111L42 24.4398V24.89L41.6135 24.5684L41.227 24.89Z" fill="#1D1D1B"/>
<path d="M42.1289 0.643066L43.0307 2.82979L45.2853 2.18663L44.1258 4.24473L46.0583 5.65966L43.7393 6.04556L43.8681 8.42522L42.1289 6.81734L40.3896 8.42522L40.5184 6.04556L38.135 5.65966L40.1319 4.24473L38.9724 2.18663L41.227 2.82979L42.1289 0.643066Z" fill="#1D1D1B"/>
<path d="M33.8834 50.1659C33.6258 50.2945 33.4969 50.3588 33.5613 50.6161L33.8834 51.9667C33.9479 52.2883 33.9479 52.6099 33.819 52.8671C33.5613 53.1244 33.2393 53.3173 32.9172 53.446C32.5307 53.5746 32.2086 53.5746 31.8221 53.446C31.5 53.3173 31.3067 53.0601 31.3067 52.7385L30.9202 51.3236C30.8558 50.9377 30.727 51.002 30.4049 51.0663V50.9377L32.1442 50.5518V50.6804C31.8221 50.809 31.6288 50.809 31.7577 51.1949L32.0798 52.6099C32.1442 52.8671 32.273 53.446 32.9816 53.253C33.4325 53.1887 33.7546 52.8028 33.7546 52.3526C33.7546 52.2883 33.7546 52.1597 33.6902 52.0953L33.3681 50.809C33.3037 50.5518 33.2393 50.4231 32.7883 50.4875V50.3588L33.8834 50.1016V50.1659Z" fill="#1D1D1B"/>
<path d="M36.3957 50.4874C36.2024 50.0372 35.6871 49.8443 35.2362 49.9086C34.9785 49.9729 34.7209 50.1659 34.7853 50.4231C34.8497 50.6804 34.9785 50.7447 35.4294 50.809L36.2669 50.9376C36.589 51.002 36.911 51.2592 36.9755 51.5808C37.0399 51.9667 36.8466 52.5455 35.8804 52.7385C35.5583 52.8028 35.3006 52.8028 34.9785 52.8028C34.8497 52.8028 34.8497 52.9314 34.8497 52.9957L34.7853 53.06L34.5276 52.031L34.6564 51.9667C34.8497 52.4812 35.365 52.7385 35.8804 52.6742C36.5245 52.5455 36.3957 52.0953 36.3957 52.031C36.3313 51.7737 36.0736 51.7094 35.6871 51.6451L35.3006 51.5808C34.3344 51.4522 34.2699 51.0663 34.2055 50.8733C34.1411 50.6804 34.2055 49.9729 35.1718 49.78C35.4294 49.7157 35.7515 49.7157 36.0092 49.7157C36.138 49.7157 36.138 49.587 36.138 49.5227H36.2669L36.4601 50.4231L36.3957 50.4874Z" fill="#1D1D1B"/>
<path d="M39.8098 52.1596L37.9417 52.3526V52.224C38.3282 52.1596 38.457 52.1596 38.3926 51.7738L38.1993 49.4584C37.8128 49.5227 37.2975 49.587 37.2975 50.2945H37.1687L37.1042 49.3941L40.1963 49.0725L40.2607 49.9729H40.1319C39.9386 49.2655 39.4233 49.3298 39.0368 49.3298L39.23 51.6451C39.2944 52.031 39.3589 52.031 39.8098 51.9667V52.1596Z" fill="#1D1D1B"/>
<path d="M44.1257 52.1597H43.0306L41.9999 50.8091H41.8711V51.6452C41.8711 51.9667 41.9999 52.031 42.322 52.031V52.1597H40.5828V52.031C40.9693 51.9667 41.0337 51.9667 41.0337 51.6452L41.0981 49.7157C41.0981 49.3298 40.9693 49.3298 40.6472 49.3298V49.2012L42.322 49.2655C42.7085 49.2655 43.8036 49.3298 43.7392 50.0373C43.7392 50.5518 43.1594 50.6804 42.9018 50.7447L43.9325 52.031C43.9969 52.0954 44.0613 52.1597 44.1257 52.1597ZM41.8711 50.6161C42.5797 50.6161 42.8374 50.5518 42.8374 49.973C42.9018 49.6514 42.7085 49.3941 42.3864 49.3298C42.322 49.3298 42.2576 49.3298 42.1932 49.3298C41.9355 49.3298 41.8711 49.3941 41.8711 49.5227V50.6161Z" fill="#1D1D1B"/>
<path d="M47.5399 52.6101L45.865 52.4171V52.2885C46.1871 52.2885 46.2515 52.2885 46.316 52.1598C46.316 51.9669 46.2515 51.774 46.1227 51.581L44.9632 51.4524C44.8344 51.6453 44.77 51.774 44.6411 51.9669C44.6411 52.0955 44.8988 52.1598 45.0276 52.2242V52.3528L43.9969 52.2242V52.0955C44.2546 52.0955 44.3834 51.9669 44.5767 51.6453L45.9939 49.3943H46.1227L47.0246 51.8383C47.2178 52.3528 47.2822 52.4814 47.5399 52.4814V52.6101ZM46.1227 51.3881L45.7362 50.2947L45.092 51.2594L46.1227 51.3881Z" fill="#1D1D1B"/>
<path d="M50.5674 53.2532L47.6042 52.7387V52.61C47.9263 52.61 48.0552 52.6744 48.1196 52.4171L48.5061 50.359C48.5705 50.1017 48.3773 50.0374 48.1196 49.9731V49.8445L49.9233 50.1661V50.2947C49.5368 50.2304 49.4079 50.2304 49.3435 50.6163L48.957 52.5457C48.8926 52.7387 49.0214 52.803 49.3435 52.8673C49.9233 52.9959 50.503 52.7387 50.7607 52.2885H50.8895L50.5674 53.2532Z" fill="#1D1D1B"/>
<path d="M52.5644 53.639L50.7607 53.2531V53.1244C51.0184 53.1888 51.2761 53.1888 51.2761 52.9315L51.727 50.8734C51.7914 50.6161 51.5337 50.5518 51.3405 50.4875V50.3589L53.1442 50.7448V50.8734C52.8221 50.8091 52.6288 50.8091 52.5644 51.0664L52.1135 53.1244C52.0491 53.3817 52.2423 53.446 52.5644 53.5103V53.639Z" fill="#1D1D1B"/>
<path d="M56.1718 54.1535L54.4969 53.9606V53.8319C54.819 53.8319 54.8834 53.8319 54.9478 53.7033C54.9478 53.5104 54.8834 53.3174 54.7546 53.1245L53.5951 52.9958C53.4662 53.1888 53.4018 53.3174 53.3374 53.5104C53.3374 53.7033 53.5951 53.7033 53.7239 53.7676V53.8963L52.6932 53.7676V53.639C52.9509 53.639 53.0797 53.5104 53.273 53.1888L54.6902 50.9377H54.7546L55.6564 53.3174C55.8497 53.8319 55.9141 53.9606 56.1718 53.9606V54.1535ZM54.6902 52.9315L54.3037 51.8382L53.7239 52.8672L54.6902 52.9315Z" fill="#1D1D1B"/>
<path d="M42.8375 18.9088C42.8375 17.8798 42.2577 18.8445 41.9356 17.9441C41.6779 18.7159 40.9694 18.0727 40.9694 18.9088C40.9694 19.1018 41.0338 19.359 41.227 19.4877V19.8092C41.227 19.8736 41.2914 19.9379 41.3559 19.9379H42.451C42.5154 19.9379 42.5798 19.8736 42.5798 19.8092V19.4877C42.773 19.2947 42.8375 19.1018 42.8375 18.9088ZM41.9356 19.1018C41.6135 19.1018 41.227 19.2947 41.227 18.9731C41.227 18.4586 41.6135 18.5872 41.8712 18.5872C42.1289 18.5872 42.6442 18.4586 42.6442 18.9731C42.6442 19.2947 42.2577 19.1018 41.9356 19.1018Z" fill="#1D1D1B"/>
<path d="M51.9846 31.7719C52.2423 31.7719 52.3711 31.5146 52.3711 31.3217C52.3711 31.0644 52.1134 30.9358 51.9202 30.9358C51.7269 30.9358 51.5337 31.1287 51.5337 31.386C51.5337 31.5789 51.7269 31.7719 51.9846 31.7719Z" fill="#1D1D1B"/>
<path d="M49.7301 16.2075C49.6657 16.3362 49.5368 16.5291 49.4724 16.6577C49.4724 16.7864 49.5368 16.915 49.6657 16.915C49.7945 16.915 49.9233 16.8507 49.9233 16.722V16.6577L49.7301 16.2075Z" fill="#1D1D1B"/>
<path d="M34.2699 16.2075C34.2055 16.3362 34.0766 16.5291 34.0122 16.6577C34.0122 16.7864 34.0766 16.915 34.2055 16.915C34.3343 16.915 34.4631 16.7864 34.4631 16.6577L34.2699 16.2075Z" fill="#1D1D1B"/>
<path d="M38.135 16.2075C38.0706 16.3362 37.9417 16.5291 37.8773 16.6577C37.8773 16.7864 37.9417 16.915 38.0706 16.915C38.1994 16.915 38.3282 16.8507 38.3282 16.722V16.6577L38.135 16.2075Z" fill="#1D1D1B"/>
<path d="M42 16.2075C41.9356 16.3362 41.8067 16.5291 41.7423 16.6577C41.7423 16.7864 41.8067 16.915 41.9356 16.915C42.0644 16.915 42.1932 16.8507 42.1932 16.722V16.6577L42 16.2075Z" fill="#1D1D1B"/>
<path d="M45.8651 16.2075C45.8007 16.3362 45.6718 16.5291 45.6074 16.6577C45.6074 16.7864 45.6718 16.915 45.8007 16.915C45.9295 16.915 46.0583 16.8507 46.0583 16.722V16.6577L45.8651 16.2075Z" fill="#1D1D1B"/>
<path d="M34.2699 21.4814C34.3343 21.6101 34.4632 21.803 34.5276 21.9317C34.5276 22.0603 34.4632 22.1889 34.3343 22.1889C34.2055 22.1889 34.0767 22.0603 34.0767 21.9317L34.2699 21.4814Z" fill="#1D1D1B"/>
<path d="M34.2699 26.6265C34.3343 26.7551 34.4632 26.948 34.5276 27.0767C34.5276 27.2053 34.4632 27.3339 34.3343 27.3339C34.2055 27.3339 34.0767 27.2053 34.0767 27.0767L34.2699 26.6265Z" fill="#1D1D1B"/>
<path d="M34.9141 30.7427C34.9785 30.8713 35.1073 31.0643 35.1717 31.1929C35.1717 31.3215 35.1073 31.4501 34.9785 31.4501C34.8497 31.4501 34.7208 31.3858 34.7208 31.2572V31.1929L34.9141 30.7427Z" fill="#1D1D1B"/>
<path d="M38.135 32.8652C38.1994 32.9939 38.3283 33.1868 38.3927 33.3154C38.3927 33.4441 38.3283 33.5727 38.1994 33.5727C38.0706 33.5727 37.9418 33.4441 37.9418 33.3154L38.135 32.8652Z" fill="#1D1D1B"/>
<path d="M49.9234 21.4814C49.8589 21.6101 49.7945 21.803 49.7301 21.9317C49.7301 22.0603 49.7945 22.1889 49.9234 22.1889C50.0522 22.1889 50.181 22.1246 50.181 21.996V21.9317L49.9234 21.4814Z" fill="#1D1D1B"/>
<path d="M49.9234 26.6265C49.8589 26.7551 49.7945 26.948 49.7301 27.0767C49.7301 27.2053 49.7945 27.3339 49.9234 27.3339C50.0522 27.3339 50.181 27.2696 50.181 27.141V27.0767L49.9234 26.6265Z" fill="#1D1D1B"/>
<path d="M49.2792 30.7427C49.2147 30.8713 49.0859 31.0643 49.0215 31.1929C49.0215 31.3215 49.0859 31.4501 49.2147 31.4501C49.3436 31.4501 49.4724 31.3858 49.4724 31.2572V31.1929L49.2792 30.7427Z" fill="#1D1D1B"/>
<path d="M46.0583 32.8652C45.9939 32.9939 45.8651 33.1868 45.8007 33.3154C45.8007 33.4441 45.8651 33.5727 45.9939 33.5727C46.1227 33.5727 46.2516 33.5084 46.2516 33.3798V33.3154L46.0583 32.8652Z" fill="#1D1D1B"/>
<path d="M42.1289 35.1804C42.0645 35.3091 41.9356 35.502 41.8712 35.6306C41.8712 35.7593 41.9356 35.8879 42.0645 35.8879C42.1933 35.8879 42.3221 35.8236 42.3221 35.6949V35.6306L42.1289 35.1804Z" fill="#1D1D1B"/>
<path d="M48.3773 27.527C48.4417 27.5913 48.5705 27.6556 48.6994 27.5913L48.8282 27.2054C48.8282 27.2054 48.635 27.0124 48.5705 27.0124C48.184 27.1411 47.7331 27.1411 47.4755 27.527C47.4755 27.7842 47.6043 28.0415 47.862 28.1701C47.9908 28.1058 48.0552 28.2987 48.1196 28.3631C48.1196 28.4274 48.1196 28.556 47.9908 28.556H47.9264C47.6687 28.2344 47.1534 28.6846 46.8957 28.2987C46.9601 27.9128 47.1534 27.527 46.8957 27.1411C46.8957 27.0767 47.0245 27.0124 46.9601 26.9481C46.8313 26.6265 46.4448 26.8838 46.2515 26.8838C45.9294 26.8838 45.5429 27.0124 45.3497 27.334C45.3497 27.4626 45.4141 27.5913 45.5429 27.7199C45.6074 27.7199 45.6718 27.7199 45.7362 27.8485L45.4785 27.9772C45.5429 28.0415 45.5429 28.1701 45.6074 28.2344C45.4141 28.2987 45.2853 28.0415 45.2209 27.9128C45.1564 27.7842 45.2209 27.3983 44.9632 27.334C44.8988 27.334 44.8343 27.3983 44.7699 27.3983C44.7055 27.527 44.6411 27.6556 44.7055 27.7842C44.7055 27.9128 44.7699 28.1058 44.7699 28.2344C45.092 28.4917 45.4141 28.8133 45.6718 29.1348C45.4785 29.585 45.4785 30.1639 44.9632 30.4211C44.8344 30.5498 44.8343 30.6784 44.8343 30.807L44.9632 30.9357C45.2853 30.7427 45.865 30.7427 45.865 30.1639C45.9939 29.9066 46.1227 29.7137 46.3159 29.5207C46.5092 29.4564 46.7669 29.585 46.8957 29.778C46.8313 30.0996 46.5736 30.4211 46.2515 30.4855C46.1871 30.5498 46.2515 30.6141 46.2515 30.6784C46.3159 30.8714 46.638 30.807 46.7669 30.7427C47.1534 30.4855 47.3466 29.9709 47.7331 29.8423C47.7975 30.0996 47.2178 30.1639 47.6043 30.4211C47.7975 30.3568 48.1196 30.4211 48.2485 30.1639C48.0552 29.778 48.8282 29.5207 48.3773 29.1992C48.3773 28.8133 48.7638 28.6846 48.7638 28.2987C48.635 27.9128 48.184 27.9128 48.0552 27.527C48.1196 27.3983 48.3129 27.3983 48.3773 27.527Z" fill="#1D1D1B"/>
<path d="M30.6626 31.9648C30.9203 31.9648 31.0491 31.7075 31.0491 31.5146C31.0491 31.2573 30.7914 31.1287 30.5982 31.1287C30.4049 31.1287 30.2117 31.3216 30.2117 31.5789C30.2117 31.7718 30.4049 31.9648 30.6626 31.9648Z" fill="#1D1D1B"/>
<path d="M5.6687 46.5644C5.92636 46.5644 6.11962 46.3714 6.11962 46.1142C6.11962 45.8569 5.86195 45.664 5.60428 45.7283C5.41103 45.7283 5.21778 45.9212 5.21778 46.1142C5.15336 46.3714 5.41103 46.5644 5.6687 46.5644Z" fill="#1D1D1B"/>
<path d="M21.5798 50.1015L21.5154 49.9729H21.5798H21.6442L21.5798 50.1015Z" fill="#1D1D1B"/>
<path d="M21.7729 50.1017C21.8374 50.1017 21.8374 50.1017 21.7729 50.1017V50.1017ZM21.8374 50.0374C21.9018 50.0374 21.9018 50.0374 21.9018 50.1017C21.9018 50.166 21.9018 50.166 21.8374 50.166V50.0374Z" fill="#1D1D1B"/>
<path d="M51.0184 15.6287H33.1748V29.1992C33.1748 30.6141 33.7546 31.7718 34.592 32.1577L41.4202 36.5312C41.549 36.7241 41.8067 36.8527 42.0644 36.7884C42.2576 36.7884 42.4509 36.7241 42.6441 36.5955L49.6012 32.1577C50.4386 31.7718 51.0184 30.5498 51.0184 29.1992V15.6287ZM50.503 29.3921C50.503 30.2926 50.0521 31.193 49.3435 31.7718L42.6441 36.0166H42.5797C42.2576 36.2739 41.8067 36.2739 41.549 36.0166L34.8497 31.7718C34.1411 31.193 33.6901 30.3569 33.6901 29.3921V16.0789H50.503V29.3921Z" fill="#1D1D1B"/>
<path d="M44.5122 35.4377L44.7055 35.3091C44.641 35.3091 44.5766 35.3734 44.5122 35.4377Z" fill="#1D1D1B"/>
<path d="M31.049 54.0248L29.3742 54.2178V54.0892C29.6963 54.0248 29.7607 54.0248 29.7607 53.8962C29.6963 53.7033 29.5675 53.5103 29.4386 53.3817L28.2791 53.5103C28.2147 53.7033 28.1503 53.8962 28.0859 54.0892C28.0859 54.2178 28.3435 54.2178 28.5368 54.2178V54.3464L27.5061 54.475V54.3464C27.7638 54.2821 27.8282 54.1535 27.957 53.7676L28.8589 51.2593H28.9877L30.4049 53.3817C30.6625 53.8319 30.7914 53.9605 31.049 53.8962V54.0248ZM29.3742 53.1887L28.73 52.1597L28.3435 53.2531L29.3742 53.1887Z" fill="#1D1D1B"/>
<path d="M60.5521 47.5933C60.23 46.8216 59.5858 46.2427 58.8128 45.9855C58.0398 45.7282 57.2024 45.9855 56.6227 46.5643C55.7208 47.3361 56.365 48.5581 56.365 49.5228C56.365 49.7158 56.365 49.9087 56.1717 49.973C52.4355 49.6514 49.0214 48.6867 45.3496 48.3008C44.5122 48.1722 43.6748 48.1722 42.8374 48.0436L41.8067 47.9149C38.6503 47.9149 35.4938 48.3008 32.4018 48.944C31.7576 49.1369 31.049 49.2012 30.4049 49.4585C29.9539 49.3942 29.5674 49.7158 29.1165 49.5871L28.2791 49.7801C28.2147 49.7801 28.0858 49.7801 28.0214 49.7801C27.6349 48.751 28.8588 48.1079 28.4723 47.0788C28.1503 46.4357 27.4417 45.9855 26.7331 46.0498C25.8957 45.9855 25.1226 46.3714 24.6717 47.0788C24.092 48.3651 24.8006 49.7158 25.0582 50.9377C24.9938 51.3236 25.4447 51.8382 25.0582 52.1597C24.2208 51.5166 23.1901 51.3236 22.1595 51.5809C21.8374 51.7095 21.322 51.5166 21.1288 51.9025C22.2239 52.4813 23.6411 52.417 24.865 52.3527C24.9938 52.2884 25.1227 52.2884 25.2515 52.3527C25.3803 52.9958 25.1226 53.8963 25.5092 54.4751C26.0245 54.9896 26.7331 55.3112 27.4417 55.3112C29.8251 55.2469 31.8865 54.5394 34.0122 54.0249C34.3343 54.0249 34.592 53.8319 34.9785 53.8319C36.138 53.5747 37.3619 53.3817 38.5858 53.3174C38.0705 54.0249 37.684 54.7967 37.4907 55.6328C37.1687 56.3402 38.0061 56.4046 38.2638 56.7904C37.4907 57.0477 36.911 57.5622 36.2024 57.8838C34.592 57.8195 33.1748 58.4626 31.6288 58.6556C31.6288 58.9772 32.1441 58.9128 32.2085 59.2344C32.1441 59.4917 31.8865 59.4917 31.6932 59.6203C31.6932 59.7489 31.6932 59.8133 31.822 59.8133C31.9509 59.6203 32.3374 59.7489 32.4662 59.556C32.9815 59.556 33.4325 59.4274 33.8834 59.3631C34.3343 59.2344 34.7852 59.1058 35.1717 58.8485C35.6871 58.7199 36.0736 58.334 36.5889 58.2054C37.3619 58.2054 38.0705 57.9481 38.7791 57.8838V58.0124C38.1993 58.9772 37.5552 59.9419 36.9754 60.8423C36.911 60.9709 36.9754 61.1639 37.1042 61.2282H37.1687C37.4907 61.2925 37.8773 61.2282 38.1993 61.0996C38.7147 60.1992 39.23 59.2987 39.6809 58.334C39.8742 57.4979 40.5184 56.9834 41.1625 56.4045C41.2914 56.3402 41.4202 56.2116 41.549 56.3402C41.0981 56.9191 40.6472 57.4979 40.3251 58.1411C40.003 58.9129 40.1963 59.749 40.7116 60.3921C41.0337 60.6494 41.4846 60.585 41.8711 60.585C42.9018 60.0705 44.1257 60.9066 44.8987 59.9419C45.3496 59.8776 45.4141 60.3921 45.6717 60.6494C46.1227 60.778 46.5736 61.2282 47.0245 60.9066C47.0245 60.6494 46.7024 60.3921 46.5092 60.1348C46.1871 59.6203 45.8006 59.1701 45.5429 58.6556C45.4141 58.334 45.2852 58.0124 45.2208 57.6909C45.6717 57.8838 46.1227 58.0768 46.5736 58.2054C47.0245 58.334 47.4754 58.4626 47.9263 58.5913C48.3128 58.9772 48.7638 59.2987 49.2147 59.556C49.8588 59.8776 50.5674 59.9419 51.2116 60.1992C51.4693 60.1992 51.8558 60.4564 52.049 60.1992C51.9202 60.0705 51.7914 60.0062 51.6625 59.9419C51.5981 59.6203 52.1134 59.8133 52.3067 59.556C52.2423 59.4274 52.1134 59.3631 51.9846 59.3631C51.5981 59.1701 50.6963 59.1058 50.4386 58.9772C50.1165 58.9128 49.8588 58.7842 49.5368 58.7199C47.9908 58.7199 47.1533 57.305 45.9294 56.8548C46.1871 56.5975 46.638 56.4046 46.8312 56.0187C47.0889 55.6328 47.0889 55.1182 46.8957 54.668C46.638 53.8963 45.6717 53.9606 45.0276 53.5104L45.092 53.446C45.9938 53.446 46.9601 53.5747 47.8619 53.8319C50.3098 54.1535 52.5644 55.1182 55.1411 55.1182C56.5582 55.1182 58.2975 55.1826 59.0061 53.8319C59.1349 53.0602 59.2638 52.2241 59.3926 51.4523C59.8435 50.2303 60.7454 49.0726 60.5521 47.5933ZM32.9815 59.2987L32.595 58.9772C32.7883 58.7199 33.1748 58.8485 33.4325 58.7199C34.1411 58.4626 34.8496 58.334 35.6227 58.3983C34.8496 59.0415 33.8834 59.1058 32.9815 59.2987ZM48.957 58.9128C49.8588 59.2344 50.7607 59.4274 51.6625 59.556C51.5981 59.8776 50.9539 59.556 51.0184 60.0705C50.2453 59.749 49.3435 59.6203 48.6993 58.9772C48.7638 58.9772 48.8282 58.9128 48.957 58.9128ZM24.9294 47.9792C24.9938 47.4647 25.1871 47.0145 25.5736 46.6929C26.2177 46.3714 26.9907 46.4357 27.5705 46.7572C27.7638 46.8859 27.8926 47.0145 27.957 47.2718C28.0858 47.722 27.8926 48.1722 27.5705 48.4294H27.3128C27.3128 48.0436 27.3128 47.6577 27.4417 47.2718C27.4417 46.9502 27.184 46.9502 26.9263 46.8216C26.5398 46.7573 26.0889 46.8216 25.7668 47.0788C25.4447 47.3361 25.3159 47.7863 25.4447 48.2365C25.638 48.4938 25.4447 48.8797 25.5736 49.2012L25.5092 49.3299C25.3159 48.944 24.9294 48.5581 24.9294 47.9792ZM26.1533 48.751C26.5398 49.0083 27.0552 48.8797 27.5061 49.0083C27.6349 49.3299 27.5705 49.6514 27.3773 49.8444C26.9263 49.7158 26.411 49.7801 26.1533 49.3942C26.2177 49.2012 26.0889 48.944 26.1533 48.751ZM26.0889 47.8506C26.1533 47.6577 26.0889 47.3361 26.3466 47.2718C26.5398 47.2075 26.7975 47.2075 26.8619 47.4004C26.8619 47.722 26.7975 47.9792 26.7331 48.3008C26.411 48.3651 26.1533 48.1722 26.0889 47.8506ZM38.0705 56.1473C37.9417 55.3112 38.2638 54.4108 38.9079 53.8319C39.2944 53.7033 39.6809 53.7033 40.003 53.8963C39.3588 54.0892 38.5214 54.2178 38.3282 55.0539C38.3282 55.3755 38.2638 55.5685 38.3926 55.8257C38.6503 56.3402 39.2944 56.083 39.6809 56.4689C39.6809 56.5975 39.5521 56.7261 39.4233 56.7904C38.9723 56.5975 38.5214 56.3402 38.0705 56.1473ZM37.1687 57.8838C37.8128 57.6265 38.3926 57.112 39.1012 57.305C38.5214 57.6909 37.8128 57.8838 37.1687 57.8838ZM39.5521 58.1411C39.1656 58.9772 38.7791 59.8133 38.3282 60.585C38.2638 60.7137 38.0705 60.7137 37.9417 60.778C37.9417 60.3921 38.3282 60.1348 38.457 59.8133C38.9723 59.1058 39.1656 58.3983 39.7454 57.6909C39.8742 57.8195 39.5521 57.9481 39.5521 58.1411ZM40.1963 56.6618V56.7904H40.1319L40.1963 56.6618C40.2607 56.5975 40.1963 56.5975 40.1963 56.6618ZM40.003 55.9543C39.5521 55.89 39.1656 55.7614 38.7791 55.6328C38.5214 55.3755 38.7791 55.1182 38.7791 54.7967C39.1656 54.2178 40.1319 53.9606 40.6472 54.4751C40.5828 55.0539 40.3251 55.5685 40.003 55.9543ZM40.5184 55.9543C40.5828 55.5685 40.7116 55.2469 40.9049 54.861C40.9049 55.2469 40.776 55.6328 40.5184 55.9543ZM40.8404 53.8963C40.5184 53.8319 40.3251 53.446 39.9386 53.446C40.2607 53.3817 40.5828 53.3817 40.9049 53.446C41.0337 53.5747 40.8404 53.7676 40.8404 53.8963ZM41.1625 55.8257C41.1625 55.6971 41.2269 55.5684 41.2269 55.4398C41.3558 55.3112 41.4846 55.5685 41.549 55.6328C41.4202 55.7614 41.2914 55.8257 41.1625 55.8257ZM41.549 54.2178C41.6134 53.8963 41.7423 53.5747 41.9355 53.2531C42.1932 53.2531 42.3865 53.2531 42.6441 53.3817C42.7085 53.8963 43.3527 54.6037 42.6441 55.0539C42.3865 55.1826 42.0644 55.3755 41.8067 55.1826C41.4846 54.9253 41.3558 54.5394 41.549 54.2178ZM43.3527 53.5104C43.2883 53.2531 43.6104 53.446 43.6748 53.3817L44.4478 53.446C44.1257 53.3817 43.6104 54.3465 43.3527 53.5104ZM44.6411 53.8319C44.319 53.9606 44.1257 54.2821 43.8036 54.3465C43.9969 54.0892 44.319 53.8963 44.6411 53.8319ZM43.6748 57.0477C43.6748 57.112 43.6748 57.1763 43.6104 57.2407L43.0306 56.7904C43.2883 56.6618 43.4816 56.7904 43.6748 57.0477ZM42.9662 56.2116C43.0306 56.1473 43.1595 56.1473 43.2239 56.2116H42.9662ZM42.5797 55.8257C42.7085 55.6971 42.8374 55.4398 42.9662 55.4398C42.9662 55.4398 42.9662 55.5041 43.0306 55.5041C42.9018 55.6328 42.773 55.7614 42.5797 55.8257ZM42 55.7614H41.8711L42 55.6328C42.1288 55.6971 42.0644 55.7614 42 55.7614ZM42.0644 56.7261C42.3865 56.3402 42.7085 56.9191 42.8374 57.2407C43.2239 57.8195 44.1901 58.334 43.868 59.1058C43.3527 59.556 42.5797 59.1058 42.0644 59.4917C41.8067 59.4917 41.2914 59.556 41.1625 59.2344C41.3558 58.3983 41.6779 57.5622 42.0644 56.7261ZM41.3558 57.2407L41.4846 57.0477C41.2914 57.6909 40.9693 58.334 40.6472 58.9128C40.5184 58.2697 41.1625 57.8195 41.3558 57.2407ZM42.5153 60.3278C42 60.3278 41.2914 60.6494 40.8404 60.1992C40.8404 60.0062 40.6472 59.8776 40.6472 59.6846C41.0337 59.556 41.4202 60.0062 41.8067 59.6846C42.3865 59.6203 43.0306 59.6846 43.6104 59.749C43.868 59.8133 44.319 59.2987 44.3834 59.8133C44.1257 60.6494 43.095 60.0705 42.5153 60.3278ZM43.9969 56.5975V56.5332H44.0613L43.9969 56.5975ZM44.1257 58.2054C44.1257 58.4626 44.3834 58.5913 44.2546 58.7842C44.1257 58.6556 44.0613 58.3983 44.1257 58.2054ZM44.8343 59.749L44.7055 59.8133C44.5766 59.6846 44.6411 59.4274 44.6411 59.2987C44.8343 59.4274 44.9631 59.556 44.8343 59.749ZM46.1227 60.3921C46.1227 60.4564 45.9938 60.4564 45.9294 60.3921C45.2852 59.4274 44.7055 58.3983 44.319 57.305H44.4478C45.0276 58.334 45.5429 59.4274 46.1227 60.3921ZM47.0889 58.0124C47.0889 58.0124 47.0245 58.0768 47.0245 58.1411C46.3803 58.0768 45.7361 57.8195 45.2208 57.3693V57.2407C45.9294 57.3693 46.5736 57.6265 47.0889 58.0124ZM46.4447 54.6037C46.7668 54.668 46.7668 54.9896 46.8312 55.2469C46.8312 55.8257 46.5092 56.3402 45.9294 56.5332C45.6073 56.6618 45.2852 56.7261 44.8987 56.6618C45.5429 56.7261 46.1227 56.3402 46.4447 55.7614V54.6037ZM45.865 54.5394C46.0582 54.861 46.1227 55.2469 46.1227 55.6971C45.865 56.2116 45.3496 56.2116 44.8987 56.2759C44.7055 56.2759 44.4478 56.2116 44.319 56.083C44.319 55.9543 44.319 55.89 44.1901 55.8257C44.2546 55.5041 43.6104 55.1826 44.0613 54.861C44.4478 54.4751 45.4141 53.5747 45.865 54.5394ZM58.8773 52.6743C58.684 52.9315 58.8773 53.3174 58.6196 53.5747C58.6196 54.0249 58.2331 54.2821 57.911 54.4751C54.8834 55.1182 51.8558 54.0892 48.957 53.5747C44.6411 52.6099 40.1963 52.5456 35.8159 53.3817C33.8834 53.7676 31.9509 54.2178 30.0184 54.7324C28.8588 54.9896 27.6349 54.9896 26.411 54.7324C25.5092 54.2821 25.8957 53.1245 25.5736 52.2884C25.5736 51.7095 25.5092 51.1307 25.3803 50.4875C25.3159 50.2946 25.2515 50.0373 25.2515 49.8444C25.638 49.9087 26.0245 50.166 26.411 50.2946C28.5368 50.6805 30.4693 50.0373 32.4662 49.6514C34.3987 49.2012 36.3957 48.944 38.3926 48.751C40.6472 48.6224 42.9662 48.6867 45.2208 49.0083C45.9294 49.0083 46.5736 49.2012 47.2177 49.2655C48.6349 49.4585 49.9877 49.8444 51.4693 49.9087C51.7269 49.973 51.9846 50.0373 52.2423 50.0373C54.5613 50.4232 57.138 51.0664 59.3282 50.0373C59.2638 50.8734 59.0705 51.7738 58.8773 52.6743ZM58.1042 49.5228C58.1042 49.9087 57.7177 49.8444 57.5245 49.973H56.9447C56.8803 49.7158 56.8159 49.5228 56.8803 49.2655C57.2668 49.2655 57.7177 49.3299 58.1042 49.5228ZM57.8466 48.8797C58.1042 48.6224 57.7822 47.0145 58.5552 48.0436C58.5552 48.2365 58.5552 48.5581 58.3619 48.6867C58.1687 48.8153 58.0398 48.944 57.8466 48.8797ZM59.9079 48.6224C59.7147 49.0726 59.3282 49.3942 58.8128 49.5228C58.8128 48.8797 59.3926 48.4938 59.1993 47.7863C58.8128 47.3361 58.1687 47.1431 57.5889 47.2718C57.3312 47.4004 57.4601 47.6577 57.3957 47.9149L57.2668 48.751C56.7515 48.751 56.7515 48.3008 56.5582 47.9149C56.5582 47.3361 56.8803 46.8216 57.3312 46.5643C57.7822 46.3714 58.3619 46.3714 58.8128 46.6286C59.1349 46.6929 59.457 46.8859 59.6503 47.1431C60.0368 47.4647 59.9723 48.1079 59.9079 48.6224Z" fill="#1D1D1B"/>
</g>
<defs>
<clipPath id="clip0_2469_50953">
<rect width="84" height="62" fill="white"/>
</clipPath>
</defs>
</svg>
