<svg width="104" height="104" viewBox="0 0 104 104" fill="none" xmlns="http://www.w3.org/2000/svg">
<circle cx="52" cy="52" r="52" fill="#373A36"/>
<path fill-rule="evenodd" clip-rule="evenodd" d="M56.8862 70.3418H46.4272C46.0757 70.3418 45.812 70.0781 45.812 69.6387C45.812 69.2871 46.0757 69.0234 46.4272 69.0234H56.8862C57.2378 69.0234 57.5894 69.2871 57.5894 69.6387C57.5894 70.0781 57.2378 70.3418 56.8862 70.3418ZM37.1987 70.0781C37.1108 70.0781 36.9351 70.0781 36.9351 69.9902C35.4409 69.375 34.3862 67.793 34.2104 66.0352L32.0132 45.8203C31.9253 44.7656 32.2769 43.7109 33.0679 42.9199C33.9468 41.9531 35.1772 41.4258 36.4956 41.4258H66.9058C68.1362 41.4258 69.4546 41.9531 70.3335 42.9199C71.1245 43.7988 71.4761 44.8535 71.3882 45.9082L69.2788 66.0352C69.0151 67.793 68.0483 69.375 66.5542 69.9902C66.2026 70.166 65.8511 69.9902 65.6753 69.6387C65.5874 69.375 65.6753 68.9355 66.0269 68.8477C67.0815 68.3203 67.8726 67.2656 67.9604 65.8594L70.1577 45.7324C70.1577 45.0293 69.894 44.3262 69.4546 43.7988C68.8394 43.0957 67.8726 42.6562 66.9058 42.6562H36.4077C35.5288 42.6562 34.562 43.0957 33.9468 43.7988C33.5073 44.3262 33.2437 45.0293 33.2437 45.7324L35.4409 65.8594C35.5288 67.2656 36.3198 68.3203 37.3745 68.8477C37.7261 68.9355 37.814 69.375 37.7261 69.6387C37.6382 69.9023 37.3745 70.0781 37.1987 70.0781Z" fill="white"/>
<path fill-rule="evenodd" clip-rule="evenodd" d="M61.5439 75C58.6436 75 56.2705 72.627 56.2705 69.7266C56.2705 66.8262 58.6436 64.3652 61.5439 64.3652C64.4443 64.3652 66.8174 66.8262 66.8174 69.7266C66.8174 72.627 64.4443 75 61.5439 75ZM61.5439 65.6836C59.3467 65.6836 57.501 67.4414 57.501 69.7266C57.501 71.9238 59.3467 73.6816 61.5439 73.6816C63.7412 73.6816 65.5869 71.9238 65.5869 69.7266C65.5869 67.4414 63.7412 65.6836 61.5439 65.6836Z" fill="white"/>
<path fill-rule="evenodd" clip-rule="evenodd" d="M41.7686 75C38.8682 75 36.4951 72.627 36.4951 69.7266C36.4951 66.8262 38.8682 64.3652 41.7686 64.3652C44.7568 64.3652 47.1299 66.8262 47.1299 69.7266C47.042 72.627 44.6689 75 41.7686 75ZM41.7686 65.6836C39.5713 65.6836 37.8135 67.4414 37.8135 69.7266C37.8135 71.9238 39.5713 73.6816 41.7686 73.6816C44.0537 73.6816 45.8115 71.9238 45.8115 69.7266C45.8115 67.4414 43.9658 65.6836 41.7686 65.6836Z" fill="white"/>
<path fill-rule="evenodd" clip-rule="evenodd" d="M66.3784 42.6562C66.0268 42.6562 65.7631 42.3926 65.7631 42.1289C65.4995 40.1953 63.6538 38.7012 61.4565 38.7012C61.1928 38.7012 60.9291 38.6133 60.8413 38.3496C60.7534 38.0859 60.8413 37.8223 61.017 37.6465C61.8081 36.9434 62.2475 36.0645 62.2475 35.0098C62.2475 32.9883 60.3139 31.2305 57.9409 31.2305C56.3588 31.2305 54.9526 32.0215 54.2495 33.252C54.0737 33.6035 53.7221 33.6914 53.4584 33.5156C52.8432 33.252 52.1401 33.0762 51.437 33.0762C50.2065 33.0762 49.0639 33.5156 48.2729 34.3066C48.0092 34.4824 47.6577 34.4824 47.394 34.3066C46.603 33.6914 45.6362 33.4277 44.5815 33.4277C42.2084 33.4277 40.2748 35.0977 40.2748 37.1191C40.2748 37.4707 40.3627 37.8223 40.4506 38.2617C40.6264 38.6133 40.4506 38.877 40.0991 39.0527C38.6928 39.5801 37.8139 40.7227 37.6381 42.1289C37.6381 42.4805 37.2866 42.6562 36.935 42.6562C36.5834 42.5684 36.3198 42.3047 36.4077 41.9531C36.5834 40.3711 37.6381 38.877 39.1323 38.0859C39.0444 37.7344 39.0444 37.4707 39.0444 37.1191C39.0444 34.3066 41.5053 32.1094 44.5815 32.1094C45.7241 32.1094 46.7788 32.4609 47.7456 32.9883C48.7123 32.1973 50.0307 31.8457 51.3491 31.8457C52.0522 31.8457 52.7553 31.9336 53.3706 32.1973C54.4252 30.791 56.0952 30 57.9409 30C61.017 30 63.478 32.2852 63.478 35.0977C63.478 35.9766 63.2143 36.8555 62.687 37.5586C64.9721 38.0859 66.7299 39.7559 66.9936 41.9531C66.9936 42.3926 66.7299 42.6562 66.4663 42.6562H66.3784Z" fill="white"/>
<path fill-rule="evenodd" clip-rule="evenodd" d="M43.7028 37.5586C43.4391 37.5586 43.1754 37.2949 43.0876 37.0312C42.9997 36.6797 43.2633 36.3281 43.527 36.2402L45.109 35.8008C45.4606 35.8008 45.8122 35.9766 45.9001 36.2402C45.9879 36.5918 45.8122 36.9434 45.4606 37.0312L43.8786 37.4707C43.8786 37.5586 43.7907 37.5586 43.7028 37.5586Z" fill="white"/>
<path fill-rule="evenodd" clip-rule="evenodd" d="M49.415 36.9434C49.1513 36.9434 48.8876 36.7676 48.7997 36.416C48.7119 36.1523 48.8876 35.8008 49.2392 35.7129L50.8212 35.2734C51.1728 35.1855 51.5244 35.3613 51.6122 35.7129C51.7001 36.0645 51.5244 36.416 51.1728 36.416L49.5908 36.8555C49.5029 36.8555 49.5029 36.9434 49.415 36.9434Z" fill="white"/>
<path fill-rule="evenodd" clip-rule="evenodd" d="M46.1637 40.459C45.9001 40.459 45.6364 40.2832 45.5485 39.9316C45.4606 39.668 45.7243 39.3164 45.9879 39.2285L47.57 38.7891C47.9215 38.7012 48.2731 38.877 48.361 39.2285C48.4489 39.4922 48.2731 39.9316 47.9215 39.9316L46.3395 40.3711C46.3395 40.459 46.2516 40.459 46.1637 40.459Z" fill="white"/>
<path fill-rule="evenodd" clip-rule="evenodd" d="M53.8096 39.9316C53.458 39.9316 53.1943 39.7559 53.1064 39.4043C53.1064 39.0527 53.2822 38.7012 53.6338 38.6133L55.2158 38.1738C55.4795 38.1738 55.9189 38.3496 55.9189 38.6133C56.0068 38.9648 55.8311 39.3164 55.4795 39.4043L53.9854 39.8438C53.8975 39.9316 53.8096 39.9316 53.8096 39.9316Z" fill="white"/>
<path fill-rule="evenodd" clip-rule="evenodd" d="M54.6005 34.9219C54.249 34.9219 53.9853 34.7461 53.9853 34.3945C53.8974 34.043 54.0732 33.6914 54.4247 33.6035L55.9189 33.1641C56.2704 33.1641 56.622 33.3398 56.7099 33.6035C56.7978 33.9551 56.622 34.3066 56.2704 34.3945L54.7763 34.9219C54.6884 34.9219 54.6884 34.9219 54.6005 34.9219Z" fill="white"/>
<path fill-rule="evenodd" clip-rule="evenodd" d="M57.5009 36.9434C57.2372 36.9434 56.9736 36.7676 56.8857 36.416C56.7978 36.1523 56.9736 35.8008 57.3251 35.7129L58.9072 35.2734C59.2587 35.1855 59.6103 35.3613 59.6982 35.7129C59.6982 36.0645 59.5224 36.416 59.2587 36.416L57.6767 36.8555C57.5888 36.8555 57.5009 36.9434 57.5009 36.9434Z" fill="white"/>
<path fill-rule="evenodd" clip-rule="evenodd" d="M61.5439 72.3633C60.0498 72.3633 58.8193 71.1328 58.8193 69.7266C58.8193 68.2324 60.0498 67.002 61.5439 67.002C63.0381 67.002 64.2686 68.2324 64.2686 69.7266C64.2686 71.2207 63.0381 72.3633 61.5439 72.3633ZM61.5439 68.3203C60.7529 68.3203 60.1377 68.9355 60.1377 69.7266C60.1377 70.5176 60.7529 71.1328 61.5439 71.1328C62.335 71.1328 62.9502 70.5176 62.9502 69.7266C62.9502 68.9355 62.335 68.3203 61.5439 68.3203Z" fill="white"/>
<path fill-rule="evenodd" clip-rule="evenodd" d="M41.7686 72.3633C40.2744 72.3633 39.1318 71.1328 39.1318 69.7266C39.1318 68.2324 40.2744 67.002 41.7686 67.002C43.2627 67.002 44.4932 68.2324 44.4932 69.7266C44.4932 71.1328 43.2627 72.3633 41.7686 72.3633ZM41.7686 68.3203C41.0654 68.3203 40.3623 68.9355 40.3623 69.7266C40.3623 70.5176 40.9775 71.1328 41.7686 71.1328C42.6475 71.1328 43.2627 70.5176 43.2627 69.7266C43.1748 68.9355 42.5596 68.3203 41.7686 68.3203Z" fill="white"/>
<path d="M55.0876 50.4489L53.1534 48.8965L46.5898 57.126H51.5438L48.1995 61.319L50.1337 62.8711L56.6973 54.6419H51.7433L55.0876 50.4489Z" fill="white"/>
</svg>
