<svg width="104" height="104" viewBox="0 0 104 104" fill="none" xmlns="http://www.w3.org/2000/svg">
<circle cx="52" cy="52" r="52" fill="#6B3077"/>
<path d="M68.3491 64.9029L63.8617 63.7985L68.3702 57.0638C68.6076 56.7095 68.5123 56.2297 68.1581 55.9923C67.8044 55.7555 67.3245 55.8497 67.0872 56.2045L61.9655 63.8552C61.8254 64.0647 61.7961 64.3288 61.8872 64.5636C61.9783 64.7989 62.1776 64.9744 62.4226 65.0347L66.9678 66.1529L62.4813 73.6847C62.263 74.0513 62.3835 74.5249 62.7496 74.7432C62.8731 74.8174 63.0096 74.8519 63.1445 74.8519C63.4076 74.8519 63.664 74.7175 63.8086 74.475L68.8284 66.0474C68.9535 65.8373 68.9716 65.5799 68.8773 65.3544C68.7826 65.1289 68.587 64.9616 68.3491 64.9029Z" fill="white" stroke="white" stroke-width="1.13267"/>
<path d="M51.7419 28.6331C38.9263 28.6331 28.5 39.0588 28.5 51.874C28.5 60.9802 33.6037 71.3498 43.4003 73.5585L44.6627 73.7706C44.6844 73.7742 44.706 73.7768 44.7281 73.7789C45.4113 73.8345 46.0374 73.8633 46.612 73.8633C48.8536 73.8633 50.3107 73.4293 51.3244 72.4943C52.4185 71.4862 52.9282 69.9355 52.9282 67.614V62.7173C58.2661 62.1237 62.4318 57.5878 62.4318 52.0928V45.1794C62.4318 44.7536 62.0874 44.4086 61.6621 44.4071L58.02 44.3947V38.0832C58.02 37.6564 57.6741 37.3109 57.2478 37.3109C56.8215 37.3109 56.4755 37.6564 56.4755 38.0832V44.3896L47.0053 44.3577V38.0837C47.0053 37.6569 46.6593 37.3114 46.233 37.3114C45.8067 37.3114 45.4608 37.6569 45.4608 38.0837V44.3525L41.8223 44.3402C41.6189 44.3335 41.4202 44.4205 41.275 44.5657C41.1298 44.7109 41.048 44.9075 41.048 45.1124V52.0933C41.048 57.8699 45.6543 62.5798 51.3841 62.7698V67.6145C51.3841 69.4742 51.0325 70.664 50.2787 71.3591C49.3685 72.1967 47.705 72.4686 44.8862 72.2425L43.6984 72.0438C34.7343 70.022 30.044 60.367 30.044 51.8745C30.044 39.9114 39.7773 30.1781 51.7414 30.1781C63.7055 30.1781 73.4393 39.9109 73.4393 51.8745C73.4393 52.3013 73.7853 52.6468 74.2116 52.6468C74.6379 52.6468 74.9839 52.3013 74.9839 51.8745C74.9839 39.0588 64.5576 28.6331 51.7419 28.6331ZM42.5925 52.0923V45.8863L46.1568 45.8981C46.1826 45.9007 46.2073 45.9058 46.2341 45.9058C46.2588 45.9058 46.2819 45.9007 46.3061 45.8986L60.8883 45.948V52.0918C60.8883 57.1368 56.7844 61.2417 51.7404 61.2417C46.6964 61.2417 42.5925 57.1373 42.5925 52.0923Z" fill="white" stroke="white" stroke-width="1.13267"/>
</svg>
