<svg width="104" height="104" viewBox="0 0 104 104" fill="none" xmlns="http://www.w3.org/2000/svg">
<circle cx="52" cy="52" r="52" fill="#40C1AC"/>
<path d="M57.4271 35.625H38.6748C38.4883 35.625 38.3095 35.6991 38.1776 35.8309C38.0458 35.9628 37.9717 36.1416 37.9717 36.3281V44.3297C37.9717 44.5162 38.0458 44.695 38.1776 44.8269C38.3095 44.9587 38.4883 45.0328 38.6748 45.0328H57.4271C57.6136 45.0328 57.7925 44.9587 57.9243 44.8269C58.0562 44.695 58.1303 44.5162 58.1303 44.3297V36.3281C58.1303 36.1416 58.0562 35.9628 57.9243 35.8309C57.7925 35.6991 57.6136 35.625 57.4271 35.625ZM56.724 43.6125H39.3779V37.0312H56.724V43.6125Z" fill="#383E4A"/>
<path d="M53.2787 47.0508H42.8232C42.6368 47.0508 42.4579 47.1249 42.3261 47.2567C42.1942 47.3886 42.1201 47.5674 42.1201 47.7539C42.1201 47.9404 42.1942 48.1192 42.3261 48.2511C42.4579 48.383 42.6368 48.457 42.8232 48.457H53.2787C53.4652 48.457 53.644 48.383 53.7759 48.2511C53.9078 48.1192 53.9818 47.9404 53.9818 47.7539C53.9818 47.5674 53.9078 47.3886 53.7759 47.2567C53.644 47.1249 53.4652 47.0508 53.2787 47.0508Z" fill="#383E4A"/>
<path d="M53.2787 49.8211H42.8232C42.6368 49.8211 42.4579 49.8952 42.3261 50.027C42.1942 50.1589 42.1201 50.3377 42.1201 50.5242C42.1201 50.7107 42.1942 50.8895 42.3261 51.0214C42.4579 51.1532 42.6368 51.2273 42.8232 51.2273H53.2787C53.4652 51.2273 53.644 51.1532 53.7759 51.0214C53.9078 50.8895 53.9818 50.7107 53.9818 50.5242C53.9818 50.3377 53.9078 50.1589 53.7759 50.027C53.644 49.8952 53.4652 49.8211 53.2787 49.8211Z" fill="#383E4A"/>
<path d="M48.0549 54.2719C45.6572 54.2719 44.6236 60.6914 44.6236 61.7109C44.6026 62.1741 44.6758 62.6368 44.8386 63.0709C45.0014 63.5051 45.2505 63.9018 45.5708 64.237C45.8912 64.5722 46.2761 64.8389 46.7025 65.0212C47.1288 65.2035 47.5877 65.2975 48.0514 65.2975C48.515 65.2975 48.9739 65.2035 49.4002 65.0212C49.8266 64.8389 50.2116 64.5722 50.5319 64.237C50.8523 63.9018 51.1014 63.5051 51.2642 63.0709C51.427 62.6368 51.5001 62.1741 51.4791 61.7109C51.5002 60.6914 50.4455 54.2719 48.0549 54.2719ZM48.0549 63.75C47.5178 63.75 47.0028 63.5367 46.623 63.1569C46.2432 62.7771 46.0299 62.2621 46.0299 61.725C46.0299 59.9391 47.3025 55.8469 48.0479 55.6922C48.8002 55.8469 50.0729 59.9109 50.0729 61.725C50.0729 62.2609 49.8605 62.7749 49.4822 63.1544C49.104 63.534 48.5907 63.7481 48.0549 63.75Z" fill="#383E4A"/>
<path d="M71.7148 40.807L69.0078 37.7836C68.8829 37.6447 68.7079 37.5611 68.5213 37.5512C68.3347 37.5413 68.1518 37.6059 68.0129 37.7309C67.874 37.8558 67.7904 38.0308 67.7805 38.2174C67.7706 38.404 67.8352 38.5868 67.9602 38.7258L70.3859 41.4398C70.0726 41.3792 69.7497 41.388 69.4401 41.4654C69.1304 41.5429 68.8415 41.6872 68.5936 41.8882C68.3456 42.0893 68.1447 42.3421 68.0049 42.6291C67.8651 42.916 67.7899 43.2301 67.7844 43.5492V45.6586C67.7844 46.218 68.0066 46.7546 68.4022 47.1501C68.7978 47.5457 69.3343 47.768 69.8937 47.768H70.4844V68.6719C70.4844 68.9758 70.3636 69.2673 70.1487 69.4823C69.9338 69.6972 69.6422 69.818 69.3383 69.818C69.0343 69.818 68.7428 69.6972 68.5279 69.4823C68.3129 69.2673 68.1922 68.9758 68.1922 68.6719V54.3703C68.1907 53.4584 67.8699 52.5758 67.2855 51.8758C66.701 51.1758 65.8899 50.7026 64.993 50.5383V47.7258C64.993 47.5393 64.9189 47.3605 64.787 47.2286C64.6552 47.0967 64.4763 47.0226 64.2898 47.0226H61.2242V35.8922C61.2242 34.9598 60.8538 34.0656 60.1945 33.4063C59.5352 32.747 58.641 32.3766 57.7086 32.3766H38.4148C37.4824 32.3766 36.5882 32.747 35.9289 33.4063C35.2696 34.0656 34.8992 34.9598 34.8992 35.8922V47.0508H31.8125C31.626 47.0508 31.4472 47.1249 31.3153 47.2567C31.1835 47.3886 31.1094 47.5674 31.1094 47.7539V54.6094C31.1094 54.7958 31.1835 54.9747 31.3153 55.1066C31.4472 55.2384 31.626 55.3125 31.8125 55.3125H34.8781V69.0656H33.4719C33.2854 69.0656 33.1066 69.1397 32.9747 69.2716C32.8428 69.4034 32.7688 69.5823 32.7688 69.7687V71.9344C32.7688 72.1208 32.8428 72.2997 32.9747 72.4316C33.1066 72.5634 33.2854 72.6375 33.4719 72.6375H62.6445C62.831 72.6375 63.0099 72.5634 63.1417 72.4316C63.2736 72.2997 63.3477 72.1208 63.3477 71.9344V69.7687C63.3477 69.5823 63.2736 69.4034 63.1417 69.2716C63.0099 69.1397 62.831 69.0656 62.6445 69.0656H61.2383V55.3125H64.3039C64.4904 55.3125 64.6692 55.2384 64.8011 55.1066C64.933 54.9747 65.007 54.7958 65.007 54.6094V52.0078C65.5233 52.1558 65.9774 52.4677 66.3008 52.8964C66.6242 53.3251 66.7994 53.8473 66.8 54.3844V68.6719C66.8478 69.3142 67.1367 69.9148 67.6088 70.3531C68.0808 70.7913 68.7012 71.0349 69.3453 71.0349C69.9895 71.0349 70.6098 70.7913 71.0819 70.3531C71.5539 69.9148 71.8428 69.3142 71.8906 68.6719V42.143C71.8906 41.8828 71.9891 41.018 71.7148 40.807ZM32.5156 53.9062V48.457H34.8781V53.9062H32.5156ZM61.9414 71.2312H34.1609V70.4719H61.9414V71.2312ZM36.2844 69.0656C36.2844 59.4609 36.2844 45.4547 36.2844 35.8922C36.2844 35.3327 36.5066 34.7962 36.9022 34.4006C37.2978 34.005 37.8343 33.7828 38.3937 33.7828H57.6945C58.254 33.7828 58.7905 34.005 59.1861 34.4006C59.5817 34.7962 59.8039 35.3327 59.8039 35.8922V69.0656H36.2844ZM63.5867 53.9062H61.2242V48.457H63.5867V53.9062ZM69.9148 46.3195C69.7284 46.3195 69.5495 46.2454 69.4177 46.1136C69.2858 45.9817 69.2117 45.8029 69.2117 45.6164V43.507C69.2117 43.3205 69.2858 43.1417 69.4177 43.0098C69.5495 42.878 69.7284 42.8039 69.9148 42.8039H70.4844V46.2633L69.9148 46.3195Z" fill="#383E4A"/>
</svg>
