<svg width="449" height="147" viewBox="0 0 449 147" fill="none" xmlns="http://www.w3.org/2000/svg">
<g clip-path="url(#clip0_973_73408)">
<path d="M28.1584 94.3494C27.5184 94.5294 26.7884 94.7394 26.1584 94.9294C25.5284 95.7294 25.0084 96.5094 24.4884 97.3094C24.3584 97.4994 24.2584 97.6994 24.1384 97.8894C25.6784 97.3794 27.1984 96.8894 28.7484 96.4594C46.2484 91.5294 64.2684 90.8694 81.2284 94.9494C66.3084 92.1294 50.6784 93.0294 35.5184 97.3194C30.8984 98.6294 26.3284 100.259 21.8284 102.189C21.4384 103.059 21.0784 103.959 20.7784 104.879C25.7984 102.629 30.9184 100.749 36.0884 99.2894C52.4384 94.6794 69.2884 94.0594 85.1484 97.8794C71.2084 95.2494 56.5984 96.0894 42.4284 100.099C34.8484 102.239 26.8884 105.549 19.6684 109.469C19.5484 110.269 19.4584 111.069 19.3984 111.879C26.8484 107.709 35.1184 104.149 42.9484 101.939C58.2384 97.6194 73.9984 97.0494 88.8184 100.609C75.7784 98.1594 62.1284 98.9494 48.8784 102.689C38.6984 105.569 28.7684 110.189 19.5184 116.409C19.5884 117.059 19.6884 117.719 19.8084 118.379C29.1084 112.009 39.1184 107.299 49.3684 104.409C63.6684 100.369 78.3984 99.8294 92.2684 103.169C80.0784 100.869 67.2984 101.609 54.9084 105.109C42.9584 108.489 31.3784 114.439 20.9584 122.689C21.1484 123.229 21.3584 123.779 21.5784 124.329C31.9284 116.039 43.4784 110.069 55.3584 106.709C68.7284 102.939 82.5084 102.439 95.4784 105.549C84.0684 103.409 72.1284 104.099 60.5384 107.379C47.3184 111.119 34.5484 118.239 23.5284 128.309C23.7884 128.769 24.0584 129.229 24.3484 129.689C35.2484 119.649 47.8884 112.579 60.9684 108.879C73.4684 105.349 86.3484 104.879 98.4784 107.789C87.8184 105.789 76.6484 106.429 65.8184 109.489C51.6684 113.489 38.0884 121.639 26.8784 133.329C27.1784 133.709 27.4784 134.109 27.7984 134.499C38.8684 122.899 52.2784 114.839 66.2284 110.899C77.9184 107.599 89.9684 107.159 101.308 109.879C91.3284 108.009 80.8884 108.609 70.7584 111.479C55.9584 115.659 41.8184 124.679 30.6984 137.799C30.9984 138.109 31.2884 138.419 31.5984 138.739C42.5084 126.019 56.7484 116.859 71.1384 112.799C87.1584 108.279 102.968 109.559 117.288 117.419C111.248 96.8694 84.5984 90.3594 60.2284 90.3594C48.0184 90.3594 36.3784 91.9894 28.1884 94.3094" fill="#33AFC9"/>
<path d="M30.51 60.2898C17.76 70.9098 9.51 82.4298 6.71 94.0098C8.65 80.6898 17.64 67.3498 32.35 55.0998C40.19 48.5598 49.68 42.3398 60.58 36.6098C59.34 36.7298 58.08 36.8698 56.83 37.0398C56.24 37.1098 55.65 37.1998 55.07 37.2898C45.38 42.6198 36.86 48.3398 29.68 54.3198C16.04 65.6798 7.21 77.9998 4.23 90.3898C6.3 76.1398 15.91 61.8698 31.65 48.7598C35.3 45.7298 39.28 42.7498 43.57 39.8598C40.84 40.6598 38.17 41.5998 35.57 42.6498C33.21 44.3898 31 46.2098 28.8 47.9298C9.75 62.8298 0.1 80.8698 0 97.3698V97.8598C0.1 114.99 10.55 130.39 31.57 138.79C31.26 138.48 30.97 138.16 30.67 137.85C29.63 136.74 28.66 135.64 27.78 134.54C27.46 134.15 27.16 133.76 26.86 133.37C25.92 132.14 25.09 130.92 24.34 129.72C24.05 129.26 23.78 128.8 23.52 128.34C22.76 127 22.11 125.67 21.57 124.36C21.35 123.81 21.14 123.26 20.95 122.72C20.44 121.26 20.05 119.82 19.8 118.4C19.68 117.74 19.58 117.08 19.51 116.43C19.34 114.89 19.3 113.37 19.4 111.9C19.45 111.09 19.54 110.28 19.67 109.49C19.92 107.92 20.3 106.38 20.79 104.9C21.1 103.98 21.45 103.09 21.84 102.21C22.5 100.73 24.36 97.5298 24.5 97.3198C27.53 92.6498 31.56 88.6198 35.7 85.3898C51.88 72.7398 77.11 60.9898 108.85 54.7598C114.29 53.6898 119.73 52.8198 125.13 52.1098C124.66 51.7898 124.19 51.4798 123.71 51.1598C118.58 51.8498 113.42 52.6998 108.27 53.7098C76.05 60.0298 50.04 71.5098 33.92 84.8598C21.81 94.8798 17.95 104.61 16.9 108.96C18.29 99.4498 24.72 89.8998 35.23 81.1398C52.1 67.0798 79.51 55.0398 113.45 48.3798C114.87 48.0998 116.29 47.8498 117.7 47.5998C117.12 47.2898 116.55 46.9898 115.97 46.6898C114.93 46.8898 113.87 47.0698 112.83 47.2698C78.37 54.0298 50.51 66.2498 33.32 80.5798C23.57 88.6998 17.26 97.4998 15.13 106.36C16.61 96.1798 23.48 85.9798 34.73 76.6098C51.23 62.8698 77.13 50.9398 109.18 43.5498C108.48 43.2598 107.77 42.9698 107.05 42.6998C75.11 50.2198 49.27 62.1998 32.69 76.0198C22.26 84.7098 15.51 94.1098 13.23 103.58C14.82 92.6998 22.16 81.7798 34.19 71.7698C49.29 59.1898 71.77 48.0298 99.42 40.1198C98.55 39.8698 97.66 39.6198 96.77 39.3798C69.4 47.3898 47.11 58.5398 32.01 71.1198C20.86 80.4098 13.64 90.4798 11.21 100.61C12.91 88.9598 20.77 77.2998 33.63 66.5798C46.91 55.5098 65.55 45.4698 88.21 37.5398C87.1 37.3498 86 37.1798 84.88 37.0298C62.72 44.9698 44.45 54.9198 31.29 65.8898C19.37 75.8198 11.64 86.5798 9.04 97.4098C10.86 84.9598 19.26 72.4898 33.01 61.0298C43.95 51.9198 58.28 43.4698 75.34 36.1798C73.93 36.1198 72.52 36.0898 71.09 36.0898C54.84 43.2398 41.12 51.4598 30.51 60.2898Z" fill="#33AFC9"/>
<path d="M122.998 146.81C134.848 135.25 144.028 123 150.268 110.54C159.048 92.98 162.008 75 158.488 57.93C164.018 77.31 161.278 98.04 151.148 118.3C146.638 127.31 140.668 136.21 133.328 144.86C135.158 144.33 137.108 143.68 139.158 142.86C145.458 135.04 150.698 127.02 154.748 118.93C164.148 100.15 167.318 80.9 163.538 62.65C169.468 83.37 166.528 105.56 155.688 127.23C153.988 130.63 152.078 134.01 149.988 137.38C152.358 135.91 154.788 134.21 157.238 132.26C158.038 130.81 158.808 129.36 159.538 127.9C177.248 92.5 174.328 55.55 146.398 25.59C126.878 4.62 111.888 0.65 106.988 0C138.668 20.43 140.288 53.94 129.428 75.67C125.438 83.65 119.728 91.51 112.438 99C112.888 99.53 113.338 100.08 113.768 100.62C121.558 92.76 127.628 84.49 131.838 76.08C138.128 63.52 140.238 50.66 137.728 38.47C141.678 52.32 139.718 67.15 132.478 81.63C128.618 89.36 123.248 96.97 116.478 104.29C116.908 104.93 117.338 105.58 117.748 106.24C125.118 98.46 130.928 90.34 135.058 82.08C141.778 68.66 144.038 54.9 141.348 41.86C145.578 56.67 143.478 72.53 135.728 88.02C131.898 95.69 126.678 103.26 120.148 110.57C120.538 111.36 120.898 112.16 121.238 112.98C128.518 105.07 134.308 96.84 138.488 88.49C145.668 74.15 148.098 59.43 145.218 45.48C149.738 61.32 147.498 78.28 139.208 94.84C135.208 102.84 129.798 110.74 123.068 118.37C123.338 119.4 123.558 120.45 123.738 121.5C131.518 113.06 137.698 104.26 142.158 95.34C149.838 79.99 152.438 64.26 149.348 49.34C154.188 66.29 151.788 84.42 142.928 102.13C138.358 111.26 132.078 120.27 124.188 128.94C124.128 130.42 123.968 131.93 123.708 133.46C133.288 123.58 140.808 113.21 146.078 102.67C154.288 86.26 157.068 69.44 153.778 53.48C158.948 71.6 156.378 90.99 146.908 109.93C140.598 122.54 131.218 134.94 119.048 146.61C119.048 146.61 118.748 146.9 118.758 146.9C118.758 146.9 120.318 147.01 123.018 146.78L122.998 146.81Z" fill="#33AFC9"/>
<path d="M249.139 87.0398H240.419L231.599 66.2798H205.149L196.329 87.0398H187.609L218.319 16.5898L249.139 87.0398ZM207.519 59.3498H229.139L218.329 34.4098L207.519 59.3498Z" fill="white"/>
<path d="M256.148 19.25H291.898V26.64H264.218V46.08H291.898V53.56H264.218V79.55H291.898V87.04H256.148V19.25Z" fill="white"/>
<path d="M316.078 40.9598L307.538 87.0398H299.668L313.418 16.5898L337.128 72.6198L360.828 16.5898L374.578 87.0398H366.698L358.068 40.9598L337.128 89.6898L316.078 40.9598Z" fill="white"/>
<path d="M438.379 78.4095C431.459 85.1395 422.169 88.8395 412.689 88.8395C403.209 88.8395 393.909 85.0495 387.089 78.4095C380.169 71.6795 376.469 62.9495 376.469 53.2795C376.469 43.6095 380.169 34.7895 387.089 28.0595C393.919 21.4195 403.119 17.7295 412.689 17.7295C422.259 17.7295 431.559 21.4295 438.379 28.0595C445.299 34.7895 448.909 43.6095 448.909 53.2795C448.909 62.9495 445.209 71.7695 438.379 78.4095ZM432.309 72.9995C437.619 67.6895 440.459 60.8595 440.459 53.2795C440.459 45.6995 437.619 38.6795 432.309 33.3695C427.009 28.0595 420.179 25.2095 412.689 25.2095C405.199 25.2095 398.269 28.0595 393.059 33.3695C387.749 38.7695 384.909 45.6895 384.909 53.2795C384.909 60.8695 387.759 67.5995 393.059 72.9995C398.459 78.4095 405.199 81.2495 412.689 81.2495C420.179 81.2495 426.909 78.3995 432.309 72.9995Z" fill="white"/>
<path d="M208.569 110.52C206.679 107.52 204.009 105.57 200.059 105.57C195.549 105.57 192.159 109.19 192.159 113.58C192.159 117.97 196.329 119.81 199.729 121.42L207.739 125.59C210.909 127.59 212.519 130.15 212.519 133.93C212.519 140.88 206.179 146.11 199.389 146.11C193.549 146.11 188.989 142.49 187.039 137.1L189.379 136.04C191.159 140.49 194.439 143.6 199.499 143.6C205.009 143.6 209.849 139.26 209.849 133.7C209.849 128.97 205.009 126.97 201.399 125.19L193.829 121.19C191.049 119.47 189.489 117.02 189.489 113.68C189.489 107.45 193.939 103.06 200.229 103.06C204.459 103.06 208.459 105.34 210.459 108.96L208.569 110.52Z" fill="white"/>
<path d="M227.649 106.129V121.369H244.559V123.869H227.649V143.059H244.999V145.559H224.969V103.619H244.999V106.119H227.649V106.129Z" fill="white"/>
<path d="M279.49 145.57H276.43L262.75 125.71H261.42V145.57H258.75V103.63H263.98C267.37 103.63 270.71 103.69 273.55 105.74C276.55 107.85 277.78 111.19 277.78 114.75C277.78 122.04 272.72 125.82 265.77 125.71L279.51 145.57H279.49ZM264.81 123.21C267.42 123.21 270.04 123.1 272.15 121.26C274.15 119.65 275.1 117.14 275.1 114.64C275.1 111.52 273.65 108.41 270.65 107.07C268.43 106.01 265.59 106.12 263.14 106.12H261.42V123.2H264.81V123.21Z" fill="white"/>
<path d="M302.349 139.45H302.459L314.859 103.63H317.529L302.289 146.96L287.219 103.63H289.889L302.349 139.45Z" fill="white"/>
<path d="M330.549 145.57H327.879V103.63H330.549V145.57Z" fill="white"/>
<path d="M378.437 112.19C375.207 108.24 369.537 105.57 364.367 105.57C353.907 105.57 345.287 114.58 345.287 124.87C345.287 129.77 347.397 134.38 350.907 137.83C354.407 141.17 359.417 143.61 364.367 143.61C369.317 143.61 375.327 141 378.437 137.21V140.88C374.487 144.16 369.647 146.11 364.477 146.11C352.797 146.11 342.617 136.38 342.617 124.64C342.617 112.9 352.627 103.06 364.537 103.06C369.597 103.06 374.717 105.06 378.447 108.51V112.18L378.437 112.19Z" fill="white"/>
<path d="M394.45 106.129V121.369H411.36V123.869H394.45V143.059H411.8V145.559H391.77V103.619H411.8V106.119H394.45V106.129Z" fill="white"/>
<path d="M444.958 110.52C443.068 107.52 440.398 105.57 436.448 105.57C431.938 105.57 428.548 109.19 428.548 113.58C428.548 117.97 432.718 119.81 436.108 121.42L444.118 125.59C447.288 127.59 448.898 130.15 448.898 133.93C448.898 140.88 442.558 146.11 435.768 146.11C429.928 146.11 425.368 142.49 423.418 137.1L425.758 136.04C427.538 140.49 430.818 143.6 435.878 143.6C441.388 143.6 446.228 139.26 446.228 133.7C446.228 128.97 441.388 126.97 437.778 125.19L430.208 121.19C427.428 119.47 425.868 117.02 425.868 113.68C425.868 107.45 430.318 103.06 436.608 103.06C440.838 103.06 444.838 105.34 446.838 108.96L444.948 110.52H444.958Z" fill="white"/>
</g>
<defs>
<clipPath id="clip0_973_73408">
<rect width="448.91" height="146.96" fill="white"/>
</clipPath>
</defs>
</svg>
