<?xml version="1.0" encoding="UTF-8"?>
<svg id="_ÎÓÈ_1" data-name=" ÎÓÈ 1" xmlns="http://www.w3.org/2000/svg" xmlns:xlink="http://www.w3.org/1999/xlink" viewBox="0 0 6614.1 5962.3">
  <defs>
    <style>
      .cls-1 {
        fill: none;
      }

      .cls-2 {
        fill: url(#linear-gradient);
      }

      .cls-3 {
        clip-path: url(#clippath);
      }

      .cls-4 {
        fill: url(#linear-gradient-8);
      }

      .cls-5 {
        fill: url(#linear-gradient-9);
      }

      .cls-6 {
        fill: url(#linear-gradient-3);
      }

      .cls-7 {
        fill: url(#linear-gradient-4);
      }

      .cls-8 {
        fill: url(#linear-gradient-2);
      }

      .cls-9 {
        fill: url(#linear-gradient-6);
      }

      .cls-10 {
        fill: url(#linear-gradient-7);
      }

      .cls-11 {
        fill: url(#linear-gradient-5);
      }

      .cls-12 {
        fill: url(#linear-gradient-14);
      }

      .cls-13 {
        fill: url(#linear-gradient-18);
      }

      .cls-14 {
        fill: url(#linear-gradient-20);
      }

      .cls-15 {
        fill: url(#linear-gradient-15);
      }

      .cls-16 {
        fill: url(#linear-gradient-19);
      }

      .cls-17 {
        fill: url(#linear-gradient-16);
      }

      .cls-18 {
        fill: url(#linear-gradient-17);
      }

      .cls-19 {
        fill: url(#linear-gradient-13);
      }

      .cls-20 {
        fill: url(#linear-gradient-12);
      }

      .cls-21 {
        fill: url(#linear-gradient-10);
      }

      .cls-22 {
        fill: url(#linear-gradient-11);
      }
    </style>
    <clipPath id="clippath">
      <polygon class="cls-1" points="519 2994.1 3106.4 3576.6 3417.7 3169.9 3119.8 333.7 5617 734.6 6614.1 5053 3454.5 5962.3 803.4 5713.9 0 4992.9 519 2994.1"/>
    </clipPath>
    <linearGradient id="linear-gradient" x1="4228.15" y1="982.62" x2="2926.87" y2="3773.23" gradientTransform="translate(0 5565.29) scale(1 -1)" gradientUnits="userSpaceOnUse">
      <stop offset="0" stop-color="#1f4c67" stop-opacity="0"/>
      <stop offset=".58" stop-color="#1f4c67"/>
      <stop offset=".97" stop-color="#1f4c67" stop-opacity="0"/>
    </linearGradient>
    <linearGradient id="linear-gradient-2" x1="4216.11" y1="1009.62" x2="2896.65" y2="3839.21" xlink:href="#linear-gradient"/>
    <linearGradient id="linear-gradient-3" x1="4204.78" y1="1035.1" x2="2859.31" y2="3920.48" xlink:href="#linear-gradient"/>
    <linearGradient id="linear-gradient-4" x1="4194" y1="1058.99" x2="2804.59" y2="4038.57" xlink:href="#linear-gradient"/>
    <linearGradient id="linear-gradient-5" x1="4183.96" y1="1081.18" x2="2749.84" y2="4156.67" xlink:href="#linear-gradient"/>
    <linearGradient id="linear-gradient-6" x1="4175.1" y1="1100.55" x2="2694.98" y2="4274.67" xlink:href="#linear-gradient"/>
    <linearGradient id="linear-gradient-7" x1="4166.52" y1="1119.36" x2="2640.12" y2="4392.72" xlink:href="#linear-gradient"/>
    <linearGradient id="linear-gradient-8" x1="4158.39" y1="1136.43" x2="2584.98" y2="4510.6" xlink:href="#linear-gradient"/>
    <linearGradient id="linear-gradient-9" x1="4151.11" y1="1151.77" x2="2529.85" y2="4628.57" xlink:href="#linear-gradient"/>
    <linearGradient id="linear-gradient-10" x1="4144.34" y1="1165.54" x2="2474.63" y2="4746.26" xlink:href="#linear-gradient"/>
    <linearGradient id="linear-gradient-11" x1="4138.31" y1="1177.73" x2="2419.28" y2="4864.21" xlink:href="#linear-gradient"/>
    <linearGradient id="linear-gradient-12" x1="4132.82" y1="1188.36" x2="2363.84" y2="4981.93" xlink:href="#linear-gradient"/>
    <linearGradient id="linear-gradient-13" x1="4127.92" y1="1197.2" x2="2308.17" y2="5099.66" xlink:href="#linear-gradient"/>
    <linearGradient id="linear-gradient-14" x1="4123.65" y1="1204.47" x2="2252.47" y2="5217.25" xlink:href="#linear-gradient"/>
    <linearGradient id="linear-gradient-15" x1="4120.01" y1="1210.04" x2="2196.59" y2="5334.83" xlink:href="#linear-gradient"/>
    <linearGradient id="linear-gradient-16" x1="4116.88" y1="1214.14" x2="2140.59" y2="5452.3" xlink:href="#linear-gradient"/>
    <linearGradient id="linear-gradient-17" x1="4114.24" y1="1216.55" x2="2084.33" y2="5569.71" xlink:href="#linear-gradient"/>
    <linearGradient id="linear-gradient-18" x1="4112.19" y1="1217.21" x2="2027.91" y2="5686.96" xlink:href="#linear-gradient"/>
    <linearGradient id="linear-gradient-19" x1="4110.51" y1="1216.69" x2="1971.31" y2="5804.23" xlink:href="#linear-gradient"/>
    <linearGradient id="linear-gradient-20" x1="4109.2" y1="1213.99" x2="1914.2" y2="5921.17" xlink:href="#linear-gradient"/>
  </defs>
  <g class="cls-3">
    <g>
      <path class="cls-2" d="m2845.94,5055.56c-97.99,0-196.17-8.82-293.56-26.42-159.18-28.77-317.87-81.32-471.65-156.2-156.58-76.24-309.98-176.57-455.94-298.2-149.6-124.66-293.48-273.47-427.64-442.29-252.52-317.72-465.58-697.93-633.27-1130.05l4.66-1.81c167.51,431.65,380.32,811.42,632.53,1128.75,133.95,168.55,277.59,317.11,426.93,441.56,145.65,121.37,298.71,221.48,454.93,297.54,153.37,74.68,311.62,127.09,470.35,155.78,157.08,28.39,316.31,33.86,473.27,16.26,172.81-19.38,344.38-66.84,509.95-141.06,167.02-74.87,329.07-177.49,481.62-305,155.41-129.9,302.26-286.74,436.48-466.15,137.86-184.28,263.84-394.38,374.46-624.46,98.41-204.69,184.57-425.08,256.08-655.04,69.79-224.42,126.63-461.17,168.96-703.66,41.56-238.15,69.66-484.85,83.5-733.25,13.69-245.77,13.6-496.03-.28-743.81l4.99-.28c13.89,247.97,13.99,498.41.28,744.37-13.85,248.6-41.97,495.5-83.56,733.84-42.36,242.71-99.26,479.66-169.11,704.29-71.58,230.2-157.83,450.82-256.35,655.73-110.76,230.37-236.92,440.75-374.96,625.29-134.45,179.72-281.57,336.84-437.28,466.99-152.91,127.81-315.34,230.67-482.78,305.73-166.04,74.43-338.12,122.03-511.44,141.46-60.13,6.74-120.61,10.11-181.15,10.11l-.02-.02Z"/>
      <path class="cls-8" d="m2924.97,4992.75c-104.96,0-210.42-10.42-315.15-31.21-160.96-31.94-321.68-88.68-477.69-168.63-158.9-81.43-314.68-187.86-463-316.33-152.14-131.78-298.42-288.5-434.78-465.8-252.97-329.21-468.21-721.61-639.73-1166.3l4.56-1.76c171.35,444.25,386.36,836.25,639.06,1165.09,136.16,177.04,282.21,333.51,434.1,465.08,148.02,128.21,303.47,234.42,462.02,315.67,155.61,79.75,315.9,136.33,476.41,168.19,158.87,31.53,319.47,39.14,477.33,22.62,164.62-17.23,327.63-60.81,484.52-129.55,158.34-69.37,311.65-164.91,455.68-283.95,146.73-121.27,285.19-268.09,411.52-436.37,129.71-172.78,248.13-370.19,351.96-586.76,96.08-200.87,178.76-420.82,245.73-653.74,65.07-226.28,116.13-467.62,151.79-717.31,34.88-244.27,55.38-499.03,60.92-757.19,5.47-254.74-3.57-514.94-26.87-773.38l4.87-.44c23.31,258.62,32.36,519.01,26.89,773.93-5.54,258.36-26.06,513.31-60.96,757.78-35.69,249.91-86.8,491.47-151.93,717.97-67.05,233.18-149.82,453.38-246.02,654.5-103.98,216.86-222.56,414.55-352.46,587.58-126.56,168.59-265.29,315.68-412.32,437.2-144.38,119.33-298.09,215.11-456.84,284.66-157.34,68.94-320.85,112.65-485.97,129.93-54.28,5.68-108.91,8.52-163.65,8.52h.01Z"/>
      <path class="cls-6" d="m3003.18,4932.53c-111.43,0-223.76-12.15-335.49-36.36-162.65-35.25-325.35-96.35-483.6-181.61-161.23-86.86-319.4-199.67-470.14-335.3-154.75-139.23-303.51-304.2-442.16-490.33-253.71-340.56-471.16-745.13-646.32-1202.47l4.47-1.71c175,456.93,392.24,861.12,645.68,1201.33,138.46,185.88,287.02,350.62,441.53,489.63,150.46,135.37,308.32,247.96,469.21,334.64,157.85,85.05,320.14,145.99,482.34,181.14,111.39,24.14,223.4,36.25,334.48,36.26,49.07,0,97.93-2.36,146.52-7.1,156.29-15.23,310.66-55.13,458.8-118.59,149.59-64.08,294.16-152.75,429.69-263.55,138.07-112.88,268.17-249.9,386.7-407.26,121.64-161.5,232.58-346.43,329.75-549.67,93.82-197.16,173.02-416.65,235.4-652.38,60.4-228.26,105.7-474.18,134.64-730.94,28.24-250.53,41.13-513.34,38.34-781.15-2.76-263.84-20.76-534.02-53.5-803.01l4.75-.58c32.76,269.17,50.77,539.52,53.53,803.54,2.8,268-10.11,531.01-38.37,781.73-28.96,256.99-74.31,503.14-134.77,731.63-62.46,236.02-141.76,455.79-235.71,653.22-97.31,203.53-208.42,388.74-330.25,550.49-118.76,157.67-249.13,294.97-387.49,408.09-135.88,111.09-280.83,200-430.84,264.25-148.6,63.65-303.44,103.67-460.23,118.95-48.73,4.75-97.77,7.12-146.98,7.12h.02Z"/>
      <path class="cls-7" d="m3080.1,4875.14c-117.31,0-236-13.99-354.34-41.85-164.24-38.67-328.9-104.31-489.4-195.12-163.56-92.54-324.2-212.01-477.45-355.1-157.45-147.01-308.82-320.58-449.91-515.9-254.36-352.1-473.99-768.84-652.79-1238.64l4.37-1.66c178.66,469.42,398.09,885.79,652.21,1237.56,140.91,195.07,292.08,368.41,449.31,515.21,152.98,142.84,313.32,262.09,476.56,354.45,160.12,90.59,324.36,156.08,488.17,194.64,162.24,38.19,325.15,50.25,484.21,35.83,147.84-13.4,293.47-49.81,432.84-108.22,140.8-59,276.61-141.05,403.67-243.85,129.43-104.72,251.23-232.19,362.01-378.86,113.64-150.45,217.21-323.13,307.81-513.23,91.57-193.53,167.28-412.57,225.01-651.03,55.77-230.33,95.29-480.84,117.48-744.57,21.61-256.88,26.92-527.76,15.78-805.11-10.97-273.06-37.91-553.2-80.07-832.64l4.63-.7c42.18,279.61,69.14,559.92,80.12,833.15,11.15,277.54,5.84,548.61-15.79,805.69-22.21,263.97-61.77,514.72-117.6,745.28-57.81,238.77-133.62,458.11-225.33,651.94-90.74,190.39-194.47,363.34-308.31,514.05-111.02,146.97-233.08,274.72-362.8,379.68-127.4,103.08-263.59,185.35-404.8,244.53-139.82,58.59-285.92,95.12-434.23,108.56-43.53,3.95-87.36,5.92-131.37,5.92h.01Z"/>
      <path class="cls-11" d="m3155.57,4820.84c-122.61,0-247.17-15.96-371.71-47.71-165.69-42.23-332.21-112.64-494.93-209.27-165.86-98.49-328.95-224.94-484.75-375.85-160.19-155.16-314.24-337.72-457.85-542.6-255.29-364.13-477.1-793.07-659.27-1274.9l4.28-1.62c182.03,481.48,403.66,910.08,658.73,1273.9,143.45,204.64,297.3,386.98,457.29,541.94,155.54,150.66,318.35,276.89,483.9,375.2,162.35,96.41,328.46,166.65,493.72,208.77,124.17,31.65,248.36,47.56,370.58,47.56,38.97,0,77.73-1.62,116.23-4.86,139.29-11.72,276.14-44.83,406.75-98.41,132-54.14,259.09-129.8,377.73-224.86,120.85-96.83,234.43-215.01,337.59-351.25,105.76-139.69,202.07-300.36,286.24-477.56,89.4-189.96,161.65-408.55,214.72-649.69,51.17-232.46,84.93-487.57,100.35-758.23,15-263.31,12.71-542.25-6.8-829.07-19.2-282.35-55.09-572.44-106.66-862.22l4.51-.8c51.6,289.94,87.5,580.2,106.72,862.71,19.52,287.01,21.81,566.14,6.8,829.64-15.43,270.91-49.22,526.26-100.44,758.96-53.15,241.47-125.51,460.38-215.06,650.67-84.31,177.49-180.78,338.43-286.73,478.37-103.39,136.55-217.23,255-338.38,352.06-118.99,95.34-246.45,171.22-378.86,225.53-131.04,53.75-268.35,86.97-408.11,98.73-38.63,3.25-77.53,4.87-116.62,4.87h.03Z"/>
      <path class="cls-9" d="m3231.06,4770.22c-126.95,0-256.54-17.95-386.59-53.62-167.28-45.88-335.89-121.27-501.13-224.06-168.46-104.78-334.33-238.64-493.01-397.85-163.31-163.84-320.35-355.94-466.77-570.94-256.2-376.25-480.19-817.39-665.74-1311.17l4.18-1.57c185.43,493.45,409.25,934.27,665.25,1310.23,146.26,214.78,303.13,406.65,466.24,570.3,158.44,158.96,324.04,292.6,492.21,397.21,164.88,102.56,333.09,177.77,499.96,223.54,165.45,45.38,330.15,61.99,489.54,49.37,130.55-10.34,258.44-40.45,380.12-89.5,123.04-49.6,241.22-119.17,351.26-206.78,112.09-89.24,217.23-198.42,312.51-324.49,97.65-129.21,186.4-278.13,263.8-442.64,87.59-186.21,156.58-404.25,205.06-648.07,46.62-234.49,74.58-494.21,83.11-771.94,8.28-269.69-1.74-556.76-29.76-853.23-27.56-291.59-72.47-591.7-133.48-891.97l4.38-.89c61.04,300.43,105.97,600.68,133.54,892.44,28.04,296.66,38.06,583.92,29.77,853.79-8.53,277.97-36.52,537.94-83.19,772.67-48.55,244.18-117.65,462.56-205.4,649.1-77.53,164.78-166.45,313.98-264.28,443.43-95.5,126.37-200.91,235.82-313.29,325.3-110.38,87.88-228.93,157.67-352.37,207.43-122.1,49.22-250.43,79.43-381.44,89.81-34.59,2.74-69.44,4.11-104.48,4.11h0Z"/>
      <path class="cls-10" d="m3303.08,4722.24c-130.83,0-265.1-20.13-400.4-60.11-168.38-49.75-338.65-130.35-506.05-239.56-170.68-111.34-339.03-252.86-500.38-420.63-166.18-172.79-326.09-374.68-475.27-600.03-257.01-388.2-483.21-841.51-672.32-1347.34l4.09-1.53c189,505.52,415.05,958.53,671.88,1346.46,149.04,225.14,308.77,426.81,474.77,599.41,161.12,167.53,329.22,308.84,499.62,420,167.05,108.97,336.93,189.4,504.9,239.03,166.66,49.25,331.75,68.28,490.69,56.59,121.86-8.97,240.92-36.17,353.88-80.85,114.27-45.2,223.82-108.9,325.61-189.32,211.18-166.86,390.05-404.82,531.63-707.28,85.51-182.67,151.06-400.23,194.84-646.64,42.05-236.7,64.24-501.01,65.93-785.59,1.64-276.24-15.99-571.39-52.41-877.24-35.85-301.05-89.71-611.13-160.11-921.62l4.26-.97c70.43,310.65,124.32,620.88,160.19,922.07,36.44,306.04,54.08,601.37,52.44,877.79-1.69,284.82-23.9,549.38-65.99,786.33-43.84,246.78-109.52,464.7-195.19,647.72-141.87,303.08-321.16,541.57-532.88,708.85-102.12,80.69-212.04,144.6-326.71,189.95-113.37,44.84-232.87,72.15-355.17,81.15-30.4,2.24-61.03,3.35-91.84,3.35h0Z"/>
      <path class="cls-4" d="m3372.35,4677.69c-133.95,0-272.25-22.43-412.29-66.94-169.24-53.79-340.97-139.86-510.45-255.79-172.79-118.2-343.56-267.74-507.59-444.44-169.07-182.14-331.88-394.19-483.92-630.26-258.26-401.17-486.61-866.68-678.71-1383.61l3.99-1.48c191.99,516.65,420.2,981.88,678.29,1382.79,151.9,235.86,314.56,447.71,483.46,629.67,163.81,176.47,334.35,325.8,506.87,443.82,169.13,115.7,340.49,201.58,509.33,255.25,167.65,53.29,332.8,74.83,490.87,64.03,113.16-7.73,223.45-32.21,327.79-72.76,105.59-41.03,206.63-99.11,300.32-172.64,194.18-152.39,358.38-370.86,488.03-649.33,83.45-179.2,145.58-396.3,184.66-645.26,37.52-238.99,53.94-507.9,48.8-799.26-9.92-563.46-100.45-1204.03-261.8-1852.46l4.13-1.03c161.42,648.74,252,1289.64,261.92,1853.42,5.14,291.61-11.3,560.77-48.86,800-39.14,249.36-101.39,466.84-185.01,646.4-129.93,279.09-294.54,498.07-489.26,650.88-94.02,73.79-195.43,132.08-301.41,173.26-104.75,40.7-215.46,65.27-329.05,73.04-26.53,1.81-53.26,2.72-80.16,2.72l.05-.02Z"/>
      <path class="cls-5" d="m3439.02,4636.54c-136.28,0-277.94-24.85-422.17-74.14-169.79-58.02-342.79-149.81-514.19-272.81-174.75-125.41-347.87-283.33-514.55-469.37-171.94-191.91-337.7-414.54-492.68-661.71-259.59-414.15-490.16-891.86-685.29-1419.88l3.9-1.44c195.03,527.75,425.47,1005.21,684.91,1419.12,154.85,246.97,320.47,469.42,492.25,661.15,166.48,185.82,339.38,343.53,513.88,468.76,171.07,122.77,343.7,214.37,513.11,272.26,168.35,57.53,333.19,81.67,489.95,71.74,211.6-13.4,405.88-88.06,577.43-221.92,177.57-138.54,327.51-338.18,445.63-593.36,81.38-175.81,140.05-392.47,174.41-643.98,32.96-241.31,43.6-514.82,31.63-812.94-23.21-577.91-130.77-1237.02-311.05-1906.07l4.02-1.08c180.37,669.35,287.98,1328.77,311.19,1906.98,11.98,298.36,1.33,572.12-31.67,813.67-34.41,251.92-93.2,468.98-174.75,645.16-118.41,255.79-268.75,455.94-446.85,594.89-172.23,134.38-367.28,209.33-579.73,222.79-22.96,1.45-46.1,2.18-69.39,2.18h0Z"/>
      <path class="cls-21" d="m3502.4,4598.97c-137.75,0-282.04-27.39-429.85-81.68-170-62.44-343.99-160.22-517.15-290.65-176.52-132.96-351.87-299.64-521.17-495.41-174.76-202.1-343.48-435.72-501.46-694.37-261-427.35-493.74-917.24-691.77-1456.06l3.8-1.4c197.94,538.57,430.57,1028.22,691.43,1455.34,157.86,258.46,326.44,491.9,501.06,693.83,169.11,195.56,344.25,362.04,520.54,494.83,172.84,130.18,346.48,227.78,516.11,290.08,168.74,61.98,332.85,88.79,487.78,79.71,194.1-11.38,371.64-78.6,527.68-199.78,161.42-125.36,297.54-306.9,404.56-539.56,79.29-172.38,134.5-388.58,164.11-642.6,28.4-243.66,33.26-521.76,14.46-826.59-36.56-592.69-161.15-1270.35-360.27-1959.7l3.89-1.12c199.21,689.63,323.84,1367.59,360.42,1960.57,18.82,305.07,13.95,583.42-14.48,827.31-29.66,254.44-84.99,471.05-164.45,643.82-107.3,233.26-243.82,415.3-405.76,541.06-156.7,121.69-334.99,189.19-529.93,200.62-19.7,1.16-39.57,1.73-59.56,1.73v.02Z"/>
      <path class="cls-22" d="m3562.19,4564.9c-138.35,0-284.51-30.06-435.29-89.61-169.83-67.07-344.53-171.15-519.24-309.37-178.07-140.87-355.5-316.72-527.35-522.66-177.52-212.73-349.18-457.75-510.22-728.26-262.48-440.89-497.41-942.98-698.26-1492.33l3.71-1.36c200.77,549.12,435.59,1050.99,697.94,1491.67,160.93,270.33,332.47,515.18,509.86,727.75,171.67,205.73,348.9,381.39,526.76,522.09,174.41,137.97,348.77,241.87,518.24,308.79,150.31,59.36,296,89.33,433.84,89.33,16.93,0,33.72-.45,50.41-1.36,361.81-19.62,653.69-250.23,844.1-666.92,77.23-168.98,129-384.72,153.87-641.23,23.85-246.04,22.95-528.75-2.68-840.27-24.94-303.11-73.01-630.55-142.88-973.2-69.25-339.65-158.95-689.59-266.6-1040.1l3.78-1.16c107.69,350.63,197.42,700.69,266.7,1040.47,69.89,342.8,117.99,670.39,142.94,973.66,25.65,311.75,26.55,594.7,2.68,840.98-24.91,256.95-76.8,473.12-154.21,642.5-191.06,418.1-484.11,649.52-847.48,669.22-16.75.91-33.63,1.36-50.62,1.36h0Z"/>
      <path class="cls-20" d="m3618.14,4534.52c-291.69,0-622.07-146.87-958.77-426.85-179.38-149.16-358.71-334.57-533.03-551.08-180.18-223.79-354.76-480.62-518.9-763.33-264.09-454.63-501.23-968.89-704.84-1528.51l3.61-1.31c203.54,559.4,440.58,1073.46,704.56,1527.89,164.05,282.55,338.52,539.21,518.58,762.85,174.15,216.31,353.31,401.54,532.49,550.53,335.98,279.38,665.54,425.96,956.31,425.96,14.22,0,28.34-.35,42.37-1.05,160-8.01,305.32-61.64,431.93-159.39,130.79-100.99,240.85-248.59,327.12-438.73,75.14-165.61,123.43-380.91,143.54-639.9,19.29-248.47,12.61-535.77-19.85-853.92-31.63-309.98-87.3-645.47-165.47-997.16-77.68-349.49-176.33-709.4-293.2-1069.73l3.65-1.19c116.91,360.44,215.59,720.47,293.29,1070.08,78.2,351.84,133.9,687.48,165.54,997.61,32.48,318.38,39.17,605.92,19.86,854.61-20.14,259.44-68.55,475.17-143.87,641.19-86.53,190.71-196.98,338.81-328.27,440.18-127.24,98.24-273.29,152.14-434.08,160.19-14.08.71-28.29,1.06-42.55,1.06h-.02Z"/>
      <path class="cls-19" d="m3669.62,4508c-286.83.02-617.55-157.01-959.33-456.03-180.4-157.83-361.45-353.21-538.13-580.73-182.72-235.31-360.2-504.34-527.49-799.62-266.16-469.86-505.49-996.36-711.33-1564.89l3.52-1.27c205.77,568.33,445.01,1094.64,711.07,1564.31,167.2,295.12,344.58,564,527.19,799.17,176.53,227.33,357.42,422.54,537.64,580.21,341.05,298.38,670.97,455.09,956.86,455.1,11.89,0,23.65-.27,35.38-.81,143.57-6.63,273.56-54.11,386.36-141.11,116.42-89.79,214.31-221.62,290.94-391.8,143.54-318.9,176.8-839.75,96.19-1506.23-38.33-316.9-101.6-660.46-188.06-1021.14-86.14-359.39-193.74-729.26-319.79-1099.35l3.54-1.21c126.09,370.2,233.72,740.19,319.89,1099.69,86.49,360.82,149.78,704.52,188.13,1021.56,39.31,324.99,51.77,617.12,37.04,868.27-15.37,261.93-60.29,477.24-133.53,639.94-76.89,170.76-175.16,303.06-292.07,393.23-113.42,87.48-244.12,135.21-388.47,141.88-11.75.54-23.64.81-35.54.82h0Z"/>
      <path class="cls-12" d="m3716.64,4485.26c-134.6,0-281.43-38.81-436.99-115.56-166.69-82.24-341.39-207.06-519.25-370.99-181.09-166.9-363.61-372.7-542.51-611.67-185.11-247.28-365.41-528.94-535.88-837.16-268.23-484.85-509.77-1023.53-717.92-1601.06l3.42-1.23c208.08,577.35,449.55,1115.85,717.68,1600.54,170.39,308.07,350.59,589.59,535.61,836.74,178.76,238.8,361.14,444.43,542.06,611.18,177.61,163.69,352.02,288.31,518.4,370.4,155.05,76.5,301.35,115.18,435.38,115.18,9.77,0,19.46-.21,29.1-.62,127.71-5.45,243-47.22,342.66-124.15,102.76-79.32,189.11-196.24,256.65-347.51,139.65-312.8,163.43-837.91,68.77-1518.56-45.05-323.9-115.9-675.52-210.61-1045.11-94.65-369.38-211.2-749.22-346.42-1128.98l3.42-1.22c135.25,379.87,251.83,759.82,346.51,1129.3,94.74,369.72,165.62,721.48,210.69,1045.51,94.75,681.32,70.88,1207.12-69.05,1520.54-67.79,151.83-154.51,269.21-257.75,348.9-100.27,77.39-216.25,119.42-344.72,124.9-9.68.41-19.44.62-29.25.62h0Z"/>
      <path class="cls-15" d="m3758.79,4466.4c-131.45,0-276.77-41.97-432.44-124.95-164.65-87.76-338.54-220.15-516.85-393.5-370.89-360.56-747.89-886.1-1090.25-1519.81-138.74-256.87-272.21-530.75-396.7-814.03-116.71-265.57-226.93-542.58-327.61-823.31l3.32-1.19c100.65,280.66,210.85,557.59,327.52,823.09,124.45,283.2,257.88,556.99,396.57,813.77,342.19,633.4,718.97,1158.65,1089.6,1518.96,178.08,173.12,351.7,305.31,516.06,392.92,164.59,87.73,317.51,129.48,454.51,124.07,112.49-4.44,213.75-40.91,300.98-108.41,89.84-69.51,165.3-172.37,224.28-305.71,68.86-155.64,106.72-369.64,112.52-636.03,5.58-255.96-18.41-557.06-71.29-894.94-51.8-330.94-130.25-690.62-233.18-1069.06-103.19-379.4-228.68-769.2-373-1158.55l3.31-1.23c144.35,389.46,269.88,779.35,373.09,1158.85,102.96,378.56,181.44,738.37,233.26,1069.44,52.92,338.08,76.92,639.39,71.33,895.56-5.82,266.86-43.78,481.31-112.82,637.38-59.22,133.88-135.04,237.2-225.35,307.08-87.82,67.96-189.77,104.67-303,109.14-7.9.31-15.87.47-23.87.47h0Z"/>
      <path class="cls-17" d="m3795.92,4451.24c-127.36,0-270.32-45.26-425.33-134.71-162.06-93.51-334.69-233.81-513.09-417-371.25-381.2-751.94-932.1-1100.91-1593.13-139.71-264.67-274.19-545.44-399.69-834.52-118.15-272.14-229.59-554.42-331.2-839.01l3.22-1.15c101.59,284.51,213,566.73,331.12,838.79,125.47,289,259.91,569.69,399.58,834.28,348.83,660.75,729.32,1211.37,1100.34,1592.34,178.18,182.96,350.56,323.07,512.35,416.43,154.47,89.13,296.88,134.24,423.62,134.25,6.42,0,12.78-.12,19.12-.35,98.01-3.58,186.02-35.16,261.59-93.86,77.74-60.39,143.01-150.05,194-266.5,66.71-152.35,101.05-365.92,102.06-634.75.97-258.53-28.78-564.22-88.45-908.59-58.57-338.05-144.6-705.78-255.7-1093-111.76-389.52-246.19-789.27-399.55-1188.17l3.19-1.23c153.4,398.99,287.86,798.84,399.65,1188.45,111.13,387.33,197.19,755.19,255.78,1093.36,59.7,344.56,89.47,650.46,88.5,909.18-1.01,269.3-35.45,483.32-102.35,636.11-51.23,116.98-116.85,207.08-195.04,267.83-76.15,59.15-164.83,90.98-263.56,94.58-6.37.23-12.79.35-19.24.35v.02Z"/>
      <path class="cls-18" d="m3827.56,4440.04c-122.34,0-262.04-48.67-415.6-144.84-158.9-99.51-329.77-248.08-507.87-441.57-370.7-402.73-754.62-979.85-1110.26-1668.97-140.73-272.78-276.17-560.45-402.55-855.02-119.75-279.11-232.37-566.7-334.74-854.79l3.13-1.11c102.34,288.02,214.94,575.54,334.66,854.59,126.35,294.5,261.76,582.1,402.45,854.81,355.51,688.86,739.26,1265.73,1109.76,1668.25,177.9,193.27,348.55,341.65,507.19,441.01,159.44,99.85,303.8,148.33,429.09,144.08,84.35-2.86,159.92-29.96,224.62-80.53,66.47-51.96,122.26-129.34,165.85-230,64.57-149.1,95.39-362.24,91.62-633.51-3.63-261.13-39.15-571.42-105.57-922.23-65.36-345.21-158.95-721-278.19-1116.92-120.37-399.68-263.72-809.4-426.09-1217.76l3.09-1.23c162.4,408.45,305.79,818.26,426.18,1218.03,119.27,396.03,212.89,771.93,278.27,1117.26,66.45,351.01,101.99,661.48,105.62,922.81,3.78,271.74-27.14,485.35-91.89,634.88-43.8,101.17-99.94,178.99-166.85,231.29-65.26,51.01-141.49,78.34-226.55,81.23-5.08.17-10.22.26-15.36.26v-.02Z"/>
      <path class="cls-13" d="m3853.95,4432.85c-116.44,0-252.06-52.22-403.37-155.36-155.16-105.76-323.78-262.95-501.18-467.21-179.99-207.24-365.6-459.03-551.66-748.39-192.65-299.6-383.27-635.67-566.56-998.87-141.68-280.74-278.1-575.34-405.47-875.63-121.22-285.79-235.08-578.65-338.41-870.45l3.03-1.07c103.31,291.74,217.15,584.54,338.34,870.27,127.34,300.22,263.73,594.77,405.38,875.44,183.25,363.1,373.81,699.07,566.4,998.58,185.98,289.23,371.49,540.91,551.38,748.03,177.22,204.05,345.64,361.05,500.57,466.66,150.76,102.76,285.78,154.79,401.56,154.8,4.04,0,8.04-.06,12.03-.19,71.59-2.27,135.61-25.26,190.26-68.33,56.07-44.19,103.14-110.18,139.9-196.15,62.35-145.88,89.62-358.63,81.04-632.35-8.27-263.81-49.56-578.7-122.71-935.94-72.18-352.48-173.33-736.32-300.64-1140.85-129.01-409.95-281.29-829.6-452.6-1247.32l2.97-1.22c171.35,417.8,323.65,837.55,452.69,1247.58,127.34,404.64,228.52,788.59,300.72,1141.17,73.19,357.41,114.49,672.49,122.77,936.48,8.6,274.19-18.75,487.4-81.29,633.71-36.97,86.47-84.36,152.89-140.86,197.41-55.21,43.5-119.85,66.72-192.15,69.01-4.01.13-8.06.19-12.12.19h-.02Z"/>
      <path class="cls-16" d="m3874.79,4429.01c-109.59,0-240.16-55.92-388.31-166.34-150.56-112.22-316.25-278.43-492.47-493.99-178.37-218.2-363.89-482.57-551.41-785.79-193.87-313.47-387.02-663.95-574.1-1041.7-143.2-290.92-280.5-592.46-408.08-896.24-123.82-294.82-238.98-592.93-342.3-886.04l2.93-1.03c103.29,293.05,218.44,591.1,342.23,885.86,127.55,303.72,264.82,605.2,408,896.06,187.03,377.66,380.14,728.05,573.95,1041.44,187.45,303.1,372.89,567.36,551.17,785.45,176.05,215.37,341.56,381.39,491.92,493.47,147.59,110.01,277.54,165.73,386.44,165.73,3.12,0,6.22-.05,9.31-.14,121.49-3.61,213.94-78.29,274.77-221.97,59.89-142.81,83.44-355.24,70-631.37-12.97-266.61-60-586.09-139.78-949.56-78.99-359.89-187.61-751.73-322.83-1164.63-137.66-420.35-298.82-849.94-479-1276.83l2.87-1.21c180.21,426.97,341.4,856.64,479.09,1277.08,135.25,413,243.9,804.94,322.91,1164.93,79.81,363.64,126.86,683.29,139.85,950.07,13.46,276.6-10.17,489.48-70.24,632.73-61.35,144.91-154.73,220.23-277.55,223.87-3.11.09-6.25.14-9.4.14h.03Z"/>
      <path class="cls-14" d="m3889.85,4429.66c-102.12,0-227.05-59.68-371.51-177.51-145.85-118.97-308.39-294.51-483.09-521.75-176.68-229.8-361.76-507.26-550.1-824.68-194.76-328.23-389.7-693.7-579.4-1086.27-144.11-298.28-282.44-606.68-411.13-916.62C1369.66,601.89,1253.34,298.47,1148.89.99l2.83-.99c104.43,297.43,220.73,600.8,345.67,901.68,128.67,309.88,266.98,618.23,411.06,916.46,189.66,392.49,384.56,757.89,579.27,1086.04,188.28,317.31,373.3,594.67,549.9,824.38,174.56,227.05,336.93,402.42,482.61,521.25,143.9,117.38,268.2,176.84,369.61,176.84,2.45,0,4.87-.03,7.29-.1,99.54-2.84,175.07-64.73,224.48-183.93,57.84-139.52,77.94-351.5,59.73-630.06-17.6-269.28-70.4-593.35-156.92-963.21-85.9-367.21-202.11-767.11-345.41-1188.6-146.41-430.66-316.52-870.21-505.59-1306.46l2.75-1.19c189.11,436.32,359.25,875.96,505.68,1306.69,143.33,421.58,259.57,821.58,345.49,1188.88,86.56,370.02,139.38,694.26,156.99,963.7,18.24,279.02-1.93,491.46-59.95,631.4-49.91,120.39-126.34,182.9-227.17,185.78-2.44.07-4.9.1-7.37.1h.01Z"/>
    </g>
  </g>
</svg>