<?xml version="1.0" encoding="utf-8"?>
<!-- Generator: Adobe Illustrator 27.2.0, SVG Export Plug-In . SVG Version: 6.00 Build 0)  -->
<svg version="1.1" id="_ÎÓÈ_1" xmlns="http://www.w3.org/2000/svg" xmlns:xlink="http://www.w3.org/1999/xlink" x="0px" y="0px"
	 viewBox="0 0 5000 3000" style="enable-background:new 0 0 5000 3000;" xml:space="preserve">
<style type="text/css">
	.st0{clip-path:url(#SVGID_00000183930326236278743620000003049053073382383276_);}
	.st1{opacity:0.1;}
	.st2{fill:url(#SVGID_00000058569975888842249410000012588885656798677409_);}
	.st3{opacity:0.14;}
	.st4{fill:url(#SVGID_00000041983638131833738840000008693622975335913905_);}
	.st5{opacity:0.18;}
	.st6{fill:url(#SVGID_00000027580539761224055810000005022703809725029521_);}
	.st7{opacity:0.22;}
	.st8{fill:url(#SVGID_00000096763676210173961460000011441087024065856905_);}
	.st9{opacity:0.26;}
	.st10{fill:url(#SVGID_00000109015754212542386980000004651053809139138736_);}
	.st11{opacity:0.3;}
	.st12{fill:url(#SVGID_00000016756202111484875080000007989381835757389224_);}
	.st13{opacity:0.33;}
	.st14{fill:url(#SVGID_00000125588656838193647220000008853610046480800692_);}
	.st15{opacity:0.37;}
	.st16{fill:url(#SVGID_00000115484842778533747590000018361486634112392358_);}
	.st17{opacity:0.41;}
	.st18{fill:url(#SVGID_00000142858057492766946810000010742000725376722622_);}
	.st19{opacity:0.45;}
	.st20{fill:url(#SVGID_00000160901212976327963810000000080964786612344968_);}
	.st21{opacity:0.49;}
	.st22{fill:url(#SVGID_00000011738304822614933170000004627469144309652920_);}
	.st23{opacity:0.53;}
	.st24{fill:url(#SVGID_00000148663464843570217850000014560800635723406513_);}
	.st25{opacity:0.57;}
	.st26{fill:url(#SVGID_00000127019113440759454090000005017522828127259037_);}
	.st27{opacity:0.61;}
	.st28{fill:url(#SVGID_00000054254046862816317470000016677736858307024821_);}
	.st29{opacity:0.65;}
	.st30{fill:url(#SVGID_00000094583427920359367040000007591994968268712581_);}
	.st31{opacity:0.69;}
	.st32{fill:url(#SVGID_00000042717526500638705840000017047025306295433877_);}
	.st33{opacity:0.73;}
	.st34{fill:url(#SVGID_00000162350108310629393320000000925401484934052738_);}
	.st35{opacity:0.77;}
	.st36{fill:url(#SVGID_00000176735522177397089780000005475082073067721867_);}
	.st37{opacity:0.8;}
	.st38{fill:url(#SVGID_00000054986898596830858620000015988192866414717367_);}
	.st39{opacity:0.84;}
	.st40{fill:url(#SVGID_00000008857252471575446860000012849386926373478531_);}
	.st41{opacity:0.88;}
	.st42{fill:url(#SVGID_00000165952248849099533730000007991919582632138113_);}
	.st43{opacity:0.92;}
	.st44{fill:url(#SVGID_00000017479030362824111870000005970070381123219889_);}
	.st45{opacity:0.96;}
	.st46{fill:url(#SVGID_00000176733267186414009010000016398702617825047174_);}
	.st47{fill:url(#SVGID_00000129900664314458751780000004889688358637651608_);}
</style>
<g>
	<g>
		<g>
			<defs>
				<rect id="SVGID_1_" y="0" width="5000" height="3000"/>
			</defs>
			<clipPath id="SVGID_00000001637250691541952030000015069310782487856288_">
				<use xlink:href="#SVGID_1_"  style="overflow:visible;"/>
			</clipPath>
			<g style="clip-path:url(#SVGID_00000001637250691541952030000015069310782487856288_);">
				<g>
					<g class="st1">
						
							<linearGradient id="SVGID_00000101813081300663440190000012674440158050477235_" gradientUnits="userSpaceOnUse" x1="2279.3308" y1="-1954.58" x2="4790.3491" y2="-619.4481" gradientTransform="matrix(1 0 0 1 0 2156)">
							<stop  offset="0.4519" style="stop-color:#1F4C67;stop-opacity:0"/>
							<stop  offset="0.8388" style="stop-color:#1F4C67"/>
							<stop  offset="1" style="stop-color:#1F4C67;stop-opacity:0"/>
						</linearGradient>
						<path style="fill:url(#SVGID_00000101813081300663440190000012674440158050477235_);" d="M3751.1-2237.4
							c-96.9,60.8-174.9,122.1-238.6,187.7c-73.7,75.9-131.4,164.5-166.9,256.2c-18.9,48.8-31.2,98-36.8,146.4
							c-5.9,51.2-4.2,101.8,5.1,150.2c10.2,53.2,30.2,108.4,61.1,168.8c28.3,55.1,62.5,108.8,92.8,156.1l869.5,1360
							c178.5,279.2,361.1,603.2,267.8,915.9c-74.3,249.2-301.2,397.3-429.8,463.5c-142.6,73.3-298.9,121.1-450,167.3
							c-53.1,16.2-107.9,33-161.4,50.7c-492.8,162.6-852,403.9-1067.8,717.3c-124.2,180.4-198,399.7-207.6,617.5
							c-5,111.8,7.1,219.5,35.8,320.1c30.3,106.3,78.7,202.4,143.8,285.8c77.4,99.2,179.3,183,302.8,249.1
							c111.8,59.8,238.1,103.7,375.5,130.4c86.3,16.8,173.5,26.7,261,31.9l0.1-0.8c-87.5-5.3-174.7-15.1-261-31.9
							c-290.4-56.5-531.2-191.2-677.9-379.2c-161.4-206.9-204.1-466.5-168.8-713c26.8-186.8,98.3-366.2,196.9-509.5
							c215.7-313.2,574.8-554.4,1067.4-717c53.5-17.7,108.4-34.4,161.4-50.7c151.1-46.2,307.4-94.1,450.1-167.4
							c49.5-25.5,96.6-54.1,139.8-85.1c45.9-32.8,87.7-68.6,124.3-106.1c81-83,136.8-174.8,166-272.7c8.5-28.6,14.9-57.6,19.1-87.2
							c16.9-118-0.1-244.9-51.4-385.4C4517.3,477.2,4427.1,327,4338,187.6l-869.5-1360c-61.3-95.9-130.8-204.6-153.8-324.6
							c-34.9-181.9,39.3-388.4,198.4-552.2c143.1-147.4,327.6-243.3,506.1-336.2l-0.4-0.7C3934.5-2342.2,3839-2292.5,3751.1-2237.4
							L3751.1-2237.4L3751.1-2237.4z"/>
					</g>
					<g class="st3">
						
							<linearGradient id="SVGID_00000065781155961373180560000003102073758364480933_" gradientUnits="userSpaceOnUse" x1="2288.1501" y1="-1901.2957" x2="4786.0327" y2="-573.1478" gradientTransform="matrix(1 0 0 1 0 2156)">
							<stop  offset="0.4519" style="stop-color:#1F4C67;stop-opacity:0"/>
							<stop  offset="0.8388" style="stop-color:#1F4C67"/>
							<stop  offset="1" style="stop-color:#1F4C67;stop-opacity:0"/>
						</linearGradient>
						<path style="fill:url(#SVGID_00000065781155961373180560000003102073758364480933_);" d="M3772.6-2175.3
							c-103.2,54.2-197.8,127.1-273.5,210.9c-71.7,79.2-127.7,168.3-162,257.6c-18.7,48.7-31.1,97.6-36.8,145.3
							c-6.1,50.9-4.6,101.2,4.4,149.3c9.9,53.1,29.3,108.2,59.4,168.5c26,52.2,56.4,101.6,90.6,156.2
							c103.2,164.8,206.6,326.8,307.1,481.5c107.1,164.9,217.3,331.6,323.9,492.9C4165.9,8.4,4249,134,4330,257.9
							c72.1,110,153.6,240.6,211.6,375.4c86.2,200.5,105.5,375.4,59,534.7c-53.7,184-203.2,349.7-421,466.5
							c-29.4,15.8-61,31.2-93.8,46c-115.7,52-239.2,91.7-358.6,130.1c-49.7,16-101,32.5-151.1,49.7
							c-136.5,46.8-264.2,99.6-379.4,156.9c-128.9,64.1-246.2,135.9-348.7,213.2c-65.9,49.8-127.1,103-181.9,158.2
							c-57.8,58.2-110.1,120.3-155.4,184.5c-66.1,93.2-118.2,196.4-155.2,306.4c-37.3,111.1-57.3,224.6-59.6,337.2
							c-2.1,105.1,11.5,206.6,40.6,301.4c30.5,99.7,77.5,190.2,139.6,269.1c75.5,96.3,174.6,177.8,294.7,242.3
							c108.7,58.4,231.6,101.3,365.1,127.7c81.2,16,168.4,26.8,264.1,32.4l0.1-1c-88.5-5.2-177.1-15.1-264.1-32.3
							c-282-55.7-516.1-187-659.2-369.6c-122.1-154.9-184.4-351.9-180-569.9c4.6-225.8,80.8-454.2,214.6-643.1
							c88.3-125,201.7-240.2,337.1-342.4c194-146.5,438.9-271,727.9-370c50.1-17.2,101.5-33.7,151.1-49.7
							c119.4-38.4,243-78.2,358.7-130.2c32.8-14.8,64.4-30.2,93.9-46c48.7-26.1,94.9-55.3,137.4-86.8c45-33.3,86-69.4,121.8-107.3
							c79.2-83.6,133.8-175.4,162.3-273c8.1-27.7,14.1-55.8,18.2-84.4c19.6-136.6-6-285-77.3-451c-58-134.9-139.5-265.6-211.7-375.6
							c-81.1-123.9-164.1-249.5-244.4-371c-106.6-161.2-216.7-327.9-323.9-492.9c-100.6-154.7-203.9-316.7-307.1-481.5
							c-59.6-95.3-127.2-203.3-149.8-324.3c-33.1-177.4,37.7-378.4,194.1-551.4c75.6-83.7,170.1-156.5,273.2-210.7
							c113.4-59.9,231.9-99.5,322.5-127.3l-0.3-0.9C4004.5-2274.8,3886-2235.3,3772.6-2175.3L3772.6-2175.3L3772.6-2175.3z"/>
					</g>
					<g class="st5">
						
							<linearGradient id="SVGID_00000178182782956740743300000015370642125247269538_" gradientUnits="userSpaceOnUse" x1="2296.6238" y1="-1848.6798" x2="4781.8701" y2="-527.2509" gradientTransform="matrix(1 0 0 1 0 2156)">
							<stop  offset="0.4519" style="stop-color:#1F4C67;stop-opacity:0"/>
							<stop  offset="0.8388" style="stop-color:#1F4C67"/>
							<stop  offset="1" style="stop-color:#1F4C67;stop-opacity:0"/>
						</linearGradient>
						<path style="fill:url(#SVGID_00000178182782956740743300000015370642125247269538_);" d="M3799.1-2116.3
							c-59.4,26.8-116.7,61.1-170.4,102c-52.4,39.9-100.5,85.4-143,135.2c-33.7,39.6-63.9,80.9-89.8,122.8
							c-27.7,44.9-50.4,90.6-67.6,135.9c-38.5,101.3-49.5,199.8-32.7,292.9c9.6,53.1,28.4,108.1,57.6,168.2
							c25.8,53.3,56.6,104.4,88.4,156.3c101.1,164.9,203.8,326.3,305.3,479.7c107.8,163.3,219.9,327.3,328.3,486
							c81.6,119.4,165.9,242.8,247.8,365c72.3,107.6,154.2,235.9,213.3,372c86,198.2,105.6,372.3,60.1,532.3
							c-52.2,183.3-198.6,350.1-412.2,469.5c-29,16.2-60,32.1-92.3,47.2c-116.8,54.9-242,97.2-363.1,138.1
							c-46.1,15.6-93.7,31.7-140.3,48.2c-135.9,48.3-262.5,101.7-376.5,158.7c-128.6,64.4-245.6,135.6-347.8,211.8
							c-66,49.2-127.3,101.7-182.2,156c-58.2,57.5-110.9,118.6-156.6,181.7c-67.3,92.4-120.6,194.2-158.6,302.7
							c-38.5,110.2-59.5,222.7-62.4,334.5c-2.7,104.1,10.8,205,40,299.8c30.5,99,77.6,189.1,139.9,267.8
							c73.9,93.4,170.4,172.6,286.8,235.3c105.8,57,225,99.1,354.4,125.1c82,16.5,170.1,27.4,267.2,33l0.1-1
							c-90.5-5.1-178.7-15.4-267.1-33.1c-272.6-54.8-500-182.6-640.5-360c-123.1-155.4-185.2-351.4-179.7-566.8
							c5.8-223.1,84.2-449.1,220.7-636.6c88.9-122.6,202.8-236.1,338.6-337.4c195.1-145.4,431.8-266.6,723.9-370.4
							c46.6-16.6,94.2-32.7,140.3-48.2c121.1-40.9,246.3-83.2,363.2-138.2c32.3-15.2,63.4-31.1,92.3-47.3
							c99.8-55.8,185.4-122,254.3-196.8c77.5-84.1,130.8-176,158.5-273.4c7.6-26.6,13.4-53.9,17.3-81.6c2.5-17.4,4.3-35,5.3-52.7
							c2.5-43.4,0.7-88.5-5.4-134.3c-11.3-84.2-36.6-170.7-77.3-264.6c-59.1-136.2-141-264.5-213.4-372.2
							C4241.9,205,4157.6,81.5,4076-37.9c-108.4-158.7-220.5-322.7-328.3-486c-101.5-153.4-204.2-314.8-305.2-479.7
							c-67.7-110.5-125.4-211.1-145.8-324.1c-42.6-235.5,100.7-446.1,189.9-550.7c86.7-101.7,195-183.6,313-236.9
							c106.9-48.7,232.2-83.3,372.3-102.9l-0.2-1.2C4031.5-2199.7,3906.1-2165.1,3799.1-2116.3L3799.1-2116.3L3799.1-2116.3z"/>
					</g>
					<g class="st7">
						
							<linearGradient id="SVGID_00000060010396331013736240000006910037151736992176_" gradientUnits="userSpaceOnUse" x1="2304.2739" y1="-1795.9441" x2="4777.5708" y2="-480.8687" gradientTransform="matrix(1 0 0 1 0 2156)">
							<stop  offset="0.4519" style="stop-color:#1F4C67;stop-opacity:0"/>
							<stop  offset="0.8388" style="stop-color:#1F4C67"/>
							<stop  offset="1" style="stop-color:#1F4C67;stop-opacity:0"/>
						</linearGradient>
						<path style="fill:url(#SVGID_00000060010396331013736240000006910037151736992176_);" d="M3825.6-2057.3
							c-67.8,27.1-133.3,64.2-194.5,110.3c-58.9,44.4-112.4,96-158.9,153.2c-69,85.1-120.6,172.4-153.2,259.5
							c-37.9,101.1-48.9,199.2-32.7,291.6c9.3,53,27.5,107.9,55.8,167.9c25.6,54.5,56.6,107.1,86.2,156.4
							c99,164.9,201.1,325.7,303.4,477.9c108.5,161.6,222.5,323,332.7,479.1c82.9,117.3,168.5,238.6,251.1,359
							c68.4,99.2,154.6,230.7,215,368.6c85.8,195.9,105.8,369.2,61.1,530c-50.8,182.7-194.1,350.5-403.4,472.5
							c-28.5,16.6-59,32.9-90.7,48.5c-118.1,58.1-245.2,103.1-368.2,146.6c-42.3,15-86,30.5-128.9,46.3
							c-135.3,49.9-261,103.9-373.5,160.6c-128.2,64.6-244.9,135.4-346.8,210.4c-66.1,48.7-127.5,100.4-182.6,153.8
							c-58.6,56.7-111.7,116.9-157.8,178.9c-139.4,186.1-220.1,410.2-227.1,630.8c-3.2,103.2,10,203.6,39.4,298.3
							c30.5,98.4,77.7,188,140.2,266.4c72.2,90.5,166,167.4,278.8,228.4c102.8,55.6,218.5,96.9,343.9,122.5
							c89.2,18.2,178.9,28.5,270.3,33.6l0.2-1.4c-91.4-5.1-181.1-15.4-270.2-33.6c-263.7-53.9-484.5-178.3-621.8-350.4
							c-122.2-153.2-185.9-353.4-179.4-563.8c7-220.4,87.6-444.1,226.9-630c89.5-120.2,203.9-232,340.2-332.4
							c193.1-142.1,428.6-263.4,720-370.8c42.8-15.8,86.6-31.3,128.8-46.3c123-43.6,250.1-88.6,368.3-146.7
							c31.7-15.6,62.3-31.9,90.8-48.5c98-57.1,181.9-124.3,249.3-199.7c75.7-84.6,127.7-176.7,154.7-273.7
							c7.1-25.5,12.5-51.6,16.4-78.1c8.7-61,8.7-124.4-0.1-189.4c-11.3-83.1-37.3-171.7-77.4-263.3
							c-60.4-138-146.7-269.6-215.1-368.8c-82.6-120.4-168.3-241.7-251.1-359c-110.2-156.1-224.2-317.5-332.7-479.1
							c-102.3-152.2-204.4-312.9-303.4-477.9c-65.7-109.7-121.8-209.8-141.8-323.9c-29.8-170.3,36.1-365.7,185.6-549.9
							c94.7-116.7,219.9-210.2,352.7-263.1c160.4-64,318.1-77.9,422.2-78.4v-1.4C4144.1-2135.4,3986.2-2121.4,3825.6-2057.3
							L3825.6-2057.3L3825.6-2057.3z"/>
					</g>
					<g class="st9">
						
							<linearGradient id="SVGID_00000123402007631015554720000002471788171838457510_" gradientUnits="userSpaceOnUse" x1="2311.9795" y1="-1743.2462" x2="4773.0547" y2="-434.6695" gradientTransform="matrix(1 0 0 1 0 2156)">
							<stop  offset="0.4519" style="stop-color:#1F4C67;stop-opacity:0"/>
							<stop  offset="0.8388" style="stop-color:#1F4C67"/>
							<stop  offset="1" style="stop-color:#1F4C67;stop-opacity:0"/>
						</linearGradient>
						<path style="fill:url(#SVGID_00000123402007631015554720000002471788171838457510_);" d="M3852.1-1998.3
							c-149.9,53.5-289.6,156.4-393.2,289.9c-102.9,132.6-218,335.6-181.6,550.4c19.6,115.3,76.4,219.2,137.9,324.2
							c96.9,165,198.3,325.2,301.5,476.1c109.1,160,225,318.7,337.1,472.2c84.1,115.2,171.2,234.4,254.5,353
							C4377,564.8,4463.6,694,4525,832.7c84.4,190.9,105.3,368.4,62.2,527.6c-49.4,182.1-189.6,351-394.7,475.6
							c-28.1,17-58.1,33.8-89.2,49.8c-119.6,61.4-248.9,109.4-374,155.7c-38.3,14.2-77.9,28.9-116.7,43.7
							c-291.1,111.2-525.4,232.7-716.4,371.4c-66.2,48.2-127.8,99.1-183,151.6c-59,56-112.5,115.2-159.1,176.1
							c-142.2,184.6-225.1,406.4-233.3,624.4c-3.8,102.4,9.3,202.2,38.8,296.8c30.5,97.8,77.8,187,140.6,265.1
							c70.4,87.6,161.5,162.2,270.7,221.5c99.8,54.3,211.9,94.6,333.3,119.8c89.9,18.7,181.1,29,273.4,34l0.2-1.6
							c-92.3-5-183.5-15.4-273.3-34c-254.9-53-469-174-603.1-340.8c-123.1-153.2-186.7-352.3-179-560.8
							c8.2-217.7,90.9-439.1,233-623.5c90-117.8,205-227.9,341.8-327.4c190.9-138.6,425.1-260.1,716-371.2
							c38.8-14.9,78.4-29.5,116.7-43.7c125.1-46.3,254.5-94.3,374.1-155.8c31.2-16,61.2-32.8,89.3-49.8
							c96.2-58.4,178.4-126.6,244.4-202.5c73.9-85.1,124.7-177.2,151-274c6.7-24.6,11.8-49.7,15.5-75.2
							c8.8-61.7,8.8-125.8-0.2-191.3c-11.4-83.2-37.5-171.4-77.6-262.1c-61.4-138.8-148.1-268.2-216.8-365.4
							c-83.4-118.6-170.4-237.8-254.5-353.1C3943-39.9,3827.1-198.6,3718-358.5c-103.2-150.9-204.6-311-301.5-476
							c-61.4-104.9-118.2-208.6-137.7-323.7c-36.3-214.2,78.6-416.9,181.3-549.2c103.5-133.2,242.9-236,392.5-289.3
							c145.2-51.8,312.8-71,472-54l0.2-1.6C4165.3-2069.3,3997.4-2050.1,3852.1-1998.3L3852.1-1998.3L3852.1-1998.3z"/>
					</g>
					<g class="st11">
						
							<linearGradient id="SVGID_00000089558998027715043220000010044820531496725158_" gradientUnits="userSpaceOnUse" x1="2319.0559" y1="-1691.001" x2="4768.4741" y2="-388.6224" gradientTransform="matrix(1 0 0 1 0 2156)">
							<stop  offset="0.4519" style="stop-color:#1F4C67;stop-opacity:0"/>
							<stop  offset="0.8388" style="stop-color:#1F4C67"/>
							<stop  offset="1" style="stop-color:#1F4C67;stop-opacity:0"/>
						</linearGradient>
						<path style="fill:url(#SVGID_00000089558998027715043220000010044820531496725158_);" d="M4148.5-1987.3
							c-93.9,4.3-184.7,20.5-269.9,48c-85.1,27.5-166.8,70.1-242.8,126.4c-72.4,53.7-136.4,117.6-190.4,189.8
							c-65.6,87.9-114.5,175.5-145.2,260.5c-36.3,100.7-47.2,198-32.2,289.3c8.7,52.9,25.7,107.7,52.2,167.4
							c23.9,54.1,53.4,107.2,81.7,156.7c94.7,165.1,195.6,324.6,299.6,474.3c109.8,158.3,227.6,314.4,341.5,465.3
							c85.4,113.2,173.8,230.2,257.9,347.1c69,95.2,156.1,222.4,218.4,361.7c84.2,188.6,105.5,365.3,63.2,525.2
							c-48,181.5-185.1,351.5-385.9,478.6c-27.6,17.4-57.1,34.6-87.7,51c-121.2,65.1-253,116.1-380.5,165.4
							c-34.1,13.2-69.3,26.8-103.9,40.6c-136.6,54.1-256.9,107.8-367.6,164.3c-127.6,65.1-243.7,135-344.9,207.5
							c-136.4,97.9-252.1,206.5-343.7,322.7c-71,90.1-127.7,188.2-168.6,291.7c-42.3,107.3-66.2,217.1-71,326.3
							c-4.3,101.5,8.5,200.9,38.1,295.2c30.5,97.3,78,186,141,263.7c68.7,84.8,157,157,262.7,214.7
							c96.8,52.9,205.4,92.3,322.8,117.1c84.4,17.9,175.4,29.3,276.5,34.7l0.2-1.6c-92.8-5-184.9-15.5-276.4-34.8
							c-246.1-52.1-453.6-169.7-584.4-331.2c-124.1-153.1-187.5-351.2-178.7-557.8c9.3-214.1,94.2-433.2,239.1-616.9
							c91.5-116.1,207-224.5,343.3-322.4c188.3-135,421.2-256.5,712.1-371.6c34.6-13.7,69.8-27.4,103.9-40.5
							c127.5-49.4,259.3-100.4,380.7-165.5c30.6-16.4,60.1-33.6,87.8-51.1c94.4-59.8,175-128.8,239.5-205.3
							c72.1-85.6,121.7-177.9,147.2-274.3c6.3-23.7,11.1-47.8,14.6-72.2c8.9-62.4,8.9-127.2-0.2-193.3
							c-11.5-83.3-37.6-171.1-77.7-260.9c-62.3-139.5-149.5-266.8-218.5-362c-84.1-116.9-172.5-233.9-257.9-347.1
							c-113.9-150.9-231.7-307-341.5-465.3C3598.8-425.5,3498-585,3403.3-750.1c-57.2-99.9-114.7-207.2-133.7-323.5
							c-27.4-167.2,33.9-356.8,177.1-548.5c111.7-149.5,265.2-261.6,432.2-315.6c162.5-52.5,352.7-63.3,521.8-29.6l0.4-1.8
							C4321.3-1984.9,4233.9-1991.3,4148.5-1987.3L4148.5-1987.3L4148.5-1987.3z"/>
					</g>
					<g class="st13">
						
							<linearGradient id="SVGID_00000109747696198736205990000000692494134816880053_" gradientUnits="userSpaceOnUse" x1="2325.9385" y1="-1638.6692" x2="4764.2861" y2="-342.1771" gradientTransform="matrix(1 0 0 1 0 2156)">
							<stop  offset="0.4519" style="stop-color:#1F4C67;stop-opacity:0"/>
							<stop  offset="0.8388" style="stop-color:#1F4C67"/>
							<stop  offset="1" style="stop-color:#1F4C67;stop-opacity:0"/>
						</linearGradient>
						<path style="fill:url(#SVGID_00000109747696198736205990000000692494134816880053_);" d="M4202-1922.4
							c-102.9-0.2-202.8,14-296.9,42.1c-93.9,27.6-183.8,72.8-267.1,134.2c-79.1,58.4-148.4,128.5-206,208.3
							c-64,88.7-111.6,176.5-141.3,260.9c-35.5,100.5-46.2,197.5-31.8,288.3c18.6,117.8,74.4,224.6,129.9,323.9
							c92.6,165.1,192.8,324.1,297.8,472.5c110.4,156.6,230.2,310.1,346,458.5c86.7,111.1,176.4,226,261.2,341.1
							c63.9,86.1,156.3,216.8,220,358.3c84,186.3,105.6,362.2,64.2,522.9c-46.6,181-180.5,352-377.1,481.6
							c-27.1,17.8-56.1,35.4-86.1,52.3c-123.1,69-257.7,123.3-387.8,175.9c-29.6,11.9-60.1,24.3-90.2,36.6
							c-136.6,56-255.9,110.3-364.6,166.2c-129.2,66.4-241.7,133.8-343.9,206.1c-136.8,96.9-253,203.9-345.3,317.7
							c-72.3,89.2-130.1,186.1-171.9,288c-43.6,106.3-68.4,215.1-73.8,323.5c-9.9,205.2,53.6,402.8,178.8,556.1
							c66.9,81.9,152.5,151.8,254.6,207.8c93.8,51.5,198.8,90,312.2,114.4c92.4,19.9,186.1,30.5,279.6,35.4l0.3-2
							c-93.5-4.9-187.1-15.4-279.5-35.3c-237.3-51.2-438.2-165.4-565.7-321.5c-125-153-188.3-350-178.4-554.8
							c10.5-211.3,97.6-428.1,245.3-610.4c92.1-113.7,208.2-220.5,344.9-317.4c187.8-132.9,412.9-251.1,708.2-372
							c30-12.4,60.6-24.7,90.2-36.6c130.2-52.6,264.8-106.9,388-176c30-16.9,59.1-34.5,86.2-52.3c92.6-61.1,171.5-131.1,234.5-208.2
							c70.4-86.1,118.6-178.5,143.4-274.6c5.9-22.7,10.4-45.8,13.8-69.1c9-63.2,9-128.6-0.3-195.4c-11.6-83.4-37.8-170.8-77.8-259.6
							c-26.9-59.8-59.9-120.5-100.8-185.5c-33.4-53.2-72.5-109.8-119.5-173.1c-84.9-115.1-174.5-230.1-261.3-341.2
							c-115.8-148.4-235.5-301.8-345.9-458.4c-104.9-148.3-205.1-307.2-297.7-472.3c-55.4-99.1-111.1-205.8-129.7-323.2
							c-26.5-167.7,31.7-352,172.8-547.7c118.1-163.8,290.1-288.3,472-341.8c181.1-54,389.5-55.9,571.6-5.2l0.5-1.9
							C4391.9-1909.4,4296.5-1922.2,4202-1922.4L4202-1922.4L4202-1922.4z"/>
					</g>
					<g class="st15">
						
							<linearGradient id="SVGID_00000164495603438827842640000013834068468140343481_" gradientUnits="userSpaceOnUse" x1="2332.7756" y1="-1586.8055" x2="4759.8779" y2="-296.2926" gradientTransform="matrix(1 0 0 1 0 2156)">
							<stop  offset="0.4519" style="stop-color:#1F4C67;stop-opacity:0"/>
							<stop  offset="0.8388" style="stop-color:#1F4C67"/>
							<stop  offset="1" style="stop-color:#1F4C67;stop-opacity:0"/>
						</linearGradient>
						<path style="fill:url(#SVGID_00000164495603438827842640000013834068468140343481_);" d="M4255.6-1857.3
							c-111.7-4.6-220.7,7.5-324,35.9c-102.8,27.9-200.8,75.7-291.4,142.2c-42.9,31.5-83.6,66.9-121.1,105.3
							c-36.9,37.8-70.7,78.7-100.5,121.4c-137.5,197-194.3,381.6-168.9,548.6c18.1,119.2,74.5,229.6,125.9,323.7
							c90.5,165.2,190,323.6,295.9,470.7c112.7,157.3,236.1,310.4,355.5,458.4c86.2,106.9,175.3,217.4,259.5,328.4
							c104.2,137.4,172.6,246.8,221.7,354.8c83.8,184,105.7,359.1,65.3,520.5c-45.3,180.5-176.1,352.6-368.3,484.6
							c-26.7,18.3-55.2,36.3-84.6,53.5c-125.2,73.3-262.9,131.2-396.1,187.1c-24.8,10.4-50.4,21.2-75.6,31.9
							c-137,58.1-255.3,113-361.7,168c-129.1,66.8-241.3,133.7-342.9,204.6c-137.3,96-254,201.2-346.9,312.7
							c-73.6,88.4-132.6,184-175.3,284.3c-44.9,105.3-70.6,213.2-76.6,320.8c-5.4,99.9,7,198.2,36.9,292.2
							c30.6,96.1,78.2,184,141.7,261c65.1,79,148,146.6,246.5,200.9c90.7,50,192.2,87.6,301.7,111.7c86.1,18.9,178.9,30.8,282.7,36
							l0.3-2.2c-94.1-4.8-189.4-15.4-282.5-35.9c-228.5-50.3-422.8-161.1-547-311.9c-125.9-152.8-189.1-348.8-178.1-551.7
							c11.6-208.6,100.9-423.1,251.4-603.8c92.8-111.4,209.3-216.5,346.4-312.3c184.2-128.5,407.9-246.9,704.2-372.4
							c25.2-10.7,50.8-21.5,75.5-31.9c133.2-56,270.9-113.9,396.3-187.3c29.5-17.3,58-35.3,84.7-53.6c90.8-62.3,168-133.3,229.6-211
							c68.6-86.5,115.6-179.1,139.6-274.9c5.5-21.8,9.8-43.9,13-66.2c20.5-143.2-5.8-296.1-78.4-455.7
							c-49.2-108.1-117.7-217.7-222-355.2c-84.1-111-173.3-221.5-259.5-328.4c-119.3-148-242.7-301-355.4-458.2
							c-105.8-147.1-205.3-305.3-295.8-470.5c-51.3-94-107.6-204.2-125.7-323c-25.3-166.4,31.4-350.5,168.5-547
							c125.4-179.6,311.9-313.8,511.7-368c200.4-55.2,426.9-48.2,621.5,19.2l0.7-2.1C4462.4-1833.9,4359.1-1853,4255.6-1857.3
							L4255.6-1857.3L4255.6-1857.3z"/>
					</g>
					<g class="st17">
						
							<linearGradient id="SVGID_00000085957091892716768800000017334281641935913861_" gradientUnits="userSpaceOnUse" x1="2339.4141" y1="-1534.7274" x2="4755.8257" y2="-249.899" gradientTransform="matrix(1 0 0 1 0 2156)">
							<stop  offset="0.4519" style="stop-color:#1F4C67;stop-opacity:0"/>
							<stop  offset="0.8388" style="stop-color:#1F4C67"/>
							<stop  offset="1" style="stop-color:#1F4C67;stop-opacity:0"/>
						</linearGradient>
						<path style="fill:url(#SVGID_00000085957091892716768800000017334281641935913861_);" d="M4309.1-1792.2
							c-58.5-4.4-117.4-4.2-175.1,0.5c-60,4.9-119.2,14.8-175.9,29.3c-56.3,14.2-112.1,34.5-165.8,60.2
							c-51.9,24.9-102.4,55.1-149.9,89.8c-46.4,33.8-90.2,72-130.2,113.6c-39.5,41-75.5,85.3-106.9,131.7
							c-60.8,89.8-105.8,177.7-133.9,261.4c-33.6,99.9-43.9,196.3-30.7,286.6c7.8,52.8,23.1,107.3,46.8,166.5
							c23,57.4,50.9,111.6,75.1,157c88.4,165.3,187.3,323,294.1,468.9c113.3,155.5,238.6,305.7,359.7,451
							c87.6,105,178.1,213.6,263.1,322.9c65.1,83.7,159,211.2,223.4,351.4c83.5,181.7,105.8,356,66.3,518.1
							c-43.9,180.1-171.6,353.2-359.5,487.7c-26.2,18.7-54.2,37.1-83.1,54.8c-127.6,77.9-268.8,139.6-405.4,199.3
							c-19.6,8.6-39.9,17.4-59.9,26.2c-203.4,89.2-467,212.2-700.7,373.1c-137.8,95-255,198.6-348.5,307.7
							c-74.9,87.5-135,181.9-178.7,280.6c-46.1,104.3-72.9,211.3-79.4,318.1c-6,99.1,6.2,196.9,36.2,290.7
							c30.6,95.6,78.4,183,142.1,259.7c63.2,76.2,143.5,141.5,238.4,194.1c87.7,48.6,185.7,85.3,291.2,109
							c86.9,19.5,180.6,31.5,285.8,36.7l0.3-2.3c-98.8-4.7-192.6-15.9-285.6-36.7c-219.9-49.5-407.5-156.8-528.3-302.3
							c-126.8-152.6-189.9-347.5-177.7-548.7c12.9-208.9,101.9-415.5,257.5-597.3c93.3-109,210.4-212.4,348-307.3
							c233.6-160.8,496.9-283.7,700.3-372.9c20-8.8,40.3-17.7,59.9-26.2c136.6-59.7,277.9-121.5,405.7-199.5
							c28.9-17.7,56.9-36.2,83.2-54.9c89-63.6,164.5-135.6,224.6-213.8c66.8-87,112.5-179.6,135.8-275.2
							c5.1-20.9,9.1-41.9,12.2-63.2c20.7-144.4-5.7-297.7-78.7-456.5c-27.2-59.2-60.5-118.9-102-182.5
							c-34-52.2-73.8-107.6-121.8-169.3c-85-109.4-175.6-218-263.1-323c-121-145.3-246.2-295.5-359.5-450.9
							c-106.7-145.8-205.6-303.4-293.9-468.6c-61.6-115.6-105.8-214.7-121.7-322.8c-24.2-165.6,31-349.4,164.3-546.3
							c132.3-195.4,333.3-339.1,551.5-394.2c219.5-56.2,464.2-40.3,671.3,43.6l0.9-2.2C4532.9-1758.3,4421.7-1783.8,4309.1-1792.2
							L4309.1-1792.2L4309.1-1792.2z"/>
					</g>
					<g class="st19">
						
							<linearGradient id="SVGID_00000162334490461021204630000004891219091303146667_" gradientUnits="userSpaceOnUse" x1="2345.6626" y1="-1482.9178" x2="4751.3618" y2="-203.785" gradientTransform="matrix(1 0 0 1 0 2156)">
							<stop  offset="0.4519" style="stop-color:#1F4C67;stop-opacity:0"/>
							<stop  offset="0.8388" style="stop-color:#1F4C67"/>
							<stop  offset="1" style="stop-color:#1F4C67;stop-opacity:0"/>
						</linearGradient>
						<path style="fill:url(#SVGID_00000162334490461021204630000004891219091303146667_);" d="M4362.7-1727.1
							c-62.8-6.5-126.2-7.9-188.5-4.2c-64.6,3.8-128.4,13.2-189.6,27.9c-60.8,14.4-120.9,35.4-178.9,62.5
							c-56,26.2-110.3,58.3-161.3,95.3c-49.8,36.1-96.7,77.1-139.4,121.8c-42.2,44.1-80.2,91.9-113.2,142
							c-59.1,90-103,178-130.4,261.6c-32.6,99.6-42.7,195.8-30.1,285.7c16.4,116.3,66.3,224.2,117.9,323.4
							c86.2,165.3,184.5,322.5,292.2,467.1c113.9,153.7,241,301,363.9,443.6c88.9,103.1,180.9,209.7,266.7,317.5
							c104,130.6,175.6,241.2,225.1,347.9c83.2,179.4,105.9,352.9,67.4,515.8c-42.5,179.7-167.1,353.9-350.8,490.7
							c-25.8,19.1-53.2,38-81.5,56.1c-130.3,83-269,145.9-415.9,212.5c-14.3,6.5-28.7,13-43,19.5
							c-218.1,98.9-471.4,220.5-696.7,373.5c-138.4,94.1-256.1,196-350.1,302.8c-76.2,86.7-137.5,179.8-182.1,276.9
							c-47.4,103.2-75.1,209.4-82.2,315.4c-6.5,98.3,5.4,195.6,35.6,289.2c30.6,95.1,78.5,182,142.4,258.3
							c61.4,73.3,138.9,136.3,230.3,187.2c84.7,47.2,179.1,83,280.7,106.3c95.3,21.9,192.3,32.8,288.8,37.4l0.4-2.6
							c-96.5-4.6-193.4-15.5-288.6-37.4c-211.2-48.6-392.2-152.5-509.7-292.7c-127.6-152.3-190.7-346.1-177.4-545.7
							c14-206.3,105.1-410.5,263.6-590.7c93.8-106.6,211.4-208.3,349.6-302.3c225.2-152.9,478.4-274.5,696.4-373.3
							c14.4-6.5,28.7-13.1,43-19.5c146.9-66.7,285.8-129.6,416.2-212.7c28.4-18.1,55.9-37,81.7-56.2
							c87.1-64.9,161-137.8,219.7-216.7c65.1-87.5,109.5-180.2,132-275.5c4.6-19.6,8.4-39.3,11.2-59.3c9.4-65.7,9.2-133.5-0.6-202.2
							c-11.9-83.7-38.2-169.8-78.2-255.9c-49.6-107-121.3-217.7-225.5-348.5C4187.9,707.6,4096,601,4007,497.9
							c-122.9-142.5-249.9-289.8-363.8-443.4C3536-89.9,3437.8-247,3351.6-412.2c-51.5-99.1-101.3-206.7-117.6-322.6
							c-23.2-165.2,30.6-348.7,160-545.6c138.8-211.2,354.3-364.4,591.2-420.5c235.1-56.3,504.7-30.9,721.1,68l1.1-2.4
							C4603.4-1682.7,4484.2-1714.5,4362.7-1727.1L4362.7-1727.1L4362.7-1727.1z"/>
					</g>
					<g class="st21">
						
							<linearGradient id="SVGID_00000024703358028546113100000012710891855963388058_" gradientUnits="userSpaceOnUse" x1="2351.082" y1="-1429.8165" x2="4746.4497" y2="-156.177" gradientTransform="matrix(1 0 0 1 0 2156)">
							<stop  offset="0.4519" style="stop-color:#1F4C67;stop-opacity:0"/>
							<stop  offset="0.8388" style="stop-color:#1F4C67"/>
							<stop  offset="1" style="stop-color:#1F4C67;stop-opacity:0"/>
						</linearGradient>
						<path style="fill:url(#SVGID_00000024703358028546113100000012710891855963388058_);" d="M4416.3-1661.9
							c-67.1-8.6-135-11.6-201.9-8.9c-69.2,2.8-137.6,11.7-203.2,26.5c-65.2,14.5-129.8,36.3-192,64.8
							c-60.1,27.5-118.2,61.4-172.8,100.8c-53.3,38.5-103.3,82.2-148.6,130c-44.8,47.3-85,98.6-119.4,152.3
							c-57.5,90-100.2,178.1-126.8,261.8c-31.6,99.3-41.4,195.2-29.4,285c7.1,52.8,21.3,107.1,43.2,166
							c17.4,46.7,39.2,95.2,70.7,157.3c84.1,165.4,181.8,322,290.3,465.3c114.6,151.7,243.5,296.2,368.2,436
							c90.3,101.2,183.6,205.9,270.3,312c104.7,128.2,176.8,237.7,226.8,344.5c83,177,106,349.8,68.4,513.4
							c-52.8,229.8-215.1,395.3-342,493.7c-25.3,19.6-52.2,38.9-80,57.3c-133.3,88.5-276.3,155.8-427.7,226.9
							c-8.3,3.9-16.5,7.8-24.8,11.7c-104.6,49-228.3,108-352.8,173.6c-129.4,68.2-240.6,133.8-340,200.3
							c-66.6,44.7-129,91.3-185.2,138.4c-61.2,51.3-117.2,104.9-166.4,159.3c-161.9,178.9-255.4,381.5-270.5,585.8
							c-7.1,97.5,4.7,194.3,34.9,287.7c30.6,94.6,78.6,181,142.8,256.9c59.6,70.5,134.3,131.1,222.2,180.4
							c81.6,45.8,172.6,80.6,270.2,103.6c86.7,20.4,180.1,32.8,285.3,37.9c2.2,0.1,4.4,0.2,6.6,0.3l0.4-2.9
							c-96.6-4.4-195.4-15.4-291.7-38c-202.6-47.7-376.9-148.2-491-283.1c-128.6-152-191.4-344.8-177.1-542.7
							c15-203.7,108.3-405.7,269.8-584.2c94.2-104.2,212.4-204.2,351.1-297.3c215.8-144.4,460.3-265,692.4-373.7
							c8.3-3.9,16.5-7.8,24.8-11.7c151.5-71.2,294.6-138.5,428.1-227.1c27.8-18.5,54.8-37.8,80.2-57.4
							c85.3-66.1,157.5-140,214.8-219.5c63.3-87.9,106.4-180.8,128.3-275.8c4.2-18.4,7.7-37,10.4-55.8c9.5-66.7,9.4-135.3-0.6-204.8
							c-12-83.7-38.4-169.4-78.4-254.7c-50.2-107-122.3-216.7-227.2-345.1c-86.7-106.2-180.1-210.9-270.4-312.1
							C3872,433,3743,288.6,3628.7,136.8c-108.5-143.2-206.1-299.6-290.1-464.9c-49.7-98.1-97.8-205-113.6-322.4
							c-22.2-165.1,30.2-348.4,155.8-544.8c142.9-223.6,378.8-390.6,630.9-446.7c233.5-52.7,496.1-27.6,714.8,66.3l0.4-2.8
							C4631-1619.3,4524.8-1648,4416.3-1661.9L4416.3-1661.9L4416.3-1661.9z"/>
					</g>
					<g class="st23">
						
							<linearGradient id="SVGID_00000126297433436249123080000011180827752972931230_" gradientUnits="userSpaceOnUse" x1="2355.4651" y1="-1375.1396" x2="4740.9414" y2="-106.7594" gradientTransform="matrix(1 0 0 1 0 2156)">
							<stop  offset="0.4519" style="stop-color:#1F4C67;stop-opacity:0"/>
							<stop  offset="0.8388" style="stop-color:#1F4C67"/>
							<stop  offset="1" style="stop-color:#1F4C67;stop-opacity:0"/>
						</linearGradient>
						<path style="fill:url(#SVGID_00000126297433436249123080000011180827752972931230_);" d="M4254.6-1610.5
							c-73.8,1.7-146.8,10.2-216.9,25.1c-69.7,14.7-138.7,37.2-205.1,67c-64.2,28.8-126.2,64.6-184.3,106.3
							c-113.5,81.4-211.4,185.5-283.2,301c-55.9,89.9-97.4,178-123.3,261.9c-30.5,98.9-40.1,194.5-28.6,284.2
							c15.4,119.6,64.2,230.5,109.9,323.1c82,165.5,179,321.4,288.5,463.5c115,150,245.8,291.8,372.3,428.8
							c91.6,99.3,186.4,202,273.9,306.5c105.4,125.9,178,234.3,228.5,341.1c82.7,174.7,106,346.6,69.5,511
							c-51,229.4-209.4,396.8-333.2,496.8c-24.9,20-51.3,39.7-78.5,58.6c-136.7,94.6-284.6,166.6-441.2,242.7l-5,2.4
							c-240.4,116.4-474,232.6-688.8,374.3c-66.8,44.2-129.3,90-185.6,136.2c-61.6,50.5-118.1,103.2-167.6,156.6
							c-78.9,84.9-142.5,175.6-188.8,269.5c-49.9,101.2-79.5,205.4-87.9,310c-3.8,48-2.8,96.7,3,144.8
							c5.8,47.9,16.3,95.4,31.2,141.4c30.6,94.1,78.8,180.1,143.2,255.5c57.7,67.6,129.7,126,214.1,173.6
							c78.6,44.3,166,78.3,259.8,100.9c83.7,20.1,173.5,32.6,274.5,38c6.8,0.4,13.6,0.7,20.5,1l0.4-2.9
							c-96.6-4.2-196.4-15.3-294.7-39c-194-46.8-361.7-143.9-472.3-273.5c-127.6-149.5-192-346.1-176.8-539.6
							c1.3-16.1,3.1-32.2,5.4-48.3c26.4-184.7,119.3-366.7,270.5-529.3c94.6-101.7,213.3-200.1,352.7-292.3
							c214.7-141.7,448.2-257.8,688.5-374.1l5-2.4c156.7-76.2,304.7-148.1,441.6-242.9c27.3-18.9,53.8-38.7,78.7-58.7
							c83.5-67.4,154-142.2,209.8-222.3c61.5-88.4,103.4-181.3,124.5-276.1c3.8-17.2,7-34.6,9.5-52.1c9.7-67.7,9.5-137.2-0.7-207.4
							c-12.1-83.8-38.6-169.1-78.5-253.4c-50.6-107.1-123.4-215.6-228.9-341.7c-87.5-104.6-182.3-207.3-274-306.7
							c-126.4-137-257.1-278.7-372.1-428.6c-109.3-141.9-206.3-297.7-288.2-463c-45.6-92.4-94.3-203-109.6-322.1
							c-21.2-165.3,29.7-348.4,151.5-544.1c148.7-239,399.4-415.8,670.7-472.9c222.5-47.4,467.7-27,681.6,53.4l0.4-3
							c-79.5-29.8-164.2-51.8-250.5-64.8C4398.4-1607.5,4326-1612.1,4254.6-1610.5L4254.6-1610.5L4254.6-1610.5z"/>
					</g>
					<g class="st25">
						
							<linearGradient id="SVGID_00000086683547393730413550000010714250732282735004_" gradientUnits="userSpaceOnUse" x1="2359.281" y1="-1320.2797" x2="4734.4438" y2="-57.3835" gradientTransform="matrix(1 0 0 1 0 2156)">
							<stop  offset="0.4519" style="stop-color:#1F4C67;stop-opacity:0"/>
							<stop  offset="0.8388" style="stop-color:#1F4C67"/>
							<stop  offset="1" style="stop-color:#1F4C67;stop-opacity:0"/>
						</linearGradient>
						<path style="fill:url(#SVGID_00000086683547393730413550000010714250732282735004_);" d="M4294.7-1550.1
							c-78.4,0.7-156,8.7-230.5,23.7c-74.2,14.8-147.7,38.1-218.2,69.2c-68.4,30.2-134.3,67.8-195.9,111.7
							c-120.8,86.3-224,196.8-298.5,319.7c-118.4,195.4-168.1,378.9-147.7,545.5c6.5,52.9,19.5,107,39.6,165.4
							c16.4,47.6,37.5,97.7,66.3,157.6c79.8,165.6,176.3,320.9,286.6,461.7c115.6,148.2,248.2,287.1,376.5,421.5
							c93,97.4,189.2,198.1,277.5,301.1c106,123.6,179.2,230.9,230.2,337.6c81.2,169.9,105.5,345.8,70.5,508.7
							c-49.3,229.2-203.7,398.3-324.5,499.8c-24.4,20.4-50.3,40.6-77,59.8c-140.2,101.2-299.4,181.1-439.8,251.6l-6.9,3.4
							c-227.6,113.8-463,231.4-678,371.3c-67,43.7-129.6,88.8-186,134C2776.8,3243,2720,3294.7,2670,3347
							c-80.3,84-145,173.4-192.2,265.7c-51.2,100.1-81.7,203.5-90.7,307.3c-4.1,47.7-3.2,96.1,2.4,144
							c5.6,47.6,16.1,94.9,31.1,140.8c15.1,46,34.8,90.8,58.6,133.1c24.2,42.9,52.8,83.6,85,121c55.8,64.8,125.1,120.9,205.9,166.7
							c75.6,42.9,159.4,75.9,249.3,98.1c99.8,24.6,201.9,35.8,298.1,39.8l0.5-3.2c-96.1-4-198.1-15.1-297.7-39.8
							c-185.4-45.9-346.5-139.6-453.6-263.9c-128.4-149-192.7-344.6-176.4-536.6c17.2-198.6,114.7-396.1,282-571.1
							c96.2-100.6,212.1-194.6,354.3-287.3c214.9-139.8,450.1-257.4,677.7-371.1l6.9-3.4c140.6-70.6,299.9-150.6,440.2-251.9
							c26.8-19.3,52.7-39.5,77.1-60c81.6-68.6,150.5-144.3,204.9-225.1c59.7-88.8,100.3-181.8,120.7-276.4c3.4-16,6.3-32.1,8.6-48.3
							c9.9-68.8,9.6-139.3-0.8-210.2c-12.3-83.9-38.7-168.7-78.6-252.2c-51.1-107-124.4-214.5-230.6-338.3
							c-88.4-103-184.6-203.8-277.6-301.2c-128.2-134.3-260.8-273.1-376.2-421.2c-110.2-140.6-206.5-295.8-286.3-461.1
							c-41.3-86.1-90.7-200.4-105.6-321.9c-20.3-165.8,29.2-348.7,147.2-543.4c154.2-254.5,419.8-441.1,710.4-499.1
							c211.6-42.8,441.2-26.6,648.3,41.9l0.5-3.1c-61.5-20.3-125.3-36.2-190.2-47.2C4447.6-1544.6,4370.6-1550.8,4294.7-1550.1
							L4294.7-1550.1L4294.7-1550.1z"/>
					</g>
					<g class="st27">
						
							<linearGradient id="SVGID_00000134970480314094343540000008020840981950974380_" gradientUnits="userSpaceOnUse" x1="2362.8384" y1="-1265.1562" x2="4728.7246" y2="-7.1921" gradientTransform="matrix(1 0 0 1 0 2156)">
							<stop  offset="0.4519" style="stop-color:#1F4C67;stop-opacity:0"/>
							<stop  offset="0.8388" style="stop-color:#1F4C67"/>
							<stop  offset="1" style="stop-color:#1F4C67;stop-opacity:0"/>
						</linearGradient>
						<path style="fill:url(#SVGID_00000134970480314094343540000008020840981950974380_);" d="M4334.9-1489.7
							c-83-0.4-165.1,7.1-244.2,22.3c-78.8,15-156.6,39-231.4,71.4c-72.6,31.5-142.4,70.9-207.5,117.1
							c-128.2,91.2-236.7,208.2-313.6,338.4c-114.7,194.2-162.9,377.5-143.4,544.8c14.4,123.7,62,237.5,101.9,322.8
							c77.7,165.7,173.5,320.4,284.8,460c116.2,146.4,250.6,282.5,380.6,414.1c94.4,95.5,191.9,194.2,281.1,295.6
							c106.7,121.3,180.4,227.5,231.9,334.2c80.8,167.5,105.6,342.6,71.5,506.3c-47.6,228.9-198,399.8-315.7,502.9
							c-23.9,20.9-49.3,41.4-75.4,61.1c-132.1,99.4-280.4,178.8-433.4,258.2c-22.8,11.8-45.7,23.6-68.7,35.4
							c-204.9,105.5-416.8,214.5-612.2,339.7c-143.2,92-259.8,184.5-356.4,282.8c-81.7,83.1-147.5,171.2-195.6,262
							c-52.5,99-83.9,201.5-93.5,304.6c-4.3,47.3-3.7,95.5,1.9,143.2c5.5,47.3,15.9,94.5,31,140.1c15.1,45.8,34.8,90.3,58.8,132.5
							c24.2,42.7,52.9,83.1,85.3,120.3c53.9,62,120.5,115.8,197.8,159.9c72.5,41.4,152.9,73.5,238.9,95.4
							c77.7,19.7,160.4,32.2,252.7,38.2c15.8,1,31.9,1.9,48.4,2.5l0.5-3.4c-112.9-4.3-209.8-17.6-300.8-40.7
							c-179.5-45.7-329.9-133.6-434.9-254.3c-129.3-148.6-193.5-343-176.1-533.6c18.2-196.1,117.8-391.3,288.1-564.5
							c96.5-98.1,212.9-190.4,355.9-282.3c195.2-125.1,407.1-234.2,611.9-339.6c23-11.8,45.9-23.6,68.8-35.4
							c153.2-79.4,301.6-158.9,433.9-258.5c26.2-19.7,51.6-40.4,75.6-61.2c79.8-69.8,147-146.5,199.9-228
							c58-89.2,97.3-182.3,116.9-276.7c3-14.7,5.6-29.5,7.8-44.3c10-69.9,9.8-141.4-0.9-213.2c-12.4-83.9-38.9-168.3-78.7-251
							c-51.6-107-125.4-213.4-232.4-334.9c-89.2-101.4-186.9-200.2-281.2-295.7c-130-131.5-264.4-267.5-380.4-413.8
							C3473.3,245.7,3377.6,91.1,3300-74.3c-39.7-85.1-87.2-198.6-101.6-321.7c-19.4-166.6,28.7-349.2,143-542.7
							c159.4-269.9,439.9-466.3,750.2-525.3c200.8-38.6,415.8-26.2,614.7,31.6l0.5-3.3c-42.5-12.4-85.8-22.7-129.6-30.9
							C4496.8-1481.6,4415.4-1489.4,4334.9-1489.7L4334.9-1489.7L4334.9-1489.7z"/>
					</g>
					<g class="st29">
						
							<linearGradient id="SVGID_00000075124333224536983480000013415630063740923833_" gradientUnits="userSpaceOnUse" x1="2365.8994" y1="-1209.1552" x2="4721.8252" y2="43.5127" gradientTransform="matrix(1 0 0 1 0 2156)">
							<stop  offset="0.4519" style="stop-color:#1F4C67;stop-opacity:0"/>
							<stop  offset="0.8388" style="stop-color:#1F4C67"/>
							<stop  offset="1" style="stop-color:#1F4C67;stop-opacity:0"/>
						</linearGradient>
						<path style="fill:url(#SVGID_00000075124333224536983480000013415630063740923833_);" d="M4375.1-1429.3
							c-87.6-1.4-174.3,5.6-257.8,20.9c-83.3,15.2-165.6,39.9-244.6,73.6c-76.9,32.8-150.6,74-219.2,122.5
							c-135.7,96-249.4,219.5-328.6,357.2c-51.2,89-89.3,177.2-113,262.2c-27.2,97.6-36.1,192.4-26.2,282
							c5.9,53,17.7,106.9,36,164.8c15.4,48.4,35.6,100.1,61.8,157.8c75.6,165.7,170.8,319.9,282.9,458.2
							c116.7,144.6,253,277.9,384.8,406.7C4047,970.2,4146,1067,4236,1166.7c107.4,119.1,181.6,224.2,233.5,330.7
							c80.5,165.2,105.6,339.4,72.6,503.9c-45.9,228.8-192.3,401.4-307,505.9c-23.4,21.3-48.3,42.3-73.9,62.4
							c-134.1,105.1-284.5,188.4-427.1,264.7c-42.3,22.6-85.9,45.5-128.1,67.8c-183.2,96.6-372.7,196.5-548.9,307.8
							c-144.1,91.2-261.2,182.1-358,277.8c-83.1,82.1-150.1,169.1-199,258.3c-53.7,98-86.1,199.5-96.3,301.9
							c-18.6,190.1,45.8,384.5,176.7,533.3c52,59.1,115.8,110.6,189.6,153.1c69.5,40,146.3,71.1,228.4,92.6
							c91.2,23.8,190.3,37.5,304.2,41.6l0.5-3.6c-113.7-4.1-212.8-17.7-303.8-41.5c-170.9-44.8-314.9-129.4-416.2-244.6
							c-130.2-148-194.3-341.4-175.8-530.5c19.5-196.5,118.5-384.2,294.2-557.9c96.6-95.5,213.5-186.2,357.4-277.3
							c176.1-111.2,365.5-211.1,548.7-307.7c42.2-22.2,85.7-45.2,128.1-67.8c142.7-76.4,293.3-159.7,427.6-265
							c25.7-20.1,50.6-41.2,74.1-62.5c77.9-71,143.5-148.6,195-230.8c56.2-89.6,94.2-182.9,113.1-277c2.7-13.3,5-26.7,6.9-40.2
							c10.2-71.1,9.9-143.7-0.9-216.3c-12.5-83.9-39-168-78.9-249.7c-52.1-106.9-126.5-212.2-234.1-331.6
							c-90.1-99.9-189.1-196.7-284.9-290.3c-131.7-128.8-268-262-384.6-406.4c-112-138.1-207-292-282.4-457.4
							c-56.7-124.9-86.8-224-97.6-321.5c-18.5-167.7,28.2-350,138.7-542c164.3-285.3,459.6-491.5,789.9-551.6
							c189.9-34.9,391.2-25.9,581,22.5l0.5-3.4c-22.8-5.8-45.8-11.1-68.9-15.8C4546-1418.6,4460.1-1428,4375.1-1429.3L4375.1-1429.3
							L4375.1-1429.3z"/>
					</g>
					<g class="st31">
						
							<linearGradient id="SVGID_00000059289322650720026510000005098255613560815518_" gradientUnits="userSpaceOnUse" x1="2368.5581" y1="-1153.0614" x2="4715.4331" y2="94.7941" gradientTransform="matrix(1 0 0 1 0 2156)">
							<stop  offset="0.4519" style="stop-color:#1F4C67;stop-opacity:0"/>
							<stop  offset="0.8388" style="stop-color:#1F4C67"/>
							<stop  offset="1" style="stop-color:#1F4C67;stop-opacity:0"/>
						</linearGradient>
						<path style="fill:url(#SVGID_00000059289322650720026510000005098255613560815518_);" d="M4415.3-1369
							c-92.2-2.5-183.5,4.1-271.5,19.6c-87.8,15.3-174.6,40.8-257.8,75.8c-81.1,34.1-158.8,77.1-230.9,127.9
							c-143.3,100.9-262.1,230.9-343.6,376c-49.7,88.5-86.6,176.8-109.6,262.4c-26.1,97.1-34.6,191.7-25.3,281.2
							c10.2,98,40.1,200.5,93.9,322.5c73.4,165.8,168,319.4,281.1,456.4C3668.9,695.6,3807,826,3940.7,952.2
							c97.1,91.7,197.5,186.4,288.3,284.6c108.1,116.9,182.9,220.9,235.2,327.3c80.1,162.8,105.6,336.2,73.6,501.6
							c-44.2,228.7-186.6,403-298.2,508.9c-23,21.7-47.3,43.1-72.4,63.6c-122.1,99.7-256.5,180.6-420.7,271.2
							c-60.9,33.5-124.1,67.5-185.2,100.3c-162.4,87.3-330.3,177.6-487.9,275.7c-145.1,90.5-262.8,179.7-359.6,272.8
							c-84.5,81.2-152.6,166.9-202.4,254.6c-55,96.9-88.4,197.5-99.1,299.2c-4.9,46.7-4.6,94.3,0.8,141.6
							c5.3,46.8,15.6,93.5,30.7,138.8c15.1,45.3,34.9,89.5,59.1,131.2c24.4,42.2,53.3,82.2,85.9,118.8
							c50.1,56.3,111.1,105.5,181.5,146.3c66.4,38.5,139.8,68.8,218,89.9c71.7,19.3,147.2,31.9,230.9,38.5
							c24.8,1.9,50.1,3.3,76.3,4.2l0.5-3.8c-114.3-3.7-214.2-17.6-306.8-42.6c-162.4-43.9-299.9-125.2-397.6-235
							c-131.1-147.4-195-339.7-175.4-527.5c20.5-194.1,121.6-379.6,300.4-551.4c96.6-92.9,214.1-181.9,359-272.3
							c157.4-97.9,325.3-188.2,487.6-275.5c61.1-32.9,124.2-66.8,185.2-100.3c164.4-90.8,299-171.7,421.3-271.6
							c25.1-20.6,49.5-42,72.6-63.8c76-72.1,140-150.7,190-233.6c54.4-90.1,91.2-183.4,109.3-277.3c16.2-83.9,17.9-169.9,5.1-255.5
							c-12.6-83.9-39.2-167.6-79-248.5c-52.5-106.7-127.5-211-235.9-328.2c-90.9-98.3-191.4-193.1-288.5-284.8
							c-133.5-126-271.6-256.4-388.7-399c-112.8-136.8-207.2-290-280.5-455.5c-53.6-121.6-83.4-223.7-93.6-321.3
							c-17.6-168.9,27.6-351.1,134.5-541.3c166.4-296.2,484.3-517.6,829.6-577.8c179-31.5,367.1-25.4,547.2,14.5l0.5-3.5
							c-2.7-0.6-5.4-1.2-8-1.8C4595.3-1355.6,4504.8-1366.5,4415.3-1369L4415.3-1369L4415.3-1369z"/>
					</g>
					<g class="st33">
						
							<linearGradient id="SVGID_00000162340059517259188550000004000919013512079239_" gradientUnits="userSpaceOnUse" x1="2370.8032" y1="-1096.9203" x2="4708.2085" y2="145.9001" gradientTransform="matrix(1 0 0 1 0 2156)">
							<stop  offset="0.4519" style="stop-color:#1F4C67;stop-opacity:0"/>
							<stop  offset="0.8388" style="stop-color:#1F4C67"/>
							<stop  offset="1" style="stop-color:#1F4C67;stop-opacity:0"/>
						</linearGradient>
						<path style="fill:url(#SVGID_00000162340059517259188550000004000919013512079239_);" d="M4455.4-1308.6
							c-96.8-3.5-192.7,2.6-285.1,18.2c-92.4,15.5-183.6,41.7-271.1,77.9c-85.4,35.4-167.1,80.2-242.7,133.2
							c-151,105.8-274.9,242.4-358.5,394.8c-48.2,88-84,176.3-106.3,262.4c-25,96.5-33.2,190.8-24.4,280.5
							c9.8,99.5,38.3,201.9,89.9,322.3c71.3,165.9,165.2,318.9,279.2,454.6c117.9,141,257.9,268.6,393.2,392
							c98.4,89.7,200.3,182.5,291.9,279.1c108.9,114.7,184.1,217.6,236.9,323.8c79.7,160.4,105.5,333.1,74.7,499.2
							c-42.5,228.8-180.9,404.7-289.5,512c-22.5,22.1-46.3,44-70.8,64.9c-130.4,111-276.2,199.1-414.4,277.7
							c-78.7,44.7-160.9,89.6-240.4,133c-142.3,77.7-289.4,158.1-428.6,243.4c-146.3,89.8-264.4,177.4-361.2,267.8
							c-182.6,170.5-286.1,354.6-307.7,547.3c-5.1,46.3-5.1,93.7,0.2,140.9c5.2,46.5,15.5,93,30.6,138.2c15.1,45.1,35,89,59.2,130.5
							c24.5,42,53.5,81.7,86.2,118c48.1,53.5,106.4,100.5,173.3,139.5c63.4,37,133.2,66.4,207.5,87.1c93,25.9,195.4,40.3,310.3,43.6
							l0.6-4c-114.8-3.3-217-17.7-309.8-43.5c-153.9-43-284.9-120.9-378.9-225.5c-132-146.7-195.8-337.9-175.1-524.5
							c21.5-191.7,124.6-375,306.5-544.8c96.6-90.2,214.6-177.6,360.6-267.3c139.1-85.2,286.2-165.6,428.4-243.3
							c79.5-43.4,161.7-88.3,240.5-133c138.3-78.8,284.3-166.9,415-278.2c24.6-20.9,48.5-42.9,71.1-65.1
							c74.1-73.2,136.4-152.8,185.1-236.5c52.6-90.4,88.1-183.8,105.5-277.6c1.9-10.4,3.6-20.8,5.1-31.2
							c10.6-73.9,10.2-148.8-1-223.2c-12.7-84-39.3-167.2-79.1-247.3c-53-106.6-128.4-209.8-237.6-324.8
							c-91.7-96.7-193.6-189.5-292.1-279.3c-135.3-123.3-275.2-250.8-392.9-391.6C3426,497.1,3332.2,344.5,3261.1,179
							c-51.4-120-79.8-222-89.6-321.1c-16.7-170.5,27.1-352.4,130.2-540.6c170.6-311.3,503.7-542.8,869.4-604
							c168.1-28.3,343.3-24.8,513.1,7.7l0.5-3.6C4608.6-1297,4531.8-1305.8,4455.4-1308.6L4455.4-1308.6L4455.4-1308.6z"/>
					</g>
					<g class="st35">
						
							<linearGradient id="SVGID_00000099658200583942733910000001418589456391502469_" gradientUnits="userSpaceOnUse" x1="2372.7295" y1="-1039.9386" x2="4700.9287" y2="197.9868" gradientTransform="matrix(1 0 0 1 0 2156)">
							<stop  offset="0.4519" style="stop-color:#1F4C67;stop-opacity:0"/>
							<stop  offset="0.8388" style="stop-color:#1F4C67"/>
							<stop  offset="1" style="stop-color:#1F4C67;stop-opacity:0"/>
						</linearGradient>
						<path style="fill:url(#SVGID_00000099658200583942733910000001418589456391502469_);" d="M4495.6-1248.2
							c-101.4-4.6-201.9,1.1-298.8,16.8c-96.9,15.6-192.6,42.6-284.4,80.1c-89.7,36.7-175.4,83.3-254.5,138.5
							C3499.2-902,3370.2-759,3284.7-599.1c-46.7,87.4-81.4,175.7-103,262.5c-23.8,95.8-31.7,189.9-23.5,279.7
							c9.2,99.7,37.3,205.1,85.9,322.1c69.2,166,162.5,318.4,277.4,452.9c117.8,138.4,258.8,262.4,395.2,382.4
							c100.6,88.5,204.7,180,297.7,275.9c107.6,110.2,185.7,214.9,238.6,320.4c79.3,158,105.5,329.8,75.7,496.9
							c-40.8,228.9-175.2,406.4-280.7,515c-22,22.6-45.3,44.8-69.3,66.1c-131.5,116.6-280,209.1-408,284.2
							c-95.8,56.1-196.6,111.8-294.1,165.6c-122.9,67.9-249.9,138.1-371,211.1c-147.5,89.1-266.2,175.1-362.8,262.8
							c-87.4,79.3-157.8,162.4-209.2,247.1c-57.6,94.7-92.8,193.5-104.7,293.8c-5.4,46-5.6,93.1-0.4,140.1
							c5.1,46.3,15.3,92.6,30.4,137.5c15.1,44.9,35.1,88.6,59.4,129.9c24.6,41.8,53.7,81.2,86.5,117.2
							c46.2,50.7,101.7,95.4,165.1,132.7c60.3,35.6,126.6,64,197.1,84.3c94.8,27.3,198,42.1,313.3,44.7l0.6-4.2
							c-115.1-2.6-218.2-17.3-312.8-44.6c-145.4-42.1-269.9-116.7-360.2-215.9c-132.9-145.9-196.6-336-174.8-521.4
							c22.5-189.4,127.7-370.5,312.6-538.3c96.4-87.5,214.9-173.3,362.2-262.3c121-73,248-143.2,370.9-211.1
							c97.5-53.9,198.3-109.6,294.2-165.7c128.1-75.2,276.9-167.9,408.7-284.7c24.1-21.4,47.5-43.7,69.5-66.3
							c72.3-74.4,132.9-154.9,180.1-239.3c50.8-90.8,85-184.3,101.7-277.9c15-84,16-169.3,3.2-253.5c-12.8-84-39.5-166.8-79.3-246
							c-28.7-57.2-63.6-112.6-106.9-169.5c-37.8-49.7-81.1-99.4-132.5-152c-93.1-96.1-197.2-187.6-297.9-276.1
							c-136.3-119.8-277.2-243.8-394.8-382C3410.1,581.3,3317,429.3,3248,263.7c-48.4-116.6-76.4-221.6-85.6-320.9
							c-15.6-169.9,27.9-356.6,126-539.9c174.6-326.5,522.9-567.9,909.1-630.2c157.1-25.5,319.8-24.2,479,1.8l0.5-3.7
							C4616.7-1239.1,4556-1245.5,4495.6-1248.2L4495.6-1248.2L4495.6-1248.2z"/>
					</g>
					<g class="st37">
						
							<linearGradient id="SVGID_00000175311931328791279720000004123635580890332071_" gradientUnits="userSpaceOnUse" x1="2374.2471" y1="-982.8462" x2="4693.5947" y2="250.3728" gradientTransform="matrix(1 0 0 1 0 2156)">
							<stop  offset="0.4519" style="stop-color:#1F4C67;stop-opacity:0"/>
							<stop  offset="0.8388" style="stop-color:#1F4C67"/>
							<stop  offset="1" style="stop-color:#1F4C67;stop-opacity:0"/>
						</linearGradient>
						<path style="fill:url(#SVGID_00000175311931328791279720000004123635580890332071_);" d="M4535.8-1187.8
							c-106-5.6-211.1-0.5-312.5,15.4c-408.4,63.5-773.2,315.9-952.1,658.7c-45.3,86.8-78.8,175.1-99.6,262.6
							c-22.7,95.1-30.2,189-22.5,279c8.7,101.3,35.5,206.6,81.8,322c32.8,81.3,72.4,160.3,117.8,234.9
							c46.5,76.5,99.6,149.3,157.8,216.2c118.4,136.8,261.5,258.1,399.8,375.4c101.9,86.4,207.2,175.8,301,270
							c108.4,108.2,187,211.9,240.2,316.9c78.9,155.6,105.4,326.6,76.8,494.5c-31,181.4-125,360.5-272,518.1
							c-21.5,23-44.3,45.7-67.8,67.4c-132.6,122.6-284.3,219.8-401.6,290.8c-112.3,67.8-231.3,134-346.4,198.1
							c-104,57.9-211.5,117.8-314.7,179c-148.9,88.6-268.1,172.9-364.4,257.8c-88.8,78.3-160.4,160.2-212.6,243.3
							c-58.8,93.6-95,191.6-107.5,291.1c-5.7,45.7-6,92.6-1,139.3c4.9,46.1,15.1,92.1,30.2,136.9c15.1,44.7,35.1,88.2,59.5,129.3
							c24.7,41.5,53.9,80.7,86.8,116.4c44.2,47.9,97,90.3,156.9,126c57.3,34.1,120.1,61.5,186.7,81.5
							c61.7,18.5,128.4,31.6,198.3,38.8c37.9,4,77.4,6.2,118.1,6.9l0.6-4.4c-114.9-1.9-220.8-17.1-315.7-45.6
							c-136.9-41.1-255.1-112.5-341.6-206.3c-131.8-142.9-197.1-336.7-174.5-518.4c23.5-187.1,130.7-366,318.7-531.7
							c96.1-84.7,215.1-168.9,363.7-257.3c103.1-61.2,210.6-121.1,314.6-179c115.1-64.1,234.2-130.4,346.6-198.2
							c117.5-71.1,269.4-168.4,402.3-291.3c23.5-21.8,46.4-44.5,68-67.6c70.4-75.5,129.3-156.9,175.2-242.1
							c49-91.1,82-184.8,98-278.2c14.4-84.1,15.1-169,2.2-252.4c-12.9-84-39.7-166.4-79.4-244.8c-28.8-56.9-64-111.9-107.4-168
							c-38.1-49.3-81.8-98.3-133.7-150.1c-93.9-94.3-199.3-183.8-301.2-270.3c-138.2-117.2-281.1-238.5-399.3-375
							c-115.5-132.9-207.9-284.2-274.8-449.9c-46.2-114.9-72.9-219.8-81.5-320.7c-14.7-171.9,27.4-358.4,121.7-539.2
							c178.2-341.6,541.8-593.1,948.8-656.4c146-22.8,296.5-23.3,444.7-3.1l0.6-3.9C4624.8-1181.2,4580.3-1185.5,4535.8-1187.8
							L4535.8-1187.8L4535.8-1187.8z"/>
					</g>
					<g class="st39">
						
							<linearGradient id="SVGID_00000159436806584593878720000018122404455226932902_" gradientUnits="userSpaceOnUse" x1="2375.5188" y1="-925.1479" x2="4685.5977" y2="303.1429" gradientTransform="matrix(1 0 0 1 0 2156)">
							<stop  offset="0.4519" style="stop-color:#1F4C67;stop-opacity:0"/>
							<stop  offset="0.8388" style="stop-color:#1F4C67"/>
							<stop  offset="1" style="stop-color:#1F4C67;stop-opacity:0"/>
						</linearGradient>
						<path style="fill:url(#SVGID_00000159436806584593878720000018122404455226932902_);" d="M4576-1127.4
							c-110.5-6.7-220.3-2-326.1,14c-210.7,31.7-414.5,112.4-589.5,233.5c-174.3,120.7-313.5,276.8-402.5,451.6
							c-43.8,86.1-76.2,174.5-96.4,262.7c-21.5,94.3-28.8,187.9-21.6,278.2c8.2,103,33.6,208.3,77.8,321.8
							c31.7,81.3,70.7,160.2,115.7,234.5c46.2,76.3,99.4,148.6,158,214.8c119.1,135.1,264.1,253.8,404.3,368.5
							c103.1,84.4,209.8,171.7,304.2,264.1c109.2,106.3,188.4,208.8,241.9,313.5c78.4,153.2,105.3,323.4,77.8,492.1
							c-29.6,181.7-120.7,361.9-263.2,521.1c-21,23.4-43.3,46.5-66.3,68.6c-103.5,99.7-225.4,191.4-395.3,297.2
							c-128.1,79.7-265.2,156.3-397.7,230.4c-85.6,47.8-174,97.3-259.4,147.2c-152.5,89.2-268.8,169.6-366,252.8
							c-90.3,77.3-163,157.9-216.1,239.6c-29.2,45-53.2,91.4-71.3,137.8c-19.1,49.1-32.2,99.8-39,150.6c-6,45.4-6.5,92-1.6,138.5
							c4.8,45.8,14.9,91.7,30.1,136.3c15.1,44.5,35.1,87.8,59.7,128.6c24.8,41.3,54.1,80.2,87.2,115.6
							c83.3,89,195.6,157.5,324.9,197.9c97.2,30.3,204.4,46,319.4,46.8l0.7-4.6c-114.8-0.7-221.8-16.3-318.7-46.5
							c-128.5-40.2-240.2-108.2-322.9-196.7c-132.8-141.9-197.9-334.6-174.1-515.3c24.4-184.9,133.7-361.6,324.8-525.1
							c97-83,213.1-163.2,365.3-252.3c85.4-49.9,173.8-99.3,259.4-147.1c132.6-74.1,269.6-150.7,397.9-230.5
							c79.1-49.3,146.9-95,207.3-139.7c71.1-52.6,132.8-104.4,188.8-158.2c23-22.2,45.4-45.4,66.5-68.9
							c68.5-76.5,125.8-159,170.2-245c47.2-91.5,78.9-185.2,94.1-278.5c0.9-5.3,1.7-10.5,2.4-15.8c11.3-78.9,10.9-158.1-1.1-235.6
							c-13.1-84-39.8-165.9-79.5-243.6c-29-56.6-64.3-111.1-108-166.6c-38.4-48.8-82.5-97.2-134.8-148.1
							c-94.6-92.6-201.3-179.9-304.5-264.4c-140.1-114.6-284.9-233.2-403.8-368c-116.4-131.6-208.2-282.3-272.9-448
							c-44-113.1-69.4-217.9-77.5-320.5C3130.7-62,3171.3-248.2,3262-426.3c181.6-356.7,560.4-618.2,988.6-682.6
							c134.9-20.4,273.3-22.3,410.3-7.1l0.6-4.1C4632.9-1123.3,4604.4-1125.8,4576-1127.4L4576-1127.4L4576-1127.4z"/>
					</g>
					<g class="st41">
						
							<linearGradient id="SVGID_00000126313678004931658410000002464668525608467122_" gradientUnits="userSpaceOnUse" x1="2376.2578" y1="-867.2726" x2="4677.6855" y2="356.4182" gradientTransform="matrix(1 0 0 1 0 2156)">
							<stop  offset="0.4519" style="stop-color:#1F4C67;stop-opacity:0"/>
							<stop  offset="0.8388" style="stop-color:#1F4C67"/>
							<stop  offset="1" style="stop-color:#1F4C67;stop-opacity:0"/>
						</linearGradient>
						<path style="fill:url(#SVGID_00000126313678004931658410000002464668525608467122_);" d="M4616.1-1067.1
							c-115.1-7.7-229.5-3.5-339.8,12.6c-220.2,32-432.8,115.3-614.9,240.8c-182.3,125.6-326.5,288.3-417,470.6
							c-87.3,175.8-126.7,362.7-113.7,540.3c7.6,103.3,32.4,211.5,73.8,321.6c30.7,81.3,68.9,160,113.7,234.2
							c45.9,76,99.1,147.9,158.2,213.4c119.8,133.4,266.8,249.4,408.9,361.5c104.4,82.4,212.3,167.5,307.5,258.2
							c110.1,104.4,189.7,205.8,243.6,310c77.9,150.8,105.2,320.2,78.8,489.8c-28.3,182-116.3,363.3-254.5,524.2
							c-20.5,23.9-42.3,47.4-64.7,69.9c-102,102.5-225.6,199-389,304c-143.5,92-298.3,178.6-448.1,262.2
							c-67.5,37.7-137.3,76.8-205.1,115.7c-97.7,56.2-242.1,143.1-367.6,247.8c-91.7,76-165.6,155.3-219.6,235.7
							c-29.8,44.4-54.3,90.3-72.9,136.3c-19.6,48.7-33.1,99-40.1,149.6c-6.2,45.1-7,91.4-2.2,137.8c4.7,45.6,14.8,91.3,29.9,135.7
							c30.3,89.2,81.3,173.1,147.4,242.7c79.5,83.7,185.4,148.8,306.3,188.3c99.4,32.4,207.8,48.4,322.5,47.6l0.7-4.8
							c-114.5,0.9-222.6-15-321.7-47.4c-120.2-39.3-225.4-104-304.3-187.1c-133.7-140.8-198.7-332.3-173.8-512.2l0.4-2.5
							c26.5-184.9,134.6-353.8,330.5-516.1c125.2-104.4,269.4-191.2,366.9-247.3c67.7-38.9,137.5-78,205-115.7
							c149.8-83.7,304.7-170.3,448.3-262.4c163.7-105.2,287.5-201.9,389.7-304.4c22.5-22.6,44.3-46.2,65-70.2
							c66.6-77.6,122.2-161,165.2-247.8c45.5-91.8,75.9-185.6,90.4-278.8c13.1-84.2,13.2-168.5,0.4-250.4
							c-13.2-84-40-165.5-79.7-242.3c-29.1-56.3-64.6-110.3-108.5-165.1c-38.8-48.3-83.2-96.2-136-146.2
							c-95.3-90.9-203.3-176.1-307.8-258.5c-141.9-112-288.7-227.8-408.3-361c-117.3-130.3-208.4-280.4-270.9-446.1
							c-41.3-109.6-66-217.4-73.5-320.3C3122.6,20,3161.7-166,3248.7-341c184.7-371.8,578.7-643.4,1028.3-708.8
							c123.7-18.1,250.1-21.2,375.7-10.2l0.6-4.3C4641-1065.3,4628.6-1066.2,4616.1-1067.1L4616.1-1067.1L4616.1-1067.1z"/>
					</g>
					<g class="st43">
						
							<linearGradient id="SVGID_00000065063411833572167970000013799281323013227955_" gradientUnits="userSpaceOnUse" x1="2376.8516" y1="-808.9318" x2="4669.8193" y2="410.2611" gradientTransform="matrix(1 0 0 1 0 2156)">
							<stop  offset="0.4519" style="stop-color:#1F4C67;stop-opacity:0"/>
							<stop  offset="0.8388" style="stop-color:#1F4C67"/>
							<stop  offset="1" style="stop-color:#1F4C67;stop-opacity:0"/>
						</linearGradient>
						<path style="fill:url(#SVGID_00000065063411833572167970000013799281323013227955_);" d="M4302.9-995.5
							c-229.7,32.4-451.1,118.2-640.4,248.1C3472.2-616.8,3323-447.5,3231-257.7c-83.6,172.5-121.5,359.1-109.4,539.7
							c7,105.2,30.5,213.3,69.8,321.5c29.6,81.3,67.2,159.9,111.6,233.8c45.6,75.8,98.9,147.1,158.4,212
							c120.5,131.8,269.4,245.1,413.4,354.6c105.6,80.3,214.8,163.4,310.7,252.4c110.9,102.6,191.1,202.8,245.3,306.6
							c77.4,148.3,105.1,316.9,79.9,487.4c-27,182.5-111.9,364.8-245.8,527.2c-20,24.3-41.3,48.2-63.2,71.2
							c-101.5,106.2-223.1,204.8-382.5,310.3c-158.3,104.6-330.9,200.7-497.7,293.6c-49.8,27.7-101.2,56.4-151.4,84.8
							c-159,90-272.9,164.9-369.1,242.8c-44.9,36.2-85.9,73.2-121.7,110.1c-38.7,39.8-72.7,80.8-101.2,121.9
							c-30.4,43.9-55.5,89.2-74.5,134.7c-20.1,48.2-34,98.2-41.4,148.5l-0.2,1.2c-25.8,180.4,39.5,371.8,175,512.2
							c75.6,78.4,175.1,140.2,287.7,178.8c52.7,18,108.4,31.2,165.7,39.2c52.2,7.3,106,10.3,160,9l0.7-5.1
							c-114,2.9-223.2-13.2-324.8-47.9c-111.8-38.3-210.6-99.7-285.7-177.5c-134.4-139.3-199.2-329.1-173.6-508l0.2-1.2
							c26.8-183.6,137-351.1,337-512c96.1-77.7,209.7-152.5,368.5-242.3c50.2-28.4,101.6-57,151.4-84.7
							c166.9-93,339.6-189.1,498.1-293.8c159.8-105.7,281.6-204.6,383.4-311c22-23,43.3-47,63.5-71.4
							c64.8-78.6,118.7-162.9,160.3-250.6c43.7-92.1,72.8-186,86.5-279.1c12.5-84.4,12.3-168.2-0.6-249.4
							c-13.3-84-40.1-165.1-79.8-241.1c-29.2-56-64.9-109.6-109.1-163.7c-39.1-47.8-84-95-137.2-144.3
							c-96.1-89.2-205.4-172.3-311.1-252.7c-143.8-109.4-292.6-222.5-412.8-354c-118.1-129-208.6-278.4-269-444.2
							c-39.1-107.7-62.5-215.4-69.5-320.1c-12-179.7,25.7-365.4,108.9-537.1c187.5-386.8,596.7-668.5,1068-735
							c112.4-15.9,226.9-19.8,341-12.4l0.6-4.5C4529.3-1015.3,4414.2-1011.2,4302.9-995.5L4302.9-995.5L4302.9-995.5z"/>
					</g>
					<g class="st45">
						
							<linearGradient id="SVGID_00000145051665729552215360000000850789970360375172_" gradientUnits="userSpaceOnUse" x1="2377.249" y1="-750.4659" x2="4650.1587" y2="458.0614" gradientTransform="matrix(1 0 0 1 0 2156)">
							<stop  offset="0.4519" style="stop-color:#1F4C67;stop-opacity:0"/>
							<stop  offset="0.8388" style="stop-color:#1F4C67"/>
							<stop  offset="1" style="stop-color:#1F4C67;stop-opacity:0"/>
						</linearGradient>
						<path style="fill:url(#SVGID_00000145051665729552215360000000850789970360375172_);" d="M4330.1-931.3
							c101.1-13.9,203.7-18.4,306.2-13.9l0.7-4.8c-104.2-4.8-207.4-0.2-307.6,13.5c-239.2,32.8-469.5,121.1-666,255.4
							c-198.3,135.5-352.5,311.5-445.8,508.8c-79.9,168.9-116.2,355.3-105.2,539c6.4,107.1,28.6,215.2,65.8,321.3
							c28.5,81.3,65.4,159.8,109.6,233.5c45.3,75.5,98.7,146.4,158.6,210.6c121.2,130.1,272.1,240.7,418,347.6
							c106.8,78.3,217.3,159.2,313.9,246.5c111.7,100.7,192.5,199.9,246.9,303.1c76.9,145.9,104.9,313.6,80.9,485.1
							c-25.6,183-107.6,366.4-237,530.3c-19.6,24.8-40.3,49.1-61.7,72.4c-99.5,108.5-222.6,212.1-376.2,316.8
							c-172.6,117.6-362.9,222.7-546.9,324.3c-32.3,17.8-65.6,36.2-98.3,54.4c-108.2,60.2-248.1,141.7-370.7,237.8
							c-204.2,159.7-317.1,326.2-345,508.8c-13.5,88.3-4.5,182,25.9,270.9c30.4,88.7,81.8,171.6,148.6,239.7
							c71.8,73.1,164.8,131.6,269,169.2c98.9,35.6,207.7,52.6,314.6,49l-0.2-5.2c-106.3,3.6-214.4-13.2-312.6-48.7
							c-103.5-37.3-195.8-95.4-267-167.9c-135.7-138.2-200.4-327.4-173.1-506.1c27.7-181.3,139.9-346.6,343.1-505.5
							c122.3-95.9,262-177.2,370.1-237.3c32.6-18.2,66-36.6,98.3-54.4c184.1-101.7,374.4-206.9,547.3-324.6
							c153.9-104.9,277.3-208.8,377.1-317.6c21.5-23.4,42.3-47.9,61.9-72.7c62.9-79.6,115.1-164.9,155.3-253.4
							c41.5-91.4,69.2-184.4,82.4-276.4l0.4-2.9c11.8-84.5,11.3-168-1.5-248.4c-13.4-83.9-40.3-164.6-79.9-239.9
							c-29.4-55.8-65.3-108.8-109.6-162.2c-39.4-47.3-84.6-93.9-138.4-142.4c-96.8-87.4-207.4-168.5-314.3-246.8
							c-145.7-106.8-296.4-217.2-417.3-346.9c-119-127.7-208.9-276.5-267.1-442.3c-37.1-105.7-59.1-213.3-65.5-319.9
							c-11-182.8,25.2-368.3,104.7-536.5C3409.5-565.9,3844.3-864.7,4330.1-931.3L4330.1-931.3L4330.1-931.3z"/>
					</g>
					
						<linearGradient id="SVGID_00000133520752517437279810000007617720268038378686_" gradientUnits="userSpaceOnUse" x1="2377.272" y1="-691.7213" x2="4622.2754" y2="501.9683" gradientTransform="matrix(1 0 0 1 0 2156)">
						<stop  offset="0.4519" style="stop-color:#1F4C67;stop-opacity:0"/>
						<stop  offset="0.8388" style="stop-color:#1F4C67"/>
						<stop  offset="1" style="stop-color:#1F4C67;stop-opacity:0"/>
					</linearGradient>
					<path style="fill:url(#SVGID_00000133520752517437279810000007617720268038378686_);" d="M4356.6-872.1
						c89-11.9,179.9-16.4,271.2-13.9l0.8-5.9c-92.3-2.3-183.7,2.5-272.8,14.4c-248.8,33.2-488,124-691.7,262.7
						c-206.4,140.5-365.5,323-460,527.9c-47.9,103.8-79.4,215.1-93.8,330.9c-14.1,113.9-11.4,229.8,8.1,344.5
						c19.7,115.5,55.9,227.2,107.8,332.2c53.4,108,122.3,207,205.1,294.2c121.9,128.5,274.8,236.3,422.6,340.6
						c219,154.5,445.4,314.3,565.7,540.3c79.7,149.7,105.2,321.6,80.1,496.6c-29.1,203.5-126.6,411.2-286.6,593.1
						c-254.6,289.4-616,486.7-965.5,677.6c-15.2,8.3-30.4,16.6-45.5,24.9c-151.3,82.7-324.5,183.8-461.7,306.1
						c-72.1,64.3-128,128.3-171,195.6c-47.4,74.5-78,153-90.9,233.4c-14,87.8-5.4,181.1,25.1,269.7c30.4,88.6,82,170.9,149.2,238.1
						c67.2,67.1,152.8,122,247.6,158.5c94.8,36.6,197,54.2,295.6,51l-0.2-5.4c-200.9,6.4-402.4-71.3-539.2-208
						c-136.7-136.6-201.3-324.7-172.8-503.1c51.9-324.6,377.1-543.3,720.8-731.2c15.1-8.3,30.3-16.6,45.5-24.9
						c174-95,354-193.3,519.7-302.6c89.4-58.9,167.2-116.1,237.9-174.6c79.5-65.9,148-131.8,209.3-201.5
						c67.3-76.5,125-160.1,171.6-248.6c47.9-90.9,82.7-184.6,103.5-278.5c21.8-98.5,27.8-195.7,17.8-288.9
						c-10.7-99.1-39.5-193.3-85.6-279.9c-29.1-54.7-64.5-106.5-108.3-158.4c-39-46.3-83.8-91.7-136.9-138.7
						c-98.7-87.3-212.3-167.5-322.2-245.1c-147.6-104.2-300.3-211.9-421.8-339.9c-331.6-349.5-422.5-870.2-226.2-1295.8
						C3398.6-495.4,3849-804.4,4356.6-872.1L4356.6-872.1L4356.6-872.1z"/>
				</g>
			</g>
		</g>
	</g>
</g>
</svg>
