<svg width="816" height="805" viewBox="0 0 816 805" fill="none" xmlns="http://www.w3.org/2000/svg">
<g id="Group">
<path id="Vector" d="M388.71 804.216C372.021 804.216 355.299 802.713 338.712 799.716C311.601 794.816 284.573 785.866 258.382 773.112C231.713 760.127 205.586 743.039 180.727 722.323C155.247 701.092 130.742 675.747 107.892 646.994C64.8836 592.88 28.5957 528.124 0.0351562 454.526L0.828836 454.218C29.3587 527.736 65.604 592.417 108.56 646.464C131.374 675.171 155.838 700.473 181.274 721.669C206.08 742.341 232.149 759.391 258.756 772.346C284.878 785.065 311.831 793.991 338.865 798.878C365.619 803.713 392.738 804.645 419.471 801.647C448.904 798.346 478.125 790.263 506.325 777.622C534.771 764.87 562.371 747.393 588.353 725.675C614.822 703.551 639.833 676.838 662.693 646.282C686.173 614.896 707.63 579.112 726.471 539.925C743.232 505.063 757.906 467.527 770.086 428.36C781.972 390.138 791.653 349.815 798.862 308.515C805.941 267.953 810.727 225.936 813.084 183.629C815.416 141.77 815.4 99.1465 813.036 56.9451L813.886 56.8975C816.252 99.1311 816.269 141.785 813.934 183.677C811.575 226.018 806.786 268.069 799.702 308.663C792.487 350.001 782.796 390.357 770.9 428.616C758.708 467.823 744.018 505.398 727.239 540.298C708.374 579.534 686.887 615.366 663.376 646.796C640.477 677.406 615.42 704.166 588.9 726.333C562.857 748.101 535.192 765.62 506.674 778.404C478.394 791.081 449.086 799.188 419.567 802.497C409.326 803.645 399.025 804.219 388.714 804.219L388.71 804.216Z" fill="url(#paint0_linear_1201_68947)"/>
<path id="Vector_2" d="M402.169 793.518C384.293 793.518 366.331 791.743 348.494 788.202C321.079 782.762 293.706 773.098 267.135 759.481C240.071 745.612 213.539 727.486 188.278 705.605C162.365 683.16 137.451 656.468 114.227 626.271C71.1416 570.201 34.4824 503.368 5.26953 427.629L6.04618 427.33C35.2301 502.993 71.8501 569.758 114.889 625.765C138.08 655.918 162.955 682.568 188.824 704.976C214.035 726.813 240.511 744.902 267.514 758.741C294.018 772.323 321.318 781.96 348.655 787.386C375.714 792.756 403.067 794.053 429.953 791.239C457.991 788.304 485.754 780.882 512.476 769.174C539.444 757.359 565.555 741.087 590.086 720.812C615.077 700.158 638.659 675.152 660.175 646.491C682.267 617.063 702.436 583.441 720.12 546.555C736.484 512.344 750.566 474.882 761.972 435.212C773.055 396.672 781.751 355.568 787.825 313.041C793.765 271.438 797.257 228.048 798.2 184.078C799.132 140.692 797.592 96.375 793.624 52.3581L794.453 52.2832C798.424 96.3308 799.965 140.68 799.033 184.097C798.09 228.1 794.595 271.523 788.651 313.16C782.572 355.725 773.867 396.867 762.774 435.443C751.355 475.158 737.257 512.662 720.873 546.916C703.163 583.852 682.967 617.522 660.843 646.992C639.287 675.706 615.659 700.758 590.617 721.455C566.027 741.779 539.847 758.092 512.809 769.937C486.012 781.679 458.163 789.124 430.04 792.067C420.795 793.034 411.491 793.518 402.168 793.518H402.169Z" fill="url(#paint1_linear_1201_68947)"/>
<path id="Vector_3" d="M415.493 783.262C396.515 783.262 377.383 781.193 358.353 777.069C330.651 771.065 302.941 760.659 275.988 746.138C248.528 731.344 221.588 712.13 195.915 689.03C169.558 665.317 144.222 637.22 120.607 605.518C77.3958 547.515 40.3602 478.61 10.5273 400.717L11.2887 400.425C41.0943 478.249 78.0941 547.089 121.259 605.033C144.842 636.692 170.144 664.75 196.46 688.426C222.086 711.482 248.972 730.658 276.374 745.421C303.259 759.906 330.9 770.285 358.525 776.272C377.497 780.384 396.574 782.446 415.493 782.448C423.851 782.448 432.173 782.046 440.448 781.239C467.067 778.645 493.359 771.849 518.59 761.041C544.068 750.127 568.691 735.025 591.774 716.153C615.29 696.928 637.448 673.591 657.636 646.79C678.353 619.284 697.248 587.787 713.798 553.171C729.777 519.591 743.266 482.208 753.891 442.059C764.178 403.183 771.893 361.298 776.822 317.567C781.632 274.898 783.828 230.137 783.352 184.524C782.882 139.587 779.817 93.5707 774.24 47.757L775.049 47.6582C780.629 93.5026 783.696 139.548 784.166 184.515C784.643 230.16 782.444 274.956 777.631 317.658C772.699 361.428 764.975 403.351 754.678 442.267C744.04 482.466 730.533 519.896 714.532 553.522C697.958 588.187 679.034 619.731 658.285 647.28C638.058 674.134 615.853 697.519 592.288 716.785C569.145 735.706 544.458 750.849 518.909 761.792C493.599 772.632 467.227 779.449 440.523 782.051C432.224 782.86 423.871 783.264 415.49 783.264L415.493 783.262Z" fill="url(#paint2_linear_1201_68947)"/>
<path id="Vector_4" d="M428.589 773.487C408.609 773.487 388.394 771.104 368.239 766.359C340.266 759.773 312.221 748.593 284.885 733.127C257.028 717.366 229.668 697.018 203.567 672.647C176.751 647.609 150.97 618.047 126.939 584.78C83.6175 524.811 46.2106 453.833 15.7578 373.818L16.5021 373.535C46.9311 453.486 84.3039 524.401 127.585 584.313C151.584 617.537 177.331 647.06 204.11 672.063C230.166 696.391 257.474 716.701 285.277 732.432C312.548 747.861 340.521 759.015 368.421 765.583C396.053 772.087 423.8 774.141 450.891 771.685C476.07 769.403 500.874 763.201 524.611 753.253C548.592 743.204 571.722 729.23 593.363 711.721C615.407 693.886 636.152 672.175 655.02 647.195C674.375 621.57 692.014 592.16 707.445 559.783C723.041 526.821 735.936 489.515 745.768 448.901C755.267 409.671 761.998 367.005 765.777 322.087C769.458 278.336 770.362 232.2 768.465 184.963C766.596 138.456 762.008 90.7431 754.827 43.1495L755.616 43.0303C762.8 90.6528 767.392 138.395 769.262 184.93C771.161 232.2 770.257 278.368 766.573 322.154C762.79 367.112 756.052 409.82 746.543 449.088C736.697 489.755 723.785 527.112 708.166 560.125C692.711 592.552 675.044 622.008 655.655 647.677C636.746 672.708 615.957 694.466 593.864 712.343C572.165 729.899 548.97 743.911 524.919 753.991C501.105 763.97 476.222 770.191 450.962 772.48C443.548 773.153 436.083 773.489 428.587 773.489L428.589 773.487Z" fill="url(#paint3_linear_1201_68947)"/>
<path id="Vector_5" d="M441.446 764.239C420.564 764.239 399.349 761.52 378.138 756.113C349.918 748.92 321.556 736.928 293.842 720.47C265.593 703.696 237.816 682.159 211.281 656.457C183.998 630.03 157.76 598.937 133.301 564.042C89.8206 502.024 52.0424 428.968 21.0156 346.904L21.7446 346.628C52.7475 428.633 90.495 501.631 133.938 563.596C158.37 598.45 184.573 629.505 211.823 655.898C238.314 681.558 266.043 703.057 294.239 719.801C321.89 736.221 350.182 748.184 378.328 755.358C399.477 760.749 420.629 763.459 441.445 763.459C448.082 763.459 454.684 763.183 461.241 762.631C484.964 760.635 508.272 754.995 530.518 745.87C552.999 736.649 574.645 723.763 594.852 707.572C615.435 691.08 634.779 670.952 652.349 647.748C670.362 623.956 686.765 596.592 701.101 566.411C716.327 534.058 728.633 496.828 737.672 455.758C746.387 416.166 752.137 372.716 754.763 326.618C757.318 281.771 756.928 234.263 753.605 185.412C750.335 137.323 744.222 87.9157 735.439 38.5611L736.207 38.4248C744.995 87.8067 751.11 137.243 754.383 185.36C757.708 234.242 758.098 281.783 755.541 326.662C752.913 372.803 747.158 416.293 738.435 455.926C729.382 497.053 717.058 534.337 701.806 566.747C687.446 596.977 671.016 624.387 652.971 648.222C635.362 671.479 615.973 691.653 595.339 708.184C575.073 724.422 553.364 737.345 530.812 746.595C508.494 755.75 485.107 761.408 461.304 763.411C454.724 763.964 448.099 764.24 441.441 764.24L441.446 764.239Z" fill="url(#paint4_linear_1201_68947)"/>
<path id="Vector_6" d="M454.303 755.618C432.681 755.618 410.61 752.56 388.46 746.485C359.969 738.671 331.252 725.831 303.109 708.324C274.417 690.478 246.166 667.679 219.14 640.563C191.326 612.658 164.579 579.94 139.641 543.322C96.0058 479.24 57.8563 404.106 26.2539 320.006L26.9658 319.739C58.5478 403.782 96.6683 478.862 140.27 542.894C165.18 579.475 191.898 612.154 219.679 640.026C246.664 667.1 274.868 689.861 303.511 707.678C331.593 725.146 360.242 737.956 388.663 745.751C416.842 753.48 444.893 756.309 472.04 754.16C494.275 752.398 516.057 747.27 536.781 738.916C557.737 730.468 577.865 718.619 596.607 703.698C615.698 688.499 633.605 669.904 649.833 648.432C666.464 626.425 681.58 601.061 694.763 573.042C709.681 541.327 721.431 504.191 729.688 462.664C737.628 422.727 742.39 378.492 743.843 331.189C745.253 285.256 743.547 236.363 738.774 185.869C734.081 136.206 726.432 85.0922 716.04 33.9509L716.786 33.7993C727.183 84.9679 734.835 136.106 739.531 185.798C744.306 236.324 746.013 285.25 744.601 331.213C743.148 378.556 738.381 422.834 730.432 462.812C722.163 504.401 710.394 541.595 695.449 573.366C682.244 601.431 667.1 626.842 650.438 648.89C634.172 670.413 616.219 689.054 597.079 704.294C578.279 719.262 558.088 731.148 537.064 739.623C516.268 748.006 494.411 753.151 472.098 754.919C466.207 755.386 460.271 755.619 454.303 755.619V755.618Z" fill="url(#paint5_linear_1201_68947)"/>
<path id="Vector_7" d="M466.571 747.445C444.288 747.445 421.419 744.017 398.375 737.207C369.697 728.734 340.697 715.007 312.186 696.406C283.116 677.443 254.443 653.34 226.963 624.765C198.659 595.336 171.424 560.951 146.016 522.57C102.242 456.452 63.7166 379.246 31.5078 293.094L32.2044 292.833C64.3945 378.932 102.895 456.088 146.637 522.159C172.022 560.505 199.226 594.853 227.499 624.249C254.941 652.783 283.571 676.85 312.593 695.783C341.045 714.342 369.978 728.041 398.587 736.494C426.972 744.882 455.09 748.123 482.16 746.132C502.915 744.604 523.193 739.972 542.432 732.362C561.894 724.664 580.552 713.814 597.889 700.117C633.857 671.698 664.321 631.169 688.435 579.655C702.999 548.543 714.163 511.489 721.62 469.521C728.782 429.207 732.561 384.19 732.849 335.721C733.128 288.673 730.125 238.403 723.922 186.312C717.817 135.037 708.643 82.2254 696.653 29.3434L697.378 29.1782C709.374 82.0874 718.552 134.925 724.662 186.223C730.868 238.347 733.872 288.647 733.593 335.726C733.305 384.236 729.522 429.295 722.354 469.652C714.887 511.683 703.701 548.799 689.109 579.97C664.946 631.59 634.41 672.209 598.351 700.7C580.958 714.443 562.236 725.328 542.706 733.052C523.397 740.689 503.044 745.34 482.214 746.873C477.037 747.255 471.82 747.444 466.572 747.444L466.571 747.445Z" fill="url(#paint6_linear_1201_68947)"/>
<path id="Vector_8" d="M478.365 739.858C455.551 739.858 431.996 736.038 408.145 728.457C379.32 719.296 350.072 704.637 321.206 684.892C291.777 664.76 262.692 639.291 234.755 609.196C205.959 578.174 178.23 542.058 152.335 501.851C108.348 433.525 69.4563 354.24 36.7383 266.198L37.4178 265.946C70.1171 353.941 108.985 433.177 152.943 501.46C178.814 541.631 206.518 577.712 235.284 608.703C263.184 638.759 292.23 664.193 321.613 684.294C350.419 704 379.605 718.626 408.361 727.767C436.915 736.844 465.043 740.512 491.965 738.673C511.238 737.356 530.022 733.187 547.793 726.281C565.777 719.292 582.986 709.4 598.943 696.877C632.016 670.922 659.982 633.713 682.063 586.285C696.276 555.764 706.858 518.788 713.514 476.385C719.905 435.681 722.701 389.881 721.826 340.257C720.136 244.29 704.717 135.19 677.237 24.7506L677.94 24.5752C705.433 135.067 720.86 244.224 722.55 340.245C723.425 389.912 720.625 435.754 714.228 476.499C707.562 518.97 696.959 556.011 682.717 586.593C660.588 634.127 632.552 671.423 599.388 697.449C583.375 710.017 566.103 719.945 548.052 726.958C530.212 733.89 511.356 738.075 492.009 739.398C487.491 739.707 482.938 739.862 478.357 739.862L478.365 739.858Z" fill="url(#paint7_linear_1201_68947)"/>
<path id="Vector_9" d="M489.721 732.849C466.51 732.849 442.383 728.617 417.818 720.222C388.9 710.34 359.435 694.706 330.243 673.757C300.48 652.398 270.994 625.501 242.606 593.815C213.321 561.13 185.089 523.212 158.694 481.115C114.481 410.577 75.2106 329.215 41.9766 239.284L42.6408 239.039C75.8579 328.924 115.106 410.244 159.293 480.74C185.667 522.803 213.875 560.69 243.132 593.345C271.486 624.994 300.934 651.855 330.655 673.183C359.791 694.093 389.193 709.694 418.046 719.554C446.719 729.352 474.795 733.464 501.494 731.773C537.533 729.49 570.622 716.775 599.84 693.976C630.083 670.38 655.621 636.378 675.739 592.916C689.599 562.973 699.592 526.072 705.444 483.235C711.058 442.136 712.87 395.552 710.831 344.777C706.878 246.349 688.559 134.091 657.854 20.1395L658.538 19.9556C689.259 133.958 707.586 246.269 711.54 344.748C713.58 395.564 711.766 442.19 706.146 483.33C700.285 526.237 690.272 563.206 676.383 593.212C656.215 636.778 630.61 670.867 600.276 694.533C570.942 717.42 537.722 730.185 501.538 732.478C497.627 732.725 493.686 732.849 489.72 732.849H489.721Z" fill="url(#paint8_linear_1201_68947)"/>
<path id="Vector_10" d="M500.518 726.45C477.057 726.45 452.481 721.785 427.307 712.538C398.353 701.904 368.719 685.25 339.227 663.036C309.163 640.39 279.297 612.002 250.463 578.659C220.698 544.237 191.962 504.448 165.055 460.395C120.602 387.61 80.9624 304.173 47.2344 212.402L47.8816 212.164C81.5943 303.892 121.215 387.288 165.644 460.034C192.531 504.054 221.243 543.813 250.984 578.205C279.786 611.513 309.616 639.867 339.641 662.484C369.079 684.656 398.653 701.279 427.544 711.89C456.283 722.446 484.234 727.012 510.621 725.466C543.68 723.527 573.918 712.078 600.494 691.439C627.987 670.088 651.171 639.169 669.398 599.543C682.903 570.183 692.306 533.361 697.349 490.097C702.186 448.597 703.014 401.232 699.812 349.314C693.585 248.368 672.365 132.951 638.451 15.5423L639.114 15.3516C673.043 132.808 694.27 248.276 700.5 349.271C703.705 401.23 702.876 448.638 698.034 490.177C692.982 533.512 683.558 570.405 670.025 599.831C651.75 639.559 628.498 670.564 600.917 691.983C574.228 712.709 543.862 724.205 510.66 726.152C507.305 726.349 503.921 726.447 500.516 726.447L500.518 726.45Z" fill="url(#paint9_linear_1201_68947)"/>
<path id="Vector_11" d="M510.7 720.648C487.137 720.648 462.243 715.528 436.563 705.386C407.638 693.963 377.883 676.236 348.127 652.695C317.798 628.702 287.579 598.752 258.31 563.677C228.075 527.445 198.838 485.714 171.41 439.641C126.705 364.55 86.6927 279.035 52.4844 185.471L53.1163 185.239C87.3109 278.764 127.305 364.241 171.988 439.297C199.397 485.339 228.613 527.041 258.826 563.246C288.064 598.285 318.25 628.203 348.542 652.167C378.248 675.665 407.944 693.361 436.808 704.759C462.408 714.869 487.222 719.974 510.698 719.974C513.582 719.974 516.442 719.897 519.284 719.742C580.907 716.4 630.619 677.123 663.049 606.154C676.203 577.373 685.02 540.629 689.256 496.941C693.318 455.036 693.165 406.885 688.8 353.828C684.552 302.203 676.365 246.434 664.465 188.075C652.67 130.227 637.393 70.6256 619.058 10.9275L619.702 10.73C638.043 70.4485 653.326 130.07 665.126 187.94C677.029 246.325 685.221 302.12 689.471 353.772C693.839 406.868 693.993 455.06 689.927 497.006C685.685 540.769 676.847 577.586 663.662 606.435C631.122 677.645 581.21 717.06 519.322 720.415C516.469 720.57 513.594 720.646 510.7 720.646V720.648Z" fill="url(#paint10_linear_1201_68947)"/>
<path id="Vector_12" d="M520.231 715.473C470.551 715.475 414.281 690.459 356.936 642.773C326.384 617.369 295.841 585.79 266.151 548.914C235.463 510.799 205.729 467.056 177.773 418.906C132.794 341.474 92.4049 253.887 57.7266 158.574L58.3414 158.351C93.0079 253.626 133.38 341.18 178.34 418.577C206.281 466.7 235.996 510.414 266.664 548.504C296.325 585.345 326.839 616.893 357.356 642.269C414.58 689.852 470.709 714.817 520.233 714.817C522.655 714.817 525.059 714.758 527.449 714.639C554.7 713.274 579.45 704.14 601.014 687.492C623.29 670.291 642.035 645.152 656.729 612.768C669.526 584.562 677.751 547.893 681.176 503.782C684.461 461.463 683.324 412.531 677.795 358.344C672.408 305.549 662.927 248.409 649.613 188.51C636.383 128.986 619.581 67.687 599.676 6.31645L600.297 6.11377C620.209 67.5031 637.016 128.823 650.25 188.367C663.569 248.292 673.055 305.457 678.444 358.278C683.976 412.504 685.115 461.477 681.827 503.833C678.396 548.02 670.151 584.763 657.323 613.039C642.586 645.52 623.774 670.744 601.413 688.01C579.742 704.742 554.867 713.922 527.481 715.293C525.083 715.414 522.663 715.473 520.234 715.473H520.231Z" fill="url(#paint11_linear_1201_68947)"/>
<path id="Vector_13" d="M528.998 710.956C480.146 710.96 423.818 684.215 365.607 633.286C334.882 606.405 304.046 573.129 273.954 534.378C242.833 494.3 212.605 448.48 184.113 398.188C138.781 318.163 98.0191 228.491 62.9609 131.66L63.5605 131.444C98.6067 228.24 139.354 317.88 184.668 397.873C213.145 448.138 243.356 493.933 274.458 533.986C304.524 572.704 335.333 605.952 366.028 632.806C424.114 683.626 480.306 710.316 528.998 710.318C531.023 710.318 533.026 710.272 535.024 710.18C559.476 709.051 581.616 700.964 600.828 686.146C620.656 670.853 637.328 648.4 650.38 619.416C674.827 565.101 680.492 476.391 666.763 362.878C660.234 308.904 649.458 250.39 634.733 188.96C620.061 127.749 601.735 64.7541 580.267 1.72122L580.87 1.51514C602.345 64.5667 620.676 127.583 635.353 188.812C650.083 250.266 660.863 308.804 667.394 362.802C674.09 418.153 676.212 467.908 673.703 510.683C671.085 555.295 663.435 591.966 650.961 619.676C637.865 648.76 621.128 671.293 601.216 686.65C581.898 701.55 559.638 709.679 535.053 710.815C533.051 710.907 531.026 710.953 528.999 710.955L528.998 710.956Z" fill="url(#paint12_linear_1201_68947)"/>
<path id="Vector_14" d="M537.007 707.084C514.082 707.084 489.075 700.474 462.58 687.402C434.19 673.395 404.435 652.136 374.143 624.216C343.3 595.79 312.213 560.738 281.743 520.037C250.216 477.921 219.508 429.95 190.474 377.454C144.789 294.876 103.651 203.129 68.1992 104.765L68.7817 104.556C104.221 202.889 145.348 294.605 191.015 377.156C220.036 429.626 250.727 477.574 282.239 519.668C312.685 560.34 343.748 595.362 374.562 623.763C404.812 651.642 434.517 672.867 462.854 686.848C489.262 699.878 514.179 706.465 537.007 706.465C538.671 706.465 540.321 706.43 541.963 706.36C563.715 705.432 583.351 698.317 600.324 685.215C617.826 671.705 632.533 651.792 644.036 626.028C667.821 572.752 671.871 483.317 655.749 367.39C648.076 312.224 636.009 252.337 619.879 189.39C603.758 126.478 583.907 61.7841 560.877 -2.89573L561.46 -3.10352C584.495 61.5951 604.351 126.307 620.476 189.236C636.612 252.206 648.684 312.117 656.361 367.305C672.498 483.346 668.433 572.899 644.6 626.28C633.054 652.139 618.284 672.131 600.701 685.704C583.623 698.885 563.87 706.043 541.989 706.976C540.34 707.046 538.678 707.082 537.007 707.082V707.084Z" fill="url(#paint13_linear_1201_68947)"/>
<path id="Vector_15" d="M544.186 703.871C521.797 703.871 497.047 696.723 470.533 682.59C442.491 667.643 412.874 645.095 382.505 615.57C319.336 554.16 255.126 464.651 196.816 356.719C173.186 312.97 150.454 266.323 129.251 218.076C109.373 172.845 90.6007 125.665 73.4531 77.8516L74.0186 77.6489C91.161 125.45 109.93 172.616 129.801 217.836C150.997 266.07 173.723 312.701 197.344 356.435C255.625 464.314 319.797 553.774 382.922 615.141C413.252 644.626 442.823 667.14 470.816 682.062C498.849 697.004 524.894 704.115 548.227 703.193C567.386 702.437 584.633 696.226 599.489 684.729C614.791 672.89 627.643 655.372 637.688 632.661C649.416 606.153 655.865 569.705 656.852 524.334C657.803 480.74 653.717 429.457 644.71 371.91C635.888 315.545 622.527 254.285 604.996 189.83C587.421 125.212 566.048 58.822 541.467 -7.49119L542.031 -7.70068C566.616 58.6312 587.996 125.036 605.575 189.672C623.111 254.147 636.477 315.429 645.303 371.816C654.316 429.397 658.404 480.716 657.452 524.346C656.461 569.797 649.995 606.322 638.237 632.903C628.151 655.705 615.237 673.303 599.856 685.204C584.898 696.779 567.534 703.032 548.249 703.793C546.904 703.846 545.546 703.873 544.184 703.873L544.186 703.871Z" fill="url(#paint14_linear_1201_68947)"/>
<path id="Vector_16" d="M550.509 701.289C528.817 701.289 504.469 693.581 478.068 678.346C450.466 662.419 421.064 638.524 390.679 607.323C327.449 542.398 262.611 448.57 203.175 335.985C179.38 290.907 156.475 243.087 135.101 193.852C114.978 147.501 95.9974 99.4241 78.6914 50.9534L79.2398 50.7576C96.5424 99.2146 115.517 147.282 135.635 193.618C157.005 242.84 179.903 290.647 203.691 335.711C263.103 448.248 327.907 542.029 391.098 606.915C421.445 638.076 450.805 661.939 478.361 677.84C504.67 693.02 528.924 700.703 550.51 700.705C551.604 700.705 552.687 700.685 553.767 700.646C570.46 700.036 585.449 694.657 598.32 684.659C611.561 674.374 622.678 659.103 631.362 639.27C642.724 613.322 648.573 576.947 648.745 531.161C648.91 487.128 643.843 435.064 633.68 376.412C623.705 318.836 609.052 256.205 590.13 190.255C571.095 123.912 548.199 55.8279 522.079 -12.1118L522.623 -12.3213C548.749 55.6338 571.65 123.735 590.69 190.093C609.618 256.062 624.275 318.715 634.254 376.311C644.422 434.996 649.492 487.096 649.327 531.161C649.155 577.027 643.289 613.479 631.895 639.501C623.17 659.425 611.993 674.771 598.676 685.118C585.707 695.192 570.603 700.613 553.787 701.226C552.703 701.266 551.609 701.286 550.51 701.286L550.509 701.289Z" fill="url(#paint15_linear_1201_68947)"/>
<path id="Vector_17" d="M555.899 699.382C535.062 699.382 511.269 691.092 485.115 674.713C458.051 657.765 428.949 632.46 398.616 599.506C335.479 530.914 270.091 432.62 209.519 315.251C185.55 268.791 162.482 219.796 140.957 169.626C120.562 122.088 101.381 73.1066 83.9453 24.0397L84.4784 23.8507C101.909 72.9056 121.086 121.875 141.477 169.402C162.997 219.561 186.059 268.544 210.021 314.992C270.571 432.317 335.93 530.568 399.033 599.124C429.333 632.041 458.397 657.313 485.416 674.236C512.572 691.242 537.159 699.499 558.498 698.775C572.864 698.288 585.735 693.673 596.755 685.06C608.076 676.21 617.578 663.031 625.002 645.887C635.999 620.492 641.249 584.191 640.607 537.989C639.988 493.514 633.939 440.666 622.626 380.917C611.494 322.121 595.554 258.118 575.245 190.685C554.744 122.613 530.329 52.8302 502.675 -16.7207L503.201 -16.9302C530.861 52.6361 555.282 122.434 575.787 190.522C596.101 257.973 612.046 321.995 623.181 380.811C634.499 440.594 640.552 493.473 641.17 537.982C641.814 584.264 636.548 620.646 625.52 646.113C618.06 663.344 608.498 676.598 597.102 685.506C585.987 694.194 573.004 698.849 558.517 699.341C557.652 699.37 556.776 699.385 555.901 699.385L555.899 699.382Z" fill="url(#paint16_linear_1201_68947)"/>
<path id="Vector_18" d="M560.393 698.158C540.561 698.158 517.463 689.264 491.692 671.697C465.265 653.684 436.546 626.912 406.332 592.123C375.677 556.826 344.064 513.942 312.375 464.659C279.563 413.632 247.097 356.393 215.88 294.534C191.749 246.719 168.514 196.543 146.821 145.398C126.175 96.7232 106.783 46.844 89.1836 -2.85469L89.6997 -3.03693C107.295 46.6516 126.684 96.5206 147.325 145.185C169.013 196.318 192.243 246.485 216.368 294.288C247.579 356.131 280.035 413.352 312.836 464.364C344.512 513.625 376.108 556.491 406.746 591.767C436.93 626.52 465.615 653.26 492.002 671.247C517.679 688.749 540.675 697.611 560.395 697.613C561.083 697.613 561.764 697.602 562.444 697.58C574.637 697.194 585.54 693.278 594.848 685.942C604.398 678.416 612.415 667.177 618.676 652.535C629.295 627.689 633.94 591.454 632.478 544.834C631.07 499.903 624.037 446.271 611.578 385.427C599.285 325.393 582.057 260.019 560.374 191.12C538.402 121.298 512.466 49.8246 483.288 -21.3205L483.794 -21.5283C512.978 49.6304 538.918 121.121 560.895 190.957C582.584 259.874 599.816 325.267 612.113 385.318C624.579 446.191 631.613 499.855 633.023 544.817C634.488 591.517 629.83 627.83 619.178 652.749C612.881 667.477 604.81 678.789 595.187 686.372C585.784 693.78 574.775 697.735 562.461 698.125C561.778 698.147 561.088 698.158 560.396 698.158H560.393Z" fill="url(#paint17_linear_1201_68947)"/>
<path id="Vector_19" d="M563.943 697.503C545.278 697.503 523.04 687.979 497.807 669.172C472.164 650.059 443.944 621.751 413.931 585.037C383.551 547.874 351.954 502.847 320.016 451.203C286.996 397.814 254.1 338.121 222.237 273.783C197.847 224.235 174.462 172.877 152.733 121.138C131.645 70.9248 112.031 20.1514 94.4336 -29.7704L94.9326 -29.9458C112.525 19.9658 132.137 70.729 153.22 120.932C174.944 172.661 198.324 224.008 222.71 273.547C254.565 337.869 287.455 397.546 320.464 450.922C352.39 502.546 383.974 547.554 414.338 584.698C444.322 621.38 472.512 649.656 498.121 668.745C523.258 687.482 545.391 696.972 563.938 696.972C564.469 696.972 564.997 696.963 565.524 696.948C586.216 696.333 601.962 683.614 612.322 659.142C622.522 634.819 626.533 598.639 624.244 551.609C622.035 506.201 614.025 451.788 600.437 389.882C586.984 328.587 568.484 261.849 545.454 191.525C522.008 119.932 494.559 46.7653 463.871 -25.9416L464.36 -26.1477C495.053 46.5728 522.507 119.753 545.958 191.362C568.993 261.703 587.498 328.457 600.955 389.77C614.548 451.704 622.561 506.146 624.774 551.583C627.066 598.693 623.042 634.951 612.811 659.349C602.362 684.029 586.458 696.858 565.539 697.478C565.009 697.493 564.475 697.501 563.938 697.501L563.943 697.503Z" fill="url(#paint18_linear_1201_68947)"/>
<path id="Vector_20" d="M566.506 697.614C549.113 697.614 527.835 687.449 503.231 667.381C478.39 647.118 450.707 617.221 420.952 578.518C390.861 539.379 359.338 492.122 327.261 438.06C294.09 382.157 260.888 319.911 228.579 253.049C204.034 202.247 180.474 149.721 158.556 96.9324C137.273 45.677 117.462 -6.00073 99.6719 -56.6668L100.154 -56.8354C117.94 -6.17786 137.748 45.4914 159.028 96.7366C180.942 149.515 204.499 202.032 229.038 252.826C261.341 319.674 294.536 381.908 327.698 437.798C359.766 491.841 391.278 539.081 421.356 578.204C451.087 616.875 478.741 646.743 503.553 666.982C528.062 686.974 549.232 697.101 566.504 697.101C566.921 697.101 567.334 697.096 567.746 697.084C584.699 696.601 597.563 686.06 605.979 665.758C615.83 641.995 619.253 605.891 616.152 558.447C613.154 512.584 604.161 457.389 589.425 394.396C574.795 331.853 555.003 263.743 530.596 191.956C505.66 118.607 476.687 43.7439 444.485 -30.5571L444.953 -30.7598C477.162 43.5532 506.14 118.432 531.08 191.793C555.491 263.595 575.289 331.722 589.923 394.28C604.665 457.301 613.662 512.525 616.661 558.415C619.768 605.937 616.332 642.119 606.45 665.954C597.95 686.458 584.932 697.105 567.759 697.595C567.344 697.607 566.925 697.612 566.504 697.612L566.506 697.614Z" fill="url(#paint19_linear_1201_68947)"/>
</g>
<defs>
<linearGradient id="paint0_linear_1201_68947" x1="624.122" y1="723.671" x2="402.491" y2="248.382" gradientUnits="userSpaceOnUse">
<stop stop-color="white"/>
<stop offset="0.05" stop-color="#F7F7F7"/>
<stop offset="0.13" stop-color="#E3E3E3"/>
<stop offset="0.22" stop-color="#C1C1C1"/>
<stop offset="0.32" stop-color="#929292"/>
<stop offset="0.44" stop-color="#575757"/>
<stop offset="0.56" stop-color="#0F0F0F"/>
<stop offset="0.58"/>
<stop offset="0.97" stop-opacity="0"/>
</linearGradient>
<linearGradient id="paint1_linear_1201_68947" x1="622.075" y1="719.077" x2="397.346" y2="237.146" gradientUnits="userSpaceOnUse">
<stop stop-color="white"/>
<stop offset="0.05" stop-color="#F7F7F7"/>
<stop offset="0.13" stop-color="#E3E3E3"/>
<stop offset="0.22" stop-color="#C1C1C1"/>
<stop offset="0.32" stop-color="#929292"/>
<stop offset="0.44" stop-color="#575757"/>
<stop offset="0.56" stop-color="#0F0F0F"/>
<stop offset="0.58"/>
<stop offset="0.97" stop-opacity="0"/>
</linearGradient>
<linearGradient id="paint2_linear_1201_68947" x1="620.147" y1="714.736" x2="390.988" y2="223.303" gradientUnits="userSpaceOnUse">
<stop stop-color="white"/>
<stop offset="0.05" stop-color="#F7F7F7"/>
<stop offset="0.13" stop-color="#E3E3E3"/>
<stop offset="0.22" stop-color="#C1C1C1"/>
<stop offset="0.32" stop-color="#929292"/>
<stop offset="0.44" stop-color="#575757"/>
<stop offset="0.56" stop-color="#0F0F0F"/>
<stop offset="0.58"/>
<stop offset="0.97" stop-opacity="0"/>
</linearGradient>
<linearGradient id="paint3_linear_1201_68947" x1="618.306" y1="710.665" x2="381.667" y2="203.192" gradientUnits="userSpaceOnUse">
<stop stop-color="white"/>
<stop offset="0.05" stop-color="#F7F7F7"/>
<stop offset="0.13" stop-color="#E3E3E3"/>
<stop offset="0.22" stop-color="#C1C1C1"/>
<stop offset="0.32" stop-color="#929292"/>
<stop offset="0.44" stop-color="#575757"/>
<stop offset="0.56" stop-color="#0F0F0F"/>
<stop offset="0.58"/>
<stop offset="0.97" stop-opacity="0"/>
</linearGradient>
<linearGradient id="paint4_linear_1201_68947" x1="616.603" y1="706.886" x2="372.347" y2="183.076" gradientUnits="userSpaceOnUse">
<stop stop-color="white"/>
<stop offset="0.05" stop-color="#F7F7F7"/>
<stop offset="0.13" stop-color="#E3E3E3"/>
<stop offset="0.22" stop-color="#C1C1C1"/>
<stop offset="0.32" stop-color="#929292"/>
<stop offset="0.44" stop-color="#575757"/>
<stop offset="0.56" stop-color="#0F0F0F"/>
<stop offset="0.58"/>
<stop offset="0.97" stop-opacity="0"/>
</linearGradient>
<linearGradient id="paint5_linear_1201_68947" x1="615.086" y1="703.587" x2="362.997" y2="162.98" gradientUnits="userSpaceOnUse">
<stop stop-color="white"/>
<stop offset="0.05" stop-color="#F7F7F7"/>
<stop offset="0.13" stop-color="#E3E3E3"/>
<stop offset="0.22" stop-color="#C1C1C1"/>
<stop offset="0.32" stop-color="#929292"/>
<stop offset="0.44" stop-color="#575757"/>
<stop offset="0.56" stop-color="#0F0F0F"/>
<stop offset="0.58"/>
<stop offset="0.97" stop-opacity="0"/>
</linearGradient>
<linearGradient id="paint6_linear_1201_68947" x1="613.628" y1="700.385" x2="353.655" y2="142.872" gradientUnits="userSpaceOnUse">
<stop stop-color="white"/>
<stop offset="0.05" stop-color="#F7F7F7"/>
<stop offset="0.13" stop-color="#E3E3E3"/>
<stop offset="0.22" stop-color="#C1C1C1"/>
<stop offset="0.32" stop-color="#929292"/>
<stop offset="0.44" stop-color="#575757"/>
<stop offset="0.56" stop-color="#0F0F0F"/>
<stop offset="0.58"/>
<stop offset="0.97" stop-opacity="0"/>
</linearGradient>
<linearGradient id="paint7_linear_1201_68947" x1="612.245" y1="697.478" x2="344.266" y2="122.796" gradientUnits="userSpaceOnUse">
<stop stop-color="white"/>
<stop offset="0.05" stop-color="#F7F7F7"/>
<stop offset="0.13" stop-color="#E3E3E3"/>
<stop offset="0.22" stop-color="#C1C1C1"/>
<stop offset="0.32" stop-color="#929292"/>
<stop offset="0.44" stop-color="#575757"/>
<stop offset="0.56" stop-color="#0F0F0F"/>
<stop offset="0.58"/>
<stop offset="0.97" stop-opacity="0"/>
</linearGradient>
<linearGradient id="paint8_linear_1201_68947" x1="611.005" y1="694.865" x2="334.875" y2="102.703" gradientUnits="userSpaceOnUse">
<stop stop-color="white"/>
<stop offset="0.05" stop-color="#F7F7F7"/>
<stop offset="0.13" stop-color="#E3E3E3"/>
<stop offset="0.22" stop-color="#C1C1C1"/>
<stop offset="0.32" stop-color="#929292"/>
<stop offset="0.44" stop-color="#575757"/>
<stop offset="0.56" stop-color="#0F0F0F"/>
<stop offset="0.58"/>
<stop offset="0.97" stop-opacity="0"/>
</linearGradient>
<linearGradient id="paint9_linear_1201_68947" x1="609.853" y1="692.521" x2="325.47" y2="82.6577" gradientUnits="userSpaceOnUse">
<stop stop-color="white"/>
<stop offset="0.05" stop-color="#F7F7F7"/>
<stop offset="0.13" stop-color="#E3E3E3"/>
<stop offset="0.22" stop-color="#C1C1C1"/>
<stop offset="0.32" stop-color="#929292"/>
<stop offset="0.44" stop-color="#575757"/>
<stop offset="0.56" stop-color="#0F0F0F"/>
<stop offset="0.58"/>
<stop offset="0.97" stop-opacity="0"/>
</linearGradient>
<linearGradient id="paint10_linear_1201_68947" x1="608.825" y1="690.446" x2="316.044" y2="62.573" gradientUnits="userSpaceOnUse">
<stop stop-color="white"/>
<stop offset="0.05" stop-color="#F7F7F7"/>
<stop offset="0.13" stop-color="#E3E3E3"/>
<stop offset="0.22" stop-color="#C1C1C1"/>
<stop offset="0.32" stop-color="#929292"/>
<stop offset="0.44" stop-color="#575757"/>
<stop offset="0.56" stop-color="#0F0F0F"/>
<stop offset="0.58"/>
<stop offset="0.97" stop-opacity="0"/>
</linearGradient>
<linearGradient id="paint11_linear_1201_68947" x1="607.888" y1="688.633" x2="306.602" y2="42.5226" gradientUnits="userSpaceOnUse">
<stop stop-color="white"/>
<stop offset="0.05" stop-color="#F7F7F7"/>
<stop offset="0.13" stop-color="#E3E3E3"/>
<stop offset="0.22" stop-color="#C1C1C1"/>
<stop offset="0.32" stop-color="#929292"/>
<stop offset="0.44" stop-color="#575757"/>
<stop offset="0.56" stop-color="#0F0F0F"/>
<stop offset="0.58"/>
<stop offset="0.97" stop-opacity="0"/>
</linearGradient>
<linearGradient id="paint12_linear_1201_68947" x1="607.054" y1="687.129" x2="297.119" y2="22.471" gradientUnits="userSpaceOnUse">
<stop stop-color="white"/>
<stop offset="0.05" stop-color="#F7F7F7"/>
<stop offset="0.13" stop-color="#E3E3E3"/>
<stop offset="0.22" stop-color="#C1C1C1"/>
<stop offset="0.32" stop-color="#929292"/>
<stop offset="0.44" stop-color="#575757"/>
<stop offset="0.56" stop-color="#0F0F0F"/>
<stop offset="0.58"/>
<stop offset="0.97" stop-opacity="0"/>
</linearGradient>
<linearGradient id="paint13_linear_1201_68947" x1="606.33" y1="685.891" x2="287.633" y2="2.442" gradientUnits="userSpaceOnUse">
<stop stop-color="white"/>
<stop offset="0.05" stop-color="#F7F7F7"/>
<stop offset="0.13" stop-color="#E3E3E3"/>
<stop offset="0.22" stop-color="#C1C1C1"/>
<stop offset="0.32" stop-color="#929292"/>
<stop offset="0.44" stop-color="#575757"/>
<stop offset="0.56" stop-color="#0F0F0F"/>
<stop offset="0.58"/>
<stop offset="0.97" stop-opacity="0"/>
</linearGradient>
<linearGradient id="paint14_linear_1201_68947" x1="605.708" y1="684.94" x2="278.115" y2="-17.5842" gradientUnits="userSpaceOnUse">
<stop stop-color="white"/>
<stop offset="0.05" stop-color="#F7F7F7"/>
<stop offset="0.13" stop-color="#E3E3E3"/>
<stop offset="0.22" stop-color="#C1C1C1"/>
<stop offset="0.32" stop-color="#929292"/>
<stop offset="0.44" stop-color="#575757"/>
<stop offset="0.56" stop-color="#0F0F0F"/>
<stop offset="0.58"/>
<stop offset="0.97" stop-opacity="0"/>
</linearGradient>
<linearGradient id="paint15_linear_1201_68947" x1="605.176" y1="684.246" x2="268.577" y2="-37.5913" gradientUnits="userSpaceOnUse">
<stop stop-color="white"/>
<stop offset="0.05" stop-color="#F7F7F7"/>
<stop offset="0.13" stop-color="#E3E3E3"/>
<stop offset="0.22" stop-color="#C1C1C1"/>
<stop offset="0.32" stop-color="#929292"/>
<stop offset="0.44" stop-color="#575757"/>
<stop offset="0.56" stop-color="#0F0F0F"/>
<stop offset="0.58"/>
<stop offset="0.97" stop-opacity="0"/>
</linearGradient>
<linearGradient id="paint16_linear_1201_68947" x1="604.724" y1="683.83" x2="258.996" y2="-57.5867" gradientUnits="userSpaceOnUse">
<stop stop-color="white"/>
<stop offset="0.05" stop-color="#F7F7F7"/>
<stop offset="0.13" stop-color="#E3E3E3"/>
<stop offset="0.22" stop-color="#C1C1C1"/>
<stop offset="0.32" stop-color="#929292"/>
<stop offset="0.44" stop-color="#575757"/>
<stop offset="0.56" stop-color="#0F0F0F"/>
<stop offset="0.58"/>
<stop offset="0.97" stop-opacity="0"/>
</linearGradient>
<linearGradient id="paint17_linear_1201_68947" x1="604.372" y1="683.718" x2="249.383" y2="-77.5594" gradientUnits="userSpaceOnUse">
<stop stop-color="white"/>
<stop offset="0.05" stop-color="#F7F7F7"/>
<stop offset="0.13" stop-color="#E3E3E3"/>
<stop offset="0.22" stop-color="#C1C1C1"/>
<stop offset="0.32" stop-color="#929292"/>
<stop offset="0.44" stop-color="#575757"/>
<stop offset="0.56" stop-color="#0F0F0F"/>
<stop offset="0.58"/>
<stop offset="0.97" stop-opacity="0"/>
</linearGradient>
<linearGradient id="paint18_linear_1201_68947" x1="604.094" y1="683.81" x2="239.75" y2="-97.5296" gradientUnits="userSpaceOnUse">
<stop stop-color="white"/>
<stop offset="0.05" stop-color="#F7F7F7"/>
<stop offset="0.13" stop-color="#E3E3E3"/>
<stop offset="0.22" stop-color="#C1C1C1"/>
<stop offset="0.32" stop-color="#929292"/>
<stop offset="0.44" stop-color="#575757"/>
<stop offset="0.56" stop-color="#0F0F0F"/>
<stop offset="0.58"/>
<stop offset="0.97" stop-opacity="0"/>
</linearGradient>
<linearGradient id="paint19_linear_1201_68947" x1="603.865" y1="684.268" x2="230.018" y2="-117.448" gradientUnits="userSpaceOnUse">
<stop stop-color="white"/>
<stop offset="0.05" stop-color="#F7F7F7"/>
<stop offset="0.13" stop-color="#E3E3E3"/>
<stop offset="0.22" stop-color="#C1C1C1"/>
<stop offset="0.32" stop-color="#929292"/>
<stop offset="0.44" stop-color="#575757"/>
<stop offset="0.56" stop-color="#0F0F0F"/>
<stop offset="0.58"/>
<stop offset="0.97" stop-opacity="0"/>
</linearGradient>
</defs>
</svg>
