<?xml version="1.0" encoding="utf-8"?>
<!-- Generator: Adobe Illustrator 27.2.0, SVG Export Plug-In . SVG Version: 6.00 Build 0)  -->
<svg version="1.1" id="_ÎÓÈ_1" xmlns="http://www.w3.org/2000/svg" xmlns:xlink="http://www.w3.org/1999/xlink" x="0px" y="0px"
	 viewBox="0 0 5000 3000" style="enable-background:new 0 0 5000 3000;" xml:space="preserve">
<style type="text/css">
	.st0{clip-path:url(#SVGID_00000136409869601881026990000001155822893178802876_);}
	.st1{opacity:0.1;}
	.st2{fill:url(#SVGID_00000000923029854899351810000015668864094646604192_);}
	.st3{opacity:0.14;}
	.st4{fill:url(#SVGID_00000008838689950547876090000001734301506382009730_);}
	.st5{opacity:0.18;}
	.st6{fill:url(#SVGID_00000181780621003720134510000011599898308376850322_);}
	.st7{opacity:0.22;}
	.st8{fill:url(#SVGID_00000028305050240250573160000000910625799937659044_);}
	.st9{opacity:0.26;}
	.st10{fill:url(#SVGID_00000095304805760995584850000005907096785622847375_);}
	.st11{opacity:0.3;}
	.st12{fill:url(#SVGID_00000010292988194193215250000005706170681637179310_);}
	.st13{opacity:0.33;}
	.st14{fill:url(#SVGID_00000145751896374429529870000012312125762740519576_);}
	.st15{opacity:0.37;}
	.st16{fill:url(#SVGID_00000155112257733564464420000000567222757161614466_);}
	.st17{opacity:0.41;}
	.st18{fill:url(#SVGID_00000041998728241481627690000003205485979694516366_);}
	.st19{opacity:0.45;}
	.st20{fill:url(#SVGID_00000137817581009850469240000013033977280095089838_);}
	.st21{opacity:0.49;}
	.st22{fill:url(#SVGID_00000032633757956319854420000002668137753004333989_);}
	.st23{opacity:0.53;}
	.st24{fill:url(#SVGID_00000126304708983126339630000009030613573350870461_);}
	.st25{opacity:0.57;}
	.st26{fill:url(#SVGID_00000014612595058431012470000004693382991035085194_);}
	.st27{opacity:0.61;}
	.st28{fill:url(#SVGID_00000075866327462253351260000014784137733467762309_);}
	.st29{opacity:0.65;}
	.st30{fill:url(#SVGID_00000076599494098027165510000015395173657782162570_);}
	.st31{opacity:0.69;}
	.st32{fill:url(#SVGID_00000157286449287412414050000004382379301871532461_);}
	.st33{opacity:0.73;}
	.st34{fill:url(#SVGID_00000109743583286159035080000014012641226797803157_);}
	.st35{opacity:0.77;}
	.st36{fill:url(#SVGID_00000036935479483268281930000009661205676728862633_);}
	.st37{opacity:0.8;}
	.st38{fill:url(#SVGID_00000181774201011653954370000008893916296790262170_);}
	.st39{opacity:0.84;}
	.st40{fill:url(#SVGID_00000077322635715747830430000010548569215888564892_);}
	.st41{opacity:0.88;}
	.st42{fill:url(#SVGID_00000091698421091775834980000003155638404293908362_);}
	.st43{opacity:0.92;}
	.st44{fill:url(#SVGID_00000009565337040706054690000001401904803096555956_);}
	.st45{opacity:0.96;}
	.st46{fill:url(#SVGID_00000098943093217964369700000001327370409519126939_);}
	.st47{fill:url(#SVGID_00000088847580060407492220000017577125632613975466_);}
</style>
<g>
	<g>
		<g>
			<defs>
				<rect id="SVGID_1_" y="0" width="5000" height="3000"/>
			</defs>
			<clipPath id="SVGID_00000075875664238465455420000004692630728775926659_">
				<use xlink:href="#SVGID_1_"  style="overflow:visible;"/>
			</clipPath>
			<g style="clip-path:url(#SVGID_00000075875664238465455420000004692630728775926659_);">
				<g>
					<g class="st1">
						
							<linearGradient id="SVGID_00000161615855904439497090000006139651017944417968_" gradientUnits="userSpaceOnUse" x1="1003.9419" y1="2296.1733" x2="3001.2075" y2="298.9077">
							<stop  offset="0" style="stop-color:#1F4C67;stop-opacity:0"/>
							<stop  offset="0.8913" style="stop-color:#1F4C67;stop-opacity:0.8913"/>
							<stop  offset="1" style="stop-color:#1F4C67"/>
						</linearGradient>
						<path style="fill:url(#SVGID_00000161615855904439497090000006139651017944417968_);" d="M-899.5,171.5
							C-870.1,282-834.6,374.8-790.8,455c50.7,92.9,118.2,174.2,195.3,235.2c41,32.4,84.4,58.8,129,78.5c47.2,20.8,96,34.1,145,39.6
							c53.8,6,112.5,3.2,179.3-8.5c61-10.7,122.4-27.6,176.5-42.5l1556.4-428.2c319.5-87.9,683-166.4,954.2,15.2
							C2761,489,2835.3,749.5,2860.4,892c27.8,157.9,27.2,321.3,26.7,479.3c-0.2,55.5-0.4,112.9,0.6,169.2
							c9.5,518.8,133.8,933.4,369.2,1232.2c135.6,172.1,323.2,307.4,528.4,381c105.3,37.8,211.8,58.2,316.4,60.6
							c110.5,2.5,216.6-15.2,315.6-52.7c117.6-44.6,227.8-117.1,327.5-215.6c90.2-89.1,169.5-196.8,235.7-320.1
							c41.6-77.5,76.8-157.9,107.8-239.9l-0.7-0.3c-30.9,82-66.1,162.4-107.7,239.9c-139.9,260.7-339.8,450.8-562.8,535.4
							c-245.4,93-506,57-731.1-49.7c-170.6-80.8-320.8-202.3-428.4-338.9c-235.4-298.7-359.6-713.1-369.1-1231.7
							c-1-56.3-0.8-113.7-0.6-169.2c0.6-158.1,1.1-321.5-26.7-479.5c-9.7-54.9-23.1-108.3-39.9-158.7
							c-17.8-53.5-39.6-104-64.6-150.2c-55.3-101.9-126.5-182.4-211.4-239.3c-24.8-16.6-50.6-31.3-77.6-44.1
							c-107.7-51-234-72.3-383.4-64.9c-164,8.1-334.2,49.9-493.8,93.8L34.1,756.5c-109.8,30.2-234.1,64.4-355.5,50.9
							C-505.5,786.9-680.8,655-790.2,454.6c-98.4-180.3-135.5-385-171.4-582.9l-0.8,0.1C-945.4-34.7-926.2,71.1-899.5,171.5
							L-899.5,171.5L-899.5,171.5z"/>
					</g>
					<g class="st3">
						
							<linearGradient id="SVGID_00000050657911985978608740000012378320091463014324_" gradientUnits="userSpaceOnUse" x1="1057.4148" y1="2303.5574" x2="3044.1863" y2="316.7859">
							<stop  offset="0" style="stop-color:#1F4C67;stop-opacity:0"/>
							<stop  offset="0.8913" style="stop-color:#1F4C67;stop-opacity:0.8913"/>
							<stop  offset="1" style="stop-color:#1F4C67"/>
						</linearGradient>
						<path style="fill:url(#SVGID_00000050657911985978608740000012378320091463014324_);" d="M-833.8,169.3
							C-812.6,284-770.9,395.9-713.3,493c54.5,91.9,123,171.8,198.2,231c41,32.3,84,58.5,127.9,78.1c46.9,20.9,95.3,34.3,143.9,40
							c53.7,6.3,112.1,4,178.5-6.8c57.6-9.4,113.8-23.8,176-40.3c188-50,373.3-100.8,550.8-151.1
							c189.2-53.6,381.1-109.5,566.6-163.6c139.8-40.7,284.3-82.9,426.7-123.7c126.4-36.3,275.2-75.5,421.2-91
							c217-23,389.8,10.3,528.2,101.8c159.9,105.7,273.9,297.5,321,540.2c6.4,32.8,11.8,67.5,16.2,103.2
							c15.4,125.9,16.8,255.6,18.2,381c0.6,52.2,1.2,106.1,2.8,159.1c4.3,144.2,16.9,281.8,37.6,408.9
							c23.1,142.1,56.9,275.4,100.5,396.2c28,77.6,60.8,151.8,97.3,220.5c38.5,72.4,82.3,140.7,130.2,203
							c69.5,90.7,152.6,171.1,246.8,238.9c95.1,68.5,197.6,121.2,304.5,156.7c99.8,33.1,200.7,50.1,299.9,50.4
							c104.2,0.4,204.6-17.7,298.3-53.8c114.3-43.6,221.5-114.2,318.6-209.8c87.9-86.6,165.3-191.2,230-310.9
							c39.3-72.8,75.4-152.9,109.1-242.7l-1-0.4c-31.2,83-66.9,164.7-109,242.7c-136.7,252.9-331.3,437.7-548.1,520.3
							c-184.1,70.8-390.7,72-597.6,3.3c-214.3-71.2-410-211.6-550.8-395.3c-93.3-121.4-169.8-263.8-227.4-423.3
							c-82.5-228.7-129-499.4-138-804.8c-1.6-53-2.2-106.9-2.8-159.1c-1.4-125.5-2.8-255.2-18.2-381.2
							c-4.4-35.7-9.8-70.5-16.2-103.3c-10.5-54.3-24.7-107-42.2-156.9c-18.5-52.8-40.9-102.7-66.4-148.1
							c-56.4-100.4-128-179.7-212.8-235.8c-24-15.9-49.1-30-75.2-42.4c-124.7-59.1-274.1-78.6-453.6-59.6
							c-146.1,15.5-295,54.7-421.4,91.1c-142.3,40.8-286.9,82.9-426.7,123.7C1042.9,533.5,851,589.5,661.8,643
							C484.3,693.3,298.9,744.1,111,793.9C2.3,822.7-120.8,855.3-243.1,841c-179.3-20.9-350.3-148-469.3-348.6
							c-57.5-97-99.2-208.8-120.4-323.3c-23.7-126-26.4-250.9-26.2-345.7h-1C-860.3-81.7-857.5,43.2-833.8,169.3L-833.8,169.3
							L-833.8,169.3z"/>
					</g>
					<g class="st5">
						
							<linearGradient id="SVGID_00000134212535196211715320000017498808861818853530_" gradientUnits="userSpaceOnUse" x1="1110.4025" y1="2311.4326" x2="3087.1677" y2="334.6673">
							<stop  offset="0" style="stop-color:#1F4C67;stop-opacity:0"/>
							<stop  offset="0.8913" style="stop-color:#1F4C67;stop-opacity:0.8913"/>
							<stop  offset="1" style="stop-color:#1F4C67"/>
						</linearGradient>
						<path style="fill:url(#SVGID_00000134212535196211715320000017498808861818853530_);" d="M-769.6,161.5
							c8,64.6,23.8,129.6,47,193c22.6,61.9,51.8,121.3,86.8,176.6c27.8,43.9,58.3,85,90.8,122.1c34.7,39.7,71.6,75,109.8,104.8
							C-349.8,824.7-259,864.4-165,875.9c53.5,6.5,111.7,4.8,177.7-5.2c58.6-8.9,116.4-23.1,175.5-38.2
							c187.4-47.8,372-98.1,548.6-149.7c187.9-54.7,377.8-113.2,561.4-169.8c138.2-42.6,281.1-86.6,421.9-128.7
							c124.2-37.2,271-77.5,418.4-93.7c214.8-23.5,386.9,9.2,526.3,100.1c159.7,104.1,275.6,293.3,326.5,532.7
							c6.9,32.4,12.9,66.8,17.8,102.1c17.9,127.8,21.2,259.9,24.5,387.7c1.2,48.6,2.5,98.9,4.6,148.3
							c5.9,144.1,19.5,280.9,40.2,406.6c23.4,141.8,56.9,274.7,99.4,394.8c27.5,77.6,59.5,151.7,95.1,220.2
							c37.7,72.6,80.5,141,127.2,203.4c68.3,91.6,149.8,172.7,242.3,241c93.8,69.4,195.1,122.7,301.1,158.6
							c98.7,33.4,199,50.3,298.2,50.5c103.6,0.1,203.6-18.2,297.2-54.4c111.1-43,215.2-111.8,309.6-204.3
							c85.8-84.2,161.3-185.6,224.4-301.5c40-73.5,76.5-154.4,110.5-245.5l-0.9-0.4c-31.7,84.9-67.5,166.1-110.7,245.4
							c-132.9,244.2-322.4,423.6-533.4,505.3c-184.9,71.6-390.5,72.9-594.6,3.9c-211.4-71.5-404.1-213.3-542.8-399.2
							c-90.8-121.2-165.5-263.6-222.1-423.3c-81.2-229.3-126.8-491.4-139.6-801.1c-2.1-49.4-3.4-99.7-4.6-148.3
							c-3.2-127.8-6.6-259.9-24.5-387.8c-4.9-35.3-10.9-69.7-17.8-102.2c-23.8-111.8-61.7-213.2-112.8-301.1
							c-57.4-98.8-129.5-177-214.2-232.3c-23.1-15.1-47.5-28.7-72.8-40.7c-15.9-7.5-32.2-14.4-48.8-20.7
							c-40.7-15.3-84.4-26.9-129.9-34.5c-83.8-14.1-173.9-15.6-275.6-4.4c-147.5,16.1-294.4,56.4-418.7,93.7
							c-140.9,42-283.8,86.1-422,128.7C1114,568.5,924.1,627,736.2,681.7c-176.6,51.5-361.1,101.9-548.5,149.7
							c-125.6,32-238.8,57.3-352.7,43.3c-237.5-29-396.3-228.2-469.8-344.3c-71.5-113-117.7-240.6-133.7-369.1
							c-14.9-116.6-10.9-246.5,11.9-386.1l-1.2-0.2C-780.5-85.3-784.5,44.7-769.6,161.5L-769.6,161.5L-769.6,161.5z"/>
					</g>
					<g class="st7">
						
							<linearGradient id="SVGID_00000174573268415447166610000002350563351510416546_" gradientUnits="userSpaceOnUse" x1="1163.0383" y1="2319.7129" x2="3130.0261" y2="352.7253">
							<stop  offset="0" style="stop-color:#1F4C67;stop-opacity:0"/>
							<stop  offset="0.8913" style="stop-color:#1F4C67;stop-opacity:0.8913"/>
							<stop  offset="1" style="stop-color:#1F4C67"/>
						</linearGradient>
						<path style="fill:url(#SVGID_00000174573268415447166610000002350563351510416546_);" d="M-705.4,153.6
							c5.8,72.8,21.8,146.3,47.8,218.4c25,69.5,58.5,135.8,99.4,197.1c60.9,91.1,129,166.2,202.5,223.1
							c85.4,66.1,175.8,105.6,268.8,117.5c53.4,6.8,111.2,5.6,176.9-3.6c59.6-8.4,119.1-22.4,174.9-36
							c186.8-45.7,370.6-95.7,546.3-148.4c186.5-55.8,374.4-116.9,556.1-176c136.6-44.4,277.8-90.4,417.2-133.7
							c115-36,266.1-79.4,415.7-96.3c212.5-24,384,8.2,524.3,98.4c159.5,102.6,277.4,289.1,332,525.2c7.4,32.1,14,66.1,19.5,101
							c20.5,130,25.9,264.8,31.1,395.1c1.8,44.8,3.6,91.2,6.1,136.8c7.6,144,22,280.1,42.9,404.3c23.8,141.6,56.9,274,98.3,393.5
							c26.9,77.5,58.2,151.5,92.8,220c36.9,72.8,78.6,141.3,124.2,203.7c136.6,188.3,326.7,331.6,535.4,403.6
							c97.7,33.6,197.5,50.7,296.6,50.6c103,0,202.6-18.6,296-55.1c107.8-42.2,209-109,300.7-198.7c83.6-81.7,157.2-180,218.7-292.2
							c43.8-79.8,80.1-162.4,112.1-248.3l-1.3-0.6c-31.9,85.8-68.3,168.4-112,248.2c-129.5,235.9-313.7,410.1-518.7,490.3
							c-182.5,71.4-392.6,73-591.6,4.5c-208.4-71.9-398.3-215.1-534.7-403.1c-88.3-121-161.3-263.4-216.9-423.3
							c-78.6-226.5-124.8-487.3-141.2-797.5c-2.4-45.6-4.3-91.9-6.1-136.8c-5.2-130.4-10.6-265.2-31.1-395.2
							c-5.5-34.9-12.1-68.9-19.5-101.1c-25.6-110.5-64.9-210.5-117-297.3c-58.4-97.3-130.9-174.3-215.6-228.8
							c-22.3-14.3-45.6-27.2-69.8-38.7c-55.7-26.4-116.3-45.1-181-56c-82.7-13.8-175.1-15.2-274.5-3.9
							c-149.7,16.9-300.9,60.4-415.9,96.3c-139.4,43.3-280.7,89.2-417.3,133.7c-181.7,59.1-369.6,120.2-556.1,176
							C635.2,773,451.4,823,264.6,868.7C140.4,899,28.2,922.9-86.7,908.3c-171.5-21.9-338.6-142.7-470.4-340
							c-83.5-125-135.7-272.3-147-414.8c-13.7-172.2,19.7-326.9,50-426.5l-1.3-0.4C-685.8-173.7-719.1-18.8-705.4,153.6
							L-705.4,153.6L-705.4,153.6z"/>
					</g>
					<g class="st9">
						
							<linearGradient id="SVGID_00000086670594767182956570000010787713723882118299_" gradientUnits="userSpaceOnUse" x1="1215.458" y1="2328.1624" x2="3173.0103" y2="370.6101">
							<stop  offset="0" style="stop-color:#1F4C67;stop-opacity:0"/>
							<stop  offset="0.8913" style="stop-color:#1F4C67;stop-opacity:0.8913"/>
							<stop  offset="1" style="stop-color:#1F4C67"/>
						</linearGradient>
						<path style="fill:url(#SVGID_00000086670594767182956570000010787713723882118299_);" d="M-641.2,145.7
							c6.7,159,63.8,322.9,160.5,461.4c96.1,137.6,256.1,307.6,472,336.4c116,15.5,232-8.1,350.5-35.8
							c186.3-43.7,369.3-93.2,544-147.2c185.1-56.9,371-120.7,550.8-182.3c135-46.3,274.6-94.1,412.6-138.7
							c113.1-36.8,262.3-81.4,412.9-98.9c207.3-24.2,383.1,8.4,522.4,96.7C2943.8,538.4,3063.7,722.2,3122,955
							c7.9,31.8,15.1,65.5,21.1,99.9c23.3,132.4,30.8,270.1,38.1,403.3c2.2,40.8,4.5,82.9,7.2,124.4
							c20.1,311,66.8,570.7,142.8,794.2c26.4,77.5,56.9,151.4,90.6,219.7c36,72.9,76.8,141.6,121.2,204
							c134.3,190.5,321.6,335.3,527.4,407.6c96.7,33.9,195.9,51,295,50.8c102.5-0.2,201.7-19,294.8-55.9
							c104.5-41.4,202.7-106.3,291.7-193.1c81.4-79.2,153-174.5,213-282.9c44.4-80.4,81.3-164.4,113.4-251.1l-1.4-0.7
							c-32.1,86.7-69,170.7-113.4,251c-126,227.8-305,396.6-504,475.3c-182.8,72.3-391.8,74.1-588.7,5.1
							c-205.5-72.2-392.5-216.8-526.6-407c-85.9-120.8-157.1-263.2-211.6-423.3c-76-223.4-122.6-483-142.7-793.8
							c-2.7-41.5-5-83.7-7.2-124.4c-7.3-133.2-14.8-271-38.1-403.5c-6.1-34.5-13.2-68.2-21.2-100
							c-27.4-109.2-68.1-207.9-121.1-293.4c-59.4-95.8-132.4-171.6-217.1-225.3c-21.5-13.7-44-26-67.3-37.1
							c-56.3-26.7-117.5-45.6-182.8-56.5c-82.9-13.8-174.8-14.9-273.3-3.4c-150.8,17.6-300,62.1-413.2,99
							c-138,44.5-277.6,92.4-412.6,138.7c-179.8,61.7-365.7,125.4-550.8,182.3C710.5,812.8,527.5,862.4,341.3,906
							c-118.4,27.7-234.2,51.2-349.9,35.8c-215.4-28.7-375-198.4-471-335.7C-576,468-632.9,304.4-639.6,145.7
							c-6.5-154,24.8-319.8,88.1-466.8l-1.5-0.6C-616.4-174.5-647.7-8.5-641.2,145.7L-641.2,145.7L-641.2,145.7z"/>
					</g>
					<g class="st11">
						
							<linearGradient id="SVGID_00000152225761649910201780000011112809845426956170_" gradientUnits="userSpaceOnUse" x1="1267.5172" y1="2336.9136" x2="3215.9153" y2="388.5156">
							<stop  offset="0" style="stop-color:#1F4C67;stop-opacity:0"/>
							<stop  offset="0.8913" style="stop-color:#1F4C67;stop-opacity:0.8913"/>
							<stop  offset="1" style="stop-color:#1F4C67"/>
						</linearGradient>
						<path style="fill:url(#SVGID_00000152225761649910201780000011112809845426956170_);" d="M-543.1-134.2
							c-23.7,90.9-35.1,182.4-34,272.1c1.1,89.5,17.6,180.1,48.9,269.3c29.9,85,71.9,165.1,125,238
							c64.5,88.7,133.8,161.3,205.9,215.7C-111.8,925.4-22,964.5,69.6,977.3c53.1,7.4,110.5,7.3,175.3-0.3
							c58.7-6.9,118.3-19.3,173.8-31.7c185.7-41.7,368-90.8,541.7-145.9c183.7-58,367.6-124.4,545.6-188.5
							c133.4-48.1,271.3-97.9,407.8-143.6c111.4-37.7,258.6-83.4,410.1-101.6c205.1-24.7,380.2,7.3,520.4,95
							c159.2,99.6,281,280.8,343,510.2c8.5,31.5,16.1,64.8,22.8,98.8c26.3,135.1,36,276,45.4,412.4c2.5,36.4,5.1,74.1,8,111.2
							c11.2,146.5,27,277.3,48.2,399.8c24.5,141.2,56.8,272.7,96.2,390.8c53.2,159.3,122.7,301.9,206.6,423.8
							c65,94.5,142,177.7,228.8,247.3c90,72.2,187.8,127.5,290.6,164.3c95.7,34.2,194.4,51.3,293.3,50.9
							c101.9-0.4,200.7-19.4,293.6-56.6c101.3-40.5,196.4-103.6,282.8-187.4c79.1-76.8,148.9-168.9,207.4-273.7
							c42-75.4,79.9-158.9,115-253.9l-1.5-0.7c-32.2,87.2-69.5,172-115,253.7c-122.6,219.6-296.3,383.1-489.2,460.3
							c-183,73.2-391,75.2-585.7,5.7c-201.8-72.2-385.9-218.2-518.6-411c-83.8-121.7-153.2-264.2-206.4-423.3
							c-73.2-219.8-120.4-478.2-144.3-790.2c-2.9-37.1-5.5-74.8-8-111.2c-9.4-136.4-19.2-277.4-45.5-412.6
							c-6.6-34.1-14.3-67.4-22.8-99c-29.1-107.9-71.3-205.3-125.3-289.5c-60.4-94.2-133.9-168.8-218.5-221.8
							c-20.8-13-42.3-24.8-64.7-35.4c-57-27-118.9-46.1-184.7-57c-83-13.7-174.6-14.7-272.2-3c-151.7,18.2-299,63.9-410.5,101.6
							c-136.6,45.8-274.5,95.5-407.9,143.7c-177.9,64.2-361.8,130.5-545.5,188.5C786.2,852.8,604,901.8,418.3,943.5
							c-112.4,25.1-231.9,48.2-348.5,32C-98,952.2-261,837.6-401.7,644.1c-109.8-150.9-171.4-330.7-173.6-506.3
							c-2.1-170.8,43.9-355.7,126.1-507.2l-1.6-0.9C-489.6-298.6-521.6-217-543.1-134.2L-543.1-134.2L-543.1-134.2z"/>
					</g>
					<g class="st13">
						
							<linearGradient id="SVGID_00000016774945387419133570000006289100479961452725_" gradientUnits="userSpaceOnUse" x1="1319.4303" y1="2345.8262" x2="3258.7783" y2="406.4782">
							<stop  offset="0" style="stop-color:#1F4C67;stop-opacity:0"/>
							<stop  offset="0.8913" style="stop-color:#1F4C67;stop-opacity:0.8913"/>
							<stop  offset="1" style="stop-color:#1F4C67"/>
						</linearGradient>
						<path style="fill:url(#SVGID_00000016774945387419133570000006289100479961452725_);" d="M-465.2-166.1
							c-30.6,98.2-46.6,197.8-47.7,296.1c-1.4,97.9,15.1,197.1,49.2,294.8c32.4,92.9,78.8,179.8,138,258.4
							c65.8,87.4,135.6,158.8,207.4,212.2c85.5,63.6,175,102.5,266,115.7c118,17.1,236.6-4.6,347.8-28.3
							c185.1-39.6,366.6-88.3,539.5-144.7c182.3-59.1,364.3-128.1,540.3-194.8c131.8-50,268.1-101.6,403.2-148.6
							c101.1-35.6,253.4-85.1,407.3-104.2c202.8-25.1,377.3,6.3,518.5,93.3c159.1,98.1,282.8,276.6,348.5,502.7
							c9,31.2,17.2,64.1,24.4,97.8c29.5,138,41.6,282.6,53.2,422.5c2.6,31.8,5.4,64.6,8.3,97c13,147.1,29.7,277.1,50.9,397.5
							c25.2,143.1,56.3,270.5,95.1,389.5c52.1,159.4,119.9,302,201.3,423.8c63.9,95.5,139.3,179.4,224.2,249.4
							c88.6,73.1,185.3,129,287.2,166.2c193.1,70.2,400.6,68,584.1-6.3c98-39.7,190.1-100.8,273.8-181.7
							c76.9-74.3,144.7-163.3,201.7-264.4c46.3-82.4,84.2-168.7,116.5-256.6l-1.8-0.9c-32.3,87.9-70.1,174.2-116.4,256.5
							c-119.1,211.5-287.6,369.6-474.5,445.3c-183.1,74.1-390,76.3-582.7,6.3c-198.8-72.5-380.1-219.9-510.5-414.9
							c-81.4-121.7-149-264.1-201.1-423.3c-71.3-218.7-117.7-468.7-145.9-786.5c-2.9-32.4-5.6-65.2-8.3-97
							c-11.7-139.9-23.8-284.6-53.3-422.7c-7.2-33.7-15.4-66.6-24.5-97.9c-30.9-106.5-74.5-202.6-129.4-285.6
							c-61.4-92.7-135.4-166.1-219.9-218.2c-20-12.3-40.6-23.5-62-33.6c-57.7-27.3-120.2-46.6-186.8-57.5
							c-83.1-13.6-174.3-14.4-271-2.5c-65.1,8-132.8,21.6-207.1,41.4c-60.7,16.2-126.3,36.8-200.7,62.9
							c-135.1,47-271.4,98.7-403.2,148.6c-176,66.7-357.9,135.7-540.2,194.8C861.5,892.8,680,941.4,495,981
							c-111.1,23.6-229.4,45.3-347.1,28.2C-20,984.7-178.8,874.7-324,681.9c-121.5-161.3-189.6-362.5-186.9-552
							c2-189,61.8-388.6,164.2-547.6l-1.7-1.1C-396.7-343.6-437.1-256.3-465.2-166.1L-465.2-166.1L-465.2-166.1z"/>
					</g>
					<g class="st15">
						
							<linearGradient id="SVGID_00000008108739281674972100000011104091686006623630_" gradientUnits="userSpaceOnUse" x1="1371.4576" y1="2355.0139" x2="3302.1858" y2="424.2859">
							<stop  offset="0" style="stop-color:#1F4C67;stop-opacity:0"/>
							<stop  offset="0.8913" style="stop-color:#1F4C67;stop-opacity:0.8913"/>
							<stop  offset="1" style="stop-color:#1F4C67"/>
						</linearGradient>
						<path style="fill:url(#SVGID_00000008108739281674972100000011104091686006623630_);" d="M-387.1-198
							c-37.4,105.4-58.1,213.1-61.5,320.1c-3.8,106.4,12.9,214.2,49.6,320.4c17.4,50.3,39.2,99.7,64.8,146.8
							c25.2,46.4,54.2,90.8,86.2,131.9c147.5,189.6,307,298.5,474.1,323.7c119.2,17.9,241.4-3.3,346.5-24.5
							c184.6-37.6,365.3-85.8,537.2-143.4c183.6-61.1,366.3-133.8,543-204c127.6-50.7,259.6-103.2,390.5-150.7
							c162.1-58.9,286.9-91.8,404.6-106.8c200.6-25.6,374.3,5.2,516.5,91.6c159,96.6,284.7,272.5,354,495.2
							c9.6,30.9,18.4,63.4,26.1,96.7c32.9,141.3,47.5,290,61.6,433.7c2.6,26.7,5.3,54.4,8.1,81.6c14.9,148.1,32.4,277.3,53.5,395.2
							c25.6,143.1,56.3,270,94,388.1c51.1,159.6,117,302.2,196.1,423.9c62.6,96.4,136.6,181.1,219.7,251.6
							c87.3,74,182.8,130.6,283.8,168.1c93.8,34.7,191.4,52,290.1,51.2c100.9-0.7,198.9-20.3,291.3-58.1
							c94.7-38.8,183.8-98,264.9-176c74.6-71.9,140.6-157.7,196-255.2c43.5-76.6,82.3-161.8,118-259.4l-2-1
							c-32.4,88.4-70.8,176.3-117.9,259.3c-115.7,203.4-279,356.2-459.8,430.2c-183.2,75-389.1,77.4-579.7,6.9
							c-195.9-72.8-374.3-221.5-502.4-418.8c-78.9-121.6-144.8-264-195.8-423.4c-68.3-214-115.1-462.7-147.4-782.9
							c-2.8-27.2-5.5-54.9-8.1-81.6c-14.1-143.8-28.6-292.5-61.6-434c-7.8-33.3-16.6-65.8-26.1-96.8
							c-32.7-105.2-77.6-200-133.6-281.7c-62.4-91.1-136.8-163.4-221.3-214.7c-19.2-11.7-39.1-22.4-59.4-32
							c-130.7-61.9-284.6-82.1-458.5-59.9c-117.9,15-242.8,48-405,106.9c-130.9,47.5-262.9,100-390.5,150.7
							c-176.7,70.2-359.3,142.8-542.9,203.9C937.2,932.5,756.5,980.7,572,1018.2c-105,21.2-226.9,42.3-345.7,24.5
							C59.8,1017.7-99.2,909-246.3,719.9C-380.8,547-453.8,329.1-446.5,122.2c6.6-207.7,80.3-422,202.2-588l-1.8-1.3
							C-303.7-388.6-352.5-295.6-387.1-198L-387.1-198L-387.1-198z"/>
					</g>
					<g class="st17">
						
							<linearGradient id="SVGID_00000069357715939517792590000001907054532235249571_" gradientUnits="userSpaceOnUse" x1="1422.8585" y1="2364.1968" x2="3344.8777" y2="442.1776">
							<stop  offset="0" style="stop-color:#1F4C67;stop-opacity:0"/>
							<stop  offset="0.8913" style="stop-color:#1F4C67;stop-opacity:0.8913"/>
							<stop  offset="1" style="stop-color:#1F4C67"/>
						</linearGradient>
						<path style="fill:url(#SVGID_00000069357715939517792590000001907054532235249571_);" d="M-309.1-229.9
							c-21.5,54.6-38.7,110.9-51.3,167.4c-13.1,58.8-21.2,118.2-24.1,176.7c-3.1,58-0.2,117.3,8.5,176.2
							c8.4,57,22.3,114.1,41.4,169.8c18.6,54.3,42.1,107.5,69.9,158c27.4,49.9,59.1,97.3,94.1,141
							c67.8,84.6,138.4,153.7,210.1,205.3c85.5,61.6,174.6,100,264.6,114.1c52.8,8.2,109.3,9.7,172.9,4.6
							c61.7-5,121.7-15.6,172.2-25.3c184-35.5,364-83.3,534.9-142.2c182-62.2,362.6-137.4,537.2-210.2
							c126.2-52.6,256.7-106.9,386.3-155.8c99.2-37.4,248.8-89.4,401.8-109.5c198.3-26,371.4,4.2,514.6,89.9
							c159,95.2,286.7,268.4,359.5,487.7c10.1,30.6,19.4,62.8,27.8,95.6c36.7,145,53.9,298.1,70.4,446.2c2.4,21.3,4.9,43.3,7.3,65
							c25,220.7,64.6,508.8,149.1,779.7c50,159.8,114.2,302.4,190.9,423.9c61.4,97.5,133.8,182.8,215.2,253.7
							c86,74.9,180.3,132.1,280.3,170c92.9,35,189.9,52.3,288.4,51.4c100.4-0.9,198-20.7,290.1-58.9
							c91.5-37.9,177.6-95.2,255.9-170.3c72.4-69.4,136.4-152.1,190.3-245.9c44.3-77.2,83.5-163.2,119.6-262.1l-2.1-1
							c-33.8,93-72.2,179.3-119.6,261.9c-112.3,195.4-270.4,342.8-445.1,415.2c-183.3,75.9-388.1,78.6-576.7,7.4
							c-195.8-74.1-366.7-220.3-494.3-422.7c-76.5-121.4-140.6-263.8-190.6-423.4c-84.5-270.6-124-558.6-149-779.2
							c-2.5-21.7-5-43.7-7.4-65c-16.6-148.2-33.8-301.4-70.5-446.5c-8.3-32.9-17.7-65.1-27.8-95.7
							c-34.4-103.8-80.8-197.3-137.8-277.9c-63.4-89.6-138.3-160.6-222.7-211.2c-18.4-11-37.4-21.1-56.8-30.4
							c-131.8-62.5-286-82.6-459.3-59.9c-64.6,8.5-131.5,22.7-204.5,43.4c-60,17-124.6,38.7-197.8,66.2
							c-129.6,48.8-260.2,103.2-386.4,155.8c-174.6,72.7-355.1,147.9-537,210.1c-170.8,58.8-350.7,106.6-534.6,142.1
							c-128.6,24.6-236.4,37.6-344.3,20.7c-165.4-25.9-324.6-133-473.2-318.5C-316.2,573.6-394,339.1-382.1,114.4
							C-370.9-112-283.3-341-141.8-514l-1.9-1.5C-210.6-433.7-267.8-334.9-309.1-229.9L-309.1-229.9L-309.1-229.9z"/>
					</g>
					<g class="st19">
						
							<linearGradient id="SVGID_00000021838965309708352900000005904871430447444890_" gradientUnits="userSpaceOnUse" x1="1474.3231" y1="2373.7612" x2="3387.6921" y2="460.3922">
							<stop  offset="0" style="stop-color:#1F4C67;stop-opacity:0"/>
							<stop  offset="0.8913" style="stop-color:#1F4C67;stop-opacity:0.8913"/>
							<stop  offset="1" style="stop-color:#1F4C67"/>
						</linearGradient>
						<path style="fill:url(#SVGID_00000021838965309708352900000005904871430447444890_);" d="M-231.1-261.8
							C-255.9-203.7-276-143.6-290.9-83c-15.5,62.9-25.4,126.6-29.5,189.3c-4.2,62.3-2,126,6.8,189.4c8.5,61.2,23,122.6,43.3,182.3
							c19.8,58.3,45,115.2,75.1,169.2c29.7,53.3,64.1,103.8,102.1,150.1c68.4,83.1,139.6,151,211.3,201.9
							c85.5,60.6,174.4,98.7,264,113.3c115.9,18.8,233.8,3,343.8-16.9c183.5-33.4,362.7-80.9,532.6-140.9
							c180.5-63.3,358.9-141.1,531.4-216.4c124.8-54.4,253.8-110.7,382.2-160.8c155.6-60.7,282.3-96.4,399-112.1
							c196-26.5,368.4,3.2,512.6,88.2c159,93.8,288.6,264.3,365,480.3c10.6,30.3,20.6,62.1,29.4,94.5c40.7,149,59.8,300.1,80,460.1
							c2,15.6,3.9,31.2,5.9,46.9c29.9,237.6,71.2,515.5,150.6,776c49,160,111.4,302.6,185.6,424c60.2,98.5,131.1,184.5,210.6,255.8
							c84.6,75.8,177.8,133.6,276.9,171.9c91.9,35.3,188.4,52.7,286.8,51.6c99.9-1.1,197.1-21.1,288.9-59.6
							c88.2-37,171.3-92.4,247-164.6c70.1-66.9,132.2-146.6,184.6-236.7c49.1-84.5,88.3-174,121.2-264.8l-2.4-1.1
							c-32.9,90.8-72.1,180.2-121.1,264.7c-108.9,187.4-261.7,329.5-430.4,400.2c-183.3,76.9-387,79.7-573.8,8
							c-192.9-74.4-361.1-221.9-486.3-426.6c-74.1-121.1-136.4-263.6-185.4-423.4c-79.4-260.3-120.6-538.2-150.6-775.6
							c-2-15.6-4-31.3-5.9-46.9c-20.2-160.1-39.3-311.3-80.1-460.5c-8.9-32.5-18.8-64.3-29.5-94.7c-36.2-102.4-84-194.6-142-274
							c-64.3-88-139.7-157.9-224.1-207.7c-17.3-10.2-35.1-19.6-53.3-28.3c-60-28.4-124.8-48.3-193.4-59.3
							c-83.5-13.4-173.5-13.7-267.6-1c-116.9,15.8-243.8,51.4-399.6,112.2c-128.4,50.1-257.4,106.4-382.3,160.9
							c-172.5,75.2-350.8,153-531.2,216.3c-169.8,60-348.9,107.4-532.2,140.8c-109.8,19.9-227.4,35.7-343,16.9
							C218.2,1083.2,58.7,977.5-91,795.6c-160.7-195.1-243.3-446.3-226.7-689.2C-302-134.8-197.9-384.8-39.4-562.2l-1.9-1.7
							C-117.5-478.7-183.1-374.2-231.1-261.8L-231.1-261.8L-231.1-261.8z"/>
					</g>
					<g class="st21">
						
							<linearGradient id="SVGID_00000029760029915525961210000011868466147258969484_" gradientUnits="userSpaceOnUse" x1="1526.8893" y1="2384.4817" x2="3432.1357" y2="479.2353">
							<stop  offset="0" style="stop-color:#1F4C67;stop-opacity:0"/>
							<stop  offset="0.8913" style="stop-color:#1F4C67;stop-opacity:0.8913"/>
							<stop  offset="1" style="stop-color:#1F4C67"/>
						</linearGradient>
						<path style="fill:url(#SVGID_00000029760029915525961210000011868466147258969484_);" d="M-153-293.7
							c-28.1,61.6-51.1,125.5-68.2,190.2C-239-36.6-250.7,31.4-256,98.5c-5.4,66.6-3.7,134.8,5.1,202.5
							c8.5,65.6,23.7,131.1,45.2,194.9c21,62.3,48,123,80.2,180.4c31.9,56.8,69,110.4,110.2,159.1c69,81.6,140.5,148.4,212.5,198.6
							c85.5,59.5,174.1,97.3,263.5,112.4c52.6,8.8,108.6,11.4,171.3,7.8c49.8-2.8,102.5-9.3,171.2-21
							c182.9-31.4,361.3-78.4,530.4-139.7c178.9-64.4,355.1-144.8,525.6-222.5c123.4-56.3,251-114.5,378-165.9
							c153.5-62.1,279.4-98.5,396.2-114.7c193.6-26.9,365.4,2.2,510.6,86.5c203.9,118.4,314,322.5,370.4,472.8
							c11.2,30,21.6,61.4,31.1,93.4c45.1,153.5,67,310,90.2,475.7c1.3,9,2.5,18.1,3.8,27.1c15.9,114.4,35.6,250,61.4,388.3
							c26.9,143.7,56.6,269.4,90.8,384.1c23,76.9,49,150.2,77.4,217.9c30.9,73.6,65.5,143,102.9,206.1
							c123.1,207.6,288.9,356.8,479.6,431.7c91,35.6,187,53,285.2,51.8c99.4-1.2,196.2-21.6,287.7-60.4
							c84.9-36.1,165-89.5,238.1-158.9c67.9-64.5,128.1-141,178.9-227.5c45.1-76.8,84.6-162.3,120.6-261.4c0.8-2.1,1.5-4.1,2.2-6.2
							l-2.6-1.2c-32.8,90.9-72.6,182.1-122.6,267.4c-105.5,179.4-253.1,316.2-415.7,385.2c-183.2,77.8-386,80.9-570.8,8.6
							c-190.1-74.6-355.5-223.5-478.2-430.5c-71.6-120.8-132.2-263.3-180.1-423.4c-74.1-248.9-116.9-518.1-152.1-772
							c-1.3-9.1-2.5-18.1-3.8-27.1c-23.2-165.8-45.1-322.4-90.3-476.1c-9.4-32.1-19.9-63.6-31.1-93.6
							c-37.9-101-87.1-191.9-146.1-270.1c-65.3-86.5-141.2-155.2-225.5-204.1c-16.3-9.5-33.1-18.3-50.2-26.4
							c-60.9-28.8-126.5-49-195.8-60c-83.6-13.3-173.2-13.5-266.5-0.5c-117.1,16.2-243.2,52.7-396.9,114.9
							c-127.1,51.4-254.7,109.6-378.1,165.9c-170.4,77.7-346.5,158.1-525.4,222.5c-168.9,61.2-347.2,108.2-529.9,139.5
							c-108.4,18.4-224.8,32.8-341.6,13.2c-164.3-27.6-323.9-131.9-474.4-310c-171.3-202.6-261-477.3-240-734.8
							c18.8-238.6,120.4-482,274.8-663.2l-2.6-1.2C-48.8-486.2-107.6-393.2-153-293.7L-153-293.7L-153-293.7z"/>
					</g>
					<g class="st23">
						
							<linearGradient id="SVGID_00000052095502857840588990000011228705816070380705_" gradientUnits="userSpaceOnUse" x1="1580.0232" y1="2396.3867" x2="3477.0049" y2="499.4052">
							<stop  offset="0" style="stop-color:#1F4C67;stop-opacity:0"/>
							<stop  offset="0.8913" style="stop-color:#1F4C67;stop-opacity:0.8913"/>
							<stop  offset="1" style="stop-color:#1F4C67"/>
						</linearGradient>
						<path style="fill:url(#SVGID_00000052095502857840588990000011228705816070380705_);" d="M-151.7-124
							c-20.2,71-33.7,143.2-40.2,214.6c-6.6,71-5.5,143.5,3.4,215.7c8.6,69.9,24.4,139.7,47,207.5
							C-97.3,646.3-26.9,770.6,62.1,873.4c69.4,80,141.2,145.8,213.7,195.3c85.4,58.4,173.9,95.9,263,111.4
							c118.8,20.7,239.1,6.9,341.2-9.4c182.3-29.3,360-75.9,528.1-138.4c177.3-65.5,351.4-148.5,519.8-228.7
							c122-58.2,248.1-118.3,373.8-170.9c151.4-63.4,276.4-100.7,393.4-117.3c191.3-27.3,362.5,1.3,508.7,84.8
							c204.1,116.7,317.1,317.4,375.9,465.3c11.7,29.7,22.8,60.7,32.7,92.3c50,158.6,74.9,321.1,101.3,493.2l0.8,5.5
							c40,264.1,81.9,521.6,153.8,768.8c22.4,76.9,47.8,150.1,75.2,217.6c30,73.8,63.7,143.3,99.9,206.5
							c57.7,100.5,125.5,188,201.5,260.1c81.9,77.6,172.7,136.7,270.1,175.6c44.7,17.8,91.6,31.3,139.2,40
							c47.4,8.7,96,12.7,144.4,12c98.9-1.4,195.3-22,286.5-61.2c81.7-35.1,158.8-86.6,229.1-153.1c65.6-62,123.9-135.4,173.2-218.3
							c44-74,82.5-156.1,117.5-250.9c2.4-6.4,4.7-12.8,7-19.3l-2.7-1.3c-32.6,91-72.8,183.1-124.4,270
							c-102.1,171.4-244.5,302.9-401,370.2c-180.5,77.6-387.5,81-567.8,9.2c-15-6-29.8-12.5-44.5-19.4
							c-168.6-79.9-315-222.5-425.6-415c-69.2-120.5-128-262.9-174.9-423.4c-71.8-247-113.7-504.4-153.7-768.4l-0.9-5.5
							C3690,1478.5,3665,1315.8,3615,1157c-10-31.7-21-62.8-32.8-92.5c-39.6-99.7-90.2-189.2-150.3-266.2
							c-66.2-84.9-142.6-152.4-226.9-200.6c-15.3-8.8-31-16.9-47-24.5c-61.8-29.3-128.3-49.7-198.3-60.7
							c-83.6-13.2-172.9-13.2-265.3,0c-117.2,16.7-242.5,54.1-394.1,117.5c-125.8,52.7-252,112.8-374,171
							c-168.3,80.2-342.3,163.2-519.5,228.6c-167.9,62.4-345.4,109-527.5,138.3c-101.8,16.2-221.8,30-340.2,9.4
							c-164.2-28.6-324-131.5-474.9-305.7C-120.1,658.8-214.8,367-189.1,91c20.6-226.5,112.6-454.8,252.7-635.3l-2.7-1.3
							C9-478.6-37-404.2-75-325.6C-106.4-260.5-132.2-192.7-151.7-124L-151.7-124L-151.7-124z"/>
					</g>
					<g class="st25">
						
							<linearGradient id="SVGID_00000021105724302192518350000007906921400265110433_" gradientUnits="userSpaceOnUse" x1="1633.5624" y1="2408.9424" x2="3522.9026" y2="519.6021">
							<stop  offset="0" style="stop-color:#1F4C67;stop-opacity:0"/>
							<stop  offset="0.8913" style="stop-color:#1F4C67;stop-opacity:0.8913"/>
							<stop  offset="1" style="stop-color:#1F4C67"/>
						</linearGradient>
						<path style="fill:url(#SVGID_00000021105724302192518350000007906921400265110433_);" d="M-82.2-144.5
							C-104.7-69.4-120,7-127.7,82.7c-7.8,75.3-7.3,152.3,1.6,228.9c8.6,74.3,25,148.4,48.8,220.2c46.7,140.9,121.7,272.2,217,379.7
							c151.6,170.9,312.2,272.7,477.4,302.5c52.5,9.4,108,13.1,169.7,11.1c50.3-1.6,104.4-6.9,170.1-16.7
							c181.8-27.3,358.7-73.4,525.9-137.2c175.8-66.5,347.7-152.1,514-234.9c120.6-60,245.2-122.1,369.7-176
							c149.4-64.7,273.5-102.8,390.6-120c186.3-27.3,361.5,1.5,506.8,83.2c204.3,114.9,320.2,312.4,381.4,457.8
							c12.3,29.3,23.9,60,34.4,91.2c55.2,163.8,84.4,339.5,110.2,494.6l1.3,7.6c41.4,251.1,84.1,510.7,154.1,757.5
							c21.9,77,46.5,150.1,73,217.3c29.2,74.1,61.8,143.6,96.9,206.8c56.5,101.6,122.7,189.8,197,262.2
							c80.5,78.5,170.2,138.2,266.7,177.5c44.3,18,90.9,31.5,138.3,40.3c47.1,8.7,95.5,12.7,143.7,11.9c48.4-0.8,97-6.4,144.5-16.6
							c48.1-10.4,95.5-25.7,140.8-45.4c78.4-34.2,152.5-83.8,220.2-147.4c63.3-59.5,119.7-129.9,167.5-209.1
							c53.1-88.1,93.9-182.3,126.2-272.9l-2.9-1.4c-32.3,90.6-73.1,184.7-126.1,272.6c-98.7,163.6-235.9,289.7-386.3,355.2
							c-180.4,78.6-386.2,82.1-564.8,9.8c-184.6-75.2-344.4-226.7-462-438.3c-67.7-121.7-123.1-260.2-169.6-423.4
							c-69.9-246.6-112.7-506.2-154-757.1l-1.3-7.6c-25.8-155.2-55.1-331-110.4-495.1c-10.5-31.3-22.1-62-34.5-91.4
							c-41.4-98.2-93.3-186.5-154.5-262.3c-67.2-83.3-144-149.6-228.4-197.1c-14.3-8-28.8-15.5-43.6-22.5
							c-62.8-29.8-130.2-50.4-201-61.5c-83.7-13.1-172.6-12.9-264.2,0.5c-117.4,17.2-241.7,55.4-391.4,120.2
							c-124.6,54-249.3,116-369.8,176.1c-166.2,82.7-338,168.3-513.7,234.8c-166.9,63.7-343.7,109.8-525.2,137
							c-94.4,14-218.3,27.3-338.8,5.6c-164.4-29.7-324.4-131.1-475.5-301.4C-55.4,686.7-155,377.8-124.5,83
							c21.8-214.8,105.1-429.3,231.8-606.9l-2.9-1.3C66.8-472.5,32.7-416.2,3-357.5C-31.6-288.9-60.3-217.2-82.2-144.5L-82.2-144.5
							L-82.2-144.5z"/>
					</g>
					<g class="st27">
						
							<linearGradient id="SVGID_00000107551053179395987120000015892536861902497955_" gradientUnits="userSpaceOnUse" x1="1687.3171" y1="2421.99" x2="3568.7031" y2="540.6038">
							<stop  offset="0" style="stop-color:#1F4C67;stop-opacity:0"/>
							<stop  offset="0.8913" style="stop-color:#1F4C67;stop-opacity:0.8913"/>
							<stop  offset="1" style="stop-color:#1F4C67"/>
						</linearGradient>
						<path style="fill:url(#SVGID_00000107551053179395987120000015892536861902497955_);" d="M-12.6-165
							C-37.5-85.9-54.6-5.2-63.5,74.8c-9,79.7-9.1,161.1-0.2,242.1c8.6,78.7,25.6,157,50.5,232.9
							c49.1,149.5,128.8,287.7,230.4,399.7c151.5,167,312.3,267.3,478,298.2c122.4,22.8,245.2,11,338.5-1.8
							c181.2-25.2,357.4-71,523.6-135.9c174.2-67.6,344-155.8,508.2-241.1C2184.6,807,2307.8,743,2431,687.8
							c147.5-66,270.7-105,387.8-122.6c183.9-27.6,358.5,0.5,504.8,81.5c204.6,113.2,323.3,307.4,386.9,450.4
							c12.8,29,25,59.3,36,90.1c55.8,155.6,87.9,320.8,118.4,490.4c4.5,25.3,9,50.7,13.5,76.1c40.1,226.9,81.6,461.6,143.4,685.3
							c45.5,164,99.4,302.8,164.7,424.2c55.2,102.6,119.9,191.6,192.4,264.4c79.1,79.4,167.6,139.8,263.3,179.4
							c43.9,18.1,90.1,31.8,137.4,40.6c46.8,8.7,94.9,12.7,143,11.9c48.2-0.9,96.6-6.6,143.9-16.9c47.9-10.5,95.1-26,140.1-45.9
							c75.1-33.2,146.2-80.8,211.3-141.6c61-57,115.5-124.3,161.8-199.9c41.8-68.4,78.2-143.7,111.3-230.1
							c5.7-14.8,11.2-29.9,16.7-45.5l-3.1-1.4c-37.5,106.6-78.9,195.2-127.8,275.3c-96.8,157.9-225.2,275.6-371.6,340.2
							c-180.2,79.6-384.9,83.4-561.8,10.4c-182-75.4-338.9-228.3-454-442.2c-65.2-121.2-118.9-259.7-164.4-423.5
							c-61.8-223.5-103.2-458.1-143.3-685c-4.5-25.5-9-50.9-13.5-76.2c-30.5-169.8-62.6-335.2-118.5-491
							c-11.1-30.9-23.3-61.3-36.1-90.4C3670.5,999,3617.2,912,3555,837.4c-68.1-81.8-145.4-146.9-229.8-193.5
							c-13.1-7.3-26.5-14.1-40.1-20.5c-63.8-30.2-132.2-51.2-203.9-62.3c-83.8-13-172.3-12.7-263,1
							c-117.4,17.6-240.9,56.7-388.7,122.9c-123.3,55.2-246.5,119.2-365.7,181.1C1899.7,951.3,1730,1039.5,1556,1107
							c-166,64.9-341.9,110.6-522.9,135.7c-93,12.8-215.5,24.6-337.4,1.8c-164.9-30.8-325.1-130.7-476.1-297.2
							C9.1,715.1-95.5,389.1-60.1,75.2c22.5-203.2,97.9-404.9,212-577.8l-3-1.4c-24.4,36.9-47.1,75.2-67.9,114.7
							C43.1-317.3,11.6-241.8-12.6-165L-12.6-165L-12.6-165z"/>
					</g>
					<g class="st29">
						
							<linearGradient id="SVGID_00000077288009758530840960000000896751037963669180_" gradientUnits="userSpaceOnUse" x1="1741.424" y1="2435.5923" x2="3615.3579" y2="561.6583">
							<stop  offset="0" style="stop-color:#1F4C67;stop-opacity:0"/>
							<stop  offset="0.8913" style="stop-color:#1F4C67;stop-opacity:0.8913"/>
							<stop  offset="1" style="stop-color:#1F4C67"/>
						</linearGradient>
						<path style="fill:url(#SVGID_00000077288009758530840960000000896751037963669180_);" d="M57-185.5
							C29.7-102.3,10.8-17.4,0.7,66.9c-10.2,84-10.9,170-2,255.4c8.6,83.1,26.1,165.8,52.2,245.6C102.4,726,186.8,871.1,294.8,987.6
							c69.9,75.3,142.9,137.7,217.1,185.6c85.2,54.9,173.2,91.4,261.6,108.4c52.4,10.1,107.4,14.8,168.1,14.3
							c50.8-0.4,106.1-4.4,169.1-12.4c180.7-23.2,356.1-68.5,521.4-134.7c172.7-68.7,340.3-159.5,502.4-247.3
							c117.7-63.8,239.4-129.7,361.4-186.1c145.5-67.4,267.9-107.2,385-125.2c181.6-28,355.5-0.4,502.9,79.8
							c205,111.6,326.5,302.4,392.4,442.9c13.4,28.7,26.1,58.7,37.7,89c60.8,159.2,95.8,327.5,126.5,486.3
							c9,47.1,18.1,95.5,26.8,142.4c38.1,203.6,77.4,414.1,131.6,615.4c44.5,164.7,96.6,303.4,159.4,424.2
							c53.9,103.7,117.1,193.4,187.8,266.5c77.7,80.3,165.1,141.3,259.9,181.3c176.1,74,380.8,70,561.7-11
							c71.9-32.2,140-77.9,202.4-135.9c58.7-54.5,111.2-118.7,156.1-190.8c49.7-80,92.1-170.7,129.7-278.2l-3.3-1.6
							c-37.6,107.4-79.9,198-129.5,277.9c-93.4,150-216.8,262.5-356.9,325.2c-179.9,80.6-383.6,84.6-558.8,10.9
							c-181.9-76.8-331.9-226.9-445.9-446.1c-62.6-120.6-114.7-259.1-159.1-423.5c-54.1-201.2-93.5-411.6-131.6-615.1
							c-8.8-46.8-17.8-95.3-26.8-142.4c-30.7-158.9-65.8-327.4-126.6-486.9c-11.6-30.5-24.4-60.5-37.8-89.3
							c-44.7-95.4-99.5-181-162.8-254.5c-69-80.2-146.8-144.1-231.2-190c-11.9-6.5-24.1-12.7-36.3-18.5
							c-64.9-30.8-134.4-52-206.9-63.1c-83.9-12.9-172-12.4-261.9,1.5c-117.5,18.1-240.1,58-386,125.5
							c-122,56.5-243.8,122.4-361.6,186.2c-162,87.7-329.5,178.5-502,247.1c-165,66.1-340.1,111.3-520.5,134.5
							c-136,17.2-239.7,16.6-336-1.9c-165.6-31.9-326-130.4-476.7-292.9C73.5,743.7-36.1,400.7,4.3,67.4
							c22.9-191.7,91-381.3,193.4-548.4l-3.1-1.5c-12.3,20.1-24.1,40.5-35.5,61.2C117.8-345.7,83.5-266.4,57-185.5L57-185.5
							L57-185.5z"/>
					</g>
					<g class="st31">
						
							<linearGradient id="SVGID_00000085234668435228400840000013279025885393621943_" gradientUnits="userSpaceOnUse" x1="1795.7723" y1="2449.762" x2="3662.2173" y2="583.3171">
							<stop  offset="0" style="stop-color:#1F4C67;stop-opacity:0"/>
							<stop  offset="0.8913" style="stop-color:#1F4C67;stop-opacity:0.8913"/>
							<stop  offset="1" style="stop-color:#1F4C67"/>
						</linearGradient>
						<path style="fill:url(#SVGID_00000085234668435228400840000013279025885393621943_);" d="M126.5-206.1
							C96.9-118.7,76.2-29.5,64.9,59.1C53.5,147.5,52.2,237.9,61,327.8c8.6,87.6,26.7,174.5,53.9,258.4
							c54,166.8,143.1,318.7,257.5,439.5c69.9,73.7,143.2,135.1,218.2,182.4c85,53.7,172.8,89.8,261.1,107.4
							c96.7,19.2,203.4,21,335.8,5.7c180.1-21.1,354.8-66,519.1-133.4c171.1-69.8,336.6-163.2,496.6-253.5
							c116.3-65.6,236.5-133.5,357.2-191.2c143.7-68.7,265.1-109.3,382.2-127.9c179.2-28.3,352.4-1.3,500.9,78.1
							c205.4,109.9,329.8,297.5,397.9,435.4c13.9,28.4,27.2,58,39.4,88c59.1,146.1,96.6,298.4,134.6,482.1
							c14,68.1,27.7,138.5,41,206.6c35.4,181,72,368.1,119,547.6c43.5,165.4,93.9,304.2,154.2,424.2
							c52.6,104.8,114.2,195.1,183.3,268.7c76.3,81.2,162.5,142.8,256.5,183.2c43.1,18.5,88.7,32.3,135.5,41.2
							c46.3,8.8,93.9,12.7,141.7,11.7c47.8-1,95.8-6.9,142.8-17.6c47.5-10.8,94.3-26.6,138.9-46.9c68.6-31.2,133.7-74.9,193.5-130.1
							c56.5-52.1,107-113.2,150.4-181.6c39.7-62.8,74-131.2,105.1-209.2c9.2-23.1,18-46.9,26.6-71.6l-3.4-1.6
							c-37.3,108.1-80.2,199.4-131.4,280.4c-90,142.1-208.3,249.4-342.2,310.2c-179.6,81.6-382.2,85.8-555.8,11.5
							c-179.3-77-326.6-228.4-437.8-450c-60.1-119.8-110.5-258.3-153.9-423.5c-47-179.4-83.6-366.4-118.9-547.3
							c-13.3-68.1-27.1-138.4-41.1-206.6c-38.1-183.9-75.5-336.4-134.8-482.8c-12.2-30.1-25.5-59.8-39.5-88.2
							c-46.4-93.9-102.6-178.3-167-250.6c-69.9-78.6-148.2-141.3-232.6-186.5c-75.4-40.3-157-67.4-242.6-80.4
							c-83.9-12.8-171.7-12.2-260.8,1.9c-117.5,18.6-239.3,59.3-383.3,128.2C2438,797.5,2317.7,865.4,2201.4,931
							c-159.9,90.2-325.2,183.6-496.2,253.2c-164,67.3-338.3,112.1-518.1,133.2c-132,15.3-238.3,13.4-334.6-5.7
							c-166.6-33.2-327.2-130.3-477.3-288.6C141.4,776.4,24,407.3,68.7,59.6C91.6-120.8,153-298.6,244.4-458.8l-3.2-1.5
							c-1.4,2.4-2.7,4.8-4.1,7.2C192.6-374,155.3-290.9,126.5-206.1L126.5-206.1L126.5-206.1z"/>
					</g>
					<g class="st33">
						
							<linearGradient id="SVGID_00000115493721119698497650000008630725389224055696_" gradientUnits="userSpaceOnUse" x1="1850.449" y1="2464.3018" x2="3709.2253" y2="605.5254">
							<stop  offset="0" style="stop-color:#1F4C67;stop-opacity:0"/>
							<stop  offset="0.8913" style="stop-color:#1F4C67;stop-opacity:0.8913"/>
							<stop  offset="1" style="stop-color:#1F4C67"/>
						</linearGradient>
						<path style="fill:url(#SVGID_00000115493721119698497650000008630725389224055696_);" d="M196.1-226.6
							c-32,91.4-54.6,184.8-67,277.8c-12.6,92.8-14.5,187.7-5.7,282c8.5,92,27.2,183.3,55.5,271.2
							c56.4,175.5,150.2,334.3,271.1,459.2c69.8,72.1,143.5,132.4,219.2,179.2c84.8,52.4,172.5,88.2,260.7,106.3
							c98,20.1,204.2,23.1,334.5,9.5c179.6-19,353.5-63.5,516.9-132.2c169.6-70.9,332.9-166.8,490.8-259.6
							c114.9-67.5,233.6-137.3,353-196.2c141.8-70,262.4-111.5,379.4-130.5c176.8-28.7,349.4-2.3,499,76.4
							c206,108.3,333.1,292.5,403.4,428c14.5,28,28.3,57.3,41,86.9c67.4,157.4,108.4,322.7,142.7,478c19.4,88.4,37.9,180.2,55.9,269
							c32.1,158.9,65.4,323.3,105.7,481.5c42.5,166.3,91.2,305.1,148.9,424.3c108.9,224.8,254.1,378.2,431.8,455.9
							c42.7,18.6,88,32.6,134.6,41.5c46,8.8,93.4,12.8,141,11.7c47.5-1.1,95.4-7.1,142.2-17.9c47.4-11,93.9-26.9,138.2-47.4
							c65.4-30.2,127.5-72,184.5-124.2c54.1-49.6,102.8-107.6,144.6-172.5c52.2-81.2,96.3-174.7,133.5-283.5l-3.6-1.7
							c-37.1,108.7-81.1,202-133.2,283c-86.6,134.2-199.8,236.3-327.5,295.2c-179.2,82.7-380.7,87.1-552.8,12.1
							c-176.8-77.3-321.3-230-429.8-453.9c-57.6-119-106.2-257.5-148.6-423.5c-40.2-158.1-73.5-322.4-105.6-481.2
							c-18-88.8-36.5-180.6-55.9-269.1c-34.3-155.4-75.3-321-142.9-478.7c-12.7-29.7-26.6-59-41.1-87.1
							c-48-92.5-105.6-175.5-171.1-246.8c-70.8-77-149.5-138.6-234-183c-9.4-4.9-18.8-9.6-28.3-14.2c-67.4-32-139.1-53.8-213.5-65.1
							c-84-12.7-171.3-11.9-259.6,2.4c-117.5,19-238.4,60.6-380.6,130.8c-119.5,59-238.3,128.9-353.2,196.4
							c-157.8,92.7-321,188.6-490.3,259.4c-163.1,68.6-336.6,112.9-515.8,131.9c-129.8,13.6-235.7,10.6-333.2-9.4
							C763.1,1310.8,602.3,1215.2,453,1061C205.9,805.8,83.4,419.1,133.1,51.7c22.7-169,77.9-335.3,159.2-487.9l-3.3-1.6
							C252.5-369.5,221.4-298.7,196.1-226.6L196.1-226.6L196.1-226.6z"/>
					</g>
					<g class="st35">
						
							<linearGradient id="SVGID_00000180367820998461335840000001878738149493086133_" gradientUnits="userSpaceOnUse" x1="1905.0814" y1="2479.312" x2="3756.7971" y2="627.5962">
							<stop  offset="0" style="stop-color:#1F4C67;stop-opacity:0"/>
							<stop  offset="0.8913" style="stop-color:#1F4C67;stop-opacity:0.8913"/>
							<stop  offset="1" style="stop-color:#1F4C67"/>
						</linearGradient>
						<path style="fill:url(#SVGID_00000180367820998461335840000001878738149493086133_);" d="M265.7-247.1
							C231.3-151.6,207-53.9,193.3,43.3c-13.8,97.2-16.3,196.6-7.6,295.3c8.5,96.6,27.7,192.1,57,284.1
							c58.9,184.4,157.3,350,284.8,479c69.7,70.5,143.8,129.7,220.3,176c84.5,51.1,172,86.5,260.3,105.2
							c98,20.7,206.9,25.1,333.1,13.3c179-17,352.2-61,514.7-131c167.1-71.6,327.3-169.6,482.2-264.4
							c114.3-70,232.5-142.3,351.6-202.7c137.1-70.2,260.3-113.8,376.6-133.1c174.4-29,346.3-3.2,497,74.7
							c206.6,106.7,336.4,287.6,408.9,420.5c15.1,27.7,29.4,56.6,42.6,85.8c72.5,160.1,116.9,329.4,150.8,473.8
							c25.2,108.1,48.6,220.9,71.2,329.9c28.5,137.5,58,279.6,91.9,416.9c41.5,167.3,88.5,306.1,143.7,424.3
							c49.9,106.9,108.5,198.8,174.1,273c73.4,83,157.4,145.9,249.7,186.9c42.4,18.8,87.3,32.9,133.7,41.8
							c45.7,8.9,93,12.8,140.4,11.6c47.4-1.1,95-7.3,141.6-18.3c47.2-11.1,93.5-27.2,137.6-47.9c62.1-29.1,121.2-69,175.6-118.4
							c51.8-47.1,98.5-102,138.9-163.3c54.1-82.4,98.8-176.7,135.4-286.1l-3.8-1.8c-36.5,109.2-81.1,203.3-135.1,285.6
							c-83.2,126.4-191.4,223.3-312.8,280.3c-178.7,83.8-379.1,88.4-549.8,12.7c-174.2-77.5-316.1-231.6-421.7-457.8
							c-55-118-102-256.5-143.4-423.6c-33.9-137.2-63.4-279.3-91.9-416.7c-22.6-109.1-46-221.8-71.2-330
							c-33.9-144.7-78.4-314.2-151.1-474.6c-13.3-29.3-27.7-58.3-42.8-86.1c-49.6-91-108.6-172.7-175.3-242.9
							c-71.7-75.4-150.9-135.8-235.4-179.4c-75.8-39.2-156.9-65.4-241.2-78c-84-12.6-171-11.6-258.5,2.9
							c-63.1,10.5-126.4,27.5-193.5,51.9c-58.7,21.4-119,48.1-184.4,81.6c-119.3,60.5-237.6,132.9-351.9,202.9
							c-154.8,94.7-314.9,192.7-481.7,264.1c-162.1,69.8-334.8,113.7-513.4,130.7c-125.8,11.7-234.3,7.4-331.8-13.2
							c-166.9-35.3-332.3-132.2-478.5-280.1C270.3,835.4,142.7,431.2,197.5,43.9c22.1-157.6,71.6-312.7,143.4-457l-3.4-1.6
							C310.2-360.1,286.1-304,265.7-247.1L265.7-247.1L265.7-247.1z"/>
					</g>
					<g class="st37">
						
							<linearGradient id="SVGID_00000088097515392896918890000009003943051200554629_" gradientUnits="userSpaceOnUse" x1="1960.0437" y1="2494.8574" x2="3804.4502" y2="650.4507">
							<stop  offset="0" style="stop-color:#1F4C67;stop-opacity:0"/>
							<stop  offset="0.8913" style="stop-color:#1F4C67;stop-opacity:0.8913"/>
							<stop  offset="1" style="stop-color:#1F4C67"/>
						</linearGradient>
						<path style="fill:url(#SVGID_00000088097515392896918890000009003943051200554629_);" d="M335.2-267.6
							c-36.7,99.6-62.9,201.5-77.8,303c-60.2,408.9,73,832.1,347.5,1104.3c69.5,68.9,144,127.1,221.4,172.9
							c84.1,49.8,171.5,84.8,259.8,104.1c99.4,21.7,207.9,27.3,331.8,17.1c87.3-7.3,174.5-21.8,259.2-43
							c86.9-21.8,172.1-51,253.2-86.7c165.7-72.7,323.9-173.4,476.9-270.8c112.7-71.8,229.3-145.9,347-207.6
							c135.4-71.6,257.7-116,373.8-135.7c172-29.3,343.2-4,495.1,73c164.1,83.3,307.4,226.1,414.4,413.1
							c15.6,27.4,30.5,55.9,44.3,84.7c77.8,162.9,125.8,336.6,158.9,469.7c31.5,127.3,59.6,260.6,86.8,389.5
							c24.5,116.5,49.9,236.9,77.9,353.6c40.5,168.4,85.8,307.2,138.4,424.4c48.5,108,105.5,200.6,169.5,275.1
							c72,83.9,154.9,147.4,246.3,188.8c42,18.9,86.6,33.1,132.8,42.2c45.5,8.9,92.5,12.8,139.7,11.6s94.6-7.4,141.1-18.6
							c47-11.3,93-27.6,136.9-48.5c58.8-28.1,114.9-65.9,166.7-112.6c49.5-44.6,94.3-96.5,133.1-154.2
							c35.9-53.5,68.1-113.4,95.8-177.9c15-35.1,28.9-72.1,41.5-110.7l-4-1.9c-35.8,109.2-81.7,205.9-136.9,288.1
							c-79.8,118.6-182.9,210.4-298.1,265.3c-175.5,83.7-379.9,88.6-546.8,13.3c-171.8-77.8-311-233.1-413.6-461.7
							c-52.5-116.9-97.7-255.4-138.2-423.6c-28-116.6-53.4-237-77.9-353.4c-27.2-129-55.3-262.3-86.8-389.7
							c-33.1-133.3-81.2-307.2-159.2-470.5c-13.8-28.9-28.8-57.5-44.5-85c-51.3-89.6-111.6-170-179.5-239
							c-72.6-73.8-152.2-133-236.8-175.9c-76.1-38.6-156.9-64.4-240.5-76.8c-84.1-12.5-170.6-11.3-257.3,3.4
							c-62.9,10.7-125.8,28-192.3,52.9c-58.3,21.8-118.1,49.1-182.9,83.3c-117.9,61.7-234.5,136-347.3,207.8
							c-152.9,97.3-310.9,197.9-476.3,270.5c-161.1,71-333,114.5-511,129.4c-123.4,10.1-231.5,4.6-330.4-17
							c-168.6-36.8-334.2-132.2-479-275.8C334.6,865.3,201.9,443.6,261.8,36.1c21.4-146.2,65.5-290.1,128.6-425.7l-3.6-1.7
							C367.9-350.7,350.6-309.4,335.2-267.6L335.2-267.6L335.2-267.6z"/>
					</g>
					<g class="st39">
						
							<linearGradient id="SVGID_00000161595521007252615060000008610741640453602737_" gradientUnits="userSpaceOnUse" x1="2015.3827" y1="2510.7349" x2="3852.9089" y2="673.2086">
							<stop  offset="0" style="stop-color:#1F4C67;stop-opacity:0"/>
							<stop  offset="0.8913" style="stop-color:#1F4C67;stop-opacity:0.8913"/>
							<stop  offset="1" style="stop-color:#1F4C67"/>
						</linearGradient>
						<path style="fill:url(#SVGID_00000161595521007252615060000008610741640453602737_);" d="M404.8-288.1
							c-39.1,103.6-67.1,209.8-83.1,315.7c-32.1,210.6-15.3,429.2,48.6,632.1C434,861.9,542,1041.1,682.6,1177.8
							c69.3,67.3,144.1,124.4,222.5,169.8c83.7,48.4,171,83.1,259.4,102.9c100.8,22.7,208.9,29.5,330.4,20.9
							c87-6.3,173.9-20.1,258.3-41.2c86.6-21.6,171.3-51,251.9-87.3c164.3-73.8,320.5-177.2,471.6-277.2
							c111.1-73.5,226.1-149.6,342.3-212.5c133.9-72.9,255.2-118.2,371-138.3c169.6-29.6,340.1-4.9,493.1,71.3
							c164.8,82.1,310,222.3,419.9,405.6c16.2,27,31.6,55.2,46,83.6c64.6,128.4,116.1,272,167,465.5c38.2,146,70.8,299.5,102.4,448
							c20.4,95.9,41.4,195,63.8,291.4c40.1,172.1,82.5,306.9,133.2,424.4c47.1,109.1,102.6,202.4,164.9,277.3
							c34.3,41.2,71.5,77.9,110.6,108.9c41.3,32.8,85.8,60.3,132.4,81.8c41.6,19.1,86,33.4,131.9,42.5c45.2,8.9,92,12.9,139.1,11.6
							c47-1.2,94.3-7.6,140.5-18.9c46.8-11.4,92.6-28,136.2-49.1c109.7-53.2,208.3-140.3,285.2-251.8
							c57.7-83.9,104.4-181.6,139.2-291.3l-4.2-2c-34.6,109.5-81.2,207-138.8,290.7c-76.5,110.9-174.5,197.4-283.4,250.3
							c-174.9,84.8-378.1,90-543.8,13.9c-169.4-78.1-305.8-234.7-405.5-465.6c-50.6-117.2-92.9-251.8-132.9-423.6
							c-22.4-96.3-43.5-195.4-63.8-291.3c-31.6-148.5-64.2-302.1-102.5-448.2c-23.7-90.1-47.3-168.4-72.1-239.3
							c-29.2-83.5-60.4-157.8-95.2-227.1c-14.4-28.5-29.9-56.8-46.1-83.9c-52.8-88.1-114.6-167.2-183.6-235.1
							c-73.4-72.2-153.5-130.2-238.2-172.3c-4.8-2.4-9.6-4.7-14.4-7c-72-34.1-147.8-57.2-225.4-68.7
							c-84.1-12.4-170.3-11.1-256.2,3.9c-62.7,10.9-125.1,28.5-191.1,53.9c-58,22.3-117.3,50.1-181.4,85
							c-116.4,63-231.4,139.1-342.7,212.7c-150.9,99.9-307,203.2-471,276.8c-160.1,72.2-331.2,115.3-508.6,128.1
							c-121,8.6-228.7,1.8-329.1-20.8c-170.5-38.3-336.3-132.2-479.6-271.5C398.8,895.5,261,456.3,326.2,28.2
							c20.5-134.9,59.5-267.6,114.6-394l-3.7-1.8C425.6-341.3,414.8-314.8,404.8-288.1L404.8-288.1z"/>
					</g>
					<g class="st41">
						
							<linearGradient id="SVGID_00000151504708210381047390000014734913736157827513_" gradientUnits="userSpaceOnUse" x1="2070.9604" y1="2527.1199" x2="3901.4402" y2="696.64">
							<stop  offset="0" style="stop-color:#1F4C67;stop-opacity:0"/>
							<stop  offset="0.8913" style="stop-color:#1F4C67;stop-opacity:0.8913"/>
							<stop  offset="1" style="stop-color:#1F4C67"/>
						</linearGradient>
						<path style="fill:url(#SVGID_00000151504708210381047390000014734913736157827513_);" d="M474.4-308.6
							c-41.5,107.7-71.2,218.1-88.5,328.3C351.3,239.5,368,467.2,434,678.3c66,211.3,178.8,397.2,326.2,537.6
							c142.1,135.5,309,228.3,482.5,268.5c100.9,23.4,211.7,31.7,329.1,24.7c86.7-5.2,173.3-18.5,257.3-39.3
							c86.2-21.4,170.6-51,250.7-87.9c162.9-75,317.2-181,466.3-283.6c109.6-75.3,222.8-153.2,337.6-217.3
							c132.3-74.2,252.8-120.3,368.2-141c167.1-29.8,336.9-5.7,491.2,69.6c165.5,80.9,312.6,218.6,425.4,398.2
							c16.7,26.7,32.8,54.5,47.6,82.5c67.5,127.6,123.2,274.2,175.1,461.4c45.4,164.3,82.3,337.8,117.9,505.6
							c16.1,75.7,32.7,153.9,49.9,230.1c24.8,109.9,65.1,273.6,127.9,424.4c45.4,110.1,99.3,204.1,160.2,279.5
							c33.6,41.6,70.2,78.6,108.7,109.9c40.7,33.1,84.8,60.9,131,82.6c41.2,19.3,85.3,33.7,131,42.9c45,9,91.6,12.9,138.5,11.6
							c94.1-2.6,189.4-26.4,275.5-69c103.5-51.1,197-133,270.5-236.9c60.4-85.4,107.7-184.1,140.9-294l-4.4-2.1
							c-33.1,109.6-80.2,208.2-140.5,293.3c-73.1,103.2-166,184.5-268.7,235.3c-174.1,86.1-376.2,91.5-540.7,14.4l-2.3-1.1
							c-168.8-80-298.1-233.3-395.2-468.4c-62.7-150.5-102.9-313.9-127.7-423.6c-17.2-76.2-33.8-154.4-49.8-230.1
							c-35.7-167.9-72.5-341.4-118-505.9c-52-187.5-107.8-334.4-175.5-462.3c-14.9-28.2-31-56-47.8-82.8
							c-54.4-86.6-117.6-164.4-187.8-231.2c-74.2-70.6-154.8-127.4-239.6-168.8c-76.6-37.4-157-62.5-239.1-74.4
							c-84.1-12.3-169.9-10.8-255.1,4.4c-62.4,11.2-124.5,29.1-189.8,54.8c-57.6,22.7-116.5,51.1-179.9,86.7
							c-115,64.2-228.4,142.1-338,217.5c-149,102.4-303.1,208.4-465.6,283.2c-159.1,73.5-329.5,116.1-506.3,126.8
							c-116.9,7-227.2-1.3-327.7-24.5c-172.7-40-338.8-132.4-480.2-267.2C463,926,320.1,469.3,390.6,20.5
							c19.3-123.5,53.8-245.1,101.5-361.9l-3.9-1.9C483.4-331.8,478.8-320.2,474.4-308.6L474.4-308.6L474.4-308.6z"/>
					</g>
					<g class="st43">
						
							<linearGradient id="SVGID_00000046318440096232311930000001881489733719582125_" gradientUnits="userSpaceOnUse" x1="2126.5564" y1="2543.7571" x2="3950.1069" y2="720.2064">
							<stop  offset="0" style="stop-color:#1F4C67;stop-opacity:0"/>
							<stop  offset="0.8913" style="stop-color:#1F4C67;stop-opacity:0.8913"/>
							<stop  offset="1" style="stop-color:#1F4C67"/>
						</linearGradient>
						<path style="fill:url(#SVGID_00000046318440096232311930000001881489733719582125_);" d="M450.1,11.8
							c-37,229-20.5,465.9,47.5,685.2c68.4,220.4,186,413,340.1,557c140,130.9,307.1,222.3,483.1,264.2
							c102.5,24.4,212.8,34,327.7,28.4c86.4-4.2,172.6-16.8,256.4-37.5c85.9-21.2,169.8-51,249.4-88.6
							c161.5-76.1,313.8-184.9,461-290c108-77.1,219.6-156.8,333-222.1c130.8-75.6,250.3-122.5,365.4-143.6
							c164.6-30.1,333.8-6.6,489.2,67.9c166.3,79.7,315.3,214.8,430.9,390.8c17.3,26.3,33.9,53.7,49.3,81.4
							c71.4,128.4,129.6,273.7,183.2,457.2c53.1,182.2,93.8,375.4,133.2,562.3c11.8,55.7,23.9,113.4,36.2,169.7
							c38.9,178.5,76.8,309.4,122.7,424.5c21.3,53.6,44.5,103.7,69.2,148.9c26.6,48.7,55.7,93.4,86.5,132.8
							c32.9,42,68.8,79.4,106.6,111c40.1,33.5,83.8,61.6,129.6,83.5l1.1,0.5c164.7,78.1,366.9,72.3,541.1-15.6
							c97.2-49,185.7-125.8,255.9-221.9c32.8-45,61.9-94.3,86.5-146.7c22.4-47.8,41.2-98.2,55.9-150.2l-4.6-2.2
							c-30.9,109.7-78.6,209.3-141.9,296c-69.7,95.5-157.5,171.7-254.1,220.4c-172.8,87.1-373.3,92.9-536.6,15.5l-1.1-0.5
							c-167.4-79.9-294.8-234.8-389.4-473.4c-45.8-114.8-83.6-245.5-122.4-423.7c-12.3-56.3-24.4-113.9-36.1-169.7
							c-39.4-187-80.1-380.3-133.3-562.7c-53.7-183.9-112.1-329.5-183.6-458.2c-15.5-27.8-32.1-55.3-49.5-81.8
							c-55.9-85.1-120.5-161.6-192-227.3c-75-69-156.1-124.6-241-165.2c-76.9-36.9-157.1-61.5-238.4-73.2
							c-84.1-12.2-169.6-10.5-253.9,4.9c-62.2,11.4-123.9,29.6-188.6,55.8c-57.3,23.2-115.6,52.1-178.4,88.4
							c-113.6,65.4-225.3,145.2-333.4,222.4c-147.1,105-299.1,213.6-460.2,289.6c-158.2,74.7-327.7,116.9-503.9,125.5
							c-114.4,5.5-224.2-4-326.3-28.3c-175.2-41.7-341.4-132.7-480.8-263C527.1,956.7,379.1,482.5,455,12.6
							c18.1-112.1,48.2-222.6,89-329.4l-4.2-2C498.2-210.3,467.9-99.1,450.1,11.8L450.1,11.8L450.1,11.8z"/>
					</g>
					<g class="st45">
						
							<linearGradient id="SVGID_00000168837750032401811680000014861172979803096749_" gradientUnits="userSpaceOnUse" x1="2182.4922" y1="2560.687" x2="3990.1394" y2="753.0397">
							<stop  offset="0" style="stop-color:#1F4C67;stop-opacity:0"/>
							<stop  offset="0.8913" style="stop-color:#1F4C67;stop-opacity:0.8913"/>
							<stop  offset="1" style="stop-color:#1F4C67"/>
						</linearGradient>
						<path style="fill:url(#SVGID_00000168837750032401811680000014861172979803096749_);" d="M519.4,4.8
							c16.7-100.7,42.7-200,77.3-296.6l-4.4-2.1c-35.3,98.1-61.5,198-78,297.8c-39.5,238.2-23.2,484.3,46.9,711.8
							C632,945.2,754.4,1144.5,915.3,1292c137.7,126.2,305,216.2,483.7,260c104.2,25.5,214,36.4,326.4,32.2
							c86.1-3.2,172-15.2,255.4-35.6c85.6-21,169.1-51,248.1-89.2c160.2-77.3,310.4-188.7,455.7-296.4
							c106.4-78.9,216.4-160.5,328.3-226.9c129.3-76.9,247.9-124.8,362.6-146.2c162.1-30.3,330.6-7.4,487.3,66.2
							c167.2,78.6,318.2,211.2,436.4,383.3c17.9,26,35,53,50.9,80.3c74.2,127.2,136.8,275.4,191.3,453
							c61.2,199.7,105.3,412.5,148,618.3c7.5,36.1,15.2,73.4,22.9,110c25.5,121.2,61.9,278.9,117.4,424.5
							c92.1,242.4,217.7,399.4,384,480.1c80.4,39,172.5,58.1,266.5,55.4c93.7-2.8,188.1-27.3,272.9-71
							c91-46.9,174.4-118.4,241.2-206.9c63.3-83.9,111.6-182.8,139.9-286l-5-1.4c-28,102.6-76.1,200.9-139,284.2
							c-66.3,87.8-149.1,158.8-239.4,205.4c-172.1,88.7-372,94.5-534.7,15.6c-165-80.1-289.7-236.2-381.3-477.3
							c-55.4-145.2-91.8-302.7-117.2-423.7c-7.7-36.6-15.4-73.9-22.9-110c-42.7-205.9-86.8-418.9-148.1-618.8
							c-54.6-178.1-117.4-326.6-191.8-454.2c-16-27.4-33.2-54.6-51.1-80.7c-57.4-83.6-123.4-158.8-196.1-223.4
							c-75-66.6-155.6-120.6-239.7-160.5l-2.7-1.3c-77.2-36.3-157.2-60.5-237.7-72c-84.1-12-169.2-10.2-252.8,5.4
							c-61.9,11.6-123.2,30.1-187.4,56.8c-56.9,23.6-114.8,53.1-177,90.1c-112.1,66.6-222.3,148.3-328.8,227.2
							c-145.1,107.6-295.2,218.9-454.9,295.9c-157.2,75.9-325.9,117.7-501.5,124.3c-111.9,4.1-221.2-6.7-324.9-32.1
							c-177.9-43.6-344.4-133.1-481.5-258.7C596.1,992.3,439.3,488.5,519.4,4.8L519.4,4.8L519.4,4.8z"/>
					</g>
					
						<linearGradient id="SVGID_00000172405724334173463590000007354054855840217257_" gradientUnits="userSpaceOnUse" x1="2238.6597" y1="2578.1863" x2="4024.073" y2="792.7728">
						<stop  offset="0" style="stop-color:#1F4C67;stop-opacity:0"/>
						<stop  offset="0.8913" style="stop-color:#1F4C67;stop-opacity:0.8913"/>
						<stop  offset="1" style="stop-color:#1F4C67"/>
					</linearGradient>
					<path style="fill:url(#SVGID_00000172405724334173463590000007354054855840217257_);" d="M583.8-3c15-88.6,37.6-176.7,67-263.2
						l-5.3-2.5c-29.5,87.5-52,176.2-67,264.8c-41.9,247.5-25.9,502.9,46.2,738.5c73.1,238.8,200.5,444.7,368.1,595.5
						c85,76.4,182,139.5,288.4,187.5c104.6,47.2,216.1,78.8,331.4,94.1c116.1,15.4,233.6,13.8,349.2-4.7
						c119-19,233.9-55.6,341.7-108.8c158.8-78.4,307-192.5,450.4-302.9c212.4-163.4,432-332.5,683.5-380.5
						c166.5-31.8,338.3-5.3,498.1,70.4c185.7,88,355.3,242.6,481.8,449.3c201.1,328.8,282.7,732.4,361.6,1122.7
						c3.4,17,6.9,33.9,10.3,50.8c34.3,169,79.6,364.4,155.8,531.6c40.1,87.9,84.6,160.3,136.3,221.2
						c57.1,67.3,123,119.8,196.1,155.9c79.7,39.4,171.4,58.7,265,55.9s187.5-27.8,271.6-72.1c84-44.3,161.7-109.9,224.7-189.6
						c63-79.7,110.1-172.1,136.2-267.3l-5.2-1.4c-53.3,193.8-187.2,363.3-358.2,453.6c-170.9,90.2-369.7,96.2-531.6,16.2
						c-294.8-145.6-407.4-521-485.2-904.9c-3.4-16.9-6.9-33.9-10.3-50.8c-39.3-194.4-79.9-395.3-135.3-586
						c-29.9-102.8-61.4-194-96.4-278.9c-39.4-95.4-82.1-180.3-130.5-259.5c-53.2-86.9-116-166.8-186.7-237.5
						c-72.7-72.6-151.9-133.6-235.4-181.2c-87.7-50-178.8-84.5-270.8-102.5c-97.8-19.1-196.3-19.5-292.7-1
						c-60.8,11.6-120.8,30.1-183.4,56.5c-55.8,23.5-112.3,52.9-173,89.7c-112.6,68.4-222.8,153.3-329.4,235.3
						c-143.2,110.2-291.2,224.1-449.5,302.3c-431.9,213.3-956.2,146.1-1304.7-167.3C660.2,1023.6,498.2,501.9,583.8-3L583.8-3
						L583.8-3z"/>
				</g>
			</g>
		</g>
	</g>
</g>
</svg>
