<svg width="946" height="678" viewBox="0 0 946 678" fill="none" xmlns="http://www.w3.org/2000/svg">
<mask id="mask0_1661_22367" style="mask-type:luminance" maskUnits="userSpaceOnUse" x="-185" y="-612" width="1579" height="1974">
<path d="M431.522 -611.489L-184.914 992.02L777.191 1361.88L1393.63 -241.627L431.522 -611.489Z" fill="white"/>
</mask>
<g mask="url(#mask0_1661_22367)">
<g opacity="0.1">
<path d="M931.21 -900.658C894.103 -887.732 863.258 -873.145 836.912 -856.067C806.412 -836.298 780.302 -811.046 761.403 -783.044C751.353 -768.153 743.43 -752.599 737.854 -736.812C731.952 -720.099 728.655 -703.039 728.056 -686.104C727.4 -667.506 729.87 -647.486 735.61 -624.901C740.855 -604.266 748.229 -583.682 754.735 -565.522L941.807 -43.4018C980.206 63.7743 1016.56 186.289 961.371 283.896C917.389 361.688 830.062 393.918 781.92 406.21C728.55 419.834 672.549 423.881 618.396 427.795C599.374 429.169 579.708 430.591 560.441 432.405C382.945 449.131 244.141 502.452 147.875 590.881C92.444 641.8 50.9519 709.602 31.047 781.794C20.8225 818.865 16.6071 855.866 18.5106 891.762C20.523 929.673 29.355 965.585 44.7678 998.503C63.0952 1037.65 90.8015 1073.52 127.122 1105.12C159.988 1133.72 198.944 1158.09 242.917 1177.57C270.536 1189.81 298.993 1199.8 327.902 1208.26L327.998 1208.01C299.092 1199.55 270.641 1189.56 243.024 1177.33C150.081 1136.15 79.7576 1072.61 45.01 998.39C6.77847 916.736 12.361 826.523 43.0718 746.636C66.3423 686.104 104.053 631.498 148.054 591.075C244.276 502.684 383.03 449.388 560.465 432.668C579.729 430.853 599.395 429.431 618.416 428.057C672.584 424.144 728.594 420.093 781.988 406.464C800.534 401.73 818.482 395.746 835.337 388.68C853.21 381.188 869.954 372.429 885.104 362.654C918.584 341.048 944.321 314.593 961.606 284.023C966.644 275.112 971.005 265.874 974.693 256.279C989.384 218.064 993.404 174.23 986.991 123.243C979.951 67.2616 961.236 10.0243 942.062 -43.4914L754.991 -565.612C741.798 -602.428 726.849 -644.156 728.329 -686.095C730.573 -749.708 771.219 -813.165 837.061 -855.844C896.29 -894.234 965.433 -912.256 1032.31 -929.682L1032.24 -929.939C1000.67 -921.712 964.891 -912.387 931.218 -900.658L931.21 -900.658Z" fill="#65B8CB"/>
</g>
<g opacity="0.14">
<path d="M933.651 -878.204C894.927 -867.95 857.668 -850.771 825.896 -828.524C795.826 -807.467 770.242 -781.917 751.91 -754.636C741.921 -739.769 734.035 -724.34 728.472 -708.777C722.542 -692.185 719.19 -675.249 718.507 -658.439C717.753 -639.886 720.036 -619.941 725.483 -597.466C730.202 -577.99 736.597 -559.111 743.859 -538.216C765.809 -475.108 788.012 -412.926 809.855 -353.408C833.114 -289.959 857.25 -225.683 880.594 -163.519C898.179 -116.688 916.365 -68.2631 934.033 -20.5571C949.757 21.7967 967.059 71.7842 976.143 121.395C989.65 195.138 982.721 255.198 954.959 305.008C922.896 362.532 860.13 406.571 778.221 429.005C767.164 432.031 755.412 434.795 743.289 437.22C700.562 445.766 656.161 449.62 613.218 453.346C595.359 454.895 576.894 456.498 558.785 458.419C509.485 463.628 462.681 471.531 419.677 481.907C371.586 493.511 326.793 508.551 286.549 526.618C260.674 538.237 236.107 551.376 213.529 565.669C189.716 580.743 167.45 597.526 147.344 615.549C118.081 641.724 92.701 672.259 71.9037 706.308C50.9103 740.675 35.5079 777.141 26.1155 814.691C17.357 849.749 14.1605 884.759 16.6158 918.751C19.1972 954.473 28.0009 988.391 42.7847 1019.57C60.6888 1057.61 87.6584 1092.5 122.939 1123.28C154.884 1151.15 192.734 1174.95 235.439 1194.01C261.403 1205.6 289.782 1215.87 321.428 1225.1L321.557 1224.77C292.315 1216.24 263.39 1206.13 235.576 1193.71C145.393 1153.44 77.0343 1091.55 43.0891 1019.42C14.0476 958.188 8.28853 887.424 26.4402 814.775C45.2678 739.497 88.2827 668.834 147.566 615.804C186.724 580.701 233.531 550.798 286.688 526.929C362.892 492.723 454.453 469.789 558.821 458.756C576.928 456.839 595.39 455.234 613.246 453.684C656.197 449.957 700.61 446.101 743.356 437.555C755.486 435.129 767.247 432.361 778.312 429.334C796.633 424.315 814.347 418.079 830.965 410.797C848.579 403.076 865.075 394.13 879.99 384.202C912.919 362.285 938.239 335.699 955.252 305.176C960.07 296.53 964.261 287.58 967.829 278.299C984.843 234.042 987.648 182.365 976.471 121.337C967.382 71.702 950.075 21.698 934.342 -20.6704C916.669 -68.3744 898.487 -116.801 880.9 -163.633C857.559 -225.796 833.419 -290.073 810.163 -353.518C788.319 -413.036 766.115 -475.215 744.168 -538.322C731.488 -574.805 717.119 -616.156 718.836 -658.423C721.355 -720.388 760.445 -782.286 826.08 -828.247C857.822 -850.473 895.045 -867.635 933.728 -877.88C976.296 -889.266 1019.02 -893.448 1051.48 -895.821L1051.46 -896.159C1018.98 -893.785 976.237 -889.602 933.641 -878.208L933.651 -878.204Z" fill="#65B8CB"/>
</g>
<g opacity="0.18">
<path d="M938.011 -856.411C916.076 -851.986 894.241 -844.883 873.115 -835.295C852.511 -825.945 832.916 -814.395 814.877 -800.964C800.552 -790.3 787.267 -778.773 775.391 -766.704C762.686 -753.791 751.563 -740.225 742.329 -726.375C721.679 -695.398 710.449 -663.23 708.957 -630.756C708.106 -612.247 710.196 -592.376 715.353 -570.009C719.926 -550.17 726.301 -530.724 732.979 -510.885C754.214 -447.916 776.254 -385.992 798.488 -326.828C822.091 -263.883 847.068 -200.348 871.227 -138.905C889.405 -92.67 908.2 -44.8619 926.259 2.3136C942.245 43.8919 959.849 93.1524 969.203 143.246C982.828 216.214 976.074 276.039 948.554 326.148C917.018 383.555 855.215 428.192 774.528 451.832C763.592 455.03 751.98 457.976 740.011 460.586C696.681 470.03 651.507 474.61 607.823 479.041C591.199 480.726 574.012 482.471 557.137 484.458C507.93 490.229 461.414 498.416 418.877 508.794C370.893 520.503 326.248 535.408 286.181 553.101C260.312 564.532 235.755 577.413 213.198 591.383C189.309 606.177 166.977 622.615 146.82 640.243C117.21 666.03 91.5429 696.057 70.5305 729.497C49.2016 763.445 33.5498 799.534 24.0146 836.757C15.1462 871.431 11.9324 906.247 14.4604 940.241C17.098 975.73 25.9656 1009.51 40.8121 1040.65C58.4289 1077.59 84.6819 1111.49 118.851 1141.42C149.917 1168.63 186.632 1191.86 227.97 1210.47C254.176 1222.27 282.866 1232.67 314.955 1241.98L315.078 1241.66C285.166 1233 256.415 1222.83 228.136 1210.1C141.034 1170.89 74.6393 1110.64 41.1747 1040.47C11.8581 978.991 6.0579 908.582 24.4038 836.855C43.4294 762.584 87.0007 692.868 147.083 640.546C186.249 606.293 233.103 576.997 286.34 553.471C362.806 519.709 451.395 497.266 557.181 484.861C574.053 482.873 591.24 481.129 607.862 479.446C651.558 475.016 696.744 470.433 740.098 460.984C752.075 458.37 763.698 455.425 774.644 452.222C812.339 441.175 846.07 425.545 874.888 405.762C907.266 383.538 932.17 356.818 948.911 326.341C953.484 318.016 957.515 309.322 960.963 300.352C963.134 294.704 965.074 288.949 966.775 283.106C970.946 268.771 973.795 253.501 975.242 237.71C977.902 208.652 976.061 177.727 969.608 143.17C960.247 93.0442 942.637 43.7627 926.644 2.16673C908.584 -45.0088 889.789 -92.8169 871.612 -139.055C847.457 -200.496 822.476 -264.033 798.875 -326.974C776.644 -386.133 754.605 -448.053 733.372 -511.018C719.167 -553.204 707.557 -591.333 709.369 -630.737C713.152 -712.87 777.254 -772.441 815.131 -800.638C851.972 -828.066 894.494 -847.215 938.104 -856.011C977.656 -864.139 1022.26 -866.136 1070.69 -861.947L1070.72 -862.353C1022.26 -866.546 977.618 -864.548 938.026 -856.409L938.011 -856.411Z" fill="#65B8CB"/>
</g>
<g opacity="0.22">
<path d="M942.373 -834.625C917.578 -830.758 892.822 -823.342 868.793 -812.581C845.645 -802.214 823.797 -789.035 803.853 -773.416C774.22 -750.203 750.273 -724.911 732.676 -698.238C712.252 -667.277 701.053 -635.263 699.395 -603.088C698.447 -584.62 700.349 -564.825 705.214 -542.57C709.632 -522.367 715.972 -502.35 722.091 -483.577C742.609 -420.754 764.485 -359.081 787.111 -300.27C811.061 -237.833 836.883 -175.04 861.852 -114.316C880.619 -68.6757 900.026 -21.4825 918.474 25.1613C933.775 63.6164 952.576 114.272 962.248 165.073C975.99 237.258 969.409 296.852 942.131 347.26C911.119 404.558 850.279 449.794 770.818 474.631C759.999 478.003 748.527 481.131 736.716 483.923C692.709 494.325 646.682 499.667 602.169 504.836C586.858 506.613 571.026 508.452 555.467 510.47C506.318 516.812 460.088 525.286 418.059 535.657C370.173 547.472 325.672 562.242 285.791 579.557C259.924 590.801 235.382 603.423 212.842 617.072C188.873 631.585 166.478 647.679 146.272 664.908C85.3083 716.575 41.1332 785.429 21.8855 858.794C12.8976 893.127 9.65326 927.755 12.2402 961.72C14.9269 997.015 23.8672 1030.65 38.8101 1061.7C56.0624 1097.54 81.5888 1130.46 114.685 1159.55C144.851 1186.07 180.443 1208.73 220.475 1226.91C248.954 1239.83 278.203 1250.15 308.447 1258.86L308.618 1258.41C278.381 1249.7 249.14 1239.4 220.674 1226.47C136.477 1188.24 72.045 1129.65 39.2381 1061.5C10.0319 1000.82 4.03165 928.877 22.3421 858.918C41.565 785.646 85.685 716.878 146.578 665.272C185.748 631.871 232.645 603.18 285.976 579.996C361.536 547.189 449.705 524.603 555.524 510.944C571.079 508.926 586.911 507.087 602.218 505.311C646.746 500.144 692.788 494.798 736.82 484.39C748.64 481.594 760.124 478.463 770.952 475.087C808.153 463.459 841.397 447.381 869.759 427.301C901.584 404.772 926.072 377.918 942.541 347.487C946.875 339.479 950.695 331.168 953.998 322.576C961.594 302.818 966.449 281.571 968.479 259.121C971.074 230.417 969.132 198.747 962.707 164.989C953.029 114.148 934.216 63.4656 918.908 24.9896C900.458 -21.6588 881.052 -68.855 862.285 -114.495C837.316 -175.219 811.496 -238.007 787.549 -300.44C764.926 -359.243 743.054 -420.907 722.538 -483.725C708.923 -525.504 697.819 -563.321 699.864 -603.062C702.922 -662.398 739.956 -722.767 804.14 -773.044C844.791 -804.887 893.904 -826.589 942.436 -834.159C1001.07 -843.302 1054.95 -835.907 1089.84 -828.095L1089.94 -828.559C1055.02 -836.381 1001.07 -843.782 942.366 -834.627L942.373 -834.625Z" fill="#65B8CB"/>
</g>
<g opacity="0.26">
<path d="M946.733 -812.836C892.421 -806.402 837.762 -782.618 792.833 -745.86C748.201 -709.35 694.106 -650.139 689.841 -575.41C687.558 -535.278 698.647 -496.149 711.21 -456.258C731.012 -393.575 752.724 -332.156 775.741 -273.699C800.035 -211.766 826.701 -149.72 852.486 -89.7129C871.842 -44.6669 891.861 1.91103 910.695 48.0297C926.249 85.8273 945.378 135.774 955.3 186.921C968.96 257.326 962.368 318.384 935.715 368.395C905.218 425.597 845.34 471.431 767.109 497.455C756.406 501.004 745.075 504.312 733.424 507.291C688.665 518.711 641.684 524.859 596.248 530.8C582.338 532.619 567.95 534.502 553.802 536.509C447.789 551.459 359.997 574.201 285.405 606.041C259.539 617.101 235.009 629.462 212.495 642.786C188.445 657.018 165.984 672.769 145.733 689.599C83.9489 740.545 39.2112 808.469 19.7672 880.86C10.6619 914.858 7.38563 949.3 10.0264 983.23C12.7608 1018.33 21.7752 1051.83 36.8189 1082.79C53.7023 1117.53 78.5021 1149.47 110.529 1177.72C139.792 1203.53 174.269 1225.62 212.991 1243.37C241.673 1256.51 271.424 1266.96 301.967 1275.71L302.163 1275.2C271.627 1266.45 241.888 1256 213.218 1242.87C131.915 1205.61 69.4434 1148.67 37.3083 1082.55C7.79379 1021.81 1.75067 950.237 20.2904 881.002C39.7066 808.722 84.3767 740.897 146.078 690.022C185.241 657.472 232.186 629.385 285.616 606.545C360.164 574.725 447.91 551.995 553.873 537.052C568.018 535.043 582.401 533.163 596.312 531.343C641.764 525.398 688.762 519.252 733.551 507.822C745.214 504.84 756.561 501.531 767.273 497.978C803.973 485.768 836.735 469.246 864.642 448.866C895.914 426.033 919.985 399.047 936.185 368.657C940.307 360.921 943.958 352.917 947.135 344.652C954.817 324.669 959.713 303.203 961.736 280.551C964.304 251.8 962.314 220.266 955.824 186.821C945.892 135.625 926.752 85.6489 911.19 47.8258C892.353 1.70593 872.335 -44.8751 852.976 -89.9255C827.192 -149.925 800.53 -211.97 776.236 -273.895C753.225 -332.338 731.516 -393.745 711.716 -456.417C699.168 -496.258 688.095 -535.333 690.373 -575.375C694.625 -649.91 748.62 -708.993 793.164 -745.438C838.016 -782.129 892.574 -805.872 946.782 -812.294C999.37 -818.522 1056.99 -812.109 1109.01 -794.235L1109.18 -794.752C1057.08 -812.653 999.388 -819.075 946.719 -812.838L946.733 -812.836Z" fill="#65B8CB"/>
</g>
<g opacity="0.3">
<path d="M1045.19 -786.465C1013.42 -792.212 981.766 -793.751 951.095 -791.049C920.466 -788.351 889.849 -780.358 860.103 -767.296C831.751 -754.847 805.41 -738.367 781.808 -718.309C753.095 -693.907 730.025 -668.289 713.237 -642.162C693.358 -611.22 682.271 -579.45 680.283 -547.737C679.133 -529.347 680.659 -509.704 684.947 -487.681C688.828 -467.74 694.632 -447.668 700.325 -428.944C719.414 -366.398 740.962 -305.231 764.368 -247.136C789.008 -185.71 816.518 -124.407 843.122 -65.12C863.067 -20.6684 883.694 25.2966 902.916 70.8835C918.729 108.056 938.183 157.321 948.351 208.755C962.12 278.38 955.71 339.195 929.297 389.516C899.312 446.632 840.396 493.067 763.401 520.262C752.818 523.986 741.626 527.476 730.131 530.636C684.536 543.148 636.494 550.141 590.031 556.905C577.613 558.712 564.774 560.579 552.137 562.531C502.238 570.172 457.848 578.965 416.428 589.417C368.686 601.461 324.474 615.958 285.025 632.505C231.824 654.862 184.782 682.37 145.198 714.27C114.516 738.997 88.0042 767.525 66.406 799.061C44.0112 831.76 27.61 866.696 17.6521 902.903C8.42558 936.574 5.11873 970.828 7.81696 1004.71C10.598 1039.63 19.6851 1072.98 34.8322 1103.84C51.3421 1137.49 75.4089 1168.44 106.369 1195.86C134.733 1220.97 168.089 1242.49 205.511 1259.8C232.429 1272.25 262.024 1283.05 295.47 1292.6L295.674 1292.07C264.979 1283.31 234.943 1272.73 205.767 1259.24C127.345 1222.95 66.8367 1167.67 35.383 1103.57C5.55837 1042.79 -0.530809 971.582 18.2431 903.06C37.7609 832.066 82.9829 765.19 145.584 714.742C185.12 682.879 232.115 655.398 285.263 633.064C358.663 602.275 445.986 579.401 552.231 563.13C564.866 561.181 577.706 559.311 590.121 557.506C636.599 550.74 684.663 543.746 730.292 531.221C741.8 528.058 753.009 524.563 763.605 520.833C799.804 508.048 832.08 491.078 859.539 470.397C890.254 447.261 913.909 420.142 929.842 389.795C933.752 382.343 937.233 374.648 940.278 366.727C948.05 346.51 952.989 324.813 955.004 301.956C957.54 273.163 955.506 241.763 948.953 208.633C938.774 157.143 919.305 107.839 903.481 70.6405C884.258 25.046 863.629 -20.9235 843.68 -65.3763C817.078 -124.656 789.573 -185.953 764.937 -247.37C741.535 -305.448 719.993 -366.603 700.911 -429.128C689.399 -466.984 678.373 -507.321 680.896 -547.704C684.535 -605.782 719.565 -664.617 782.204 -717.844C831.062 -759.364 891.06 -785.145 951.145 -790.441C1009.6 -795.594 1074.13 -784.638 1128.19 -760.386L1128.44 -760.948C1102.88 -772.415 1074.09 -781.238 1045.18 -786.466L1045.19 -786.465Z" fill="#65B8CB"/>
</g>
<g opacity="0.33">
<path d="M1058.13 -760.603C1023.69 -768.539 989.15 -771.448 955.459 -769.257C921.894 -767.204 888.341 -758.956 855.733 -744.742C824.753 -731.238 796.173 -713.072 770.789 -690.751C742.558 -665.928 719.908 -640.17 703.472 -614.191C683.9 -583.261 672.888 -551.59 670.734 -520.059C667.952 -479.176 678.451 -439.133 689.444 -401.623C707.816 -339.221 729.2 -278.3 753.001 -220.561C777.989 -159.639 806.345 -99.0781 833.767 -40.5143C854.302 3.34306 875.537 48.6917 895.145 93.7533C909.965 127.477 930.887 178.352 941.41 230.604C955.279 299.443 949.045 360.02 922.89 410.65C893.41 467.695 835.457 514.728 759.702 543.081C749.24 546.98 738.188 550.653 726.847 553.994C680.322 567.68 631.096 575.572 583.491 583.2C572.677 584.932 561.493 586.725 550.484 588.562C500.431 596.843 456.316 605.916 415.626 616.298C367.255 628.637 324.412 642.598 284.657 658.982C231.398 680.975 184.302 707.885 144.677 738.955C113.628 763.305 86.8322 791.327 65.0388 822.251C42.2981 854.518 25.6455 889.074 15.5486 924.962C-3.50439 992.946 2.64149 1063.96 32.8559 1124.92C48.986 1157.47 72.3217 1187.44 102.217 1214.02C129.679 1238.43 161.917 1259.37 198.04 1276.25C227.454 1290 258.032 1300.72 288.98 1309.51L289.227 1308.87C258.292 1300.08 227.725 1289.37 198.33 1275.63C122.779 1240.31 64.2308 1186.68 33.4713 1124.61C3.33242 1063.81 -2.7984 992.967 16.207 925.145C35.8954 855.163 81.6707 789.232 145.097 739.491C184.671 708.457 231.713 681.582 284.916 659.612C358.002 629.497 442.423 607.134 550.596 589.238C561.605 587.401 572.787 585.611 583.599 583.878C631.224 576.243 680.472 568.352 727.039 554.653C738.393 551.306 749.461 547.632 759.938 543.723C795.629 530.363 827.425 512.947 854.435 491.962C884.596 468.525 907.833 441.274 923.493 410.967C927.191 403.808 930.495 396.439 933.407 388.864C941.274 368.4 946.257 346.466 948.264 323.389C950.773 294.552 948.689 263.291 942.077 230.47C937.631 208.386 931.236 185.535 922.533 160.604C915.42 140.231 906.663 118.275 895.769 93.4814C876.159 48.4152 854.923 3.05913 834.386 -40.8026C806.969 -99.3608 778.617 -159.912 753.634 -220.818C729.844 -278.538 708.467 -339.431 690.102 -401.812C679.125 -439.26 668.641 -479.235 671.417 -520.006C675.391 -578.209 708.976 -635.479 771.24 -690.231C823.337 -736.038 890.496 -764.591 955.503 -768.567C1020.31 -772.783 1090.24 -757.462 1147.37 -726.524L1147.69 -727.127C1120.71 -741.739 1089.74 -753.313 1058.13 -760.599L1058.13 -760.603Z" fill="#65B8CB"/>
</g>
<g opacity="0.37">
<path d="M1071.09 -734.701C1034.02 -744.795 996.586 -749.093 959.828 -747.477C923.269 -746.001 886.772 -737.49 851.352 -722.174C834.575 -714.919 818.214 -706.168 802.725 -696.165C787.482 -686.322 773.03 -675.233 759.771 -663.206C698.635 -607.748 665.463 -550.282 661.184 -492.395C658.139 -451.095 668.561 -409.792 678.567 -374.319C696.223 -312.056 717.441 -251.39 741.638 -194.003C767.35 -132.685 796.968 -71.9701 825.61 -13.2575C846.298 29.1494 867.689 73.0008 887.372 116.604C911.75 170.611 926.276 212.501 934.467 252.434C948.434 320.483 942.381 380.82 916.475 431.767C887.493 488.753 830.501 536.388 755.996 565.886C745.652 569.964 734.737 573.818 723.558 577.339C675.998 592.291 625.453 601.134 576.57 609.684C567.482 611.273 558.081 612.919 548.822 614.58C498.482 623.538 454.648 632.888 414.816 643.162C366.46 655.636 323.76 669.464 284.281 685.439C230.942 707.073 183.795 733.378 144.147 763.618C112.727 787.583 85.648 815.106 63.6637 845.415C40.5751 877.247 23.6775 911.426 13.436 947C3.96992 980.031 0.596179 1013.91 3.40416 1047.71C6.27591 1082.25 15.5174 1115.32 30.8712 1145.99C46.6171 1177.43 69.2185 1206.43 98.0514 1232.16C124.611 1255.87 155.733 1276.24 190.558 1292.7C217.939 1305.63 248.116 1316.7 282.487 1326.4L282.767 1325.67C251.631 1316.87 220.517 1306.01 190.884 1292.01C118.19 1257.65 61.6024 1205.67 31.55 1145.65C1.09312 1084.83 -5.08056 1014.36 14.1606 947.212C34.0149 878.226 80.3401 813.238 144.602 764.224C184.199 734.023 231.288 707.751 284.562 686.143C356.093 657.201 440.105 634.696 548.954 615.326C558.21 613.665 567.61 612.022 576.698 610.432C625.606 601.877 676.174 593.032 723.781 578.062C734.979 574.537 745.908 570.677 756.269 566.592C791.452 552.66 822.76 534.799 849.326 513.503C878.93 489.771 901.749 462.385 917.143 432.116C920.648 425.221 923.79 418.158 926.57 410.926C944.399 364.549 947.313 311.305 935.201 252.289C926.997 212.3 912.454 170.359 888.054 116.303C868.369 72.6879 846.974 28.8352 826.282 -13.5772C797.643 -72.281 768.033 -132.985 742.324 -194.284C718.142 -251.643 696.931 -312.28 679.286 -374.514C669.296 -409.922 658.893 -451.151 661.931 -492.329C666.196 -550.015 699.285 -607.314 760.273 -662.634C816.016 -713.197 888.761 -743.84 959.854 -746.712C1031.19 -749.851 1106.53 -730.155 1166.54 -692.677L1166.94 -693.315C1138.57 -711.031 1105.42 -725.338 1071.08 -734.688L1071.09 -734.701Z" fill="#65B8CB"/>
</g>
<g opacity="0.41">
<path d="M1084.04 -708.792C1064.79 -714.729 1045.05 -719.18 1025.35 -722.023C1004.86 -724.979 984.284 -726.214 964.186 -725.687C944.242 -725.234 924.005 -722.718 904.027 -718.207C884.731 -713.849 865.524 -707.595 846.943 -699.621C828.83 -691.849 811.223 -682.406 794.619 -671.559C778.245 -660.862 762.809 -648.782 748.742 -635.649C721.522 -610.238 699.692 -584.228 683.857 -558.349C664.956 -527.451 654.11 -495.952 651.623 -464.722C650.17 -446.427 651.124 -427.011 654.547 -405.361C657.865 -384.367 663.046 -364.081 667.676 -347.006C684.612 -284.884 705.669 -224.468 730.26 -167.434C756.303 -106.68 786.754 -46.7748 816.201 11.1575C837.487 53.0323 859.498 96.3342 879.589 139.469C894.971 172.496 916.674 222.401 927.516 274.275C941.574 341.53 935.702 401.625 910.055 452.895C881.568 509.839 825.535 558.071 752.28 588.703C742.061 592.957 731.285 596.993 720.258 600.694C671.545 617.017 619.527 626.876 569.218 636.406C561.989 637.775 554.517 639.191 547.152 640.608C472.177 654.904 374.498 675.925 283.898 711.91C230.464 733.188 183.265 758.891 143.61 788.297C111.816 811.875 84.4492 838.893 62.2793 868.593C38.8441 899.987 21.6983 933.786 11.3186 969.05C1.72957 1001.77 -1.67923 1035.46 1.18671 1069.2C4.10456 1103.57 13.4232 1136.49 28.884 1167.05C44.238 1197.41 66.1071 1225.42 93.8797 1250.32C119.533 1273.32 149.544 1293.11 183.076 1309.14C210.686 1322.33 241.145 1333.53 275.98 1343.31L276.265 1342.57C243.538 1333.42 212.96 1322.5 183.427 1308.4C113.578 1275 58.9531 1224.67 29.6154 1166.68C-1.15475 1105.87 -7.37326 1035.76 12.1073 969.287C32.4177 900.292 78.0593 837.935 144.099 788.959C183.695 759.594 230.834 733.93 284.2 712.674C374.735 676.716 472.368 655.702 547.306 641.414C554.666 640 562.143 638.582 569.369 637.211C619.703 627.673 671.752 617.811 720.516 601.47C731.563 597.763 742.353 593.72 752.593 589.459C787.261 574.962 818.088 556.655 844.213 535.042C873.261 511.015 895.659 483.497 910.787 453.261C914.088 446.657 917.062 439.915 919.71 433.027C937.698 386.236 940.602 332.885 928.315 274.103C923.739 252.205 917.141 229.652 908.143 205.152C900.76 185.051 891.664 163.451 880.331 139.117C860.237 95.9707 838.221 52.6632 816.931 10.7794C787.491 -47.1396 757.045 -107.031 731.012 -167.763C706.437 -224.761 685.395 -285.138 668.467 -347.225C656.695 -390.647 649.465 -427.233 652.438 -464.659C657.006 -521.986 689.593 -579.312 749.295 -635.049C808.559 -690.376 886.887 -723.114 964.198 -724.865C1042.03 -726.888 1122.77 -702.826 1185.71 -658.841L1186.18 -659.517C1156.4 -680.325 1121.08 -697.365 1084.03 -708.794L1084.04 -708.792Z" fill="#65B8CB"/>
</g>
<g opacity="0.45">
<path d="M1096.99 -682.881C1076.45 -689.861 1055.32 -695.191 1034.18 -698.718C1012.24 -702.379 990.158 -704.12 968.549 -703.894C947.097 -703.734 925.327 -701.299 903.847 -696.651C883.082 -692.159 862.449 -685.577 842.515 -677.088C823.055 -668.8 804.207 -658.668 786.491 -646.978C768.983 -635.425 752.574 -622.338 737.718 -608.091C711.02 -582.487 689.592 -556.363 674.025 -530.452C655.48 -499.582 644.728 -468.157 642.071 -437.048C638.644 -396.851 647.123 -356.889 656.797 -319.691C673.017 -257.708 693.908 -197.54 718.895 -140.865C745.269 -80.6761 776.55 -21.5787 806.805 35.5713C828.693 76.9155 851.323 119.668 871.817 162.331C896.659 214.047 912.153 256.559 920.571 296.115C934.716 362.569 929.021 422.426 903.642 474.024C875.639 530.941 820.566 579.77 748.571 611.519C738.47 615.954 727.835 620.17 716.964 624.049C666.968 641.863 615.688 652.319 561.394 663.386C556.099 664.465 550.795 665.547 545.491 666.637C464.883 683.045 370.719 704.401 283.524 738.383C229.975 759.311 182.725 784.409 143.086 812.978C110.911 836.167 83.2621 862.675 60.9074 891.774C37.1267 922.725 19.7359 956.148 9.21111 991.109C-0.498816 1023.52 -3.94391 1057.03 -1.02519 1090.71C1.93432 1124.9 11.3346 1157.68 26.9037 1188.13C41.8626 1217.39 62.993 1244.42 89.7092 1268.48C114.457 1290.77 143.353 1309.99 175.595 1325.6C205.832 1340.21 237.494 1351.33 269.473 1360.25L269.795 1359.41C237.832 1350.49 206.19 1339.4 175.981 1324.79C108.965 1292.35 56.3009 1243.67 27.6932 1187.72C-3.39312 1126.92 -9.6577 1057.19 10.0619 991.366C30.5393 923.344 76.7166 861.911 143.606 813.704C183.187 785.179 230.371 760.118 283.847 739.217C370.981 705.26 465.096 683.918 545.669 667.515C550.975 666.426 556.277 665.343 561.572 664.264C615.898 653.191 667.209 642.729 717.262 624.892C728.153 621.007 738.806 616.783 748.927 612.336C783.078 597.276 813.42 578.521 839.109 556.593C867.599 532.274 889.581 504.625 904.439 474.419C907.488 468.221 910.255 461.886 912.741 455.418C920.927 434.126 926.06 411.408 928.043 387.636C930.457 358.693 928.234 327.839 921.441 295.931C913.007 256.302 897.493 213.727 872.616 161.947C852.114 119.269 829.479 76.5073 807.586 35.1574C777.34 -21.9779 746.065 -81.0621 719.705 -141.22C694.739 -197.853 673.86 -257.976 657.655 -319.914C648.002 -357.033 639.541 -396.908 642.957 -436.969C647.836 -494.069 679.928 -551.428 738.335 -607.445C801 -667.55 884.912 -702.377 968.555 -703.001C1051.62 -703.871 1139.97 -674.711 1204.89 -624.991L1205.43 -625.698C1174.23 -649.592 1136.73 -669.365 1096.99 -682.878L1096.99 -682.881Z" fill="#65B8CB"/>
</g>
<g opacity="0.49">
<path d="M1109.94 -656.974C1088.12 -664.998 1065.61 -671.205 1043.02 -675.422C1019.62 -679.789 996.036 -682.038 972.921 -682.109C949.955 -682.243 926.655 -679.889 903.665 -675.114C881.423 -670.494 859.354 -663.588 838.074 -654.586C817.261 -645.784 797.17 -634.963 778.352 -622.426C759.708 -610.007 742.33 -595.912 726.706 -580.54C700.543 -554.796 679.508 -528.565 664.187 -502.574C646.009 -471.74 635.357 -440.384 632.527 -409.381C630.864 -391.133 631.442 -371.866 634.295 -350.487C636.558 -333.516 640.144 -315.595 645.923 -292.385C661.425 -230.541 682.153 -170.623 707.532 -114.299C734.238 -54.6742 766.351 3.61706 797.411 59.9866C819.897 100.799 843.149 142.999 864.047 185.192C889.293 236.157 905.048 278.343 913.63 317.951C927.858 383.597 922.34 443.213 897.232 495.147C861.957 568.082 794.902 611.09 744.863 634.328C734.886 638.94 724.39 643.339 713.674 647.398C662.249 666.842 609.195 678.409 553.029 690.652C549.963 691.321 546.898 691.987 543.831 692.66C505.042 701.064 459.091 711.333 412.385 723.787C363.836 736.732 321.566 750.161 283.153 764.846C257.404 774.718 232.965 785.542 210.51 797.026C186.08 809.518 163.216 823.186 142.558 837.647C74.6426 885.19 27.8019 945.879 7.09748 1013.15C-2.73707 1045.26 -6.21601 1078.59 -3.24771 1112.2C-0.244566 1146.22 9.23291 1178.86 24.916 1209.2C39.474 1237.36 59.867 1263.41 85.528 1286.64C109.371 1308.21 137.156 1326.85 168.112 1342.03C195.605 1355.5 225.919 1366.79 260.784 1376.57C261.508 1376.78 262.238 1376.97 262.966 1377.18L263.323 1376.25C231.319 1367.37 199.044 1356.11 168.536 1341.17C104.337 1309.68 53.6362 1262.66 25.7701 1208.75C-5.64307 1147.99 -11.9473 1078.62 8.01565 1013.43C28.652 946.368 75.3662 885.855 143.108 838.436C182.648 810.757 229.88 786.299 283.492 765.745C366.826 733.895 457.958 712.249 544.029 693.601C547.099 692.93 550.165 692.26 553.23 691.594C609.433 679.343 662.515 667.769 714.009 648.3C724.748 644.235 735.263 639.825 745.263 635.203C778.897 619.584 808.754 600.384 834.005 578.133C861.932 553.525 883.496 525.745 898.091 495.565C900.916 489.72 903.499 483.756 905.836 477.679C914.14 456.077 919.329 433.07 921.302 409.048C923.682 380.077 921.416 349.357 914.563 317.746C905.961 278.057 890.181 235.799 864.901 184.762C843.992 142.55 820.736 100.341 798.246 59.5197C767.198 3.16598 735.092 -55.1044 708.403 -114.697C683.045 -170.969 662.335 -230.832 646.85 -292.621C637.725 -329.276 629.789 -368.783 633.478 -409.299C638.684 -466.292 670.275 -523.678 727.376 -579.859C792.361 -643.798 884.15 -681.667 972.914 -681.154C1055.16 -680.906 1141.18 -652.423 1207.25 -604.214L1207.6 -605.138C1178.6 -626.256 1145.23 -644.007 1109.94 -656.981L1109.94 -656.974Z" fill="#65B8CB"/>
</g>
<g opacity="0.53">
<path d="M1051.84 -652.12C1026.99 -657.191 1001.9 -659.951 977.278 -660.318C952.797 -660.744 927.962 -658.476 903.462 -653.575C879.733 -648.831 856.226 -641.602 833.593 -632.096C789.346 -613.507 748.571 -586.148 715.671 -552.98C690.046 -527.143 669.401 -500.806 654.312 -474.7C636.515 -443.908 625.966 -412.619 622.96 -381.705C618.961 -340.459 626.815 -299.6 635.026 -265.07C649.807 -203.363 670.375 -143.695 696.151 -87.7255C723.184 -28.6638 756.134 28.8193 787.998 84.4084C811.084 124.686 834.959 166.337 856.26 208.056C881.905 258.288 897.926 300.148 906.67 339.793C920.978 404.627 915.636 464.005 890.803 516.28C856.132 589.223 790.279 633.146 741.138 657.149C731.283 661.941 720.927 666.521 710.364 670.758C657.338 691.99 602.295 704.75 544.019 718.258L542.152 718.689C452.721 739.251 365.591 760.282 282.766 791.316C256.996 801.004 232.57 811.572 210.164 822.728C185.645 834.936 162.718 848.259 142.021 862.322C109.079 884.712 80.8566 910.212 58.1418 938.113C33.6728 968.174 15.7855 1000.84 4.9757 1035.2C0.0330975 1050.99 -3.3578 1067.38 -5.1048 1083.93C-6.84467 1100.4 -6.96899 1117.14 -5.47957 1133.7C-2.43082 1167.56 7.12509 1200.05 22.9233 1230.27C37.0742 1257.33 56.7271 1282.41 81.3374 1304.8C104.273 1325.66 130.948 1343.73 160.62 1358.48C187.125 1371.64 216.242 1382.68 249.64 1392.22C251.885 1392.87 254.153 1393.5 256.438 1394.13L256.801 1393.19C224.788 1384.38 192.195 1373.01 161.081 1357.56C99.6924 1327.03 50.9493 1281.65 23.8389 1229.79C-7.44046 1169.96 -13.9576 1099.15 5.96122 1035.51C7.62717 1030.21 9.45916 1024.96 11.4626 1019.75C34.4618 959.926 79.5059 906.056 142.598 863.177C182.077 836.347 229.355 812.496 283.126 792.283C365.893 761.27 452.988 740.252 542.384 719.695L544.252 719.261C602.569 705.742 657.648 692.974 710.749 671.712C721.336 667.467 731.713 662.879 741.592 658.074C774.702 641.904 804.074 622.253 828.893 599.678C856.261 574.784 877.404 546.872 891.734 516.719C894.337 511.241 896.728 505.664 898.908 499.994C907.338 478.064 912.589 454.754 914.556 430.468C916.903 401.467 914.587 370.886 907.68 339.57C898.915 299.836 882.868 257.9 857.18 207.589C835.866 165.843 811.986 124.186 788.895 83.8954C757.042 28.3252 724.105 -29.1375 697.091 -88.1592C671.339 -144.068 650.798 -203.671 636.033 -265.313C627.84 -299.758 620.005 -340.514 623.99 -381.608C629.532 -438.605 660.626 -496.019 716.405 -552.256C784.521 -620.928 882.036 -660.94 977.26 -659.287C1055.41 -658.122 1136 -632.515 1201.47 -589.201L1201.85 -590.169C1177.49 -606.256 1150.82 -620.104 1122.89 -631.064C1099.78 -640.132 1075.88 -647.216 1051.84 -652.123L1051.84 -652.12Z" fill="#65B8CB"/>
</g>
<g opacity="0.57">
<path d="M1060.68 -628.825C1034.37 -634.603 1007.77 -637.869 981.646 -638.534C955.643 -639.251 929.27 -637.073 903.261 -632.057C878.034 -627.189 853.083 -619.65 829.103 -609.639C782.027 -589.988 738.992 -560.87 704.655 -525.43C650.031 -469.055 619.335 -411.392 613.418 -354.042C611.541 -335.821 611.74 -316.711 614.026 -295.616C615.89 -278.413 619.107 -260.03 624.154 -237.767C638.214 -176.197 658.62 -116.779 684.793 -61.1613C712.155 -2.66104 745.939 54.0155 778.609 108.829C802.297 148.572 826.795 189.668 848.497 230.919C874.548 280.43 890.83 321.964 899.736 361.631C913.912 424.747 908.609 485.527 884.396 537.404C850.324 610.378 785.672 655.208 737.432 679.963C727.702 684.935 717.487 689.695 707.073 694.11C652.381 717.264 592.937 731.847 540.491 744.715L537.92 745.342C452.971 766.023 365.131 787.406 282.396 817.783C256.595 827.285 232.183 837.597 209.833 848.423C185.221 860.347 162.228 873.325 141.502 886.994C108.169 908.976 79.6624 933.97 56.7731 961.281C31.9591 990.888 13.8236 1023.17 2.87342 1057.25C-2.13161 1072.9 -5.5679 1089.2 -7.33441 1105.67C-9.08712 1122.04 -9.21121 1138.71 -7.69641 1155.21C-6.17887 1171.77 -3.00045 1188.28 1.74206 1204.29C6.55195 1220.51 13.0143 1236.34 20.9489 1251.34C34.6849 1277.31 53.5992 1301.41 77.1619 1322.96C99.1915 1343.11 124.756 1360.6 153.147 1374.93C184.689 1390.82 218.029 1402.37 249.928 1411.09L250.325 1410.06C218.454 1401.35 185.145 1389.82 153.643 1373.95C95.0476 1344.36 48.2678 1300.64 21.9207 1250.83C-9.68498 1191.07 -16.2442 1120.63 3.91865 1057.59C24.8775 992.381 72.6611 933.711 142.106 887.915C182.047 861.575 228.061 838.972 282.776 818.816C365.451 788.461 453.259 767.083 538.179 746.41L540.75 745.782C593.237 732.905 652.726 718.309 707.501 695.121C717.941 690.698 728.179 685.924 737.933 680.939C770.514 664.219 799.404 644.125 823.796 621.216C850.602 596.041 871.325 567.996 885.392 537.868C887.769 532.775 889.968 527.601 891.986 522.352C900.551 500.072 905.866 476.441 907.824 451.883C910.137 422.857 907.777 392.41 900.808 361.388C891.878 321.623 875.566 280.004 849.468 230.405C827.749 189.129 803.246 148.02 779.552 108.264C746.894 53.4738 713.127 -3.17832 685.787 -61.6296C659.645 -117.176 639.266 -176.518 625.223 -238.011C617.972 -270.003 610.2 -312.091 614.508 -353.929C620.402 -411.026 650.995 -468.471 705.443 -524.663C776.586 -598.088 879.825 -640.245 981.616 -637.434C1055.76 -635.551 1131.42 -612.553 1195.54 -573.765L1195.93 -574.779C1176.89 -586.297 1156.72 -596.51 1135.85 -605.158C1111.45 -615.266 1086.16 -623.233 1060.68 -628.825Z" fill="#65B8CB"/>
</g>
<g opacity="0.61">
<path d="M1069.51 -605.516C1041.74 -611.999 1013.65 -615.775 986.009 -616.737C958.482 -617.749 930.568 -615.659 903.043 -610.53C876.31 -605.546 849.909 -597.691 824.576 -587.185C774.639 -566.473 729.357 -535.587 693.627 -497.862C640.347 -441.615 610.144 -383.913 603.859 -326.363C599.223 -283.834 606.452 -242.077 613.265 -210.448C626.607 -149.011 646.848 -89.8435 673.422 -34.5798C701.114 23.3589 735.73 79.2294 769.205 133.262C793.496 172.472 818.614 213.015 840.719 253.794C867.173 302.6 883.72 343.809 892.786 383.481C907.027 445.787 901.907 506.321 877.978 558.542C844.498 631.575 781.047 677.293 733.715 702.787C724.111 707.94 714.036 712.88 703.771 717.473C651.915 740.642 596.156 755.895 538.82 770.748C530.275 772.944 521.693 775.141 513.083 777.345C436.375 796.975 357.058 817.273 282.021 844.256C227.009 864.106 180.872 886.157 140.975 911.671C107.248 933.24 78.4534 957.729 55.3929 984.451C30.2352 1013.6 11.8535 1045.51 0.757691 1079.3C-4.31421 1094.82 -7.79025 1111 -9.57749 1127.41C-11.3475 1143.68 -11.4669 1160.27 -9.93112 1176.71C-8.39041 1193.2 -5.18169 1209.64 -0.390836 1225.59C4.4627 1241.74 10.9719 1257.49 18.9622 1272.41C32.279 1297.29 50.4501 1320.41 72.9685 1341.13C94.0888 1360.56 118.547 1377.46 145.662 1391.37C170.187 1403.93 196.915 1414.45 227.375 1423.53C232.586 1425.08 237.924 1426.59 243.396 1428.07L243.814 1426.99C206.33 1416.9 174.881 1405.02 146.193 1390.33C89.5675 1361.28 45.928 1320.31 19.9891 1271.86C-11.9504 1212.2 -18.5529 1142.14 1.86707 1079.66C22.9804 1015.36 71.301 957.615 141.602 912.656C181.425 887.187 227.486 865.173 282.416 845.354C357.398 818.39 436.691 798.097 513.37 778.475C521.984 776.272 530.565 774.075 539.112 771.876C596.497 757.009 652.31 741.74 704.246 718.536C714.533 713.932 724.636 708.978 734.267 703.813C766.321 686.548 794.723 666.009 818.689 642.763C844.932 617.309 865.237 589.137 879.04 559.025C881.188 554.336 883.188 549.584 885.039 544.77C893.747 522.119 899.134 498.147 901.08 473.302C903.357 444.254 900.952 413.944 893.928 383.21C884.837 343.432 868.256 302.129 841.747 253.225C819.626 212.413 794.498 171.856 770.2 132.636C736.741 78.6313 702.144 22.7867 674.478 -35.0943C647.941 -90.2737 627.731 -149.359 614.409 -210.704C607.614 -242.245 600.405 -283.883 605.021 -326.244C611.28 -383.535 641.376 -441.006 694.473 -497.066C768.534 -575.258 877.503 -619.557 985.963 -615.573C1056.16 -613.129 1127.23 -592.52 1189.44 -557.911L1189.85 -558.967C1176.56 -566.359 1162.84 -573.146 1148.79 -579.244C1123.11 -590.394 1096.43 -599.237 1069.5 -605.522L1069.51 -605.516Z" fill="#65B8CB"/>
</g>
<g opacity="0.65">
<path d="M1078.34 -582.225C1049.11 -589.412 1019.52 -593.696 990.374 -594.957C961.32 -596.261 931.864 -594.267 902.82 -589.027C874.568 -583.93 846.713 -575.77 820.031 -564.77C767.21 -542.999 719.688 -510.338 682.602 -470.311C658.619 -444.426 639.124 -417.787 624.662 -391.13C608.062 -360.533 597.849 -329.435 594.304 -298.699C592.209 -280.485 592.029 -261.528 593.755 -240.74C595.201 -223.34 598.022 -204.499 602.383 -183.144C615.002 -121.845 635.08 -62.9242 662.055 -8.01439C690.077 49.3629 725.525 104.43 759.807 157.684C784.702 196.356 810.442 236.343 832.947 276.655C859.808 324.77 876.616 365.652 885.843 405.317C900.147 466.807 895.207 527.094 871.562 579.668C838.66 652.786 776.42 699.386 729.999 725.602C720.517 730.935 710.583 736.057 700.47 740.827C647.5 765.773 590.744 782.144 537.154 796.773C521.251 801.084 504.895 805.445 489.077 809.66C420.317 827.987 349.211 846.937 281.651 870.72C226.39 890.239 180.203 911.704 140.456 936.341C106.333 957.493 77.2484 981.472 54.0185 1007.61C28.5171 1036.31 9.88912 1067.84 -1.34707 1101.34C-22.1376 1163.6 -15.4568 1233.63 16.9854 1293.48C29.8784 1317.27 47.3031 1339.41 68.7804 1359.29C88.9894 1378 112.342 1394.33 138.186 1407.82C166.897 1422.77 199.067 1434.95 236.883 1445.05L237.33 1443.88C199.548 1433.8 167.424 1421.65 138.76 1406.72C84.9435 1378.63 43.2137 1339.27 18.0768 1292.89C-14.1974 1233.35 -20.8509 1163.67 -0.169616 1101.74C21.4068 1037.42 68.9374 982.131 141.111 937.395C180.785 912.804 226.891 891.378 282.067 871.889C349.584 848.122 420.662 829.176 489.401 810.856C505.224 806.639 521.583 802.279 537.486 797.968C591.13 783.323 647.945 766.934 701.008 741.947C711.147 737.165 721.108 732.031 730.615 726.682C762.136 708.88 790.051 687.893 813.593 664.304C839.271 638.577 859.156 610.273 872.699 580.175C874.617 575.914 876.41 571.604 878.084 567.249C886.945 544.2 892.406 519.863 894.348 494.725C896.592 465.657 894.139 435.48 887.055 405.036C877.803 365.255 860.954 324.268 834.034 276.05C811.512 235.706 785.76 195.699 760.856 157.013C726.596 103.789 691.166 48.751 663.174 -8.55965C636.243 -63.3751 616.201 -122.198 603.601 -183.393C594.174 -229.554 591.687 -265.071 595.541 -298.555C602.18 -356.128 631.776 -413.628 683.514 -469.467C760.394 -552.443 875.088 -598.889 990.32 -593.715C1056.6 -590.848 1123.32 -572.429 1183.21 -541.685L1183.63 -542.772C1176.44 -546.469 1169.14 -549.998 1161.75 -553.336C1134.78 -565.528 1106.71 -575.249 1078.34 -582.225Z" fill="#65B8CB"/>
</g>
<g opacity="0.69">
<path d="M1087.17 -558.922C1056.49 -566.816 1025.39 -571.605 994.736 -573.166C964.151 -574.764 933.148 -572.864 902.583 -567.524C872.805 -562.319 843.49 -553.855 815.454 -542.37C759.722 -519.538 709.969 -485.092 671.578 -442.755C648.142 -416.914 629.027 -390.172 614.762 -363.282C598.58 -332.774 588.482 -301.738 584.753 -271.03C580.677 -237.418 582.824 -200.814 591.5 -155.839C603.397 -94.6743 623.312 -36.0001 650.689 18.5559C679.044 75.3729 715.323 129.637 750.411 182.115C775.91 220.25 802.276 259.683 825.176 299.524C852.444 346.96 869.514 387.516 878.896 427.159C893.256 487.828 888.502 547.867 865.147 600.798C832.821 674.027 771.788 721.497 726.284 748.422C716.928 753.936 707.133 759.24 697.171 764.185C648.643 788.241 597.438 805.016 535.485 822.802C512.514 829.357 488.761 835.896 465.786 842.221C404.71 859.038 341.555 876.428 281.274 897.19C225.727 916.382 179.492 937.262 139.926 961.014C105.403 981.744 76.0325 1005.21 52.6373 1030.78C26.7934 1059.01 7.91725 1090.17 -3.46305 1123.39C-8.66869 1138.65 -12.2311 1154.63 -14.0574 1170.89C-15.8612 1186.96 -15.9801 1203.4 -14.4032 1219.73C-12.8275 1236.06 -9.55042 1252.37 -4.66166 1268.19C0.27869 1284.2 6.89417 1299.8 14.9985 1314.56C27.4601 1337.25 44.1417 1358.42 64.5759 1377.46C83.8767 1395.45 106.123 1411.19 130.694 1424.26C153.229 1436.22 177.569 1446.22 205.101 1454.83C213.251 1457.38 221.645 1459.79 230.325 1462.08L230.794 1460.86C192.777 1450.87 160.412 1438.55 131.305 1423.1C80.2857 1395.97 40.4605 1358.22 16.1417 1313.93C-16.4802 1254.52 -23.1727 1185.22 -2.22713 1123.82C19.5016 1060.39 67.5573 1005.99 140.599 962.138C180.084 938.432 226.241 917.592 281.7 898.429C341.939 877.68 405.076 860.297 466.132 843.485C489.107 837.159 512.864 830.618 535.844 824.062C597.867 806.255 649.137 789.457 697.75 765.358C707.74 760.401 717.562 755.081 726.948 749.549C757.929 731.217 785.365 709.784 808.485 685.845C833.597 659.848 853.061 631.412 866.343 601.324C878.198 574.461 885.351 545.801 887.602 516.14C889.809 487.055 887.311 457.015 880.173 426.855C870.759 387.085 853.647 346.417 826.312 298.867C803.388 258.991 777.008 219.539 751.498 181.384C716.433 128.942 680.177 74.715 651.86 17.9683C624.539 -36.482 604.661 -95.0423 592.785 -156.089C584.133 -200.925 581.994 -237.397 586.051 -270.873C593.089 -328.812 622.189 -386.345 672.546 -441.875C750.956 -528.342 874.384 -578.147 994.669 -571.859C1057.04 -568.687 1119.56 -552.267 1176.83 -525.086L1177.26 -526.211C1176.41 -526.616 1175.55 -527.028 1174.7 -527.427C1146.44 -540.659 1116.99 -551.259 1087.17 -558.927L1087.17 -558.922Z" fill="#65B8CB"/>
</g>
<g opacity="0.73">
<path d="M1096 -535.625C1063.86 -544.223 1031.26 -549.522 999.103 -551.379C966.986 -553.272 934.431 -551.472 902.343 -546.029C871.029 -540.714 840.246 -531.957 810.857 -519.988C752.187 -496.099 700.214 -459.863 660.555 -415.194C637.665 -389.415 618.927 -362.58 604.854 -335.432C589.098 -305.037 579.121 -274.058 575.204 -243.359C570.859 -209.276 572.582 -172.787 580.621 -128.528C591.798 -67.5005 611.548 -9.06983 639.326 45.1325C668.01 101.391 705.121 154.849 741.014 206.547C767.117 244.145 794.109 283.022 817.407 322.391C845.084 369.156 862.415 409.389 871.956 449.002C886.365 508.842 881.794 568.638 858.734 621.93C826.971 695.302 767.156 743.626 722.567 771.246C713.339 776.941 703.685 782.425 693.873 787.546C641.696 814.736 586.114 833.072 533.822 848.833C504.03 857.762 473.061 866.506 443.115 874.964C389.498 890.101 334.058 905.76 280.911 923.659C225.04 942.535 178.756 962.825 139.414 985.689C65.2104 1028.81 16.4338 1082.56 -5.56391 1145.44C-10.8345 1160.57 -14.4455 1176.44 -16.2912 1192.63C-18.1148 1208.61 -18.2335 1224.97 -16.6356 1241.25C-15.0391 1257.51 -11.7298 1273.75 -6.79787 1289.51C-1.8119 1305.45 4.8593 1320.96 13.0262 1335.64C25.0533 1357.24 40.9861 1377.43 60.3836 1395.64C78.7743 1412.9 99.9161 1428.06 123.221 1440.71C152.383 1456.5 185.565 1469.18 223.802 1479.09L224.3 1477.79C186.106 1467.9 152.976 1455.26 123.878 1439.5C75.6381 1413.32 37.724 1377.18 14.2302 1334.97C-18.7462 1275.72 -25.4821 1206.81 -4.25988 1145.9C17.6222 1083.34 66.2005 1029.84 140.11 986.884C179.371 964.067 225.576 943.812 281.354 924.967C334.468 907.077 389.894 891.428 443.492 876.29C473.446 867.832 504.415 859.088 534.22 850.153C586.579 834.37 642.236 816.012 694.514 788.768C704.358 783.633 714.041 778.131 723.298 772.417C753.741 753.561 780.69 731.68 803.395 707.386C827.937 681.127 846.985 652.559 860.003 622.477C861.446 619.145 862.816 615.792 864.116 612.411C873.318 588.474 878.948 563.344 880.871 537.562C883.044 508.46 880.497 478.556 873.302 448.68C863.729 408.93 846.348 368.578 818.601 321.691C795.278 282.279 768.269 243.38 742.155 205.763C706.289 154.102 669.203 100.683 640.56 44.5064C612.844 -9.57673 593.135 -67.8771 581.985 -128.773C573.972 -172.889 572.253 -209.244 576.578 -243.18C584.032 -301.569 612.636 -359.131 661.595 -414.272C742.58 -505.483 871.879 -557.489 999.034 -549.992C1057.51 -546.614 1115.93 -532.019 1170.32 -508.122L1170.77 -509.299C1146.44 -520.01 1121.37 -528.838 1096.02 -535.617L1096 -535.625Z" fill="#65B8CB"/>
</g>
<g opacity="0.77">
<path d="M1104.84 -512.321C1071.24 -521.623 1037.13 -527.431 1003.47 -529.588C969.813 -531.776 935.701 -530.078 902.085 -524.541C869.223 -519.126 836.972 -510.072 806.226 -497.627C744.594 -472.68 690.407 -434.648 649.527 -387.636C627.182 -361.942 608.814 -335.009 594.934 -307.588C579.614 -277.32 569.76 -246.403 565.647 -215.692C561.086 -181.592 562.424 -144.15 569.735 -101.225C580.189 -40.3278 599.778 17.8532 627.96 71.703C656.807 127.086 694.552 179.425 731.056 230.047C757.985 267.392 785.835 306.011 809.639 345.261C837.257 390.399 855.368 431.476 865.01 470.844C879.467 529.85 875.075 589.401 852.318 643.064C821.113 716.613 762.514 765.777 718.848 794.067C709.748 799.948 700.232 805.61 690.569 810.906C637.601 839.895 580.764 859.504 532.149 874.864C495.756 886.305 457.739 897.239 420.971 907.815C374.614 921.15 326.682 934.936 280.539 950.127C224.306 968.691 177.97 988.394 138.893 1010.36C103.558 1030.22 73.6136 1052.68 49.8928 1077.09C23.3645 1104.4 3.99458 1134.81 -7.67516 1167.49C-13.0138 1182.49 -16.667 1198.26 -18.5399 1214.37C-20.3877 1230.27 -20.5029 1246.55 -18.8893 1262.76C-17.2778 1278.96 -13.9337 1295.13 -8.95417 1310.82C-3.91936 1326.69 2.80759 1342.13 11.0396 1356.71C22.6233 1377.23 37.8096 1396.44 56.1705 1413.81C73.6491 1430.34 93.6882 1444.93 115.731 1457.15C145.378 1473.56 178.833 1486.42 217.248 1496.13L217.772 1494.77C179.409 1485.09 146.011 1472.26 116.435 1455.88C70.9646 1430.66 34.9582 1396.12 12.3042 1356C-21.0333 1296.94 -27.8169 1228.41 -6.30825 1167.97C15.7321 1106.26 64.8246 1053.66 139.604 1011.62C178.602 989.701 224.85 970.033 280.993 951.501C327.113 936.323 375.031 922.536 421.375 909.207C458.151 898.627 496.18 887.69 532.59 876.244C581.272 860.862 638.195 841.224 691.269 812.177C700.964 806.864 710.511 801.18 719.643 795.282C749.545 775.909 776.007 753.582 798.299 728.924C822.272 702.405 840.899 673.706 853.663 643.625C865.113 616.635 871.998 588.156 874.138 558.975C876.275 529.863 873.68 500.091 866.429 470.495C861.201 449.146 853.738 427.901 843.617 405.55C834.767 386.007 824.058 366.037 810.887 344.504C787.055 305.203 759.191 266.564 732.241 229.196C695.767 178.619 658.055 126.321 629.256 71.0307C601.144 17.3147 581.604 -40.7259 571.176 -101.47C563.89 -144.249 562.556 -181.55 567.097 -215.499C574.876 -273.594 603.764 -332.787 650.633 -386.685C734.098 -482.663 869.265 -536.863 1003.39 -528.143C1057.96 -524.649 1112.36 -511.736 1163.68 -490.853L1164.15 -492.065C1144.69 -500.002 1124.86 -506.783 1104.85 -512.324L1104.84 -512.321Z" fill="#65B8CB"/>
</g>
<g opacity="0.8">
<path d="M1113.67 -489.022C1078.61 -499.024 1043 -505.343 1007.83 -507.796C866.175 -517.797 724.655 -461.195 638.499 -360.074C616.694 -334.482 598.698 -307.454 585.007 -279.739C570.132 -249.624 560.404 -218.766 556.09 -188.02C551.243 -153.417 552.144 -116.091 558.844 -73.9156C563.605 -44.1874 570.823 -14.6852 580.297 13.774C590.019 42.9765 602.228 71.4084 616.585 98.2811C645.785 153.159 684.394 204.752 721.731 254.645C749.236 291.402 777.678 329.409 801.857 368.134C829.89 412.68 848.271 453.419 858.055 492.687C872.548 550.852 868.341 610.159 845.89 664.193C821.624 722.576 776.402 775.376 715.117 816.888C706.142 822.95 696.769 828.795 687.252 834.266C633.446 865.159 575.199 886.099 530.465 900.89C487.667 914.982 442.725 928.065 399.265 940.721C360.001 952.152 319.401 963.975 280.156 976.591C223.509 994.852 177.128 1013.96 138.361 1035.03C102.618 1054.45 72.3846 1076.39 48.5043 1100.25C21.6328 1127.09 2.01867 1157.13 -9.79641 1189.53C-15.2012 1204.4 -18.903 1220.07 -20.7986 1236.11C-22.6686 1251.92 -22.7881 1268.13 -21.1554 1284.28C-19.5289 1300.41 -16.1513 1316.51 -11.1222 1332.14C-6.03852 1347.94 0.748617 1363.3 9.0502 1377.79C20.1872 1397.22 34.6215 1415.45 51.9501 1431.98C68.5166 1447.79 87.4522 1461.79 108.234 1473.59C127.493 1484.52 148.841 1494 171.683 1501.79C184.081 1506.02 197.134 1509.81 210.698 1513.15L211.249 1511.71C172.899 1502.29 138.595 1489.07 108.984 1472.27C66.2685 1448.01 32.17 1415.07 10.3678 1377.03C-22.8472 1319.07 -29.8528 1249.17 -8.36707 1190.05C13.8345 1129.18 63.44 1077.47 139.09 1036.37C177.774 1015.35 224.071 996.272 280.625 978.041C319.849 965.432 360.44 953.613 399.693 942.182C443.169 929.524 488.125 916.435 530.948 902.334C575.749 887.522 634.09 866.548 688.016 835.583C697.565 830.095 706.972 824.23 715.976 818.146C745.335 798.262 771.313 775.488 793.188 750.46C816.593 723.686 834.798 694.857 847.302 664.772C858.545 637.718 865.3 609.328 867.387 580.392C869.484 551.268 866.844 521.634 859.541 492.316C854.242 471.046 846.682 449.948 836.432 427.817C827.439 408.399 816.553 388.61 803.157 367.319C778.946 328.542 750.485 290.509 722.96 253.727C685.657 203.879 647.085 152.334 617.938 97.5572C589.431 44.2082 570.059 -13.5691 560.357 -74.1625C553.679 -116.186 552.779 -153.364 557.606 -187.817C565.841 -246.525 594.215 -305.75 639.665 -359.096C725.513 -459.856 866.547 -516.256 1007.73 -506.287C1058.39 -502.751 1108.83 -491.385 1156.92 -473.264L1157.4 -474.531C1142.98 -479.988 1128.38 -484.832 1113.68 -489.029L1113.67 -489.022Z" fill="#65B8CB"/>
</g>
<g opacity="0.84">
<path d="M1122.5 -465.721C1085.99 -476.43 1048.87 -483.255 1012.19 -486.007C939.194 -491.532 864.741 -480.105 796.882 -452.958C729.252 -425.899 670.671 -384.253 627.473 -332.515C606.202 -307.037 588.574 -279.912 575.079 -251.894C560.659 -221.956 551.058 -191.16 546.54 -160.354C541.393 -125.221 541.858 -88.0151 547.965 -46.6123C552.367 -16.9668 559.366 12.444 568.763 40.7996C578.405 69.894 590.672 98.1718 605.226 124.851C634.785 179.227 674.253 230.068 712.425 279.237C740.503 315.403 769.538 352.804 794.092 391.002C822.54 434.968 841.192 475.374 851.115 514.529C865.642 571.85 861.616 630.909 839.478 685.325C815.638 743.901 771.35 797.289 711.4 839.712C702.559 845.953 693.325 851.981 683.951 857.628C641.642 883.087 593.793 904.458 528.799 926.92C479.771 943.804 428.012 958.963 377.957 973.626C345.636 983.092 312.215 992.882 279.79 1003.06C221.885 1021.27 176.78 1039.27 137.846 1059.7C101.691 1078.67 71.1704 1100.1 47.1307 1123.4C33.8953 1136.23 22.3032 1149.92 12.6804 1164.1C2.51324 1179.09 -5.75949 1195.06 -11.904 1211.58C-17.3781 1226.32 -21.1266 1241.89 -23.0481 1257.86C-24.9403 1273.58 -25.0665 1289.72 -23.42 1305.81C-21.7765 1321.87 -18.3697 1337.91 -13.2906 1353.47C-8.15613 1369.2 -1.30635 1384.47 7.07046 1398.86C28.1458 1435.06 60.5396 1466.58 100.747 1490.03C130.979 1507.63 165.689 1521.09 204.162 1530.16L204.738 1528.66C166.334 1519.63 131.698 1506.21 101.547 1488.66C61.5744 1465.35 29.3805 1434.02 8.44112 1398.06C-25.1596 1340.35 -32.2079 1270.84 -10.4162 1212.13C11.9297 1152.08 62.0648 1101.26 138.582 1061.11C177.431 1040.73 222.449 1022.76 280.263 1004.58C312.675 994.406 346.088 984.616 378.401 975.152C428.473 960.484 480.249 945.32 529.315 928.422C559.573 917.964 585.785 907.854 609.44 897.509C637.289 885.334 661.93 872.732 684.771 858.989C694.178 853.325 703.446 847.274 712.319 841.007C741.131 820.619 766.622 797.4 788.089 771.997C810.918 744.976 828.706 716.017 840.953 685.921C841.644 684.221 842.319 682.522 842.977 680.81C852.804 655.247 858.746 628.694 860.649 601.807C862.709 572.673 860.024 543.176 852.662 514.134C847.294 492.948 839.638 471.997 829.254 450.079C820.116 430.789 809.053 411.183 795.435 390.134C770.844 351.877 741.786 314.45 713.688 278.257C675.556 229.141 636.123 178.35 606.628 124.087C577.726 71.1052 558.521 13.5912 549.545 -46.852C543.462 -88.098 542.997 -125.149 548.121 -160.129C556.832 -219.537 584.699 -278.795 628.703 -331.501C716.837 -437.058 863.741 -495.658 1012.08 -484.429C1058.83 -480.919 1105.32 -470.973 1150.04 -455.374L1150.55 -456.701C1141.26 -459.961 1131.91 -462.974 1122.51 -465.728L1122.5 -465.721Z" fill="#65B8CB"/>
</g>
<g opacity="0.88">
<path d="M1131.33 -442.419C1093.36 -453.83 1054.74 -461.165 1016.56 -464.216C940.367 -470.342 862.771 -458.736 792.167 -430.653C721.502 -402.545 660.737 -359.077 616.447 -304.954C573.726 -252.753 546.25 -193.182 536.985 -132.687C531.599 -97.4953 531.633 -59.351 537.078 -19.3106C541.125 10.2537 547.902 39.5717 557.222 67.8282C566.785 96.8145 579.11 124.942 593.856 151.426C623.771 205.298 664.108 255.391 703.116 303.832C731.766 339.409 761.39 376.2 786.319 413.873C815.187 457.271 834.108 497.342 844.164 536.372C858.716 592.842 854.87 651.661 833.054 706.458C809.635 765.258 766.279 819.229 707.67 862.539C698.956 868.966 689.862 875.177 680.636 880.994C638.664 907.444 589.883 930.312 527.117 952.953C472.015 972.776 413.527 989.91 356.962 1006.47C331.46 1013.94 305.087 1021.67 279.409 1029.53C242.383 1040.88 187.368 1058.92 137.318 1084.37C100.784 1102.79 69.9661 1123.7 45.7221 1146.51C32.3374 1159.1 20.6123 1172.59 10.8791 1186.59C0.583207 1201.39 -7.78647 1217.23 -14.0238 1233.62C-19.564 1248.25 -23.3656 1263.72 -25.3142 1279.6C-27.2343 1295.25 -27.3659 1311.31 -25.7068 1327.34C-22.3749 1359.53 -11.7297 1391.55 5.08054 1419.94C25.2843 1454.05 55.7722 1483.98 93.2475 1506.47C124.064 1524.95 159.13 1538.6 197.63 1547.13L198.232 1545.56C159.812 1537.07 124.83 1523.47 94.1005 1505.05C56.8593 1482.69 26.5701 1452.97 6.50793 1419.09C-27.4902 1361.67 -34.5867 1292.56 -12.4699 1234.21C-12.3639 1233.93 -12.2603 1233.66 -12.1543 1233.38C10.8795 1173.47 60.0312 1125.2 138.074 1085.85C188.009 1060.46 242.933 1042.45 279.9 1031.11C305.569 1023.26 331.935 1015.53 357.432 1008.07C414.018 991.494 472.531 974.355 527.68 954.513C590.562 931.828 639.447 908.912 681.522 882.395C690.783 876.554 699.911 870.323 708.656 863.872C736.918 842.988 761.926 819.322 782.982 793.533C805.24 766.274 822.605 737.182 834.595 707.072C845.432 679.862 851.921 651.653 853.896 623.23C855.917 594.092 853.183 564.73 845.769 535.959C840.331 514.86 832.579 494.053 822.064 472.349C812.786 453.197 801.544 433.769 787.703 412.955C762.732 375.218 733.082 338.399 704.407 302.79C665.442 254.402 625.152 204.368 595.305 150.618C566.008 98.003 546.97 40.7519 538.719 -19.5375C533.294 -59.4193 533.261 -97.4048 538.621 -132.441C547.838 -192.641 575.193 -251.935 617.723 -303.907C708.048 -414.284 860.82 -475.078 1016.42 -462.569C1059.24 -459.147 1101.8 -450.5 1143.04 -437.199L1143.57 -438.594C1139.5 -439.917 1135.42 -441.195 1131.33 -442.425L1131.33 -442.419Z" fill="#65B8CB"/>
</g>
<g opacity="0.92">
<path d="M1020.92 -442.429C941.516 -449.158 860.774 -437.38 787.424 -408.369C713.701 -379.21 650.763 -333.919 605.42 -277.393C564.2 -226.013 537.234 -166.408 527.435 -105.022C521.73 -69.2604 521.314 -31.2376 526.199 7.99099C529.886 37.4759 536.445 66.7024 545.687 94.8553C555.169 123.734 567.553 151.71 582.494 178.002C612.765 231.369 653.969 280.71 693.815 328.424C723.037 363.415 753.252 399.597 778.553 436.743C807.841 479.585 827.032 519.318 837.224 558.213C851.797 613.825 848.146 672.395 826.644 727.589C803.644 786.643 761.217 841.203 703.953 885.361C695.376 891.969 686.42 898.358 677.334 904.355C635.206 932.14 586.942 955.854 525.446 978.984C464.412 1001.9 399.259 1020.86 336.251 1039.2C317.458 1044.68 298.027 1050.33 279.043 1055.99C218.897 1073.96 175.029 1090.32 136.806 1109.04C118.983 1117.72 102.429 1126.99 87.5995 1136.6C71.593 1146.97 57.0457 1158.1 44.3587 1169.67C30.8107 1182.03 18.9466 1195.29 9.10419 1209.09C-1.32694 1223.71 -9.81752 1239.38 -16.1271 1255.67C-16.1764 1255.79 -16.2233 1255.92 -16.2726 1256.04C-38.7429 1314.5 -31.5085 1383.62 3.1058 1441.01C22.4291 1473.06 51.0124 1501.38 85.7629 1522.92C102.027 1532.99 119.687 1541.67 138.253 1548.74C155.195 1555.19 172.974 1560.32 191.15 1564.01L191.78 1562.37C153.384 1554.62 118.04 1540.86 86.6734 1521.45C52.1545 1500.05 23.7711 1471.93 4.58621 1440.12C-29.7559 1383.17 -36.938 1314.63 -14.6563 1256.67C-14.6082 1256.54 -14.5601 1256.42 -14.512 1256.29C8.52179 1196.85 58.2668 1149.2 137.57 1110.6C175.71 1091.92 219.497 1075.59 279.545 1057.66C298.522 1051.99 317.951 1046.34 336.741 1040.87C399.779 1022.52 464.964 1003.54 526.059 980.607C587.676 957.432 636.05 933.661 678.289 905.805C687.409 899.788 696.401 893.372 705.013 886.74C732.724 865.369 757.246 841.259 777.895 815.074C799.578 787.579 816.524 758.359 828.259 728.225C838.892 700.929 845.25 672.814 847.169 644.652C849.154 615.511 846.373 586.282 838.902 557.783C833.397 536.773 825.545 516.111 814.898 494.618C805.478 475.603 794.059 456.357 779.989 435.775C754.641 398.559 724.399 362.345 695.149 327.321C655.35 279.666 614.199 230.386 584.002 177.153C554.31 124.905 535.442 67.9219 527.919 7.77952C523.052 -31.2873 523.465 -69.1492 529.148 -104.746C538.899 -165.838 565.743 -225.162 606.774 -276.309C699.197 -391.522 857.837 -454.511 1020.78 -440.705C1059.65 -437.423 1098.29 -429.971 1135.96 -418.75L1136.52 -420.225C1098.27 -431.712 1059.4 -439.177 1020.93 -442.426L1020.92 -442.429Z" fill="#65B8CB"/>
</g>
<g opacity="0.96">
<path d="M1025.13 -418.852C1060.05 -415.756 1094.76 -409.406 1128.77 -400.066L1129.36 -401.618C1094.83 -411.187 1059.91 -417.577 1025.29 -420.643C942.655 -427.979 858.752 -416.032 782.652 -386.101C705.849 -355.892 640.747 -308.772 594.391 -249.833C554.709 -199.379 528.251 -139.737 517.879 -77.3568C511.835 -41.0007 510.973 -3.10127 515.311 35.2913C518.643 64.6948 524.979 93.8286 534.146 121.879C543.549 150.649 555.99 178.475 571.127 204.576C601.756 257.441 643.827 306.03 684.516 353.019C714.306 387.422 745.108 422.994 770.783 459.618C800.494 501.916 819.954 541.311 830.276 580.06C844.861 634.808 841.385 693.133 820.222 748.729C797.634 808.063 756.135 863.214 700.222 908.195C691.774 914.985 682.957 921.556 674.019 927.724C632.38 956.44 583.229 981.724 523.768 1005.02C456.938 1031.17 385.167 1051.81 315.762 1071.76C303.59 1075.26 291.006 1078.88 278.678 1082.46C237.819 1094.34 184.716 1110.91 136.293 1133.71C55.6509 1171.57 5.10329 1218.67 -18.2365 1277.71C-29.5127 1306.26 -33.683 1338.32 -30.2921 1370.44C-26.908 1402.48 -16.0445 1434.17 1.12385 1462.09C19.5578 1492.06 46.232 1518.78 78.2647 1539.36C108.655 1558.86 143.792 1572.86 179.878 1579.85L180.218 1578.08C144.354 1571.14 109.433 1557.23 79.2327 1537.85C47.4272 1517.42 20.9452 1490.9 2.65211 1461.15C-32.2058 1404.48 -39.3836 1336.15 -16.5666 1278.37C6.59735 1219.78 56.8467 1173 137.053 1135.34C185.364 1112.59 238.384 1096.06 279.176 1084.19C291.5 1080.61 304.085 1076.99 316.255 1073.49C385.701 1053.53 457.511 1032.88 524.422 1006.7C584.017 983.352 633.284 958.006 675.039 929.209C684.016 923.016 692.869 916.418 701.35 909.6C728.507 887.751 752.543 863.192 772.787 836.605C793.671 809.178 810.071 780.153 821.539 750.321C821.661 750.004 821.782 749.69 821.904 749.372C832.328 721.988 838.557 693.96 840.418 666.07C842.364 636.929 839.534 607.836 832.013 579.601C826.441 558.679 818.488 538.163 807.709 516.88C798.149 498.01 786.552 478.942 772.255 458.586C746.529 421.891 715.694 386.281 685.876 351.845C645.244 304.922 603.229 256.396 572.682 203.68C542.597 151.804 523.893 95.0823 517.098 35.0948C512.778 -3.13277 513.638 -40.8667 519.652 -77.0577C529.972 -139.138 556.306 -198.497 595.802 -248.717C688.802 -366.961 857.321 -433.739 1025.13 -418.846L1025.13 -418.852Z" fill="#65B8CB"/>
</g>
<path d="M1029.48 -396.988C1060.21 -394.147 1090.98 -388.696 1121.39 -380.87L1122.12 -382.769C1091.38 -390.615 1060.41 -396.006 1029.65 -398.851C943.775 -406.794 856.701 -394.69 777.852 -363.85C697.945 -332.596 630.693 -283.637 583.367 -222.27C559.387 -191.175 540.293 -156.299 526.61 -118.609C513.162 -81.5584 505.203 -42.5297 502.961 -2.6101C500.704 37.5686 504.287 77.7805 513.614 116.917C523.211 157.188 538.737 195.622 559.767 231.156C590.755 283.518 633.698 331.352 675.226 377.611C736.733 446.127 800.335 516.976 823.336 601.904C838.566 658.133 833.936 717.66 812.129 774.385C786.789 840.302 738.239 902.421 670.712 951.09C563.268 1028.53 427.12 1066.94 295.453 1104.09C289.73 1105.7 284.016 1107.32 278.308 1108.93C221.293 1125.06 155.546 1145.65 100.224 1176.1C71.1509 1192.1 47.5145 1209.25 27.9745 1228.53C6.38301 1249.83 -9.87339 1273.79 -20.3429 1299.75C-31.7686 1328.09 -36.014 1359.99 -32.6073 1392C-29.2046 1423.99 -18.2229 1455.52 -0.850765 1483.17C16.5142 1510.81 40.9978 1535.73 69.9445 1555.23C98.8879 1574.74 131.777 1588.48 165.056 1594.97L165.414 1593.14C97.644 1579.92 36.081 1538.44 0.731039 1482.18C-34.5967 1425.96 -41.8228 1358.02 -18.6094 1300.45C23.6365 1195.69 149.309 1147.36 278.82 1110.73C284.528 1109.11 290.246 1107.5 295.965 1105.89C361.53 1087.39 429.33 1068.26 493.224 1044.33C527.668 1031.43 558.105 1018.26 586.275 1004.06C617.953 988.087 645.931 971.257 671.807 952.607C700.213 932.136 725.956 908.547 748.325 882.494C771.32 855.713 790.155 826.998 804.305 797.152C819.157 765.823 828.602 733.719 832.378 701.729C836.391 667.718 833.957 633.966 825.142 601.417C819.581 580.885 811.689 560.816 801.013 540.062C791.501 521.572 779.976 502.947 765.779 483.126C739.413 446.318 707.491 410.757 676.618 376.365C635.149 330.173 592.271 282.408 561.377 230.203C477.079 87.7647 486.511 -93.6112 584.847 -221.131C679.732 -344.173 854.261 -413.201 1029.48 -396.994L1029.48 -396.988Z" fill="#65B8CB"/>
</g>
</svg>
