<svg width="104" height="104" viewBox="0 0 104 104" fill="none" xmlns="http://www.w3.org/2000/svg">
<circle cx="52" cy="52" r="52" fill="#606EB2"/>
<path fill-rule="evenodd" clip-rule="evenodd" d="M31.7534 59.8922C31.5323 59.8922 31.3228 59.7608 31.2331 59.5437C29.4682 55.265 29.1561 50.4458 30.3542 45.9753C34 32.3704 49.6835 26.0802 61.7047 33.2636C62.3409 33.6439 61.7635 34.6091 61.1278 34.2297C49.7062 27.4142 34.8961 33.3713 31.4412 46.2661C30.3069 50.4998 30.6023 55.0634 32.2732 59.1151C32.4264 59.4866 32.1466 59.8922 31.7531 59.8922H31.7534Z" fill="white"/>
<path fill-rule="evenodd" clip-rule="evenodd" d="M55.2336 34.6499C54.5141 34.6499 54.4818 33.5657 55.2026 33.5257L60.4122 33.2386L57.559 28.8707C57.154 28.2509 58.097 27.6358 58.5009 28.2556L61.8874 33.4394C62.1234 33.8011 61.8784 34.2848 61.4473 34.309L55.2336 34.6499Z" fill="white"/>
<path fill-rule="evenodd" clip-rule="evenodd" d="M51.3058 72.7271C49.3359 72.7276 47.3356 72.4728 45.3444 71.9387C44.6283 71.7472 44.9208 70.6579 45.6352 70.8523C57.3155 73.9815 69.3649 67.0247 72.4952 55.3444C73.7465 50.675 73.4062 45.6479 71.537 41.1896C71.2515 40.5098 72.2888 40.0741 72.5745 40.7545C74.5394 45.4415 74.8971 50.7259 73.5817 55.6352C70.8254 65.9236 61.4848 72.726 51.306 72.7268L51.3058 72.7271Z" fill="white"/>
<path fill-rule="evenodd" clip-rule="evenodd" d="M50.1817 75.9991C50.0515 75.9991 49.921 75.9541 49.8149 75.8625L45.1239 71.8212C44.7954 71.5382 44.8987 71.0064 45.3051 70.8641L51.1503 68.8219C51.8501 68.5786 52.2193 69.6398 51.5213 69.8839L46.596 71.6046L50.549 75.01C50.9458 75.3517 50.6969 75.9991 50.1817 75.9991Z" fill="white"/>
<path fill-rule="evenodd" clip-rule="evenodd" d="M48.5195 64.0226C48.1659 64.0226 47.8962 63.6972 47.9688 63.3457L49.7508 54.7324L45.1144 54.918C44.7516 54.9357 44.4692 54.5999 44.5403 54.2449L47.325 40.4285C47.3776 40.1661 47.6085 39.9774 47.8765 39.9774H57.1949C57.605 39.9774 57.8778 40.4057 57.7051 40.7772L53.7924 49.1878H58.908C59.3696 49.1878 59.6354 49.7219 59.3561 50.0897L48.9675 63.8002C48.8587 63.9439 48.691 64.0229 48.5192 64.0229L48.5195 64.0226ZM50.4472 53.5792C50.8027 53.5792 51.0701 53.9077 50.9981 54.2562L49.5747 61.1364L57.7766 50.3133L52.9104 50.3131C52.5003 50.3131 52.2275 49.885 52.4005 49.5132L56.3132 41.1021L48.3372 41.1024L45.7849 53.7657L50.4475 53.5795L50.4472 53.5792Z" fill="white"/>
</svg>
