<svg width="104" height="104" viewBox="0 0 104 104" fill="none" xmlns="http://www.w3.org/2000/svg">
<circle cx="52" cy="52" r="52" fill="#A4DBE8"/>
<path d="M33.6926 61.4061C31.5089 57.0844 30.9218 52.1411 32.0333 47.435C33.1449 42.7289 35.8849 38.5574 39.7773 35.6453C43.6697 32.7332 48.4684 31.2644 53.3399 31.4942C58.2114 31.7241 62.8477 33.6379 66.4433 36.9033L64.3108 39.1719L71.0169 40.312L69.4857 33.6659L67.459 35.823C63.6072 32.3239 58.6404 30.2725 53.4212 30.0253C48.2021 29.778 43.0604 31.3505 38.8895 34.4696C34.7186 37.5886 31.7819 42.0572 30.5897 47.0989C29.3975 52.1406 30.025 57.4369 32.3633 62.0678L33.6926 61.4061Z" fill="#383E4A"/>
<path d="M70.3752 42.5938C72.5193 46.9156 73.0957 51.8589 72.0043 56.565C70.9129 61.2711 68.2228 65.4426 64.4012 68.3547C60.5796 71.2668 55.868 72.7356 51.0851 72.5057C46.3022 72.2759 41.7502 70.3621 38.2199 67.0967L40.3137 64.8281L33.7295 63.6879L35.2314 70.3341L37.2228 68.177C41.0045 71.6761 45.881 73.7275 51.0053 73.9747C56.1295 74.2219 61.1777 72.6494 65.2728 69.5304C69.3679 66.4113 72.2511 61.9428 73.4217 56.9011C74.5922 51.8594 73.9761 46.5631 71.6804 41.9322L70.3752 42.5938Z" fill="#383E4A"/>
<path d="M52.3296 38.9492L44.6045 48.8194C43.3448 50.4991 42.6787 52.4998 42.6787 54.6049C42.6787 60.1712 46.9987 64.3051 52.3294 64.3051C57.6508 64.3051 61.98 59.9536 61.98 54.6049C61.98 52.4998 61.3142 50.4991 60.0542 48.8194L52.3296 38.9492ZM52.3296 62.8204C47.7504 62.8204 44.1634 59.2117 44.1634 54.6049C44.1634 52.8259 44.7252 51.1356 45.788 49.716L52.3296 41.3582L58.8709 49.716C59.9337 51.1356 60.4955 52.8259 60.4955 54.6049C60.4955 59.1349 56.8321 62.8204 52.3296 62.8204Z" fill="#383E4A"/>
<path d="M53.0713 45.0587L47.3555 55.3472H51.5866V61.1816L57.3025 50.8932H53.0713V45.0587ZM54.7791 52.3779L53.0713 55.4518V53.8626H49.8788L51.5866 50.7885V52.3779H54.7791Z" fill="#383E4A"/>
</svg>
