<svg width="104" height="104" viewBox="0 0 104 104" fill="none" xmlns="http://www.w3.org/2000/svg">
<circle cx="52" cy="52" r="52" fill="#A1D884"/>
<path d="M67.1797 53.29L60.1197 47.29C59.4597 46.75 58.6897 46.38 57.8897 46.22L55.7917 45.788C55.4867 44.839 54.8457 44.05 53.9997 43.556V31.09C53.9997 29.94 53.0597 29 51.9097 29C50.8897 29 50.0297 29.73 49.8597 30.72L48.1997 39.81C48.0497 40.63 48.1097 41.48 48.3697 42.29L49.0497 44.322C48.4067 45.03 48.0047 45.959 48.0007 46.987L37.2197 53.22C36.2197 53.8 35.8797 55.08 36.4597 56.09C36.8497 56.75 37.5497 57.13 38.2697 57.13C38.4997 57.13 38.7397 57.09 38.9697 57L47.6697 53.88C48.1957 53.7 48.6807 53.42 49.1147 53.069L48.0607 69H43.9987C41.7927 69 39.9987 70.794 39.9987 73C39.9987 74.103 40.8957 75 41.9987 75H61.9987C63.1017 75 63.9987 74.103 63.9987 73C63.9987 70.794 62.2047 69 59.9987 69H55.9377L54.7457 50.903L64.7797 56.69C65.0997 56.87 65.4597 56.97 65.8197 56.97C65.9997 56.97 66.1897 56.94 66.3697 56.89C66.9097 56.75 67.3597 56.4 67.6397 55.92C68.1397 55.05 67.9497 53.94 67.1797 53.29ZM49.9997 47C49.9997 45.897 50.8967 45 51.9997 45C53.1027 45 53.9997 45.897 53.9997 47C53.9997 48.103 53.1027 49 51.9997 49C50.8967 49 49.9997 48.103 49.9997 47ZM50.1597 40.17L51.8297 31.07C51.8397 30.98 51.9997 31 51.9997 31.09V43C51.5747 43 51.1727 43.084 50.7877 43.208L50.2697 41.66C50.1097 41.17 50.0697 40.66 50.1597 40.17ZM46.9997 52L38.2797 55.12C38.2597 55.13 38.2097 55.11 38.1897 55.08C38.1597 55.04 38.1797 54.98 38.2197 54.96L48.5507 48.99C48.7587 49.349 49.0147 49.671 49.3197 49.948L48.2297 51.169C47.8997 51.549 47.4697 51.83 46.9997 52ZM61.9997 73H41.9997C41.9997 71.897 42.8967 71 43.9997 71H59.9997C61.1027 71 61.9997 71.897 61.9997 73ZM50.0657 69L51.2657 50.926C51.5047 50.97 51.7477 51 51.9997 51C52.2517 51 52.4967 50.97 52.7367 50.926L53.9337 69H50.0657ZM65.8997 54.92C65.8797 54.96 65.8197 54.97 65.7797 54.95L55.4487 48.99C55.6527 48.638 55.8147 48.26 55.9037 47.851L57.4997 48.18C57.9797 48.28 58.4397 48.5 58.8297 48.82L65.8797 54.81C65.9197 54.84 65.9197 54.89 65.8997 54.92Z" fill="#383E4A"/>
<path d="M58.2174 41.965C58.6574 42.508 59.0244 43.107 59.3084 43.746C59.4744 44.118 59.8394 44.34 60.2224 44.34C60.3584 44.34 60.4964 44.312 60.6284 44.253C61.1324 44.028 61.3594 43.438 61.1354 42.933C60.7804 42.135 60.3214 41.386 59.7714 40.707C59.2214 40.029 58.5844 39.424 57.8774 38.91C57.4304 38.586 56.8054 38.685 56.4804 39.131C56.1554 39.578 56.2544 40.203 56.7014 40.528C57.2664 40.939 57.7764 41.423 58.2164 41.966L58.2174 41.965Z" fill="#383E4A"/>
<path d="M57.4482 36.308C58.9992 37.099 60.3862 38.241 61.4562 39.612C62.5272 40.983 63.3012 42.605 63.6932 44.3C63.7992 44.762 64.2112 45.075 64.6662 45.075C64.7412 45.075 64.8162 45.067 64.8922 45.049C65.4302 44.925 65.7662 44.388 65.6412 43.85C65.1842 41.871 64.2822 39.98 63.0322 38.38C61.7822 36.78 60.1652 35.447 58.3562 34.525C57.8622 34.273 57.2622 34.47 57.0112 34.962C56.7612 35.454 56.9562 36.057 57.4482 36.308Z" fill="#383E4A"/>
<path d="M43.0125 42.616C42.6295 43.402 42.3515 44.235 42.1845 45.092C42.0795 45.634 42.4335 46.159 42.9755 46.264C43.0395 46.277 43.1035 46.283 43.1665 46.283C43.6355 46.283 44.0545 45.951 44.1465 45.473C44.2795 44.787 44.5025 44.121 44.8085 43.494C45.1165 42.864 45.5035 42.278 45.9615 41.752C46.3245 41.335 46.2805 40.704 45.8635 40.341C45.4465 39.978 44.8155 40.021 44.4525 40.439C43.8805 41.097 43.3955 41.829 43.0115 42.616H43.0125Z" fill="#383E4A"/>
<path d="M38.9734 47.546C38.9854 47.546 38.9974 47.546 39.0094 47.546C39.5454 47.546 39.9894 47.121 40.0084 46.581C40.0694 44.841 40.5194 43.102 41.3094 41.552C42.1004 40.001 43.2424 38.614 44.6134 37.544C45.0484 37.204 45.1254 36.576 44.7854 36.14C44.4454 35.705 43.8174 35.628 43.3814 35.968C41.7814 37.218 40.4484 38.835 39.5264 40.644C38.6044 42.453 38.0804 44.482 38.0084 46.511C37.9894 47.063 38.4224 47.526 38.9734 47.546Z" fill="#383E4A"/>
</svg>
