<svg width="104" height="104" viewBox="0 0 104 104" fill="none" xmlns="http://www.w3.org/2000/svg">
<circle cx="52" cy="52" r="52" fill="#9B2242"/>
<path d="M33.2236 61.414C31.0255 57.0248 30.4346 52.0042 31.5535 47.2246C32.6723 42.4449 35.4302 38.2082 39.348 35.2506C43.2658 32.293 48.096 30.8013 52.9993 31.0347C57.9026 31.2681 62.5692 33.2119 66.1883 36.5283L64.0418 38.8323L70.7918 39.9903L69.2506 33.2403L67.2106 35.431C63.3337 31.8773 58.3344 29.7939 53.0811 29.5428C47.8279 29.2917 42.6526 30.8887 38.4544 34.0565C34.2563 37.2243 31.3004 41.7627 30.1004 46.8832C28.9004 52.0037 29.532 57.3828 31.8856 62.086L33.2236 61.414Z" fill="white"/>
<path d="M70.7782 42.586C72.9762 46.9753 73.5672 51.9958 72.4483 56.7755C71.3295 61.5551 68.5716 65.7918 64.6538 68.7494C60.736 71.7071 55.9058 73.1988 51.0025 72.9654C46.0992 72.7319 41.4326 70.7882 37.8135 67.4718L39.96 65.1678L33.21 64.0098L34.7497 70.7598L36.7912 68.569C40.6681 72.1228 45.6674 74.2062 50.9207 74.4573C56.1739 74.7084 61.3492 73.1113 65.5473 69.9435C69.7455 66.7757 72.7014 62.2374 73.9014 57.1168C75.1014 51.9963 74.4698 46.6172 72.1162 41.914L70.7782 42.586Z" fill="white"/>
<path d="M48.8701 48.8635C44.4548 45.3962 37.4701 46.2385 37.4701 46.2385C37.4701 46.2385 36.5086 54.175 40.7971 58.462C42.5389 60.0821 44.7243 61.1459 47.0738 61.5175C47.0258 61.1605 46.9546 60.5462 46.9028 59.7527C46.8601 59.0027 46.8421 58.108 46.8781 57.1352C45.5363 55.4147 44.2043 53.6852 43.0118 51.802C44.4368 52.6937 45.7718 53.6815 47.0843 54.691C47.3301 52.6581 47.9347 50.685 48.8701 48.8635Z" fill="white"/>
<path d="M50.6455 61.825C53.7242 61.9975 59.5525 61.7935 63.055 58.291C67.9562 53.3897 66.385 43.855 66.385 43.855C66.385 43.855 56.8502 42.28 51.934 47.185C48.415 50.7025 48.2267 56.608 48.4 59.656C49.9712 58.1162 51.652 56.7182 53.35 55.273C55.423 53.6395 57.4652 51.9902 59.725 50.548C58.2607 52.7528 56.6836 54.8806 55 56.923C53.5832 58.588 52.201 60.2687 50.6455 61.825Z" fill="white"/>
</svg>
