<svg width="104" height="104" viewBox="0 0 104 104" fill="none" xmlns="http://www.w3.org/2000/svg">
<circle cx="52" cy="52" r="52" fill="#FDD26E"/>
<g clip-path="url(#clip0_301_143)">
<path d="M52.0012 36.5496C43.4817 36.5496 36.5508 43.4805 36.5508 52.0001C36.5508 60.5196 43.4817 67.4505 52.0012 67.4505C60.5208 67.4505 67.4517 60.5196 67.4517 52.0001C67.4517 43.4805 60.5208 36.5496 52.0012 36.5496ZM52.0012 64.6413C45.0308 64.6413 39.36 58.9705 39.36 52.0001C39.36 45.0296 45.0308 39.3588 52.0012 39.3588C58.9717 39.3588 64.6425 45.0296 64.6425 52.0001C64.6425 58.9705 58.9717 64.6413 52.0012 64.6413Z" fill="#383E4A"/>
<path d="M34.7393 57.372L31.5605 63.8005L38.717 64.2619L38.898 61.459L35.9467 61.2685L37.2573 58.6172L34.7393 57.372Z" fill="#383E4A"/>
<path d="M72.4399 40.1996L65.2834 39.7378L65.1025 42.5411L68.0538 42.7316L66.7432 45.3826L69.2612 46.6277L72.4399 40.1996Z" fill="#383E4A"/>
<path d="M42.7321 35.9468L45.3831 37.2575L46.6282 34.7394L40.2001 31.5607L39.7383 38.7172L42.5416 38.8981L42.7321 35.9468Z" fill="#383E4A"/>
<path d="M61.2686 68.0533L58.6172 66.7426L57.3721 69.2607L63.8005 72.4394L64.262 65.2829L61.459 65.102L61.2686 68.0533Z" fill="#383E4A"/>
<path d="M38.717 39.7378L31.5605 40.1996L34.7393 46.6277L37.2573 45.3826L35.9467 42.7316L38.898 42.5411L38.717 39.7378Z" fill="#383E4A"/>
<path d="M65.2834 64.2619L72.4399 63.8005L69.2612 57.372L66.7432 58.6172L68.0538 61.2685L65.1025 61.459L65.2834 64.2619Z" fill="#383E4A"/>
<path d="M61.459 38.8981L64.262 38.7172L63.8005 31.5607L57.3721 34.7394L58.6172 37.2575L61.2686 35.9468L61.459 38.8981Z" fill="#383E4A"/>
<path d="M42.5416 65.102L39.7383 65.2829L40.2001 72.4394L46.6282 69.2607L45.3831 66.7426L42.7321 68.0533L42.5416 65.102Z" fill="#383E4A"/>
<path d="M35.8903 53.618L33.3015 52L35.8903 50.3817L34.4012 47.9999L28.001 52L34.4012 56.0002L35.8903 53.618Z" fill="#383E4A"/>
<path d="M68.1113 50.3817L70.7001 52L68.1113 53.618L69.6003 56.0002L76.0006 52L69.6003 47.9999L68.1113 50.3817Z" fill="#383E4A"/>
<path d="M50.3828 35.8893L52.0011 33.3006L53.619 35.8893L56.0012 34.4003L52.0011 28L48.001 34.4003L50.3828 35.8893Z" fill="#383E4A"/>
<path d="M50.3828 68.1107L48.001 69.5997L52.0011 76L56.0012 69.5997L53.619 68.1107L52.0011 70.6995L50.3828 68.1107Z" fill="#383E4A"/>
<path d="M55.9071 45.8546L53.7135 44.0994L46.2695 53.4044H51.8879L48.0951 58.1454L50.2887 59.9003L57.7327 50.5956H52.1143L55.9071 45.8546Z" fill="#383E4A"/>
</g>
<defs>
<clipPath id="clip0_301_143">
<rect width="48" height="48" fill="white" transform="translate(28 28)"/>
</clipPath>
</defs>
</svg>
